<svg width="172" height="36" viewBox="0 0 172 36" fill="none" xmlns="http://www.w3.org/2000/svg">
<path d="M3.16406 15.7208C1.8689 15.7208 0.818972 16.7708 0.818972 18.0659C0.818972 19.3611 1.8689 20.411 3.16406 20.411V15.7208ZM170.542 19.7241C171.458 18.8083 171.458 17.3235 170.542 16.4077L155.618 1.48362C154.702 0.567808 153.217 0.567808 152.301 1.48362C151.386 2.39944 151.386 3.88427 152.301 4.80008L165.567 18.0659L152.301 31.3318C151.386 32.2476 151.386 33.7324 152.301 34.6482C153.217 35.564 154.702 35.564 155.618 34.6482L170.542 19.7241ZM3.16406 20.411H168.884V15.7208H3.16406V20.411Z" fill="#4A4A4A"/>
</svg>
