<svg width="164" height="34" viewBox="0 0 164 34" fill="none" xmlns="http://www.w3.org/2000/svg">
<path d="M3 14.7612C1.76353 14.7612 0.761166 15.7635 0.761166 17C0.761166 18.2365 1.76353 19.2388 3 19.2388V14.7612ZM162.794 18.5831C163.668 17.7088 163.668 16.2912 162.794 15.4169L148.546 1.16905C147.672 0.294737 146.254 0.294737 145.38 1.16905C144.506 2.04337 144.506 3.46093 145.38 4.33524L158.045 17L145.38 29.6648C144.506 30.5391 144.506 31.9566 145.38 32.8309C146.254 33.7053 147.672 33.7053 148.546 32.8309L162.794 18.5831ZM3 19.2388H161.211V14.7612H3V19.2388Z" fill="#E3746D"/>
</svg>
