<svg width="607" height="467" viewBox="0 0 607 467" fill="none" xmlns="http://www.w3.org/2000/svg">
<g clip-path="url(#clip0_230_3743)">
<path fill-rule="evenodd" clip-rule="evenodd" d="M425.386 157.528L543.016 108.51C543.016 108.51 566.554 176.248 532.659 223.69C493.647 278.273 395.052 301.125 359.213 269.128C324.09 237.786 281.557 131.956 347.648 69.6603C398.962 21.2766 452.915 41.9598 452.915 41.9598L425.406 157.549L425.386 157.528Z" fill="#BDD0FB"/>
<path d="M422.645 286.518C350.638 286.518 292.059 227.966 292.059 155.994C292.059 84.022 350.638 25.4705 422.645 25.4705C434.045 25.4705 445.364 26.9435 456.294 29.8486C457.604 30.1964 458.402 31.5262 458.075 32.8559L428.417 152.312L540.725 106.281C541.339 106.035 542.035 106.035 542.649 106.281C543.263 106.546 543.754 107.037 544 107.651C550.14 123.036 553.251 139.3 553.251 156.014C553.251 227.987 494.672 286.538 422.665 286.538L422.645 286.518ZM422.645 30.4419C353.381 30.4419 297.032 86.7634 297.032 155.994C297.032 225.225 353.381 281.546 422.645 281.546C491.908 281.546 548.257 225.225 548.257 155.994C548.257 140.773 545.576 125.92 540.274 111.825L425.776 158.756C424.917 159.104 423.914 158.94 423.197 158.326C422.481 157.713 422.174 156.751 422.399 155.851L452.63 34.0221C442.867 31.6284 432.776 30.4214 422.645 30.4214V30.4419Z" fill="black"/>
<path fill-rule="evenodd" clip-rule="evenodd" d="M587.066 465.159H207.281C207.281 465.159 174.573 393.269 164.257 365.793C153.962 338.318 141.784 293.003 143.134 285.658C144.485 278.293 146.716 272.647 146.716 272.647C146.716 272.647 144.363 266.018 145.202 262.847C146.041 259.656 146.716 258.694 146.716 258.694C146.716 258.694 144.526 249.14 146.716 245.867C148.906 242.594 149.357 242.839 149.357 242.839C149.357 242.839 147.248 227.045 158.977 224.55C170.705 222.054 197.989 224.365 195.574 233.797C193.158 243.228 185.176 237.356 181.43 236.804C177.664 236.272 174.86 233.878 171.994 235.863C169.129 237.847 167.471 240.957 167.471 240.957C167.471 240.957 175.433 246.194 181.43 251.513C191.05 260.065 188.041 264.525 188.041 264.525L198.419 263.768C198.419 263.768 199.81 253.191 203.126 249.631C206.442 246.072 213.811 242.103 213.115 246.603C212.439 251.104 211.027 258.04 211.416 263.584C211.805 269.128 211.948 274.099 208.407 280.932C204.866 287.765 199.36 293.187 199.36 293.187C199.36 293.187 210.147 321.624 217.474 334.86C224.781 348.097 239.17 371.44 239.17 371.44C239.17 371.44 250.244 310.331 258.226 297.135C266.209 283.96 285.06 266.714 301.25 260.167C317.44 253.621 321.063 252.25 321.063 252.25C321.063 252.25 319.999 251.35 316.355 248.854C312.692 246.358 305.405 240.18 305.405 240.18C305.405 240.18 296.89 253.15 289.931 251.493C282.972 249.836 280.721 248.67 277.487 243.392C274.253 238.093 269.565 233.96 269.565 233.96C269.565 233.96 256.957 240.855 254.481 231.137C252.004 221.399 262.422 212.622 263.159 203.048C263.896 193.473 262.299 168.371 267.314 156.465C276.156 135.454 314.186 96.5833 361.262 114.423C408.339 132.242 406.906 154.869 411.061 166.837C415.236 178.825 428.111 224.59 456.336 239.811C484.562 255.032 518.866 246.542 525.395 253.396C531.925 260.249 542.2 272.176 536.898 279.787C531.597 287.418 523.697 291.1 523.697 291.1C523.697 291.1 536.653 296.419 535.384 315.609C534.115 334.799 526.132 350.49 526.132 350.49L587.066 465.138V465.159Z" fill="white"/>
<path fill-rule="evenodd" clip-rule="evenodd" d="M342.306 203.928C344.762 203.6 347.014 205.319 347.341 207.753L348.201 214.136C348.528 216.571 346.809 218.801 344.353 219.128C341.897 219.455 339.645 217.737 339.318 215.302L338.458 208.919C338.13 206.485 339.85 204.255 342.306 203.928Z" fill="black"/>
<path fill-rule="evenodd" clip-rule="evenodd" d="M307.267 203.743C309.723 203.416 311.975 205.135 312.302 207.569L313.162 213.952C313.489 216.387 311.77 218.617 309.314 218.944C306.858 219.271 304.606 217.553 304.279 215.118L303.419 208.735C303.091 206.301 304.811 204.071 307.267 203.743Z" fill="black"/>
<path d="M304.257 310.372C303.807 310.372 303.336 310.249 302.927 309.983L278.017 294.148C276.85 293.412 276.523 291.878 277.26 290.711C277.997 289.545 279.532 289.218 280.698 289.954L305.608 305.789C306.775 306.526 307.102 308.06 306.365 309.226C305.894 309.983 305.076 310.372 304.257 310.372Z" fill="black"/>
<path d="M380.665 309.615C379.683 309.615 378.741 309.022 378.352 308.06C377.841 306.792 378.455 305.339 379.724 304.807L409.914 292.553C411.183 292.041 412.636 292.655 413.168 293.923C413.68 295.192 413.066 296.644 411.797 297.176L381.607 309.431C381.3 309.553 380.972 309.615 380.665 309.615Z" fill="black"/>
<path d="M344.823 320.744C343.923 320.744 343.063 320.274 342.613 319.435C341.958 318.228 342.428 316.714 343.636 316.059L401.561 285.126C402.768 284.472 404.283 284.942 404.938 286.149C405.593 287.356 405.122 288.87 403.914 289.525L345.99 320.458C345.621 320.662 345.212 320.744 344.823 320.744Z" fill="black"/>
<path d="M344.048 369.66C343.25 369.66 342.451 369.271 341.96 368.555L319.036 334.083C318.279 332.937 318.586 331.382 319.732 330.625C320.878 329.868 322.434 330.175 323.191 331.321L346.115 365.793C346.873 366.939 346.565 368.494 345.419 369.251C344.989 369.537 344.519 369.66 344.048 369.66Z" fill="#959595"/>
<path d="M604.604 466.98H52.008C50.6776 466.98 49.6133 465.916 49.6133 464.586C49.6133 463.256 50.6776 462.192 52.008 462.192H604.604C605.934 462.192 606.999 463.256 606.999 464.586C606.999 465.916 605.934 466.98 604.604 466.98Z" fill="black"/>
<path fill-rule="evenodd" clip-rule="evenodd" d="M303.171 236.252C303.171 236.252 292.487 248.793 285.036 242.021C277.566 235.249 275.273 227.68 275.273 227.68C275.273 227.68 267.332 231.117 263.504 225.879C256.197 215.896 275.805 206.444 271.487 185.024C267.168 163.604 284.607 134.922 309.168 124.243C331.417 114.566 363.02 99.3043 391.511 130.421C402.421 142.328 408.581 162.684 417.628 191.203C424.69 213.461 439.693 230.216 458.708 241.816C490.228 261.088 509.673 244.026 523.509 251.391C530.059 254.869 538.328 265.977 537.059 274.304C535.811 282.63 525.106 290.241 525.106 290.241C525.106 290.241 538.86 301.657 536.875 316.939C534.89 332.221 525.904 349.427 525.904 349.427C525.904 349.427 486.647 281.567 476.453 272.299C466.281 263.052 429.357 256.423 415.254 253.764C401.152 251.125 395.38 248.833 390.733 242.614C386.087 236.374 382.567 216.714 382.567 216.714C382.567 216.714 409.277 201.78 397.529 188.011C382.587 170.54 378.391 206.546 378.391 206.546C378.391 206.546 352.376 207.508 331.744 196.379C311.113 185.249 293.265 176.248 293.265 176.248C293.265 176.248 289.028 184.022 293.469 200.757C297.89 217.491 303.232 236.231 303.232 236.231L303.171 236.252Z" fill="#5A6C95"/>
<path fill-rule="evenodd" clip-rule="evenodd" d="M527.603 290.834C528.933 292.696 530.591 294.23 531.983 296.215C535.913 301.8 539.126 309.983 538.553 319.926C537.878 331.935 532.556 341.959 527.992 349.815C548.644 387.765 569.542 426.513 588.004 465.977C586.469 465.527 584.422 465.568 582.416 465.588C559.39 419.291 536.711 374.999 511.044 330.503C504.597 319.312 498.641 308.571 491.907 298.015C485.316 287.684 477.661 277.454 467.795 270.519C457.991 263.645 443.52 260.474 428.517 258.162C414.169 255.953 396.403 255.012 388.85 246.399C384.429 241.366 381.748 234.022 380.479 224.877C380.09 222.095 379.394 217.778 380.479 215.712C381.502 213.727 384.183 213.461 385.657 212.52C391.695 208.674 398.49 200.102 394.028 190.793C393.373 189.443 391.9 187.111 390.037 187.009C386.906 186.825 384.716 190.302 383.651 192.185C382.464 194.271 381.563 197.524 381.052 200.552C380.683 202.782 380.765 208.756 379.66 209.922C377.859 211.784 370.674 209.697 367.502 209.124C338.56 203.928 315.534 192.962 294.943 180.032C293.633 207.835 298.299 227.414 311.686 240.814C318.01 247.135 326.443 253.109 339.399 251.166C347.525 249.959 353.318 246.235 358.742 241.203C360.707 239.382 363.981 235.761 365.516 239.218C366.949 242.389 361.709 245.417 360.338 246.583C357.841 248.752 355.364 250.92 352.97 251.964C353.993 254.234 356.94 256.608 357.35 260.536C357.677 263.666 355.835 270.11 352.171 267.512C350.432 266.284 352.233 262.786 351.967 260.945C351.455 257.324 349.203 256.485 347.587 254.562C342.408 256.505 336.145 257.467 329.452 256.362C327.507 256.035 325.44 255.135 323.864 255.175C321.346 255.237 316.639 257.405 314.101 258.367C292.855 266.489 272.694 277.516 261.866 295.437C255.521 305.953 252.615 320.13 249.504 334.287C246.884 346.194 244.816 358.183 241.726 371.153C241.173 373.465 240.129 374.692 238.942 374.733C234.869 374.918 236.834 368.228 237.346 365.773C239.659 354.684 241.828 344.537 244.121 333.899C247.109 320.028 250.425 305.38 256.279 294.639C268.58 272.054 291.627 261.497 316.68 252.004C314.121 249.509 309.618 247.258 307.305 243.842C301.492 248.158 295.639 256.853 285.384 254.193C276.91 252.004 273.308 244.087 268.846 237.459C259.431 242.696 248.255 236.906 250.118 226.104C251.284 219.251 255.562 214.279 257.896 208.572C260.434 202.332 260.475 193.453 260.29 186.047C260.065 176.923 260.249 169.64 262.092 162.929C263.893 156.342 266.451 150.675 269.869 145.397C282.846 125.348 306.016 110.597 335.265 108.735C350.677 107.754 364.698 111.15 375.341 116.305C386.292 121.604 394.683 128.846 400.66 138.42C412.654 157.631 415.684 185.004 427.964 205.973C438.894 224.611 456.251 242.798 481.181 247.626C487.67 248.874 495.468 248.772 502.918 248.015C510.676 247.238 518.065 247.054 523.653 249.815C529.077 252.475 532.515 256.178 535.422 261.763C537.898 266.509 540.252 274.447 538.205 281.096C536.67 286.067 532.638 288.829 527.644 290.855L527.603 290.834ZM533.191 321.726C534.357 312.049 531.267 303.211 526.62 297.626C524.922 295.601 520.337 293.596 520.439 290.445C520.521 287.97 523.059 287.254 525.822 286.067C530.571 284.022 533.641 281.526 533.805 275.716C534.03 266.898 527.582 256.587 520.439 253.805C514.913 251.636 507.728 252.925 502.1 253.416C481.304 255.196 466.629 250.143 453.857 241.653C438.178 231.239 425.979 216.203 417.382 196.624C408.602 176.657 405.409 153.478 394.254 138.236C383.303 123.281 363.019 112.704 337.045 113.932C316.925 114.873 300.305 122.34 287.799 133.06C275.723 143.433 265.346 156.956 265.264 178.293C265.223 187.847 266.492 198.69 263.872 206.976C262.767 210.495 261.027 214.484 259.287 217.942C257.957 220.56 254.58 225.491 255.091 229.296C255.439 231.792 257.998 233.96 260.27 234.267C264.65 234.881 267.904 230.953 270.442 231.485C272.366 231.874 273.062 234.451 274.229 236.456C275.375 238.461 276.808 240.486 277.811 241.837C279.94 244.68 283.603 249.181 288.168 249.406C294.943 249.754 299.671 243.473 303.519 239.443C292.118 225.634 287.922 202.23 289.969 176.882C289.314 175.204 283.215 173.977 283.583 170.499C283.644 169.865 283.992 168.903 284.975 168.514C287.758 167.369 292.671 172.422 294.943 173.895C317.376 188.604 343.82 200.716 375.075 205.176C375.587 197.361 378.063 188.789 382.853 184.656C384.306 183.408 386.578 182.119 388.625 181.874C396.096 180.953 399.555 188.338 400.394 194.026C402.318 207.262 392.78 214.505 385.043 219.128C385.903 229.439 388.441 240.221 395.011 245.028C401.008 249.406 409.461 249.979 417.546 251.207C426.02 252.495 434.514 253.58 442.272 255.196C458.707 258.612 470.333 264.525 480.342 274.529C490.064 284.247 497.024 296.358 504.065 308.203C511.167 320.151 517.942 332.446 525.188 344.66C528.463 338.215 532.085 330.625 533.17 321.747L533.191 321.726Z" fill="black"/>
<path fill-rule="evenodd" clip-rule="evenodd" d="M387.459 195.192C388.401 195.008 390.079 195.397 390.448 196.583C391.226 199.14 388.954 201.35 388.462 202.352C387.746 203.784 386.907 206.321 385.065 206.546C380.316 207.078 382.813 201.861 384.062 199.365C384.901 197.688 385.679 195.54 387.459 195.171V195.192Z" fill="black"/>
<path fill-rule="evenodd" clip-rule="evenodd" d="M335.817 234.431C337.781 233.96 339.153 234.963 339.214 236.62C339.317 240.016 331.457 244.046 327.261 243.187C324.498 242.635 316.74 238.175 320.077 235.024C322.717 232.528 325.562 237.663 328.059 238.011C331.928 238.563 332.828 235.126 335.837 234.431H335.817Z" fill="black"/>
<path fill-rule="evenodd" clip-rule="evenodd" d="M216.533 333.53C216.533 333.53 208.571 361.558 192.565 367.287C176.579 373.015 176.907 369.169 176.907 369.169L216.144 464.197H586.493C586.493 464.197 533.337 366.877 515.366 336.354C497.395 305.81 488.328 276.657 467.266 265.63C446.184 254.623 418.593 252.986 418.593 252.986C418.593 252.986 409.301 265.486 408.216 271.644C407.131 277.823 405.76 288.625 405.76 288.625C405.76 288.625 411.941 289.627 414.807 295.601C417.672 301.575 424.058 314.463 424.058 314.463C424.058 314.463 433.023 306.403 444.629 319.558C456.234 332.712 485.196 381.035 485.196 381.035C485.196 381.035 488.062 392.512 479.527 397.442C471.012 402.372 463.684 401.411 463.684 401.411L330.499 398.956L311.075 374.447C311.075 374.447 265.451 317.798 265.042 313.911C264.633 310.044 270.507 309.39 270.507 309.39C270.507 309.39 269.606 301.493 275.031 296.01C280.455 290.527 290.115 283.94 290.115 283.94L320.306 308.837C320.306 308.837 320.654 287.847 326.16 276.779C331.666 265.732 340.876 255.462 340.876 255.462C340.876 255.462 335.677 256.812 330.499 255.462C325.32 254.112 329.742 255.278 329.742 255.278C329.742 255.278 281.662 270.846 270.118 288.461C258.574 306.096 244.656 379.541 244.656 379.541L216.553 333.53H216.533Z" fill="#191919"/>
<path fill-rule="evenodd" clip-rule="evenodd" d="M217.144 330.912C217.308 337.684 215.2 342.859 212.948 347.851C210.82 352.598 208.036 357.119 204.372 360.597C198.027 366.632 188.898 372.381 177.457 371.562C173.793 371.296 170.641 369.885 167.489 368.166C164.971 366.816 160.366 364.77 160.714 361.783C160.755 361.456 161.553 360.208 162.106 359.983C163.989 359.267 167.243 362.683 168.881 363.563C171.316 364.893 174.612 366.12 176.863 366.346C188.551 367.553 197.986 360.719 203.185 354.787C207.77 349.57 210.799 342.491 212.559 334.86C213.194 332.098 213.624 327.904 217.144 330.871V330.912Z" fill="black"/>
<path fill-rule="evenodd" clip-rule="evenodd" d="M487.26 381.321V383.305C486.462 389.893 483.29 396.337 478.889 400.449C474.488 404.561 468.246 407.917 461.348 407.63C460.611 406.219 460.058 405.809 460.161 404.848C460.447 402.127 465.462 402.475 467.734 401.656C474.795 399.12 480.997 392.225 482.491 385.126C482.798 383.633 482.061 378.579 484.477 378.15C486.544 377.782 487.097 379.439 487.26 381.341V381.321Z" fill="black"/>
<path fill-rule="evenodd" clip-rule="evenodd" d="M167.408 220.131H176.373C183.271 221.031 190.701 222.749 194.713 226.698C198.438 230.38 199.277 238.686 193.321 240.855C184.642 243.985 173.958 233.817 168.596 241.857C173.876 243.658 178.154 246.174 182.35 249.631C185.85 252.495 190.476 256.628 191.315 262.193C191.847 265.732 190.476 268.351 189.33 269.967C188.654 270.908 187.201 271.808 186.935 272.954C186.648 274.243 187.058 275.756 186.935 276.943C186.444 281.28 184.786 283.51 183.537 287.111C182.534 290.016 182.35 291.796 180.938 293.882C179.812 295.56 178.461 297.34 176.353 298.67C170.601 302.291 159.692 300.245 162.394 291.489C159.712 290.057 154.984 290.466 155.414 286.906C155.762 284.022 159.139 284.799 161.8 285.72C164.461 286.64 166.856 287.827 167.572 289.709C168.493 292.082 166.549 293.555 167.961 294.68C170.09 296.399 173.058 294.537 174.531 293.289C187.242 282.569 164.379 268.842 151.996 272.77C142.089 275.92 145.549 294.353 147.8 304.644C149.499 312.315 152.139 321.89 154.575 329.541C168.8 374.161 186.955 413.85 205.008 453.682C206.666 457.323 209.388 460.719 209.798 464.831C208.14 464.034 205.929 463.788 203.616 463.645C190.619 434.615 176.967 404.93 164.952 373.976C155.803 350.429 146.592 327.516 141.823 300.859C140.616 294.169 139.408 286.252 140.82 279.132C141.23 277.066 142.785 274.611 142.806 272.954C142.847 271.235 141.721 268.821 141.619 266.387C141.496 263.686 141.905 261.456 142.806 259.206C141.926 255.482 141.619 252.168 142.601 248.445C143.297 245.806 145.671 243.698 145.999 242.062C146.695 238.523 146.715 235.883 147.8 233.101C150.891 225.102 157.215 221.358 167.327 220.151L167.408 220.131ZM174.593 225.306C161.227 224.631 152.201 228.866 151.464 240.241C155.066 239.239 160.572 239.525 164.031 240.446C164.379 237.07 168.289 233.94 171.809 233.469C178.277 232.61 185.891 237.336 192.134 235.454C193.587 227.782 181.634 225.634 174.593 225.286V225.306ZM181.368 255.585C175.923 250.143 166.774 245.376 158.443 244.824C150.993 244.333 146.613 247.054 147.288 254.194C161.759 247.524 179.669 256.423 185.359 266.755C187.549 262.847 184.09 258.306 181.368 255.605V255.585ZM157.85 256.976C150.543 257.058 144.955 260.822 147.288 269.128C158.28 263.379 173.242 269.333 179.178 276.104C179.894 276.923 180.672 278.887 181.368 278.498C184.254 265.957 169.844 256.853 157.85 256.976Z" fill="black"/>
<path fill-rule="evenodd" clip-rule="evenodd" d="M200.895 293.248C215.959 330.175 235.158 363.522 255.319 396.071C256.384 397.79 260.129 403.354 255.524 403.641C253.334 403.784 251.84 400.368 250.53 398.26C231.187 366.714 211.292 332.999 196.903 297.033C195.471 297.504 193.117 297.585 192.523 295.846C191.848 293.862 194.263 292.041 195.512 290.855C199.769 286.845 204.129 282.364 206.482 276.902C208.468 272.299 208.713 267.553 208.877 262.745C209.061 257.59 210.249 253.334 210.863 248.199C203.883 247.279 202.143 254.93 201.488 261.743C201.222 264.607 201.243 266.857 198.889 266.918C194.468 267.041 196.801 257.753 197.497 254.971C198.868 249.488 201.713 243.248 208.263 242.614C210.617 242.389 214.138 243.044 215.447 245.396C217.331 248.792 214.833 255.278 214.445 259.144C213.892 264.729 214.056 269.66 213.053 273.69C210.965 282.017 206.094 287.602 200.895 293.207V293.248Z" fill="black"/>
<path fill-rule="evenodd" clip-rule="evenodd" d="M536.2 465.998C534.133 466.182 532.536 466.857 530.428 467C516.919 442.164 502.632 417.573 487.179 391.877C479.933 379.848 472.688 367.266 464.848 355.012C461.225 349.345 457.275 343.084 453.489 336.886C449.804 330.871 446.018 323.629 440.921 319.946C432.591 313.911 419.614 319.946 411.222 323.731C404.59 326.738 397.345 329.664 392.678 333.694C390.611 335.474 388.646 337.438 388.891 341.468C390.897 343.678 392.596 342.082 394.275 341.08C404.038 335.249 414.865 329.991 427.371 326.145C430.38 325.224 434.576 324.324 434.351 328.334C434.167 331.546 425.509 333.121 422.786 334.103C414.026 337.274 406.903 340.875 399.269 345.253C396.608 346.787 389.915 350.184 389.894 353.232C389.894 355.85 395.687 358.265 398.061 358.019C399.248 357.896 400.579 356.321 402.257 355.237C409.114 350.777 417.26 347.238 425.181 343.473C427.985 342.143 436.705 336.661 436.95 342.471C437.094 346.01 430.523 347.565 427.781 348.854C419.88 352.577 414.661 354.909 407.456 359.226C405.389 360.474 399.412 363.665 399.473 366.591C399.535 369.251 403.035 369.987 405.45 369.373C406.637 369.066 407.968 367.696 409.626 366.591C416.707 361.886 424.71 359.39 433.942 356.423C437.646 355.237 442.988 352.986 443.111 357.426C443.193 360.76 437.892 361.354 434.74 362.397C427.371 364.873 422.316 366.223 415.807 369.762C413.453 371.051 408.827 373.485 409.032 376.145C409.298 379.664 415.541 377.72 418.202 376.943C425.161 374.918 430.442 373.608 437.728 371.358C440.45 370.519 447.655 367.307 446.693 373.158C446.304 375.572 441.924 376.227 438.915 377.147C435.354 378.232 432.98 378.845 429.746 379.746C420.269 382.344 404.079 389.995 402.83 375.552C396.628 375.081 391.88 370.294 394.07 363.4C387.131 362.581 380.09 353.661 386.292 347.463C381.236 344.271 382.403 336.108 386.087 331.73C390.693 326.288 397.815 323.383 406.023 319.578C414.21 315.773 422.029 312.008 430.749 311.415C437.626 310.945 443.009 313.625 446.693 317C451.503 321.399 455.249 328.396 459.056 334.533C462.965 340.834 466.977 347.074 470.62 352.864C478.398 365.261 485.603 377.986 492.951 390.118C508.752 416.243 522.998 440.854 536.2 466.038V465.998Z" fill="black"/>
<path fill-rule="evenodd" clip-rule="evenodd" d="M206.688 466.202C206.483 466.652 205.439 466.284 204.887 466.407C205.091 465.609 206.094 466.223 206.688 466.202Z" fill="black"/>
<path fill-rule="evenodd" clip-rule="evenodd" d="M447.352 130.155L566.209 79.1733C551.37 41.7143 519.358 12.9296 479.896 2.49591L447.352 130.155Z" fill="#BDD0FB"/>
<path d="M447.351 132.651C446.778 132.651 446.184 132.447 445.734 132.058C445.018 131.444 444.711 130.462 444.936 129.542L477.501 1.88215C477.664 1.24794 478.074 0.69557 478.647 0.34778C479.22 -9.92179e-06 479.916 -0.0818429 480.55 0.081823C520.422 10.6383 553.314 39.8526 568.542 78.2527C569.034 79.5007 568.44 80.9328 567.212 81.4647L448.354 132.447C448.047 132.59 447.699 132.651 447.372 132.651H447.351ZM481.697 5.56463L451.015 125.859L562.975 77.8436C548.279 42.7986 518.171 16.0188 481.676 5.56463H481.697Z" fill="black"/>
<path d="M319.504 48.6087C318.87 48.6087 318.235 48.3632 317.744 47.8722L305.811 35.9656C304.829 34.9836 304.829 33.4083 305.811 32.4467C306.794 31.4852 308.37 31.4647 309.332 32.4467L321.264 44.3534C322.247 45.3354 322.247 46.9107 321.264 47.8722C320.773 48.3632 320.139 48.6087 319.504 48.6087Z" fill="#959595"/>
<path d="M307.571 48.6088C306.937 48.6088 306.302 48.3633 305.811 47.8723C304.829 46.8903 304.829 45.315 305.811 44.3535L317.744 32.4468C318.726 31.4648 320.302 31.4648 321.264 32.4468C322.247 33.4288 322.247 35.004 321.264 35.9656L309.332 47.8723C308.84 48.3633 308.206 48.6088 307.571 48.6088Z" fill="#959595"/>
<path d="M141.167 166.08L147.635 177.455H134.699L141.167 166.08Z" fill="#959595"/>
<path fill-rule="evenodd" clip-rule="evenodd" d="M157.196 165.507C160.409 165.507 163.009 168.146 163.009 171.42C163.009 174.693 160.409 177.332 157.196 177.332C153.982 177.332 151.383 174.693 151.383 171.42C151.383 168.146 153.982 165.507 157.196 165.507Z" fill="#959595"/>
<path d="M553.089 374.427C552.536 374.427 551.983 374.242 551.513 373.874C550.448 372.994 550.284 371.44 551.165 370.376L551.246 370.273C552.127 369.21 553.723 369.026 554.787 369.885C555.852 370.764 556.036 372.299 555.156 373.363L555.033 373.506C554.542 374.099 553.825 374.427 553.109 374.427H553.089ZM559.27 366.346C558.758 366.346 558.267 366.202 557.817 365.875C556.691 365.077 556.445 363.522 557.244 362.397L557.346 362.254C558.144 361.129 559.7 360.863 560.825 361.64C561.951 362.438 562.217 363.993 561.439 365.118L561.317 365.302C560.825 365.977 560.068 366.346 559.29 366.346H559.27ZM564.858 357.855C564.428 357.855 563.978 357.733 563.568 357.487C562.402 356.771 562.013 355.237 562.729 354.071L562.831 353.886C563.548 352.72 565.083 352.352 566.249 353.068C567.416 353.784 567.785 355.319 567.068 356.485L566.966 356.648C566.495 357.426 565.676 357.855 564.837 357.855H564.858ZM569.913 349.038C569.524 349.038 569.136 348.956 568.767 348.751C567.539 348.117 567.068 346.603 567.703 345.396L567.805 345.192C568.46 343.985 569.975 343.535 571.182 344.169C572.39 344.823 572.861 346.337 572.206 347.544L572.124 347.688C571.674 348.547 570.814 349.017 569.913 349.017V349.038ZM574.437 339.934C574.089 339.934 573.741 339.873 573.413 339.709C572.165 339.136 571.592 337.663 572.165 336.415L572.267 336.211C572.84 334.963 574.334 334.41 575.583 335.003C576.831 335.576 577.364 337.07 576.791 338.318L576.729 338.481C576.32 339.402 575.399 339.954 574.457 339.954L574.437 339.934ZM578.448 330.605C578.141 330.605 577.834 330.544 577.548 330.441C576.258 329.95 575.624 328.498 576.136 327.209L576.217 327.004C576.729 325.715 578.182 325.102 579.451 325.613C580.72 326.125 581.355 327.577 580.843 328.846L580.782 329.009C580.393 329.991 579.451 330.605 578.448 330.605ZM581.949 321.071C581.682 321.071 581.416 321.031 581.15 320.949C579.84 320.499 579.144 319.087 579.595 317.798L579.656 317.614C580.106 316.305 581.519 315.609 582.808 316.059C584.118 316.509 584.814 317.921 584.364 319.21L584.302 319.394C583.954 320.437 582.972 321.092 581.949 321.092V321.071ZM584.957 311.374C584.732 311.374 584.487 311.333 584.261 311.272C582.931 310.883 582.174 309.513 582.563 308.183L582.603 308.019C582.972 306.689 584.343 305.912 585.674 306.301C587.004 306.669 587.782 308.04 587.393 309.369L587.332 309.574C587.025 310.658 586.022 311.374 584.937 311.374H584.957ZM587.475 301.534C587.291 301.534 587.086 301.513 586.902 301.472C585.571 301.145 584.732 299.815 585.06 298.465L585.101 298.301C585.408 296.951 586.738 296.112 588.068 296.419C589.419 296.726 590.259 298.056 589.952 299.386L589.911 299.611C589.644 300.756 588.621 301.534 587.495 301.534H587.475ZM589.522 291.591C589.378 291.591 589.215 291.591 589.071 291.55C587.72 291.305 586.82 290.016 587.066 288.645L587.106 288.441C587.352 287.09 588.642 286.19 590.013 286.436C591.364 286.681 592.264 287.97 592.019 289.341L591.978 289.545C591.753 290.752 590.709 291.591 589.522 291.591ZM591.098 281.546C590.975 281.546 590.873 281.546 590.75 281.526C589.378 281.342 588.437 280.073 588.621 278.702V278.539C588.826 277.168 590.074 276.207 591.446 276.391C592.817 276.575 593.779 277.823 593.595 279.173V279.398C593.39 280.646 592.326 281.546 591.098 281.546ZM592.223 271.44C592.223 271.44 592.08 271.44 591.998 271.44C590.627 271.317 589.624 270.11 589.747 268.739V268.535C589.89 267.164 591.098 266.162 592.469 266.284C593.84 266.407 594.843 267.614 594.721 268.985V269.189C594.577 270.478 593.492 271.46 592.223 271.46V271.44ZM592.899 261.313C591.425 261.252 590.361 260.106 590.402 258.735V258.51C590.484 257.139 591.65 256.096 593.022 256.157C594.393 256.219 595.457 257.405 595.376 258.776V258.94C595.314 260.29 594.209 261.333 592.878 261.333L592.899 261.313ZM593.165 251.145C591.753 251.145 590.647 250 590.668 248.629V248.465C590.668 247.094 591.794 245.969 593.165 245.969C594.536 245.969 595.662 247.094 595.662 248.465V248.69C595.662 250.061 594.536 251.145 593.165 251.145ZM593.022 240.977C591.671 240.977 590.566 239.893 590.525 238.543V238.379C590.463 237.009 591.548 235.842 592.919 235.802C594.332 235.761 595.457 236.824 595.498 238.195V238.42C595.539 239.791 594.454 240.937 593.083 240.977C593.063 240.977 593.042 240.977 593.022 240.977ZM592.469 230.83C591.159 230.83 590.074 229.807 589.992 228.498V228.334C589.87 226.964 590.893 225.757 592.264 225.654C593.656 225.552 594.843 226.575 594.946 227.946V228.171C595.048 229.541 594.004 230.728 592.633 230.81C592.571 230.81 592.53 230.81 592.469 230.81V230.83ZM591.528 220.703C590.259 220.703 589.194 219.742 589.051 218.473V218.31C588.867 216.939 589.849 215.712 591.221 215.548C592.592 215.384 593.82 216.366 593.984 217.737V217.962C594.147 219.333 593.165 220.56 591.794 220.703C591.712 220.703 591.609 220.703 591.528 220.703ZM590.197 210.638C588.969 210.638 587.905 209.738 587.741 208.49V208.326C587.495 206.976 588.437 205.687 589.788 205.482C591.139 205.257 592.428 206.198 592.633 207.569L592.674 207.794C592.858 209.165 591.916 210.413 590.545 210.617C590.422 210.617 590.299 210.638 590.197 210.638ZM588.478 200.613C587.291 200.613 586.247 199.775 586.022 198.568L585.981 198.404C585.715 197.054 586.595 195.744 587.946 195.478C589.297 195.212 590.606 196.092 590.873 197.442L590.914 197.667C591.159 199.018 590.259 200.327 588.908 200.572C588.764 200.593 588.601 200.613 588.457 200.613H588.478ZM586.39 190.671C585.264 190.671 584.241 189.893 583.975 188.748L583.934 188.523C583.627 187.172 584.487 185.843 585.817 185.556C587.147 185.249 588.498 186.109 588.785 187.438L588.826 187.602C589.153 188.932 588.314 190.282 586.984 190.609C586.799 190.65 586.595 190.671 586.411 190.671H586.39ZM583.954 180.81C582.87 180.81 581.867 180.094 581.56 178.989L581.498 178.784C581.15 177.455 581.928 176.084 583.258 175.736C584.589 175.388 585.96 176.166 586.308 177.496L586.349 177.659C586.718 178.989 585.94 180.36 584.609 180.728C584.384 180.789 584.159 180.81 583.934 180.81H583.954ZM581.15 171.031C580.086 171.031 579.103 170.356 578.776 169.271L578.715 169.067C578.305 167.757 579.042 166.366 580.372 165.957C581.682 165.548 583.074 166.284 583.484 167.614L583.545 167.798C583.954 169.108 583.217 170.499 581.908 170.908C581.662 170.99 581.416 171.01 581.171 171.01L581.15 171.031ZM578.019 161.354C576.995 161.354 576.033 160.72 575.665 159.697L575.583 159.472C575.153 158.163 575.849 156.751 577.139 156.321C578.448 155.871 579.861 156.587 580.291 157.876L580.332 158.019C580.802 159.308 580.106 160.74 578.817 161.211C578.53 161.313 578.264 161.354 577.978 161.354H578.019ZM574.539 151.8C573.536 151.8 572.595 151.186 572.206 150.204L572.144 150.02C571.653 148.731 572.288 147.299 573.577 146.808C574.867 146.317 576.299 146.951 576.791 148.24L576.852 148.424C577.343 149.713 576.709 151.145 575.419 151.636C575.133 151.759 574.826 151.8 574.519 151.8H574.539ZM570.732 142.369C569.77 142.369 568.849 141.796 568.44 140.855L568.358 140.65C567.826 139.382 568.419 137.929 569.709 137.397C570.978 136.866 572.431 137.459 572.963 138.748L573.024 138.911C573.577 140.18 572.984 141.632 571.714 142.185C571.387 142.328 571.059 142.389 570.732 142.389V142.369ZM566.597 133.081C565.656 133.081 564.776 132.549 564.346 131.649L564.264 131.465C563.691 130.217 564.223 128.744 565.472 128.15C566.72 127.578 568.194 128.109 568.788 129.357L568.869 129.521C569.463 130.769 568.931 132.242 567.682 132.835C567.334 132.999 566.986 133.081 566.618 133.081H566.597ZM562.135 123.936C561.235 123.936 560.355 123.445 559.904 122.565L559.823 122.381C559.209 121.154 559.7 119.66 560.907 119.026C562.135 118.412 563.63 118.883 564.264 120.11L564.346 120.294C564.96 121.522 564.469 123.015 563.241 123.65C562.872 123.834 562.504 123.915 562.115 123.915L562.135 123.936ZM557.346 114.955C556.466 114.955 555.627 114.505 555.176 113.686L555.074 113.523C554.399 112.316 554.828 110.802 556.036 110.127C557.244 109.452 558.758 109.881 559.434 111.088L559.536 111.252C560.211 112.459 559.782 113.973 558.574 114.648C558.185 114.852 557.776 114.955 557.366 114.955H557.346ZM552.188 106.178C551.349 106.178 550.53 105.749 550.059 104.992L549.957 104.828C549.241 103.662 549.589 102.127 550.755 101.391C551.922 100.675 553.457 101.023 554.194 102.189L554.317 102.373C555.033 103.539 554.665 105.073 553.498 105.79C553.089 106.035 552.638 106.158 552.208 106.158L552.188 106.178ZM546.518 97.7085C545.802 97.7085 545.086 97.4016 544.594 96.8083C544.165 96.3583 543.898 95.7445 543.898 95.0694C543.898 93.6987 545.024 92.5735 546.396 92.5735C547.603 92.5735 548.258 93.3918 548.463 93.6373C549.322 94.7011 549.159 96.2764 548.094 97.1357C547.644 97.5039 547.071 97.688 546.539 97.688L546.518 97.7085ZM544.615 96.8288C544.758 96.9925 544.983 97.1561 545.27 97.2993C545.024 97.1766 544.819 97.0129 544.615 96.8288Z" fill="#959595"/>
<path d="M82.9596 202.393C81.9566 202.393 81.0151 201.779 80.6467 200.777L80.6058 200.654C80.1555 199.345 80.8514 197.933 82.1613 197.483C83.4713 197.033 84.8836 197.729 85.3339 199.038C85.8046 200.327 85.1497 201.779 83.8397 202.25C83.5532 202.352 83.2666 202.393 82.9801 202.393H82.9596Z" fill="#959595"/>
<path d="M80.42 192.635C79.2533 192.635 78.2095 191.816 77.9843 190.63L77.9434 190.466C77.6568 189.116 78.5369 187.807 79.8674 187.52C81.2183 187.234 82.5282 188.113 82.8148 189.443L82.8557 189.668C83.1218 191.018 82.2417 192.328 80.8908 192.594C80.727 192.614 80.5633 192.635 80.42 192.635ZM78.9258 182.528C77.6568 182.528 76.572 181.567 76.4492 180.298V180.073C76.3059 178.703 77.3089 177.496 78.6802 177.373C80.072 177.25 81.2592 178.253 81.382 179.623V179.787C81.5457 181.158 80.5428 182.385 79.1715 182.528C79.0896 182.528 79.0077 182.528 78.9054 182.528H78.9258ZM78.4346 172.32C77.0632 172.32 75.9375 171.194 75.9375 169.824V169.599C75.9375 168.228 77.0632 167.144 78.4346 167.144C79.8469 167.144 80.9522 168.289 80.9317 169.66V169.824C80.9317 171.194 79.806 172.32 78.4346 172.32ZM79.0077 162.111C79.0077 162.111 78.8235 162.111 78.7212 162.111C77.3498 161.947 76.3673 160.72 76.5311 159.349V159.185C76.6948 157.815 77.9024 156.812 79.2738 156.956C80.6451 157.099 81.6481 158.326 81.5048 159.697V159.922C81.3411 161.19 80.2563 162.131 79.0077 162.131V162.111ZM80.7066 152.025C80.5223 152.025 80.3381 152.005 80.1335 151.964C78.803 151.657 77.9638 150.307 78.2709 148.977L78.3118 148.813C78.6188 147.463 79.9492 146.624 81.2797 146.931C82.6305 147.238 83.4697 148.568 83.1627 149.897L83.1218 150.122C82.8557 151.268 81.8323 152.046 80.7066 152.046V152.025ZM83.5925 142.226C83.306 142.226 83.0194 142.185 82.7329 142.082C81.4434 141.612 80.768 140.18 81.2387 138.891L81.3001 138.727C81.7504 137.438 83.1832 136.743 84.4727 137.193C85.7622 137.643 86.4581 139.075 85.9873 140.364L85.9054 140.589C85.537 141.591 84.575 142.226 83.5721 142.226H83.5925ZM87.6657 132.856C87.2768 132.856 86.8879 132.774 86.5195 132.569C85.2914 131.935 84.8206 130.442 85.4347 129.214L85.5165 129.03C86.151 127.803 87.6452 127.332 88.8733 127.946C90.1014 128.58 90.5721 130.073 89.9581 131.301L89.8762 131.485C89.4259 132.344 88.5663 132.835 87.6657 132.835V132.856ZM92.9055 124.079C92.4347 124.079 91.9435 123.936 91.5137 123.65C90.3675 122.872 90.0809 121.338 90.8382 120.192L90.9815 119.988C91.7798 118.862 93.3353 118.596 94.4611 119.374C95.5868 120.172 95.8529 121.726 95.0751 122.852L94.9932 122.974C94.502 123.69 93.7242 124.059 92.926 124.059L92.9055 124.079ZM99.1892 116.019C98.5956 116.019 98.0225 115.814 97.5517 115.405C96.5283 114.505 96.426 112.929 97.3266 111.886L97.4494 111.743C98.3705 110.72 99.926 110.618 100.97 111.518C101.993 112.418 102.096 113.993 101.195 115.037L101.072 115.18C100.581 115.732 99.8851 116.019 99.2097 116.019H99.1892ZM106.394 108.715C105.718 108.715 105.023 108.449 104.552 107.897C103.631 106.874 103.692 105.319 104.716 104.398C105.862 103.355 107.438 103.416 108.379 104.439C109.3 105.462 109.239 107.037 108.216 107.958L108.093 108.06C107.622 108.49 107.008 108.695 106.394 108.695V108.715ZM213.258 108.347H213.032C211.661 108.347 210.556 107.201 210.576 105.83C210.576 104.46 211.702 103.375 213.073 103.375C213.114 103.375 213.298 103.375 213.298 103.375C214.67 103.375 215.775 104.521 215.755 105.892C215.755 107.263 214.629 108.347 213.258 108.347ZM203.105 107.16C202.942 107.16 202.778 107.16 202.635 107.119L202.409 107.078C201.059 106.792 200.199 105.483 200.485 104.132C200.772 102.782 202.082 101.923 203.433 102.209L203.597 102.25C204.948 102.516 205.828 103.826 205.562 105.176C205.336 106.362 204.293 107.181 203.126 107.181L203.105 107.16ZM223.103 106.976C222.059 106.976 221.097 106.321 220.749 105.278C220.319 103.969 221.015 102.557 222.325 102.127L222.448 102.087L223.307 104.419L224.126 106.772L223.901 106.853C223.635 106.935 223.369 106.976 223.103 106.976ZM193.178 104.644C192.933 104.644 192.687 104.603 192.462 104.542L192.298 104.501C190.968 104.112 190.211 102.721 190.599 101.411C190.988 100.082 192.38 99.3247 193.69 99.7134L193.895 99.7748C195.205 100.164 195.962 101.555 195.553 102.884C195.225 103.969 194.243 104.664 193.178 104.664V104.644ZM114.438 102.475C113.619 102.475 112.821 102.087 112.35 101.35C111.593 100.204 111.92 98.6496 113.087 97.9131L113.21 97.8313C114.356 97.0539 115.891 97.3607 116.669 98.5064C117.447 99.6521 117.14 101.186 115.993 101.964L115.789 102.107C115.359 102.373 114.888 102.516 114.438 102.516V102.475ZM231.842 101.882C231.147 101.882 230.43 101.575 229.939 101.002C229.038 99.9589 229.182 98.3836 230.226 97.4835L230.369 97.3607C231.413 96.4606 232.989 96.5629 233.889 97.6062C234.79 98.6496 234.688 100.225 233.644 101.125L233.48 101.268C233.009 101.657 232.436 101.862 231.863 101.862L231.842 101.882ZM183.415 101.596C183.149 101.596 182.883 101.555 182.617 101.473L182.474 101.432C181.164 101.023 180.447 99.6111 180.857 98.3018C181.286 96.9925 182.678 96.2764 183.988 96.6856L184.213 96.7674C185.523 97.2175 186.219 98.6291 185.769 99.918C185.421 100.961 184.439 101.616 183.415 101.616V101.596ZM173.652 98.5064C173.427 98.5064 173.181 98.4655 172.956 98.4041L172.751 98.3427C171.441 97.954 170.684 96.5629 171.093 95.2331C171.482 93.9237 172.895 93.1668 174.205 93.576L174.368 93.6373C175.699 94.026 176.456 95.4172 176.067 96.7265C175.74 97.8108 174.757 98.5268 173.672 98.5268L173.652 98.5064ZM123.423 97.6267C122.461 97.6267 121.54 97.0539 121.131 96.1128C120.578 94.8444 121.172 93.3918 122.441 92.8395L122.646 92.7576C123.915 92.2257 125.368 92.819 125.92 94.0669C126.453 95.3354 125.859 96.7879 124.61 97.3403L124.447 97.4221C124.119 97.5653 123.792 97.6267 123.464 97.6267H123.423ZM163.786 95.8264C163.602 95.8264 163.397 95.8059 163.213 95.765L163.029 95.7241C161.699 95.4172 160.859 94.067 161.166 92.7372C161.473 91.4074 162.824 90.5686 164.155 90.8755L164.359 90.9164C165.69 91.2437 166.529 92.5735 166.202 93.9237C165.935 95.0694 164.912 95.8468 163.786 95.8468V95.8264ZM133.166 94.558C132.02 94.558 130.976 93.7396 130.73 92.5735C130.444 91.2233 131.324 89.9139 132.654 89.6275L132.818 89.5866C134.169 89.3002 135.499 90.139 135.786 91.4892C136.093 92.8395 135.233 94.1692 133.883 94.4557L133.657 94.4966C133.494 94.5375 133.309 94.558 133.146 94.558H133.166ZM238.658 94.292C238.147 94.292 237.655 94.1488 237.205 93.8215C236.079 93.0236 235.834 91.4688 236.632 90.3436L236.755 90.1594C237.574 89.0547 239.129 88.8092 240.234 89.6071C241.34 90.4254 241.585 91.9802 240.787 93.085L240.685 93.2282C240.193 93.9033 239.436 94.2715 238.658 94.2715V94.292ZM153.736 93.9647C153.736 93.9647 153.552 93.9647 153.45 93.9647H153.225C151.853 93.7601 150.891 92.5121 151.076 91.1414C151.26 89.7707 152.508 88.8092 153.859 88.9933H154.023C155.394 89.1774 156.377 90.4049 156.213 91.7756C156.07 93.044 154.985 93.9851 153.736 93.9851V93.9647ZM143.318 93.3918C141.967 93.3918 140.862 92.328 140.821 90.9573C140.78 89.5866 141.865 88.4409 143.257 88.4H143.462C144.874 88.4 145.979 89.4639 146.02 90.8141C146.061 92.1848 144.976 93.3305 143.584 93.3714H143.38C143.38 93.3714 143.339 93.3714 143.318 93.3714V93.3918ZM244.082 85.6177C243.673 85.6177 243.264 85.5154 242.875 85.3108C241.667 84.6562 241.237 83.1423 241.892 81.9352L241.995 81.7511C242.67 80.5441 244.185 80.1144 245.392 80.7896C246.6 81.4647 247.03 82.9786 246.354 84.1856L246.272 84.3493C245.822 85.1676 244.963 85.6382 244.082 85.6382V85.6177ZM248.749 76.5138C248.381 76.5138 248.012 76.432 247.664 76.2683C246.416 75.675 245.904 74.1816 246.498 72.9541L246.6 72.729C247.214 71.5015 248.708 71.0105 249.936 71.6243C251.164 72.238 251.676 73.7315 251.042 74.959L250.98 75.1022C250.55 76.0023 249.67 76.5138 248.729 76.5138H248.749ZM253.129 67.2667C252.781 67.2667 252.413 67.1848 252.085 67.0416C250.837 66.4688 250.305 64.9753 250.878 63.7274L250.96 63.5228C251.553 62.2749 253.027 61.7429 254.275 62.3362C255.524 62.9295 256.056 64.4025 255.463 65.6505L255.381 65.8141C254.951 66.7143 254.05 67.2462 253.129 67.2462V67.2667ZM257.53 58.0196C257.161 58.0196 256.773 57.9377 256.425 57.7536C255.197 57.1398 254.685 55.6464 255.319 54.4189L255.381 54.2757C255.974 53.0277 257.468 52.5163 258.697 53.1096C259.945 53.7029 260.457 55.1963 259.863 56.4238L259.761 56.6488C259.331 57.5286 258.451 58.0196 257.53 58.0196ZM262.238 48.9361C261.828 48.9361 261.419 48.8338 261.03 48.6292C259.822 47.9746 259.392 46.4607 260.047 45.2536L260.15 45.0695C260.805 43.8625 262.319 43.4328 263.527 44.0875C264.735 44.7422 265.164 46.2561 264.509 47.4631L264.407 47.6472C263.957 48.4656 263.097 48.9361 262.217 48.9361H262.238ZM267.518 40.1595C267.048 40.1595 266.577 40.0368 266.167 39.7504C265.021 38.9934 264.694 37.459 265.431 36.3134L265.574 36.1088C266.352 34.9631 267.887 34.6767 269.033 35.4337C270.179 36.2111 270.466 37.7454 269.708 38.8911L269.626 39.0139C269.156 39.7504 268.357 40.1391 267.539 40.1391L267.518 40.1595ZM273.618 31.9353C273.045 31.9353 272.472 31.7307 272.001 31.342C270.957 30.4419 270.834 28.887 271.714 27.8232L271.817 27.7005C272.697 26.6366 274.252 26.473 275.317 27.3527C276.381 28.2324 276.545 29.7872 275.665 30.851L275.501 31.0351C275.01 31.608 274.314 31.9149 273.597 31.9149L273.618 31.9353ZM365.335 28.4574C364.782 28.4574 364.23 28.2733 363.759 27.8846L363.616 27.7823C362.551 26.923 362.367 25.3478 363.227 24.2839C364.086 23.2201 365.663 23.036 366.727 23.8952L366.911 24.0384C367.975 24.9181 368.139 26.473 367.259 27.5368C366.768 28.1301 366.051 28.4574 365.335 28.4574ZM280.741 24.6113C280.045 24.6113 279.369 24.3248 278.878 23.7725C277.977 22.7496 278.059 21.1743 279.103 20.2537L279.267 20.1105C280.311 19.2103 281.887 19.333 282.787 20.3764C283.688 21.4198 283.565 22.9951 282.521 23.8952L282.399 24.018C281.928 24.4271 281.334 24.6317 280.761 24.6317L280.741 24.6113ZM357.045 22.4836C356.595 22.4836 356.124 22.3609 355.695 22.0949L355.531 21.9926C354.364 21.2561 354.037 19.7217 354.774 18.5556C355.51 17.3895 357.045 17.0622 358.212 17.7987L358.396 17.9214C359.563 18.6579 359.891 20.2127 359.154 21.3584C358.683 22.0949 357.864 22.5041 357.045 22.5041V22.4836ZM289.01 18.6375C288.15 18.6375 287.331 18.2078 286.861 17.41C286.165 16.2234 286.554 14.689 287.741 13.9934L287.904 13.8911C289.092 13.1956 290.606 13.5638 291.323 14.7504C292.019 15.937 291.65 17.4509 290.463 18.1669L290.279 18.2692C289.89 18.4943 289.44 18.617 289.01 18.617V18.6375ZM348.101 17.5123C347.753 17.5123 347.385 17.4304 347.057 17.2872L346.852 17.1849C345.604 16.5916 345.092 15.0982 345.686 13.8707C346.279 12.6227 347.773 12.1113 349.002 12.7046L349.165 12.7864C350.414 13.3592 350.946 14.8527 350.373 16.1006C349.943 17.0008 349.042 17.5327 348.101 17.5327V17.5123ZM298.261 14.3412C297.238 14.3412 296.296 13.707 295.928 12.7046C295.457 11.4157 296.112 9.98363 297.422 9.51309L297.606 9.45171C298.896 8.98118 300.329 9.63584 300.799 10.9452C301.27 12.234 300.615 13.6661 299.305 14.1366L299.121 14.198C298.834 14.3003 298.548 14.3412 298.261 14.3412ZM338.624 13.7275C338.379 13.7275 338.133 13.6866 337.887 13.6252L337.662 13.5638C336.352 13.1547 335.636 11.743 336.045 10.4337C336.455 9.12438 337.867 8.40835 339.177 8.81751L339.341 8.87888C340.651 9.28805 341.387 10.6792 340.999 11.9885C340.671 13.0524 339.689 13.7479 338.624 13.7479V13.7275ZM308.127 11.6407C306.96 11.6407 305.916 10.8224 305.691 9.63584C305.425 8.2856 306.305 6.97627 307.656 6.71031H307.779C309.13 6.4239 310.481 7.3036 310.726 8.65384C310.992 10.0041 310.133 11.293 308.782 11.5589L308.598 11.5998C308.434 11.6203 308.27 11.6407 308.127 11.6407ZM328.697 11.3543C328.574 11.3543 328.431 11.3543 328.308 11.3339H328.124C326.773 11.0884 325.832 9.81996 326.036 8.46972C326.241 7.09902 327.531 6.1784 328.881 6.38298L329.086 6.4239C330.437 6.62848 331.379 7.91735 331.174 9.26759C330.99 10.4951 329.925 11.3748 328.718 11.3748L328.697 11.3543ZM318.299 10.6178C316.928 10.6178 315.823 9.51309 315.802 8.16285C315.802 6.79215 316.887 5.66694 318.259 5.64648H318.463C319.855 5.64648 320.96 6.73077 320.981 8.10147C320.981 9.47217 319.896 10.5974 318.525 10.6178H318.32C318.32 10.6178 318.299 10.6178 318.279 10.6178H318.299Z" fill="#959595"/>
<path d="M372.928 35.4132C372.253 35.4132 371.557 35.1268 371.065 34.5744C370.144 33.5515 370.185 31.9558 371.209 31.0351C372.232 30.1145 373.788 30.1554 374.709 31.1783L374.791 31.2602C375.712 32.2831 375.609 33.8584 374.586 34.779C374.115 35.2086 373.522 35.4132 372.928 35.4132Z" fill="#959595"/>
<path fill-rule="evenodd" clip-rule="evenodd" d="M330.662 373.936H445.427C456.438 373.936 465.363 382.855 465.363 393.862V405.584C465.363 416.591 456.438 425.511 445.427 425.511H330.662C319.651 425.511 310.727 416.591 310.727 405.584V393.862C310.727 382.855 319.651 373.936 330.662 373.936Z" fill="#F6F6F6"/>
<path d="M445.428 427.986H330.663C318.301 427.986 308.23 417.921 308.23 405.564V393.841C308.23 381.485 318.301 371.419 330.663 371.419H445.428C457.79 371.419 467.861 381.485 467.861 393.841V405.564C467.861 417.921 457.79 427.986 445.428 427.986ZM330.663 376.411C321.043 376.411 313.225 384.226 313.225 393.841V405.564C313.225 415.179 321.043 422.994 330.663 422.994H445.428C455.048 422.994 462.866 415.179 462.866 405.564V393.841C462.866 384.226 455.048 376.411 445.428 376.411H330.663Z" fill="black"/>
<path fill-rule="evenodd" clip-rule="evenodd" d="M419.044 411.006C420.17 407.835 420.804 404.296 420.804 400.552V398.506C420.804 384.819 412.371 373.936 401.953 373.936H291.037C285.142 374.12 283.28 380.523 289.092 384.369C287.742 387.213 293.104 393.125 293.104 400.368C293.104 407.098 289.011 411.824 288.704 414.586C286.104 415.568 282.42 420.989 288.888 425.736L417.181 425.531L419.023 411.026L419.044 411.006Z" fill="#F6F6F6"/>
<path d="M288.907 428.211C288.375 428.211 287.863 428.048 287.434 427.72C282.869 424.365 282.624 420.683 282.869 418.78C283.217 416.202 284.814 414.075 286.533 412.908C286.84 411.906 287.352 410.863 287.904 409.717C289.112 407.201 290.606 404.071 290.606 400.347C290.606 397.053 289.296 393.985 288.13 391.284C287.208 389.136 286.369 387.213 286.369 385.413C283.627 383.039 282.46 379.868 283.32 376.841C284.22 373.67 287.208 371.542 290.954 371.419H401.952C413.926 371.419 423.28 383.305 423.28 398.485V400.531C423.28 404.459 422.645 408.264 421.376 411.824C420.926 413.113 419.493 413.809 418.204 413.338C416.914 412.888 416.239 411.456 416.689 410.167C417.754 407.16 418.306 403.907 418.306 400.552V398.506C418.306 386.333 410.979 376.431 401.952 376.431H291.036C289.542 376.472 288.437 377.147 288.13 378.232C287.843 379.255 288.293 380.871 290.463 382.303C291.507 382.999 291.875 384.328 291.343 385.454C291.261 385.965 292.1 387.929 292.714 389.361C294.004 392.348 295.6 396.071 295.6 400.388C295.6 405.257 293.758 409.103 292.407 411.906C291.855 413.072 291.261 414.279 291.2 414.852C291.097 415.793 290.483 416.591 289.603 416.918C289.051 417.123 287.986 418.166 287.802 419.476C287.597 420.969 288.641 422.278 289.767 423.24L417.201 423.035C418.572 423.035 419.698 424.14 419.698 425.531C419.698 426.902 418.593 428.027 417.201 428.027L288.907 428.232V428.211Z" fill="black"/>
<path fill-rule="evenodd" clip-rule="evenodd" d="M396.772 383.49H291.75C284.586 383.49 293.122 391.489 293.122 400.511C293.122 409.533 284.607 416.182 291.75 416.182H396.772C403.936 416.182 409.728 408.858 409.728 399.836C409.728 390.814 403.936 383.49 396.772 383.49Z" fill="#F6F6F6"/>
<path d="M396.773 418.678H291.752C290.892 418.678 288.272 418.678 287.003 416.693C285.673 414.627 286.758 412.254 288.027 409.492C289.193 406.976 290.626 403.866 290.626 400.49C290.626 397.115 289.214 393.821 288.088 391.12C286.758 387.929 285.611 385.167 287.085 382.958C288.416 380.973 290.913 380.973 291.752 380.973H396.773C405.288 380.973 412.227 389.422 412.227 399.815C412.227 410.208 405.288 418.657 396.773 418.657V418.678ZM291.629 413.686C291.629 413.686 291.711 413.686 291.752 413.686H396.773C402.545 413.686 407.233 407.467 407.233 399.836C407.233 392.205 402.545 385.985 396.773 385.985H291.752C291.752 385.985 291.568 385.985 291.486 385.985C291.711 386.824 292.264 388.174 292.714 389.238C294.003 392.348 295.62 396.215 295.62 400.511C295.62 404.807 293.86 408.796 292.571 411.599C292.264 412.254 291.895 413.072 291.65 413.706L291.629 413.686Z" fill="black"/>
<path fill-rule="evenodd" clip-rule="evenodd" d="M305.177 427.331H424.587C434.31 427.331 442.21 435.208 442.21 444.926C442.21 454.643 434.412 462.622 424.69 462.622L305.197 462.52C295.475 462.52 287.574 454.643 287.574 444.905C287.574 435.167 295.454 427.311 305.197 427.311L305.177 427.331Z" fill="#BDD0FB"/>
<path d="M424.67 465.118L305.178 465.016C294.084 465.016 285.078 455.993 285.078 444.926C285.078 433.858 294.105 424.836 305.178 424.836H424.588C435.682 424.836 444.688 433.858 444.688 444.926C444.688 455.993 435.702 465.118 424.67 465.118ZM305.178 429.807C296.847 429.807 290.052 436.579 290.052 444.926C290.052 453.272 296.827 460.044 305.178 460.044L424.67 460.146C432.96 460.146 439.694 453.334 439.694 444.946C439.694 436.558 432.919 429.827 424.568 429.827H305.157L305.178 429.807Z" fill="black"/>
<path fill-rule="evenodd" clip-rule="evenodd" d="M351.375 453.927C349.962 451.452 349.164 448.588 349.164 445.539V444.148C349.164 434.819 356.614 427.27 365.805 427.27H464.072C469.27 427.372 470.376 431.894 465.238 434.512L439.592 444.966L465.566 455.093C467.858 455.768 471.113 459.451 465.402 462.683L349.43 462.52L351.375 453.907V453.927Z" fill="#BDD0FB"/>
<path d="M465.401 465.179L349.429 465.016C348.058 465.016 346.932 463.89 346.932 462.52C346.932 461.149 348.058 460.024 349.429 460.024L464.705 460.187C465.77 459.492 466.118 458.899 466.097 458.633C466.056 458.244 465.401 457.63 464.869 457.466C464.808 457.446 464.726 457.426 464.664 457.405L438.69 447.278C437.749 446.91 437.114 445.989 437.094 444.987C437.094 443.964 437.708 443.043 438.649 442.655L464.194 432.241C465.77 431.423 466.118 430.584 466.097 430.4C466.056 430.257 465.483 429.766 464.03 429.725H365.824C358.026 429.725 351.681 436.19 351.681 444.128V445.519C351.681 448.015 352.336 450.49 353.584 452.679C354.26 453.866 353.85 455.4 352.643 456.075C351.456 456.75 349.921 456.341 349.245 455.134C347.587 452.209 346.707 448.874 346.707 445.519V444.128C346.707 433.448 355.283 424.754 365.824 424.754H464.091C468.43 424.836 470.477 427.147 470.968 429.275C471.48 431.484 470.539 434.594 466.404 436.701C466.343 436.742 466.281 436.763 466.22 436.783L446.345 444.885L466.425 452.72C468.533 453.395 470.764 455.4 471.091 458.06C471.275 459.553 470.928 462.438 466.67 464.831C466.302 465.036 465.872 465.159 465.442 465.159L465.401 465.179Z" fill="black"/>
<path fill-rule="evenodd" clip-rule="evenodd" d="M371.065 435.638H462.864C469.107 435.638 461.677 440.097 461.677 445.151C461.677 450.204 469.127 453.927 462.864 453.927H371.065C364.822 453.927 359.746 449.836 359.746 444.782C359.746 439.729 364.822 435.638 371.065 435.638Z" fill="#F6F6F6"/>
<path d="M462.865 456.423H371.066C363.452 456.423 357.25 451.206 357.25 444.782C357.25 438.358 363.452 433.142 371.066 433.142H462.865C463.827 433.142 466.386 433.142 467.47 435.126C468.535 437.07 467.307 438.931 466.14 440.732C465.26 442.082 464.175 443.759 464.175 445.151C464.175 446.542 465.28 448.076 466.181 449.304C467.266 450.818 468.514 452.536 467.532 454.418C466.508 456.403 463.97 456.403 462.886 456.403L462.865 456.423ZM371.066 438.133C366.195 438.133 362.244 441.12 362.244 444.782C362.244 448.444 366.195 451.431 371.066 451.431H461.555C460.45 449.836 459.181 447.687 459.181 445.151C459.181 442.348 460.736 439.913 461.903 438.113H371.066V438.133Z" fill="black"/>
<path d="M367.44 278.662C366.356 278.662 365.271 278.6 364.165 278.477C354.955 277.454 348.896 274.283 346.174 269.046C342.367 261.743 346.768 253.477 346.972 253.13C347.627 251.923 349.142 251.473 350.35 252.127C351.557 252.782 352.007 254.296 351.352 255.503C351.332 255.564 348.016 261.824 350.616 266.755C352.54 270.417 357.288 272.688 364.718 273.506C385.309 275.818 402.379 250.531 402.543 250.286C403.3 249.14 404.856 248.833 406.002 249.59C407.148 250.347 407.455 251.902 406.698 253.048C405.982 254.132 389.443 278.662 367.44 278.662Z" fill="black"/>
<path d="M317.458 214.77C317.335 214.77 317.192 214.77 317.069 214.75C315.718 214.545 314.777 213.257 315.002 211.906C315.309 209.942 316.885 206.485 320.856 205.871C324.745 205.278 327.713 208.49 328.859 210.495C329.555 211.681 329.145 213.216 327.938 213.891C326.751 214.586 325.236 214.177 324.54 212.991C324.233 212.479 322.862 210.617 321.593 210.802C320.201 211.006 319.914 212.663 319.894 212.684C319.71 213.911 318.645 214.791 317.438 214.791L317.458 214.77Z" fill="black"/>
<path d="M348.244 194.21C356.963 194.21 364.025 201.289 364.025 210.004C364.025 218.719 356.963 225.797 348.244 225.797C339.524 225.797 332.463 218.719 332.463 210.004C332.463 201.289 339.524 194.21 348.244 194.21ZM348.244 189.73C337.068 189.73 327.98 198.834 327.98 210.004C327.98 221.174 337.068 230.278 348.244 230.278C359.419 230.278 368.507 221.174 368.507 210.004C368.507 198.834 359.419 189.73 348.244 189.73Z" fill="white"/>
<g style="mix-blend-mode:screen">
<path d="M356.732 230.054C367.668 225.56 372.888 213.055 368.392 202.125C363.896 191.194 351.386 185.976 340.45 190.47C329.514 194.965 324.293 207.469 328.79 218.4C333.286 229.33 345.796 234.548 356.732 230.054Z" fill="#A29A9A"/>
</g>
<path d="M348.592 233.981C335.39 233.981 324.645 223.22 324.645 210.004C324.645 196.788 335.39 186.027 348.592 186.027C361.794 186.027 372.54 196.788 372.54 210.004C372.54 223.22 361.794 233.981 348.592 233.981ZM348.592 191.018C338.133 191.018 329.618 199.529 329.618 210.004C329.618 220.478 338.133 228.989 348.592 228.989C359.051 228.989 367.566 220.478 367.566 210.004C367.566 199.529 359.051 191.018 348.592 191.018Z" fill="black"/>
<path d="M317.662 230.421C316.844 230.421 316.045 230.032 315.575 229.296C314.817 228.15 315.145 226.595 316.311 225.859C317.048 225.368 319.607 222.34 318.44 216.346C315.186 199.713 302.229 201.636 301.677 201.739C300.305 201.964 299.036 201.043 298.811 199.693C298.586 198.343 299.507 197.054 300.858 196.829C301.042 196.808 319.156 194.067 323.332 215.405C324.949 223.711 321.224 228.6 319.034 230.032C318.624 230.298 318.133 230.441 317.683 230.441L317.662 230.421Z" fill="black"/>
<g style="mix-blend-mode:screen">
<path fill-rule="evenodd" clip-rule="evenodd" d="M317.46 210.004C317.46 221.829 307.881 231.403 296.05 231.403C284.22 231.403 274.641 221.829 274.641 210.004C274.641 198.179 284.22 188.604 296.05 188.604C307.881 188.604 317.46 198.179 317.46 210.004Z" fill="#A29A9A"/>
</g>
<path d="M295.621 194.251C304.3 194.251 311.361 201.309 311.361 210.004C311.361 218.698 304.3 225.757 295.621 225.757C286.943 225.757 279.881 218.698 279.881 210.004C279.881 201.309 286.943 194.251 295.621 194.251ZM295.621 189.505C284.302 189.505 275.133 198.69 275.133 210.004C275.133 221.317 284.302 230.523 295.621 230.523C306.94 230.523 316.11 221.338 316.11 210.004C316.11 198.67 306.94 189.505 295.621 189.505Z" fill="white"/>
<path d="M296.05 234.001C282.828 234.001 272.082 223.24 272.082 210.004C272.082 196.767 282.828 186.006 296.05 186.006C309.272 186.006 320.018 196.767 320.018 210.004C320.018 223.24 309.272 234.001 296.05 234.001ZM296.05 190.998C285.591 190.998 277.076 199.529 277.076 210.004C277.076 220.478 285.591 229.009 296.05 229.009C306.509 229.009 315.024 220.478 315.024 210.004C315.024 199.529 306.509 190.998 296.05 190.998Z" fill="black"/>
<g style="mix-blend-mode:multiply">
<path fill-rule="evenodd" clip-rule="evenodd" d="M18.4407 203.764H225.393C234.194 203.764 241.338 210.904 241.338 219.701V398.301C241.338 407.098 234.194 414.238 225.393 414.238H18.4407C9.63944 414.238 2.49609 407.098 2.49609 398.301V219.721C2.49609 210.924 9.63944 203.784 18.4407 203.784V203.764Z" fill="#BDD0FB"/>
<path d="M225.394 416.734H18.4417C8.26909 416.734 0 408.469 0 398.301V219.721C0 209.554 8.26909 201.289 18.4417 201.289H225.394C235.567 201.289 243.836 209.554 243.836 219.721V398.322C243.836 408.489 235.567 416.755 225.394 416.755V416.734ZM18.4417 206.26C11.0118 206.26 4.9942 212.295 4.9942 219.701V398.301C4.9942 405.728 11.0323 411.763 18.4417 411.763H225.394C232.824 411.763 238.842 405.728 238.842 398.301V219.721C238.842 212.295 232.803 206.28 225.394 206.28H18.4417V206.26Z" fill="#020202"/>
</g>
<g style="mix-blend-mode:screen">
<path fill-rule="evenodd" clip-rule="evenodd" d="M18.4407 203.764H225.393C234.194 203.764 241.338 210.904 241.338 219.701V398.301C241.338 407.098 234.194 414.238 225.393 414.238H18.4407C9.63944 414.238 2.49609 407.098 2.49609 398.301V219.721C2.49609 210.924 9.63944 203.784 18.4407 203.784V203.764Z" fill="#BDD0FB"/>
<path d="M225.394 416.734H18.4417C8.26909 416.734 0 408.469 0 398.301V219.721C0 209.554 8.26909 201.289 18.4417 201.289H225.394C235.567 201.289 243.836 209.554 243.836 219.721V398.322C243.836 408.489 235.567 416.755 225.394 416.755V416.734ZM18.4417 206.26C11.0118 206.26 4.9942 212.295 4.9942 219.701V398.301C4.9942 405.728 11.0323 411.763 18.4417 411.763H225.394C232.824 411.763 238.842 405.728 238.842 398.301V219.721C238.842 212.295 232.803 206.28 225.394 206.28H18.4417V206.26Z" fill="#020202"/>
</g>
<path fill-rule="evenodd" clip-rule="evenodd" d="M58.907 342.757C63.9626 342.757 68.0562 346.849 68.0562 351.902C68.0562 356.955 63.9626 361.047 58.907 361.047C53.8514 361.047 49.7578 356.955 49.7578 351.902C49.7578 346.849 53.8514 342.757 58.907 342.757Z" fill="white"/>
<path fill-rule="evenodd" clip-rule="evenodd" d="M86.2508 373.506C91.3064 373.506 95.4 377.597 95.4 382.651C95.4 387.704 91.3064 391.795 86.2508 391.795C81.1952 391.795 77.1016 387.704 77.1016 382.651C77.1016 377.597 81.1952 373.506 86.2508 373.506Z" fill="white"/>
<path fill-rule="evenodd" clip-rule="evenodd" d="M128.906 350.306C132.816 350.306 135.988 353.477 135.988 357.385C135.988 361.292 132.816 364.463 128.906 364.463C124.997 364.463 121.824 361.292 121.824 357.385C121.824 353.477 124.997 350.306 128.906 350.306Z" fill="white"/>
<path fill-rule="evenodd" clip-rule="evenodd" d="M199.462 234.349C204.517 234.349 208.611 238.441 208.611 243.494C208.611 248.547 204.517 252.639 199.462 252.639C194.406 252.639 190.312 248.547 190.312 243.494C190.312 238.441 194.406 234.349 199.462 234.349Z" fill="white"/>
<path d="M27.857 396.931C27.3453 396.931 26.8541 396.787 26.4038 396.46C25.2781 395.662 25.0324 394.107 25.8307 392.982L57.5152 348.67C57.9655 348.035 58.7024 347.647 59.4801 347.626C60.2784 347.626 61.0152 347.954 61.486 348.567L86.2114 379.889L125.674 357.855L198.356 241.489C199.093 240.323 200.628 239.955 201.794 240.691C202.961 241.428 203.309 242.962 202.593 244.128L129.583 361.047C129.358 361.395 129.051 361.701 128.683 361.906L86.805 385.29C85.7406 385.883 84.3897 385.617 83.6324 384.656L59.6439 354.255L29.8834 395.867C29.3921 396.542 28.6348 396.91 27.857 396.91V396.931Z" fill="white"/>
<path d="M71.1035 243.923H25.8487C24.4773 243.923 23.3516 242.798 23.3516 241.428C23.3516 240.057 24.4773 238.932 25.8487 238.932H71.1035C72.4748 238.932 73.6006 240.057 73.6006 241.428C73.6006 242.798 72.4748 243.923 71.1035 243.923Z" fill="white"/>
<path d="M102.012 231.771H25.6455C24.2742 231.771 23.1484 230.646 23.1484 229.275C23.1484 227.905 24.2742 226.779 25.6455 226.779H102.012C103.383 226.779 104.509 227.905 104.509 229.275C104.509 230.646 103.383 231.771 102.012 231.771Z" fill="white"/>
<path d="M102.218 243.923H81.6885C80.3172 243.923 79.1914 242.798 79.1914 241.428C79.1914 240.057 80.3172 238.932 81.6885 238.932H102.218C103.589 238.932 104.715 240.057 104.715 241.428C104.715 242.798 103.589 243.923 102.218 243.923Z" fill="white"/>
<path d="M102.113 255.769H25.7471C24.3757 255.769 23.25 254.644 23.25 253.273C23.25 251.902 24.3757 250.777 25.7471 250.777H102.113C103.485 250.777 104.61 251.902 104.61 253.273C104.61 254.644 103.485 255.769 102.113 255.769Z" fill="white"/>
<path d="M320.304 312.07C320.202 312.07 320.079 312.07 319.976 312.049C318.605 311.865 317.643 310.617 317.827 309.247C317.909 308.592 319.976 293.105 324.52 278.477C329.167 263.481 338.684 253.743 339.094 253.334C340.056 252.352 341.632 252.352 342.614 253.314C343.597 254.275 343.597 255.851 342.635 256.833C342.532 256.935 333.547 266.182 329.289 279.95C324.868 294.169 322.801 309.738 322.781 309.901C322.617 311.149 321.552 312.07 320.304 312.07Z" fill="black"/>
<path d="M405.572 290.2C405.572 290.2 405.511 290.2 405.47 290.2C404.099 290.139 403.034 288.972 403.075 287.602C403.075 287.234 403.485 278.355 406.596 269.353C409.707 260.331 415.377 252.598 415.622 252.27C416.441 251.166 417.997 250.941 419.102 251.738C420.207 252.557 420.453 254.112 419.634 255.216C419.573 255.298 414.169 262.663 411.304 270.949C408.418 279.275 408.049 287.684 408.049 287.786C407.988 289.116 406.882 290.18 405.552 290.18L405.572 290.2Z" fill="black"/>
<path fill-rule="evenodd" clip-rule="evenodd" d="M391.31 279.275H393.111C397.47 280.646 402.69 282.978 406.067 285.249C415.789 291.755 419.944 302.025 425.593 312.54C426.535 314.279 428.05 318.125 424.591 318.31C421.52 318.473 419.289 311.497 417.816 308.756C412.883 299.529 408.4 291.918 398.678 287.029C397.102 286.231 394.277 284.533 392.701 284.635C391.084 284.738 387.38 287.888 384.924 289.423C368.344 299.754 354.283 308.101 337.479 318.514C336.558 319.087 334.531 319.987 333.487 320.908C332.198 322.053 332.055 323.506 329.107 322.892C327.777 322.606 327.981 322.013 326.917 320.499C326.242 319.537 324.993 318.903 324.318 318.31C312.671 307.937 300.227 296.644 288.826 287.418C283.259 290.773 278.469 294.68 275.276 300.777C274.253 302.72 273.598 305.953 271.08 305.748C266.762 305.4 270.118 299.57 270.876 298.179C274.191 292.103 276.443 289.463 281.846 285.617C283.77 284.247 287.516 281.301 289.624 281.423C291.221 281.526 293.534 284.328 295.007 285.617C303.952 293.351 312.057 300.613 320.531 307.937C323.97 310.904 327.245 313.952 330.888 316.509C351.049 304.112 371.149 291.653 391.289 279.255L391.31 279.275Z" fill="black"/>
<path fill-rule="evenodd" clip-rule="evenodd" d="M410.241 310.351C390.08 315.445 370.718 320.069 350.434 325.102C347.609 325.797 344.375 326.166 341.858 327.086C339.729 327.864 338.398 329.807 336.474 330.666C331.583 332.855 326.261 331.035 322.515 328.273C321.471 327.495 320.366 326.247 319.118 325.675C315.413 323.976 310.501 323.342 305.957 322.094C297.299 319.701 288.313 317.88 279.451 315.527C275.07 314.361 270.997 312.602 266.699 312.131C266.105 313.932 267.722 315.425 268.684 316.714C281.17 333.449 294.126 349.672 307.164 366.53C308.27 367.962 314.41 375.102 309.15 375.695C306.653 375.981 304.135 371.46 302.17 368.923C290.155 353.293 278.243 337.949 266.29 322.503C263.997 319.537 260.272 315.527 261.5 310.945C263.547 303.293 275.07 308.817 280.638 310.351C289.705 312.847 299.55 314.913 308.556 317.328C312.998 318.514 317.992 319.414 321.922 321.317C325.135 322.872 326.711 326.841 331.685 326.493C333.896 326.35 335.267 325.286 336.659 324.304C338.071 323.322 339.36 321.583 340.65 321.317C341.653 321.112 342.758 321.603 343.638 321.522C346.258 321.256 349.185 320.049 352.01 319.332C368.957 315.057 385.455 311.129 402.852 306.976C405.656 306.301 408.583 304.909 411.019 304.787C414.478 304.623 415.665 309.431 417.2 312.765C418.162 314.852 421.233 320.314 417.405 320.928C414.56 321.399 413.864 318.207 413.025 316.346C411.961 314.013 411.203 312.254 410.241 310.372V310.351Z" fill="black"/>
</g>
<defs>
<clipPath id="clip0_230_3743">
<rect width="607" height="467" fill="white"/>
</clipPath>
</defs>
</svg>
