<svg width="766" height="554" viewBox="0 0 766 554" fill="none" xmlns="http://www.w3.org/2000/svg">
<path d="M152.197 258.324C151.772 258.324 151.316 258.267 150.861 258.126C148.522 257.388 147.338 255.175 148.067 253.104C148.796 251.034 151.195 249.899 153.411 250.608C155.628 251.289 156.873 253.558 156.144 255.629C155.567 257.275 153.958 258.324 152.197 258.324Z" fill="#E3746D"/>
<path d="M134.402 251.743C133.886 251.743 133.339 251.658 132.793 251.431C132.762 251.431 132.55 251.317 132.519 251.317C130.394 250.438 129.392 248.083 130.363 246.098C131.305 244.112 133.795 243.204 135.92 244.083C138.046 244.963 139.139 247.317 138.198 249.332C137.53 250.807 136.011 251.743 134.402 251.743ZM117.063 243.998C116.395 243.998 115.727 243.856 115.119 243.544L117.063 240.027L114.937 243.459C112.842 242.495 111.991 240.112 113.054 238.155C114.087 236.197 116.638 235.403 118.733 236.396C118.763 236.396 119.006 236.538 119.037 236.538C121.101 237.53 121.921 239.942 120.828 241.871C120.069 243.204 118.581 243.998 117.063 243.998ZM100.118 235.204C99.4197 235.204 98.6908 235.034 98.0228 234.665L97.8102 234.552C95.806 233.417 95.1684 231.006 96.3527 229.134C97.5673 227.261 100.148 226.665 102.153 227.772C104.157 228.907 104.916 231.375 103.701 233.247C102.942 234.495 101.545 235.204 100.118 235.204ZM84.0542 225.417C83.2039 225.417 82.3536 225.19 81.6248 224.68L84.0845 221.446L81.473 224.566C79.5599 223.318 79.0436 220.878 80.3798 219.063C81.7159 217.276 84.3274 216.822 86.2709 218.042C86.3013 218.042 86.5138 218.212 86.5442 218.212C88.4573 219.46 88.9128 221.928 87.5463 223.715C86.696 224.85 85.3903 225.417 84.0542 225.417ZM68.6582 214.439C67.7472 214.439 66.8666 214.155 66.0771 213.56L65.9556 213.474C64.164 212.084 63.8603 209.56 65.3483 207.886C66.8363 206.212 69.4478 205.929 71.2394 207.319C73.0311 208.709 73.3955 211.262 71.9075 212.964C71.0876 213.928 69.8729 214.439 68.6582 214.439ZM54.477 202.269C53.4446 202.269 52.3817 201.9 51.5922 201.134L51.41 200.964C49.7702 199.404 49.8006 196.908 51.4708 195.376C53.1409 193.844 55.8132 193.872 57.453 195.432C59.0928 196.993 59.1535 199.574 57.4833 201.106C56.6331 201.872 55.5702 202.269 54.477 202.269ZM41.8141 188.738C40.5995 188.738 39.4455 188.255 38.6256 187.291L38.4434 187.064C37.0162 185.333 37.3806 182.837 39.2634 181.532C41.1157 180.199 43.788 180.539 45.1848 182.298C46.5817 184.028 46.3388 186.582 44.4864 187.915C43.6665 188.454 42.7251 188.738 41.8141 188.738ZM31.2466 169.93L27.4507 171.688C26.2664 169.788 26.9649 167.376 28.9994 166.298C31.034 165.192 33.6152 165.845 34.7691 167.745L31.2466 169.93ZM19.0999 155.093C18.2496 152.937 19.3125 150.611 21.4685 149.817C23.6549 149.051 26.0538 149.987 26.9041 152.001L23.0476 153.675L19.0999 155.093ZM17.7941 140.228C15.8203 140.228 14.1198 139.008 13.725 137.136C13.725 137.108 13.6643 136.853 13.6643 136.824C13.2695 134.668 14.7878 132.626 17.0957 132.257C19.4036 131.888 21.59 133.307 21.9847 135.462C22.3795 137.59 20.8915 139.746 18.614 140.143C18.3407 140.228 18.0674 140.228 17.7941 140.228ZM16.0328 122.385C13.725 122.385 11.8423 120.768 11.8119 118.612V118.47C11.7815 116.286 13.6643 114.442 16.0025 114.413C18.3711 114.413 20.2538 116.087 20.2842 118.243C20.3146 120.427 18.4622 122.356 16.124 122.385C16.0633 122.385 16.0632 122.385 16.0328 122.385ZM294.738 118.357C292.916 118.357 291.215 117.25 290.699 115.52C290.699 115.463 290.608 115.179 290.578 115.151C290.031 113.023 291.398 110.896 293.675 110.357C295.922 109.846 298.23 111.123 298.807 113.25L294.708 114.187L298.837 113.335C299.445 115.435 298.139 117.619 295.892 118.215C295.497 118.3 295.133 118.357 294.738 118.357ZM17.4297 104.456C17.2172 104.456 17.0046 104.428 16.8224 104.4C14.5145 104.059 12.9051 102.158 13.2695 100.003L13.2999 99.7472C13.6643 97.5913 15.8507 96.1161 18.1282 96.4565C20.436 96.7969 22.0151 98.8111 21.6507 100.967C21.3167 102.953 19.4947 104.456 17.4297 104.456ZM288.634 101.336C286.964 101.336 285.385 100.4 284.717 98.8678C283.836 96.8537 284.838 94.414 286.994 93.5914C289.15 92.7687 291.58 93.6197 292.46 95.6622L292.551 95.8892C293.432 97.9033 292.4 100.229 290.213 101.052C289.697 101.251 289.181 101.336 288.634 101.336ZM21.681 86.9249C21.2863 86.9249 20.8915 86.8682 20.5271 86.7547C18.28 86.1306 17.0046 84.0314 17.6727 81.9321L17.7334 81.7052C18.4015 79.606 20.7701 78.4429 23.0172 79.067C25.2643 79.6911 26.5094 81.9038 25.8413 84.003C25.2947 85.7618 23.5334 86.9249 21.681 86.9249ZM280.314 85.1377C278.856 85.1377 277.429 84.4285 276.639 83.152C276.639 83.1236 276.488 82.8966 276.457 82.8683C275.334 80.9676 276.093 78.5563 278.127 77.5067C280.192 76.4571 282.743 77.1663 283.867 79.067L280.162 80.9676L283.958 79.2088C285.112 81.1095 284.444 83.5207 282.409 84.5987C281.741 84.9675 281.012 85.1377 280.314 85.1377ZM28.6654 70.1878C28.058 70.1878 27.4204 70.046 26.8434 69.7906C24.7481 68.7978 23.8675 66.5567 24.8999 64.5993C24.8999 64.5993 25.0214 64.3724 25.0214 64.344C26.0842 62.3866 28.635 61.6207 30.6999 62.6135C32.7952 63.6064 33.6151 65.9893 32.5523 67.9184C31.8235 69.3368 30.2444 70.1878 28.6654 70.1878ZM270.111 69.9041C268.744 69.9041 267.408 69.28 266.588 68.1453C265.313 66.3581 265.738 63.8334 267.651 62.5852C269.564 61.3654 272.084 61.7058 273.421 63.4646C273.451 63.493 273.603 63.7199 273.633 63.7483C274.939 65.5638 274.392 68.0318 272.449 69.2233C271.72 69.6772 270.93 69.9041 270.111 69.9041ZM258.359 55.6634C257.174 55.6634 255.99 55.2095 255.14 54.3017C255.14 54.3017 254.958 54.1031 254.927 54.0748C253.409 52.4011 253.652 49.9047 255.443 48.5147C257.235 47.0963 259.907 47.3232 261.395 48.9969L258.177 51.55L261.547 49.1388C263.066 50.7841 262.883 53.2805 261.122 54.7272C260.333 55.3513 259.33 55.6634 258.359 55.6634ZM38.9597 55.1528C38.0487 55.1528 37.1377 54.8691 36.3481 54.3017C34.4958 52.9684 34.1921 50.4721 35.6194 48.7416L38.9597 51.1812L35.7408 48.5998C37.168 46.8693 39.8099 46.5289 41.6623 47.8338C43.5147 49.1671 43.8791 51.6351 42.4822 53.3656C42.4822 53.394 42.3 53.5925 42.3 53.5925C41.4498 54.6138 40.2047 55.1528 38.9597 55.1528ZM245.271 42.4723C244.147 42.4723 243.024 42.0468 242.204 41.2525C240.625 39.6922 240.564 37.1391 242.204 35.6356C243.843 34.1321 246.394 34.0186 248.034 35.5221C248.064 35.5505 248.277 35.7491 248.338 35.8058C249.947 37.3944 249.886 39.8908 248.186 41.3943C247.396 42.1035 246.334 42.4723 245.271 42.4723ZM52.0173 41.9617C50.8634 41.9617 49.7095 41.5361 48.8896 40.6567C47.3105 39.0398 47.4624 36.5434 49.1933 35.0683L52.0477 37.9902L49.3451 34.9264C51.0456 33.4513 53.7482 33.5364 55.3273 35.125C56.9064 36.7136 56.8153 39.2383 55.1147 40.7135C55.1147 40.7135 54.9022 40.912 54.8718 40.912C54.0215 41.6213 53.0194 41.9617 52.0173 41.9617ZM67.1703 30.9265C65.8038 30.9265 64.4677 30.3024 63.6478 29.1677C62.342 27.3522 62.8886 24.8841 64.8321 23.6927C66.8363 22.4445 69.5389 22.8984 70.8143 24.6856C72.1201 26.4728 71.6949 28.884 69.7818 30.1039C69.7515 30.1039 69.5389 30.2457 69.5085 30.2741C68.8101 30.6996 67.9902 30.9265 67.1703 30.9265ZM230.755 30.6712C229.875 30.6712 228.964 30.4159 228.205 29.8769C226.352 28.572 225.897 26.0472 227.263 24.3168C228.63 22.5863 231.15 22.1041 233.003 23.3523C233.033 23.3806 233.276 23.5509 233.337 23.5792C235.189 24.9125 235.553 27.3805 234.156 29.111C233.306 30.1322 232.031 30.6712 230.755 30.6712ZM85.9673 21.5651L83.9023 18.1042L82.2929 14.4447C84.3882 13.5086 86.939 14.3313 87.9411 16.2887C88.9432 18.246 88.0626 20.6006 85.9673 21.5651ZM214.388 21.253C213.72 21.253 213.052 21.1112 212.444 20.7992C210.379 19.8063 209.468 17.3666 210.501 15.4376C211.564 13.5086 213.963 12.6576 216.058 13.6504C216.088 13.6504 216.331 13.7639 216.362 13.7923C218.427 14.7852 219.246 17.1964 218.153 19.1254C217.394 20.4871 215.936 21.253 214.388 21.253ZM101.728 15.3241C99.9359 15.3241 98.2658 14.2462 97.6888 12.5725C96.96 10.5016 98.205 8.26052 100.422 7.60806L101.728 11.381L100.574 7.57969C102.79 6.84212 105.189 7.94848 105.979 9.99097C106.768 12.0618 105.584 14.3029 103.398 15.0405C103.367 15.0405 103.064 15.1539 103.033 15.1539C102.608 15.2674 102.153 15.3241 101.728 15.3241ZM196.654 14.3596C196.198 14.3596 195.712 14.2745 195.257 14.1327C193.07 13.4235 191.795 11.1541 192.524 9.11156C193.253 7.06907 195.5 5.90598 197.717 6.55844C197.747 6.55844 198.02 6.64355 198.081 6.67191C200.298 7.40948 201.452 9.65055 200.662 11.7214C200.024 13.3384 198.385 14.3596 196.654 14.3596ZM120.555 10.6434C118.551 10.6434 116.698 9.36687 116.304 7.49459C115.848 5.36699 117.184 3.29612 119.462 2.8706C119.462 2.8706 119.735 2.81387 119.765 2.81387C122.043 2.38835 124.29 3.77839 124.745 5.93435C125.201 8.09032 123.713 10.1612 121.405 10.5867C121.101 10.6151 120.828 10.6434 120.555 10.6434ZM178.008 9.93423C177.735 9.93423 177.462 9.90586 177.189 9.84912C174.911 9.4236 173.302 7.35275 173.727 5.22515C174.152 3.09755 176.187 1.65078 178.464 2.01957C178.494 2.01957 178.798 2.07631 178.828 2.07631C181.106 2.50182 182.624 4.57269 182.169 6.72865C181.744 8.6293 179.982 9.93423 178.008 9.93423ZM139.625 8.20379C137.439 8.20379 135.465 6.64355 135.283 4.57269C135.101 2.41672 136.68 0.516065 139.018 0.345858C139.048 0.345858 139.321 0.317494 139.352 0.317494C141.66 0.147287 143.694 1.82099 143.876 3.97695C144.028 6.16129 142.267 8.03358 139.959 8.20379C139.838 8.20379 139.716 8.20379 139.625 8.20379ZM158.878 7.9201C158.695 7.9201 158.422 7.89174 158.392 7.89174C156.053 7.77826 154.262 5.93435 154.383 3.75002C154.505 1.56568 156.539 -0.108027 158.817 0.00544498L158.604 3.94859L158.999 0.00544498C161.337 0.0905489 163.159 1.90609 163.098 4.09043C163.038 6.24639 161.155 7.9201 158.878 7.9201Z" fill="#E3746D"/>
<path d="M296.195 135.803C294.738 135.15 293.675 133.704 293.675 132.2C293.675 130.044 295.527 128.229 297.835 128.2C300.173 128.2 302.056 129.817 302.147 131.945C302.147 132.002 302.147 132.143 302.147 132.2L298.017 132.257L296.195 135.803Z" fill="#E3746D"/>
<path d="M400.96 377.64C400.474 377.64 400.019 377.555 399.533 377.413C397.346 376.676 396.193 374.406 396.982 372.364C397.772 370.321 400.201 369.13 402.387 369.839C404.574 370.548 405.788 372.647 405.06 374.718C405.06 374.746 404.969 375.002 404.938 375.03C404.331 376.647 402.691 377.64 400.96 377.64ZM407.884 360.988C407.337 360.988 406.791 360.875 406.274 360.676C404.149 359.825 403.116 357.584 403.997 355.57C404.027 355.513 404.149 355.229 404.179 355.173C405.151 353.187 407.671 352.336 409.797 353.244C411.923 354.151 412.833 356.506 411.862 358.492L408.005 356.846L411.801 358.577C411.103 360.08 409.524 360.988 407.884 360.988ZM416.599 345.159C415.84 345.159 415.05 344.96 414.352 344.563C412.378 343.4 411.771 340.96 413.016 339.116C414.23 337.272 416.903 336.62 418.876 337.726C420.85 338.861 421.549 341.159 420.364 343.031C420.364 343.059 420.213 343.286 420.182 343.286C419.393 344.506 418.026 345.159 416.599 345.159ZM427.895 330.833C426.893 330.833 425.861 330.492 425.071 329.812C423.34 328.336 423.188 325.84 424.768 324.223C424.798 324.195 424.98 323.996 425.01 323.968C426.62 322.379 429.292 322.322 430.993 323.826C432.693 325.329 432.754 327.826 431.145 329.414L428.078 326.691L431.053 329.528C430.203 330.407 429.049 330.833 427.895 330.833ZM444.84 319.911L441.439 312.677C441.469 312.677 441.712 312.564 441.743 312.564C443.899 311.741 446.389 312.706 447.239 314.72C448.119 316.734 447.087 319.06 444.931 319.883L443.322 316.223L444.84 319.911ZM461.997 317.954C461.845 317.954 461.997 314.011 461.997 314.011L461.724 317.954C459.386 317.925 457.503 316.167 457.503 313.982C457.503 311.798 459.386 310.039 461.724 310.039C461.785 310.039 462.088 310.039 462.118 310.039C464.457 310.124 466.279 311.94 466.188 314.124C466.157 316.28 464.275 317.954 461.997 317.954ZM480.824 317.5C478.668 317.5 476.816 315.968 476.603 313.954C476.361 311.798 478.031 309.869 480.338 309.642C480.399 309.642 480.703 309.614 480.764 309.614C483.072 309.5 485.106 311.117 485.288 313.273C485.44 315.457 483.679 317.33 481.371 317.5L481.067 313.557L481.25 317.5C481.098 317.5 480.946 317.5 480.824 317.5ZM499.621 314.975C497.647 314.975 495.886 313.699 495.492 311.826C495.006 309.699 496.494 307.599 498.771 307.146C501.079 306.692 503.417 308.053 503.903 310.181C504.389 312.309 503.053 314.379 500.775 314.833L500.502 314.89C500.168 314.947 499.895 314.975 499.621 314.975ZM518.175 310.975C516.262 310.975 514.531 309.755 514.076 307.94C513.529 305.812 514.926 303.685 517.204 303.174C517.234 303.174 517.538 303.117 517.568 303.089C519.876 302.635 522.093 303.997 522.578 306.124C523.064 308.252 521.607 310.351 519.329 310.805L518.449 306.947L519.177 310.833C518.813 310.947 518.479 310.975 518.175 310.975ZM613.041 308.507C610.763 308.507 608.881 306.805 608.789 304.678C608.729 302.493 610.52 300.678 612.859 300.593C612.919 300.593 613.223 300.593 613.253 300.593C615.592 300.593 617.474 302.351 617.474 304.536C617.474 306.72 615.592 308.479 613.253 308.479V304.536L613.132 308.479C613.101 308.507 613.071 308.507 613.041 308.507ZM594.213 307.94C594.122 307.94 594.031 307.94 593.91 307.94L593.637 307.912C591.298 307.77 589.537 305.869 589.719 303.685C589.871 301.5 591.936 299.883 594.244 300.025C596.582 300.167 598.465 302.068 598.313 304.252C598.161 306.323 596.4 307.94 594.213 307.94ZM536.881 307.798C534.756 307.798 532.903 306.295 532.691 304.252C532.448 302.068 534.118 300.139 536.456 299.912C538.734 299.656 540.95 301.188 541.224 303.344C541.497 305.5 540.009 307.429 537.732 307.713C537.701 307.713 537.397 307.741 537.337 307.77C537.185 307.798 537.033 307.798 536.881 307.798ZM632.05 307.6C629.834 307.6 627.981 306.011 627.829 303.912C627.677 301.727 629.439 299.855 631.777 299.685C634.055 299.571 636.211 301.132 636.423 303.288C636.636 305.444 635.057 307.316 632.779 307.543C632.718 307.543 632.415 307.571 632.384 307.571C632.232 307.6 632.141 307.6 632.05 307.6ZM575.204 306.663C574.991 306.663 574.688 306.635 574.657 306.635C572.319 306.493 570.558 304.592 570.74 302.408C570.892 300.224 572.987 298.607 575.265 298.749C577.572 298.891 579.455 300.763 579.334 302.89C579.182 305.018 577.421 306.663 575.204 306.663ZM555.891 306.436C553.552 306.436 551.67 304.678 551.67 302.493C551.67 300.309 553.552 298.55 555.891 298.55C558.199 298.55 560.203 300.281 560.264 302.437C560.294 304.593 558.624 306.38 556.316 306.465C556.225 306.436 555.921 306.436 555.891 306.436ZM650.938 305.103C648.965 305.103 647.203 303.827 646.808 301.954C646.323 299.827 647.811 297.727 650.088 297.274C650.118 297.274 650.422 297.217 650.452 297.217C652.76 296.848 654.947 298.266 655.372 300.422C655.767 302.578 654.248 304.621 651.94 305.018L651.181 301.132L651.789 305.046C651.515 305.103 651.212 305.103 650.938 305.103ZM669.523 300.961C667.731 300.961 666.031 299.883 665.454 298.238C664.755 296.167 665.909 293.983 668.095 293.302C668.156 293.274 668.46 293.189 668.521 293.189C670.768 292.593 673.106 293.813 673.744 295.912C674.381 298.011 673.076 300.195 670.828 300.791L669.674 296.99L670.737 300.82C670.373 300.905 669.948 300.961 669.523 300.961ZM687.5 295.033C685.86 295.033 684.311 294.181 683.613 292.706C682.671 290.721 683.552 288.423 685.678 287.515C685.739 287.487 686.042 287.373 686.103 287.345C688.259 286.522 690.749 287.487 691.63 289.529C692.51 291.543 691.478 293.869 689.291 294.692L687.682 291.033L689.2 294.72C688.654 294.919 688.077 295.033 687.5 295.033ZM704.566 287.203C703.139 287.203 701.742 286.522 700.922 285.274C699.707 283.402 700.375 280.962 702.379 279.856C702.41 279.827 702.683 279.685 702.713 279.685C704.748 278.607 707.329 279.288 708.483 281.217C709.637 283.118 708.908 285.529 706.843 286.607L704.778 283.146L706.722 286.664C706.054 287.033 705.295 287.203 704.566 287.203ZM720.356 277.274C719.142 277.274 717.927 276.792 717.077 275.827C715.589 274.125 715.862 271.657 717.684 270.267C717.715 270.239 717.927 270.097 717.957 270.069C719.81 268.735 722.452 269.019 723.909 270.75C725.337 272.48 725.033 274.948 723.181 276.31L720.569 273.189L723.059 276.395C722.239 276.962 721.298 277.274 720.356 277.274ZM734.295 265.161C733.232 265.161 732.199 264.792 731.38 264.083C729.679 262.58 729.618 260.083 731.228 258.495C732.807 256.934 735.54 256.764 737.24 258.211C738.941 259.658 739.153 262.041 737.635 263.658C737.605 263.686 737.392 263.913 737.362 263.941C736.542 264.764 735.418 265.161 734.295 265.161ZM745.804 251.005C745.014 251.005 744.225 250.807 743.526 250.381C741.552 249.19 740.975 246.75 742.251 244.906C743.496 243.091 746.168 242.438 748.142 243.573C750.116 244.736 750.784 247.034 749.569 248.878C749.569 248.906 749.417 249.133 749.387 249.162C748.567 250.381 747.201 251.005 745.804 251.005ZM754.306 235.091C753.79 235.091 753.244 235.006 752.727 234.807C750.571 233.985 749.508 231.687 750.389 229.644C751.27 227.659 753.729 226.552 755.885 227.347C758.042 228.141 759.165 230.268 758.376 232.283C758.376 232.311 758.254 232.595 758.224 232.623C757.556 234.183 755.977 235.091 754.306 235.091ZM568.463 219.886C566.124 219.801 564.181 217.985 564.242 215.801C564.333 213.616 566.185 211.829 568.493 211.971L568.341 215.914L568.584 211.971L568.614 215.914L568.463 219.886ZM587.563 218.638C585.559 218.638 583.676 217.333 583.312 215.46C582.856 213.333 584.223 211.262 586.531 210.865L586.804 210.808C589.082 210.411 591.329 211.801 591.754 213.957C592.179 216.113 590.691 218.184 588.383 218.581C588.11 218.609 587.836 218.638 587.563 218.638ZM549.605 218.382C549.423 218.382 549.24 218.382 549.089 218.354C549.058 218.354 548.785 218.326 548.785 218.326C546.477 218.042 544.868 216.028 545.171 213.872C545.505 211.716 547.631 210.184 549.939 210.496L549.362 214.411L550.151 210.524C552.459 210.808 554.129 212.765 553.826 214.95C553.522 216.935 551.7 218.382 549.605 218.382ZM759.529 218.013C759.256 218.013 758.953 217.985 758.649 217.928C756.371 217.474 754.883 215.375 755.369 213.248C755.855 211.148 758.102 209.673 760.319 210.07C762.596 210.468 764.115 212.397 763.72 214.524C763.72 214.581 763.659 214.836 763.629 214.893C763.234 216.737 761.473 218.013 759.529 218.013ZM530.778 215.404C530.504 215.404 530.201 215.375 529.927 215.318C527.65 214.865 526.04 212.765 526.526 210.638C526.982 208.51 529.077 207.092 531.354 207.517C531.354 207.517 531.628 207.574 531.658 207.574C533.936 208.028 535.424 210.099 534.938 212.255C534.513 214.127 532.751 215.404 530.778 215.404ZM512.163 211.46C511.829 211.46 511.464 211.432 511.13 211.347C508.853 210.808 507.365 208.652 507.942 206.524C508.519 204.397 510.705 203.092 512.952 203.631L513.195 203.688C515.473 204.227 516.839 206.354 516.262 208.482C515.776 210.269 514.076 211.46 512.163 211.46ZM604.356 211.205C603.172 211.205 601.987 210.751 601.137 209.843C599.619 208.198 599.801 205.702 601.562 204.255L604.326 207.234L601.653 204.17C603.384 202.723 606.056 202.808 607.635 204.397C609.215 206.014 609.123 208.482 607.423 209.957C607.393 209.985 607.15 210.184 607.119 210.212C606.33 210.893 605.328 211.205 604.356 211.205ZM493.73 206.865C493.335 206.865 492.941 206.808 492.576 206.723C490.329 206.127 488.902 203.915 489.54 201.815C490.177 199.716 492.394 198.468 494.641 199.064L494.884 199.12C497.131 199.716 498.437 201.9 497.799 204C497.253 205.73 495.583 206.865 493.73 206.865ZM475.419 201.759C474.964 201.759 474.508 201.702 474.083 201.56C471.897 200.879 470.56 198.638 471.259 196.567C471.957 194.496 474.174 193.333 476.391 193.957C476.421 193.957 476.695 194.043 476.755 194.071C478.972 194.752 480.156 196.993 479.428 199.064C478.851 200.737 477.211 201.759 475.419 201.759ZM761.503 200.312C759.165 200.312 757.282 198.553 757.282 196.369C757.282 196.312 757.282 196.028 757.282 196C757.373 193.816 759.347 192.085 761.655 192.199C763.993 192.284 765.815 194.099 765.724 196.284L761.503 196.142L765.724 196.397C765.694 198.553 763.811 200.312 761.503 200.312ZM619.205 199.773C617.93 199.773 616.654 199.262 615.835 198.269C614.407 196.539 614.681 194.128 616.533 192.794L616.745 192.652C618.598 191.319 621.27 191.66 622.667 193.418C624.094 195.149 623.73 197.645 621.847 198.95C621.088 199.518 620.147 199.773 619.205 199.773ZM457.26 196.284C456.804 196.284 456.349 196.227 455.893 196.085C453.677 195.376 452.371 193.106 453.13 191.036C453.889 188.965 456.136 187.802 458.353 188.511C458.353 188.511 458.596 188.596 458.626 188.596C460.843 189.305 462.027 191.546 461.268 193.617C460.691 195.234 459.021 196.284 457.26 196.284ZM439.222 190.468C438.736 190.468 438.281 190.383 437.795 190.241C435.608 189.504 434.333 187.206 435.123 185.163C435.912 183.121 438.19 181.986 440.406 182.724C440.406 182.724 440.649 182.809 440.68 182.809C442.866 183.546 444.02 185.816 443.23 187.858C442.593 189.447 440.953 190.468 439.222 190.468ZM634.753 189.447C633.386 189.447 632.02 188.851 631.23 187.745C629.925 185.929 630.35 183.546 632.293 182.327L632.506 182.185C634.449 180.965 637.091 181.476 638.367 183.291C639.672 185.107 639.126 187.575 637.182 188.766C636.453 189.22 635.603 189.447 634.753 189.447ZM421.275 184.369C420.759 184.369 420.243 184.284 419.757 184.085C417.601 183.291 416.386 180.993 417.206 178.951C418.026 176.908 420.334 175.859 422.52 176.596C422.551 176.596 422.794 176.681 422.824 176.71C425.011 177.504 426.073 179.802 425.223 181.816C424.555 183.405 422.976 184.369 421.275 184.369ZM760.592 182.525C758.527 182.525 756.705 181.107 756.402 179.149C756.402 179.093 756.371 178.809 756.341 178.781C756.098 176.596 757.799 174.667 760.106 174.44C762.445 174.213 764.51 175.802 764.752 177.958L760.532 178.355L764.752 178.043C765.056 180.199 763.416 182.185 761.109 182.497C760.957 182.525 760.774 182.525 760.592 182.525ZM650.969 180.029C649.511 180.029 648.053 179.348 647.294 178.1C646.11 176.199 646.687 173.845 648.722 172.767L648.934 172.653C650.938 171.547 653.55 172.199 654.704 174.1C655.888 176 655.19 178.412 653.155 179.49C652.487 179.83 651.697 180.029 650.969 180.029ZM403.42 178.043C402.904 178.043 402.387 177.958 401.901 177.759C399.715 176.965 398.531 174.639 399.381 172.596C400.231 170.554 402.57 169.504 404.726 170.299L404.969 170.384C407.155 171.178 408.218 173.476 407.367 175.49C406.73 177.078 405.12 178.043 403.42 178.043ZM667.761 171.575C666.182 171.575 664.634 170.781 663.905 169.391C662.872 167.433 663.632 165.136 665.696 164.171C665.727 164.171 665.97 164.058 666 164.029C668.095 163.093 670.646 163.916 671.648 165.873C672.65 167.831 671.77 170.213 669.674 171.15C669.067 171.433 668.399 171.575 667.761 171.575ZM385.655 171.518C385.139 171.518 384.623 171.433 384.137 171.235C384.107 171.235 383.864 171.121 383.833 171.121C381.677 170.299 380.614 168.001 381.495 165.958C382.376 163.944 384.835 162.951 387.022 163.802L385.412 167.462L387.174 163.859C389.36 164.653 390.423 166.951 389.573 168.965C388.965 170.554 387.356 171.518 385.655 171.518ZM756.037 165.391C754.61 165.391 753.213 164.71 752.393 163.462C751.209 161.59 751.756 159.065 753.76 157.958C755.764 156.824 758.284 157.306 759.499 159.178L759.651 159.405C760.866 161.278 760.197 163.717 758.193 164.824C757.525 165.221 756.766 165.391 756.037 165.391ZM367.982 164.795C367.435 164.795 366.858 164.682 366.342 164.483C364.186 163.632 363.063 161.278 363.974 159.292C364.854 157.278 367.223 156.285 369.348 157.107C369.379 157.107 369.622 157.221 369.652 157.221C371.808 158.072 372.81 160.398 371.899 162.412C371.201 163.887 369.622 164.795 367.982 164.795ZM685.162 164.228C683.461 164.228 681.821 163.32 681.153 161.788C680.303 159.774 681.214 157.533 683.37 156.71C683.4 156.71 683.643 156.597 683.674 156.597C685.86 155.803 688.289 156.824 689.14 158.838C689.99 160.88 688.897 163.15 686.741 163.944C686.224 164.143 685.708 164.228 685.162 164.228ZM703.199 158.356C701.347 158.356 699.555 157.249 699.039 155.519C698.401 153.42 699.586 151.264 701.833 150.668L702.076 150.611C704.323 150.015 706.661 151.235 707.299 153.334C707.937 155.434 706.631 157.618 704.384 158.214C703.989 158.299 703.594 158.356 703.199 158.356ZM350.369 157.902C349.823 157.902 349.276 157.788 348.729 157.59L350.126 153.845L352.009 150.299C354.165 151.15 355.167 153.476 354.256 155.49C353.588 156.994 352.009 157.902 350.369 157.902ZM740.854 155.462C740.52 155.462 740.186 155.434 739.852 155.349L740.581 151.434L741.826 147.661C744.103 148.172 745.5 150.299 744.953 152.427C744.468 154.242 742.737 155.462 740.854 155.462ZM721.875 154.753C719.749 154.753 717.806 153.278 717.563 151.264C717.289 149.108 718.838 147.179 721.146 146.895C721.176 146.895 721.45 146.867 721.45 146.867C723.788 146.64 725.853 148.2 726.096 150.384C726.339 152.569 724.669 154.498 722.33 154.725C722.178 154.753 722.027 154.753 721.875 154.753ZM332.817 150.838C332.24 150.838 331.633 150.725 331.056 150.469C328.961 149.562 327.898 147.207 328.839 145.221C329.781 143.235 332.119 142.299 334.245 143.15C334.275 143.179 334.548 143.292 334.609 143.292C336.735 144.2 337.646 146.555 336.674 148.54C335.945 149.987 334.427 150.838 332.817 150.838ZM315.357 143.604C314.81 143.604 314.233 143.491 313.717 143.292C313.686 143.264 313.413 143.15 313.352 143.15C311.227 142.243 310.316 139.888 311.287 137.902C312.259 135.917 314.78 135.066 316.905 135.973L315.144 139.576L317.027 136.03C319.183 136.881 320.185 139.207 319.274 141.221C318.575 142.697 316.996 143.604 315.357 143.604Z" fill="#E3746D"/>
<path d="M395.555 394.689C395.252 394.689 394.918 394.66 394.584 394.575C392.306 394.093 390.909 391.965 391.426 389.838L395.586 390.632L399.685 391.625C399.23 393.441 397.499 394.689 395.555 394.689Z" fill="#E3746D"/>
<path fill-rule="evenodd" clip-rule="evenodd" d="M475.237 471.367H606.33C617.657 471.367 626.858 479.934 626.858 490.544V497.352C626.858 507.934 617.657 516.529 606.33 516.529H475.237C463.911 516.529 454.709 507.934 454.709 497.352V490.544C454.74 479.934 463.911 471.367 475.237 471.367Z" fill="#E3746D"/>
<path d="M606.33 519.253H475.238C462.301 519.253 451.764 509.409 451.764 497.324V490.516C451.764 478.431 462.301 468.587 475.238 468.587H606.33C619.267 468.587 629.804 478.431 629.804 490.516V497.324C629.804 509.437 619.267 519.253 606.33 519.253ZM475.238 474.119C465.551 474.119 457.655 481.466 457.655 490.544V497.353C457.655 506.402 465.52 513.778 475.238 513.778H606.33C616.017 513.778 623.913 506.43 623.913 497.353V490.544C623.913 481.495 616.048 474.119 606.33 474.119H475.238Z" fill="#2D3142"/>
<path fill-rule="evenodd" clip-rule="evenodd" d="M484.985 479.027H600.864C609.397 479.027 616.351 485.495 616.351 493.495C616.351 501.466 609.427 507.963 600.864 507.963H484.985C476.452 507.963 469.498 501.495 469.498 493.495C469.498 485.495 476.422 479.027 484.985 479.027Z" fill="white"/>
<path d="M600.834 510.686H484.955C474.782 510.686 466.522 502.97 466.522 493.466C466.522 483.963 474.782 476.247 484.955 476.247H600.834C611.007 476.247 619.267 483.963 619.267 493.466C619.267 502.97 611.007 510.686 600.834 510.686ZM484.985 481.779C478.092 481.779 472.474 487.027 472.474 493.466C472.474 499.906 478.092 505.154 484.985 505.154H600.864C607.758 505.154 613.376 499.906 613.376 493.466C613.376 487.027 607.758 481.779 600.864 481.779H484.985Z" fill="#2D3142"/>
<path d="M510.615 428.805H606.331C617.414 428.805 626.359 437.208 626.359 447.481V449.155C626.359 459.429 617.414 467.832 606.331 467.832H510.615C499.532 467.832 490.587 459.429 490.587 449.155V447.481C490.587 437.208 499.532 428.805 510.615 428.805Z" fill="#9898BC" stroke="black"/>
<path d="M606.331 470.584H510.615C497.923 470.584 487.642 460.932 487.642 449.155V447.482C487.642 435.705 497.923 426.053 510.615 426.053H606.331C619.024 426.053 629.305 435.705 629.305 447.482V449.155C629.305 460.96 619.024 470.584 606.331 470.584ZM510.615 430.557C500.685 430.557 492.533 438.125 492.533 447.482V449.155C492.533 458.512 500.654 466.08 510.615 466.08H606.331C616.261 466.08 624.413 458.541 624.413 449.155V447.482C624.413 438.125 616.293 430.557 606.331 430.557H510.615Z" fill="#9898BC" stroke="black"/>
<path fill-rule="evenodd" clip-rule="evenodd" d="M303.211 501.778C301.085 501.778 299.354 501.069 298.231 499.708C296.925 498.147 296.561 495.821 297.229 493.353L328.506 376.931C329.934 371.626 335.582 367.172 340.866 367.172H530.323C532.449 367.172 534.18 367.882 535.303 369.243C536.609 370.803 536.973 373.13 536.305 375.598L505.028 492.02C503.6 497.325 497.922 501.778 492.668 501.778H303.211Z" fill="white"/>
<path d="M530.292 369.924C531.507 369.924 532.388 370.264 532.965 370.945C533.724 371.824 533.876 373.3 533.45 374.945L502.173 491.367C501.08 495.452 496.616 499.055 492.668 499.055H303.211C301.996 499.055 301.115 498.714 300.538 498.034C299.779 497.154 299.627 495.679 300.052 494.034L331.33 377.612C332.423 373.527 336.887 369.924 340.835 369.924H530.292ZM530.292 364.42H340.865C334.215 364.42 327.382 369.725 325.621 376.278L294.343 492.7C292.582 499.253 296.56 504.558 303.211 504.558H492.668C499.318 504.558 506.151 499.253 507.912 492.7L539.19 376.278C540.921 369.725 536.943 364.42 530.292 364.42Z" fill="#BD84A4"/>
<path fill-rule="evenodd" clip-rule="evenodd" d="M202.88 516.416C197.717 516.416 193.527 512.501 193.527 507.679V501.636C193.527 500.502 194.499 499.594 195.713 499.594H497.558C498.772 499.594 499.744 500.502 499.744 501.636V507.679C499.744 512.501 495.553 516.416 490.391 516.416H202.88Z" fill="white"/>
<path d="M496.767 502.346V507.679C496.767 510.97 493.883 513.664 490.36 513.664H202.879C199.356 513.664 196.472 510.97 196.472 507.679V502.346H496.767ZM497.557 496.842H195.713C192.888 496.842 190.581 498.998 190.581 501.636V507.679C190.581 514.033 196.107 519.168 202.879 519.168H490.36C497.162 519.168 502.659 514.005 502.659 507.679V501.636C502.659 498.998 500.381 496.842 497.557 496.842Z" fill="#2D3142"/>
<path fill-rule="evenodd" clip-rule="evenodd" d="M351.281 377.896H511.556C517.174 377.896 520.636 382.037 519.269 387.143L494.794 477.949C493.427 483.056 487.749 487.197 482.1 487.197H321.825C316.207 487.197 312.746 483.056 314.112 477.949L338.588 387.143C339.984 382.037 345.663 377.896 351.281 377.896Z" fill="#9898BC"/>
<path d="M482.131 489.92H321.856C318.273 489.92 315.054 488.559 313.049 486.147C311.045 483.765 310.408 480.502 311.288 477.24L335.764 386.434C337.464 380.08 344.297 375.115 351.311 375.115H511.587C515.17 375.115 518.389 376.477 520.393 378.888C522.397 381.271 523.035 384.533 522.154 387.796L497.679 478.602C495.948 484.956 489.115 489.92 482.131 489.92ZM351.281 380.647C346.999 380.647 342.505 383.938 341.473 387.796L316.997 478.602C316.572 480.219 316.815 481.722 317.696 482.772C318.576 483.821 320.064 484.417 321.856 484.417H482.131C486.413 484.417 490.907 481.126 491.939 477.268L516.415 386.462C516.84 384.845 516.597 383.342 515.716 382.292C514.836 381.243 513.348 380.647 511.556 380.647H351.281Z" fill="#2D3142"/>
<path fill-rule="evenodd" clip-rule="evenodd" d="M613.284 370.718C617.414 365.357 621.605 360.789 633.448 359.087C646.566 357.187 654.613 364.903 654.613 364.903C654.613 364.903 650.574 373.895 635.421 375.853C620.299 377.81 613.284 370.718 613.284 370.718Z" fill="white"/>
<path d="M630.289 378.945C617.566 378.945 611.371 372.874 611.128 372.59L609.488 370.945L610.885 369.129C615.41 363.229 620.208 358.208 633.022 356.364C634.541 356.137 636.089 356.023 637.577 356.023C649.36 356.023 656.466 362.69 656.739 362.974L658.105 364.278L657.346 365.952C657.164 366.378 652.457 376.392 635.847 378.548C633.964 378.803 632.081 378.945 630.289 378.945ZM617.353 370.236C619.6 371.597 623.821 373.413 630.289 373.413C631.808 373.413 633.417 373.299 635.057 373.101C644.41 371.881 648.904 367.853 650.787 365.498C648.449 363.938 643.803 361.527 637.577 361.527C636.363 361.527 635.148 361.612 633.903 361.782C624.793 363.115 620.815 366.122 617.353 370.236Z" fill="#2D3142"/>
<path fill-rule="evenodd" clip-rule="evenodd" d="M143.573 339.286C116.486 339.286 94.4702 318.691 94.4702 293.387V139.973C94.4702 114.669 116.516 94.1021 143.573 94.1021H651.06C678.147 94.1021 700.163 114.697 700.163 139.973V293.387C700.163 318.691 678.117 339.286 651.06 339.286H143.573Z" fill="white"/>
<path d="M651.061 96.8252C676.569 96.8252 697.218 116.144 697.218 139.944V293.358C697.218 317.188 676.538 336.478 651.061 336.478H143.573C118.065 336.478 97.4162 317.159 97.4162 293.358V139.973C97.4162 116.144 118.096 96.8535 143.573 96.8535H651.061V96.8252ZM651.061 91.3218H143.573C114.877 91.3218 91.4946 113.137 91.4946 139.973V293.387C91.4946 320.223 114.847 342.038 143.573 342.038H651.061C679.757 342.038 703.14 320.223 703.14 293.387V139.973C703.109 113.137 679.757 91.3218 651.061 91.3218Z" fill="#954580"/>
<path fill-rule="evenodd" clip-rule="evenodd" d="M593.091 386.774C593.091 386.774 595.126 378.292 598.557 373.044C602.019 367.796 607.03 362.803 607.03 362.803L593.091 386.774Z" fill="white"/>
<path d="M593.091 389.526C592.878 389.526 592.666 389.498 592.453 389.469C590.874 389.129 589.872 387.654 590.206 386.178C590.297 385.81 592.393 377.186 596.067 371.597C599.65 366.179 604.691 361.13 604.904 360.903C606.027 359.796 607.88 359.74 609.064 360.789C610.248 361.839 610.309 363.569 609.185 364.676C609.125 364.732 604.327 369.526 601.078 374.463C597.919 379.257 595.976 387.256 595.976 387.342C595.672 388.646 594.458 389.526 593.091 389.526Z" fill="#2D3142"/>
<path fill-rule="evenodd" clip-rule="evenodd" d="M592.421 373.98C610.034 373.98 624.246 385.611 624.155 399.994C624.064 414.348 609.731 426.007 592.118 426.007C574.505 426.007 560.294 414.376 560.385 399.994C560.476 385.611 574.839 373.98 592.421 373.98Z" fill="white"/>
<path d="M592.118 428.73C582.128 428.73 572.623 425.184 566.064 419C560.476 413.752 557.409 406.972 557.47 399.937C557.561 384.079 573.261 371.2 592.452 371.2C602.443 371.2 611.948 374.746 618.507 380.93C624.094 386.179 627.162 392.958 627.131 399.994C627.01 415.851 611.31 428.73 592.118 428.73ZM592.422 376.732C576.449 376.732 563.392 387.171 563.331 399.994C563.3 405.554 565.73 410.915 570.224 415.114C575.69 420.248 583.677 423.199 592.118 423.199C608.091 423.199 621.119 412.759 621.21 399.937C621.24 394.377 618.811 389.015 614.316 384.788C608.85 379.682 600.864 376.732 592.422 376.732Z" fill="#2D3142"/>
<path d="M593.85 496.927H504.663C503.024 496.927 501.718 495.679 501.718 494.176C501.718 492.644 503.054 491.424 504.663 491.424H593.85C595.49 491.424 596.796 492.672 596.796 494.176C596.796 495.679 595.49 496.927 593.85 496.927Z" fill="#2D3142"/>
<path d="M593.607 489.353H517.63C515.99 489.353 514.684 488.105 514.684 486.601C514.684 485.069 516.02 483.85 517.63 483.85H593.607C595.247 483.85 596.553 485.098 596.553 486.601C596.553 488.133 595.216 489.353 593.607 489.353Z" fill="#2D3142"/>
<path d="M752.395 523.451H35.4988C33.859 523.451 32.5532 522.203 32.5532 520.699C32.5532 519.168 33.859 517.948 35.4988 517.948H752.395C754.034 517.948 755.34 519.196 755.34 520.699C755.34 522.203 754.034 523.451 752.395 523.451Z" fill="#2D3142"/>
<mask id="mask0_3_4402" style="mask-type:luminance" maskUnits="userSpaceOnUse" x="97" y="96" width="601" height="241">
<path d="M143.573 96.8252H651.06C676.568 96.8252 697.217 116.144 697.217 139.944V293.358C697.217 317.188 676.538 336.478 651.06 336.478H143.573C118.065 336.478 97.4156 317.159 97.4156 293.358V139.973C97.3852 116.144 118.065 96.8252 143.573 96.8252Z" fill="white"/>
</mask>
<g mask="url(#mask0_3_4402)">
<path fill-rule="evenodd" clip-rule="evenodd" d="M152.774 103.35H660.261C685.769 103.35 706.419 122.668 706.419 146.469V299.883C706.419 323.712 685.739 343.002 660.261 343.002H152.774C127.266 343.002 106.617 323.684 106.617 299.883V146.469C106.617 122.668 127.296 103.35 152.774 103.35Z" fill="#E53F71" fill-opacity="0.2"/>
</g>
<mask id="mask1_3_4402" style="mask-type:luminance" maskUnits="userSpaceOnUse" x="97" y="96" width="601" height="241">
<path d="M143.573 96.8252H651.06C676.568 96.8252 697.217 116.144 697.217 139.944V293.358C697.217 317.188 676.538 336.478 651.06 336.478H143.573C118.065 336.478 97.4156 317.159 97.4156 293.358V139.973C97.3852 116.144 118.065 96.8252 143.573 96.8252Z" fill="white"/>
</mask>
<g mask="url(#mask1_3_4402)">
<path fill-rule="evenodd" clip-rule="evenodd" d="M413.503 336.506L431.935 286.238C431.935 286.238 425.801 279.742 420.973 275.77C416.144 271.771 412.258 268.31 412.258 268.31L395.829 256.452C395.829 256.452 388.025 251.204 389.604 246.92C391.183 242.637 394.584 244.594 394.584 244.594C394.584 244.594 398.653 237.247 403.542 239.942C408.431 242.637 410.527 246.211 410.527 246.211L417.298 253.615C417.724 253.558 450.307 260.65 450.641 259.005C450.975 257.36 436.794 249.246 442.412 240.396C446.42 234.069 470.015 257.246 471.564 260.877C473.082 264.508 476.878 272.82 474.813 283.458C472.717 294.096 462.119 336.506 462.119 336.506H488.265L571.713 253.672L581.916 250.892L605.572 221.105V217.843C605.572 217.843 586.957 220.566 578.181 208.992C569.405 197.418 570.954 146.384 570.954 146.384L600.591 137.789L638.459 147.576L646.172 176.426L648.905 184.113C648.905 184.113 650.879 187.716 646.658 190.865C642.437 194.014 635.209 195.971 635.209 195.971L640.189 214.127C640.189 214.127 634.207 233.417 624.763 233.445C615.289 233.474 607.333 227.63 607.333 227.63L592.635 261.359L548.057 289.756L487.476 336.506H413.503Z" fill="white"/>
</g>
<mask id="mask2_3_4402" style="mask-type:luminance" maskUnits="userSpaceOnUse" x="97" y="96" width="601" height="241">
<path d="M143.573 96.8252H651.06C676.568 96.8252 697.217 116.144 697.217 139.944V293.358C697.217 317.188 676.538 336.478 651.06 336.478H143.573C118.065 336.478 97.4156 317.159 97.4156 293.358V139.973C97.3852 116.144 118.065 96.8252 143.573 96.8252Z" fill="white"/>
</mask>
<g mask="url(#mask2_3_4402)">
<path fill-rule="evenodd" clip-rule="evenodd" d="M624.732 180.823C626.767 183.858 628.467 186.525 630.471 184.312C632.476 182.099 635.786 176.936 639.43 176.88C643.074 176.794 645.169 179.206 645.169 179.206C645.169 179.206 658.409 151.802 647.902 139.178C637.395 126.555 621.695 128.909 610.035 127.548C598.374 126.186 574.415 122.186 574.415 122.186L574.9 135.462L555.466 137.788L570.406 151.065L581.854 145.476C581.854 145.476 595.975 147.235 607.757 147.348C619.539 147.434 627.981 146.412 628.68 151.547C629.439 156.625 622.698 177.787 624.732 180.823Z" fill="#E3746D"/>
</g>
<mask id="mask3_3_4402" style="mask-type:luminance" maskUnits="userSpaceOnUse" x="97" y="96" width="601" height="241">
<path d="M143.573 96.8252H651.06C676.568 96.8252 697.217 116.144 697.217 139.944V293.358C697.217 317.188 676.538 336.478 651.06 336.478H143.573C118.065 336.478 97.4156 317.159 97.4156 293.358V139.973C97.3852 116.144 118.065 96.8252 143.573 96.8252Z" fill="white"/>
</mask>
<g mask="url(#mask3_3_4402)">
<path fill-rule="evenodd" clip-rule="evenodd" d="M484.257 337.442C484.257 337.442 503.327 302.039 511.405 277.416C519.513 252.792 536.609 240.48 549.272 239.034C561.935 237.587 596.856 234.154 596.856 234.154C596.856 234.154 592.666 238.239 591.117 247.657C589.568 257.047 586.015 266.239 589.113 263.941C592.21 261.643 615.259 243.459 615.259 243.459C615.259 243.459 623.123 266.494 625.462 267.43C627.8 268.366 637.608 253.7 640.645 247.431C643.682 241.133 647.386 226.268 647.386 226.268L700.194 243.714L700.437 299.089C700.437 299.089 695.001 323.145 679.757 330.265C664.544 337.385 650.605 339.116 650.605 339.116L484.257 337.442Z" fill="#E3746D"/>
</g>
<mask id="mask4_3_4402" style="mask-type:luminance" maskUnits="userSpaceOnUse" x="97" y="96" width="601" height="241">
<path d="M143.573 96.8252H651.06C676.568 96.8252 697.217 116.144 697.217 139.944V293.358C697.217 317.188 676.538 336.478 651.06 336.478H143.573C118.065 336.478 97.4156 317.159 97.4156 293.358V139.973C97.3852 116.144 118.065 96.8252 143.573 96.8252Z" fill="white"/>
</mask>
<g mask="url(#mask4_3_4402)">
<path fill-rule="evenodd" clip-rule="evenodd" d="M637.73 197.588C638.428 201.077 639.066 204.652 639.279 208.595C643.894 212.169 646.354 217.786 648.267 223.942C663.177 228.708 680.759 233.7 696.975 238.807C700.376 239.885 713.009 242.012 710.822 246.239C709.668 248.48 705.296 246.892 703.14 246.239C685.588 241.076 667.003 234.892 649.542 229.701C648.996 240.027 643.864 247.345 638.762 255.345C636.971 258.182 635.088 261.246 632.598 264.678C631.322 266.465 627.77 272.65 625.158 272.593C621.635 272.508 619.662 263.572 618.477 260.622C616.564 255.799 614.803 251.799 613.102 247.459C607.151 251.459 601.229 257.246 594.882 262.551C593.546 263.657 590.388 267.175 587.959 266.863C583.677 266.295 586.562 254.92 587.2 251.998C588.354 246.636 590.145 242.324 591.816 238.098C572.016 240.112 555.254 240.197 541.042 245.53C527.195 250.721 520.241 261.785 514.623 275.487C509.279 288.564 504.724 302.379 498.985 315.741C495.189 324.563 490.543 335.059 485.897 344.477C484.378 347.57 482.708 352.733 479.732 352.392C474.722 351.825 479.975 344.619 480.765 343.059C485.684 333.3 490.452 322.549 494.612 312.876C500.473 299.202 505.21 283.827 511.04 270.465C517.387 255.941 525.313 245.729 540.526 240.282C555.679 234.864 573.656 234.835 594.397 232.849C597.403 228.85 599.802 224.311 603.385 220.878C585.621 221.19 575.144 211.886 570.802 198.127C567.036 186.099 567.279 173.05 568.251 158.61C568.372 156.767 569.071 154.554 568.767 153.107C568.221 150.469 562.998 147.235 560.295 144.71C558.382 142.923 551.823 138.895 552.612 135.859C553.614 131.945 568.615 135.576 572.107 134.895C572.867 132.427 568.312 120.229 573.14 120.285C578.636 120.314 584.588 121.959 590.054 122.668C595.824 123.434 601.654 123.945 607.758 124.342C620.087 125.165 632.689 124.427 640.827 129.845C655.13 139.377 656.223 161.05 649.542 178.95C653.976 187.943 647.447 197.191 637.73 197.588ZM639.521 135.065C632.78 129.306 620.542 129.76 609.246 129.306C598.041 128.852 585.773 127.065 576.42 125.477C575.873 129.363 578.97 136.398 577.179 138.639C574.749 141.76 566.702 138.186 562.056 139.122C563.666 141.079 565.214 142.639 567.431 144.625C568.676 145.731 573.383 148.54 573.838 149.902C574.476 151.774 573.444 155.49 573.322 157.816C572.351 177.39 571.865 198.467 582.311 208.595C589.082 215.176 601.897 218.24 612.07 212.907C614.226 211.772 619.328 207.176 621.544 207.886C625.674 209.191 621.301 212.595 619.479 213.871C616.17 216.197 612.313 218.297 608.973 219.857C609.793 222.524 610.248 225.531 610.764 228.481C616.807 234.126 624.338 229.814 628.711 225.843C630.411 224.282 635.301 220.056 635.635 217.446C635.817 215.999 634.906 213.786 634.602 211.942C633.661 205.985 632.962 200.113 632.051 194.695C633.691 192.028 638.155 193.248 641.283 191.829C645.929 189.702 648.571 179.262 640.767 179.376C637.092 179.433 635.786 183.064 633.843 184.397C630.472 186.723 624.52 187.007 622.547 183.206C618.447 175.262 630.017 160.029 625.371 152.795C622.85 148.88 610.278 149.192 602.292 149.192C597.798 149.192 594.822 149.079 589.72 148.71C586.35 148.455 579.821 148.597 579.973 145.363C580.155 141.902 586.137 143.405 589.963 143.689C602.11 144.54 619.722 142.781 626.889 147.036C636.06 152.511 629.713 166.951 627.921 175.064C627.527 176.851 626.737 179.262 627.921 181.05C630.594 181.957 631.778 178.922 633.57 177.447C636.667 174.894 641.283 173.248 645.352 175.546C650.454 160.88 648.874 143.008 639.521 135.065ZM616.443 236.395C611.402 235.828 604.114 232.367 605.42 226.807C598.435 234.807 593.82 245.019 591.816 257.7C597.099 254.125 602.748 248.594 608.244 244.055C609.459 243.034 612.647 239.885 614.408 239.97C616.655 240.112 617.263 243.431 617.992 245.246C620.755 252.083 623.518 257.927 625.674 264.423C629.349 260.366 632.476 254.92 635.938 249.331C641.009 241.133 647.69 230.693 641.07 220.112C641.07 219.97 641.04 219.829 640.827 219.885C637.122 225.048 627.982 237.7 616.443 236.395Z" fill="#2D3142"/>
<path fill-rule="evenodd" clip-rule="evenodd" d="M578.758 159.49C578.91 159.433 578.94 159.263 579.274 159.263C594.792 159.348 599.59 172.539 595.43 187.063C594.488 190.382 593.182 193.985 590.814 194.013C587.17 194.042 588.415 190.155 589.265 187.773C591.846 180.595 592.97 168.851 585.682 165.504C583.769 164.624 577.027 165.05 576.693 162.156C576.511 160.568 577.574 159.887 578.758 159.49Z" fill="#2D3142"/>
<path fill-rule="evenodd" clip-rule="evenodd" d="M609.002 160.227C610.065 160.057 611.765 159.745 613.102 160C615.804 160.483 621.452 164.681 620.299 168.142C619.965 169.078 618.628 169.646 617.474 169.589C615.167 169.447 614.833 165.589 611.826 165.05C609.215 164.568 607.666 166.61 605.662 166.015C604.265 165.589 603.749 164.256 604.113 162.894C604.569 161.305 606.968 160.539 609.002 160.227Z" fill="#2D3142"/>
<path fill-rule="evenodd" clip-rule="evenodd" d="M585.924 170.27C586.076 173.788 587.655 181.22 582.857 180.341C579.152 179.66 580.185 164.54 585.924 170.27Z" fill="#2D3142"/>
<path fill-rule="evenodd" clip-rule="evenodd" d="M612.86 171.943C613.801 174.95 613.072 179.971 611.068 181.759C604.873 183.489 607.576 167.291 612.86 171.943Z" fill="#2D3142"/>
<path fill-rule="evenodd" clip-rule="evenodd" d="M638.003 182.752C639.005 182.581 641.04 182.156 641.343 184.425C641.617 186.638 634.997 190.865 632.628 190.666C631.353 190.553 630.381 189.418 630.32 188.51C630.199 186.752 632.173 186.014 633.661 185.163C634.389 184.709 635.999 183.064 638.003 182.752Z" fill="#2D3142"/>
<path fill-rule="evenodd" clip-rule="evenodd" d="M604.144 197.843C600.925 198.666 597.676 201.928 593.121 202.155C589.75 202.325 582.583 200.51 585.681 197.134C587.472 195.177 590.995 197.446 592.604 197.389C597.099 197.191 608.516 187.092 609.519 196.68C610.156 202.779 604.63 207.432 599.255 208.651C597.008 209.162 593.303 209.616 593.88 206.269C594.335 203.517 599.68 204.169 601.836 202.439C603.749 200.879 603.385 200.084 604.144 197.843Z" fill="#2D3142"/>
<path fill-rule="evenodd" clip-rule="evenodd" d="M386.931 249.586C386.931 248.31 386.931 247.033 386.931 245.757C388.085 242.693 390.697 240.962 395.13 240.962C399.715 235.573 407.459 239.09 410.769 242.863C412.682 245.076 414.2 249.303 417.45 250.296C418.512 250.608 420.061 250.551 421.306 250.778C430.355 252.48 437.431 254.381 446.45 256.054C444.901 254.04 440.285 251.998 439.01 248.14C437.674 244.111 439.071 239.884 443.109 238.806C448.758 237.275 456.015 241.643 459.265 243.828C463.668 246.778 467.676 250.636 470.288 254.125C476.027 261.756 480.4 274.125 477.454 287.656C476.179 293.528 473.597 299.287 471.806 305.386C467.312 320.648 464.123 336.279 460.783 353.073C460.267 355.683 459.872 361.129 456.683 360.987C453.586 360.846 454.315 357.129 454.892 354.037C458.657 334.066 464.032 312.28 469.255 295.571C471.107 289.614 472.595 284.734 472.595 278.323C472.595 265.217 466.552 256.31 458.748 250.069C455.044 247.118 450.124 243.459 444.142 244.083C443.443 249.161 449.304 250.522 451.825 253.898C452.979 255.459 455.621 259.43 453.373 261.558C451.794 263.061 447.239 261.586 444.901 261.075C436.975 259.317 428.473 257.473 421.822 256.054C426.104 266.834 446.389 264.848 455.681 272.337C456.41 272.933 466.583 284.961 459.538 285.273C456.258 285.415 454.831 278.777 452.857 276.876C446.176 270.437 430.841 271.458 422.339 265.132C416.144 260.508 415.84 253.388 408.249 250.522C410.192 264.706 421.64 273.075 432.086 280.706C434.151 282.209 442.381 286.436 440.559 289.812C438.797 293.046 435.305 288.791 434.394 289.585C425.861 311.939 416.66 334.747 407.975 357.158C407.064 359.541 405.728 365.668 402.327 365.299C398.106 364.817 401.568 357.867 402.327 355.966C411.68 332.563 421.124 308.847 430.295 286.011C423.25 280.139 414.899 275.458 409.767 267.799C406.427 265.643 403.359 263.033 399.503 260.621C394.432 257.416 388.298 255.572 386.931 249.586ZM399.989 244.055C400.535 246.409 401.477 248.395 403.056 249.813C402.904 247.289 404.574 246.437 405.88 245.246C404.787 244.338 401.689 242.154 399.989 244.055ZM394.371 245.984C394.067 246.409 393.035 246.182 392.579 246.466C391.516 251.402 396.405 252.764 399.503 254.607C397.62 251.884 396.011 248.905 394.371 245.984Z" fill="#2D3142"/>
<path fill-rule="evenodd" clip-rule="evenodd" d="M545.142 301.33C548.877 300.592 548.695 306.237 549.515 310.436C552.43 325.726 555.224 340.336 558.23 356.42C559.111 361.101 562.603 373.101 558.746 373.668C555.132 374.207 555.315 370.264 554.647 366.718C551.094 348.194 547.571 329.896 544.383 311.627C543.684 307.684 541.346 302.067 545.142 301.33Z" fill="#2D3142"/>
</g>
<mask id="mask5_3_4402" style="mask-type:luminance" maskUnits="userSpaceOnUse" x="97" y="96" width="601" height="241">
<path d="M143.573 96.8252H651.06C676.568 96.8252 697.217 116.144 697.217 139.944V293.358C697.217 317.188 676.538 336.478 651.06 336.478H143.573C118.065 336.478 97.4156 317.159 97.4156 293.358V139.973C97.3852 116.144 118.065 96.8252 143.573 96.8252Z" fill="white"/>
</mask>
<g mask="url(#mask5_3_4402)">
<path fill-rule="evenodd" clip-rule="evenodd" d="M496.191 186.383C482.07 186.383 470.562 175.66 470.562 162.44C470.562 149.249 482.04 138.498 496.191 138.498C510.311 138.498 521.82 149.221 521.82 162.44C521.82 175.66 510.311 186.383 496.191 186.383Z" fill="#F6F6F6"/>
<path d="M496.191 141.278C508.702 141.278 518.845 150.753 518.845 162.469C518.845 174.156 508.702 183.66 496.191 183.66C483.68 183.66 473.538 174.185 473.538 162.469C473.538 150.753 483.68 141.278 496.191 141.278ZM496.191 135.774C480.431 135.774 467.616 147.746 467.616 162.469C467.616 177.192 480.431 189.163 496.191 189.163C511.951 189.163 524.766 177.192 524.766 162.469C524.766 147.746 511.951 135.774 496.191 135.774Z" fill="#2D3142"/>
</g>
<mask id="mask6_3_4402" style="mask-type:luminance" maskUnits="userSpaceOnUse" x="97" y="96" width="601" height="241">
<path d="M143.573 96.8252H651.06C676.568 96.8252 697.217 116.144 697.217 139.944V293.358C697.217 317.188 676.538 336.478 651.06 336.478H143.573C118.065 336.478 97.4156 317.159 97.4156 293.358V139.973C97.3852 116.144 118.065 96.8252 143.573 96.8252Z" fill="white"/>
</mask>
<g mask="url(#mask6_3_4402)">
<path fill-rule="evenodd" clip-rule="evenodd" d="M375.513 231.772C313.656 231.772 263.339 184.766 263.339 126.98C263.339 69.1947 313.656 22.189 375.513 22.189C437.37 22.189 487.688 69.1947 487.688 126.98C487.688 184.766 437.37 231.772 375.513 231.772Z" fill="#E3746D"/>
<path d="M375.513 24.9409C435.852 24.9409 484.742 70.6134 484.742 126.981C484.742 183.348 435.852 229.02 375.513 229.02C315.175 229.02 266.285 183.348 266.285 126.981C266.285 70.6134 315.205 24.9409 375.513 24.9409ZM375.513 19.4092C312.017 19.4092 260.394 67.6631 260.394 126.952C260.394 186.241 312.047 234.495 375.513 234.495C439.01 234.495 490.633 186.241 490.633 126.952C490.633 67.6631 439.01 19.4092 375.513 19.4092Z" fill="#2D3142"/>
</g>
<mask id="mask7_3_4402" style="mask-type:luminance" maskUnits="userSpaceOnUse" x="97" y="96" width="601" height="241">
<path d="M143.573 96.8252H651.06C676.568 96.8252 697.217 116.144 697.217 139.944V293.358C697.217 317.188 676.538 336.478 651.06 336.478H143.573C118.065 336.478 97.4156 317.159 97.4156 293.358V139.973C97.3852 116.144 118.065 96.8252 143.573 96.8252Z" fill="white"/>
</mask>
<g mask="url(#mask7_3_4402)">
<path d="M471.198 222.75C443.17 222.75 407.034 216.141 369.379 203.177C238.802 158.27 177.674 94.8109 175.154 92.116C174.516 91.4351 174.273 90.499 174.486 89.6196C174.729 88.7402 175.397 88.031 176.308 87.6906C177.462 87.2934 178.768 87.5771 179.557 88.4565C182.047 91.0947 242.203 153.561 371.413 197.985C436.55 220.368 498.528 223.715 515.594 205.73C521.911 199.063 521.759 189.532 515.078 177.39C514.319 176.028 514.896 174.383 516.354 173.674C517.811 172.993 519.572 173.532 520.332 174.865C530.14 192.766 525.555 203.517 519.998 209.389C511.525 218.353 494.064 222.75 471.198 222.75Z" fill="#2D3142"/>
</g>
<path fill-rule="evenodd" clip-rule="evenodd" d="M181.713 39.9194C213.781 39.9194 239.774 64.2024 239.774 94.1306C239.774 124.087 213.781 148.37 181.713 148.37C149.646 148.37 123.652 124.087 123.652 94.1306C123.683 64.2024 149.646 39.9194 181.713 39.9194Z" fill="#F6F6F6"/>
<path d="M181.714 151.122C148.067 151.122 120.707 125.562 120.707 94.1304C120.707 62.6987 148.067 37.1392 181.714 37.1392C215.36 37.1392 242.72 62.6987 242.72 94.1304C242.72 125.562 215.36 151.122 181.714 151.122ZM181.714 42.6993C151.347 42.6993 126.629 65.7908 126.629 94.1588C126.629 122.527 151.347 145.618 181.714 145.618C212.08 145.618 236.799 122.527 236.799 94.1588C236.829 65.7624 212.111 42.6993 181.714 42.6993Z" fill="#2D3142"/>
<mask id="mask8_3_4402" style="mask-type:luminance" maskUnits="userSpaceOnUse" x="123" y="39" width="117" height="110">
<path d="M181.713 39.9189C213.781 39.9189 239.774 64.2019 239.774 94.1301C239.774 124.087 213.781 148.37 181.713 148.37C149.646 148.37 123.652 124.087 123.652 94.1301C123.683 64.2019 149.646 39.9189 181.713 39.9189Z" fill="white"/>
</mask>
<g mask="url(#mask8_3_4402)">
<path fill-rule="evenodd" clip-rule="evenodd" d="M190.55 45.167C222.587 45.167 240.807 70.528 239.38 93.3358C238.864 101.619 244.238 115.179 239.774 123.519C231.059 139.746 207.282 148.738 186.086 148.738C154.019 148.738 132.52 129.363 132.52 99.4066C132.52 69.45 158.513 45.167 190.55 45.167Z" fill="#E3746D"/>
</g>
<path d="M181.714 151.122C148.067 151.122 120.707 125.562 120.707 94.1304C120.707 62.6987 148.067 37.1392 181.714 37.1392C215.36 37.1392 242.72 62.6987 242.72 94.1304C242.72 125.562 215.36 151.122 181.714 151.122ZM181.714 42.6993C151.347 42.6993 126.629 65.7908 126.629 94.1588C126.629 122.527 151.347 145.618 181.714 145.618C212.08 145.618 236.799 122.527 236.799 94.1588C236.829 65.7624 212.111 42.6993 181.714 42.6993Z" fill="#2D3142"/>
<path fill-rule="evenodd" clip-rule="evenodd" d="M21.0441 65.876C32.6745 65.876 42.0882 74.7268 42.0882 85.6485C42.0882 96.5701 32.6745 105.421 21.0441 105.421C9.41368 105.421 0 96.5701 0 85.6485C0 74.7268 9.44405 65.876 21.0441 65.876Z" fill="#E3746D"/>
<path fill-rule="evenodd" clip-rule="evenodd" d="M752.057 146.384C759.071 146.384 764.75 151.689 764.75 158.242C764.75 164.795 759.071 170.1 752.057 170.1C745.042 170.1 739.363 164.795 739.363 158.242C739.333 151.717 745.042 146.384 752.057 146.384Z" fill="#E3746D"/>
<path d="M393.673 271.317H284.474C282.835 271.317 281.529 270.069 281.529 268.565C281.529 267.062 282.865 265.813 284.474 265.813H393.673C395.313 265.813 396.618 267.062 396.618 268.565C396.618 270.069 395.282 271.317 393.673 271.317Z" fill="#F6F6F6"/>
<path d="M311.622 282.04H284.474C282.835 282.04 281.529 280.791 281.529 279.288C281.529 277.784 282.865 276.536 284.474 276.536H311.622C313.262 276.536 314.568 277.784 314.568 279.288C314.568 280.791 313.262 282.04 311.622 282.04Z" fill="#F6F6F6"/>
<path d="M393.825 292.621H284.566C282.926 292.621 281.621 291.373 281.621 289.869C281.621 288.366 282.957 287.118 284.566 287.118H393.825C395.465 287.118 396.771 288.366 396.771 289.869C396.771 291.373 395.465 292.621 393.825 292.621Z" fill="#F6F6F6"/>
<path d="M394.068 303.429H328.567C326.927 303.429 325.621 302.181 325.621 300.677C325.621 299.174 326.957 297.926 328.567 297.926H394.068C395.707 297.926 397.013 299.174 397.013 300.677C397.013 302.181 395.707 303.429 394.068 303.429Z" fill="#F6F6F6"/>
<path d="M393.825 292.621H284.566C282.926 292.621 281.621 291.373 281.621 289.869C281.621 288.366 282.957 287.118 284.566 287.118H393.825C395.465 287.118 396.771 288.366 396.771 289.869C396.771 291.373 395.465 292.621 393.825 292.621Z" fill="#F6F6F6"/>
<path d="M319.851 303.429H314.112C312.472 303.429 311.167 302.181 311.167 300.677C311.167 299.174 312.503 297.926 314.112 297.926H319.851C321.491 297.926 322.797 299.174 322.797 300.677C322.797 302.181 321.461 303.429 319.851 303.429Z" fill="#F6F6F6"/>
<path d="M394.068 313.897H350.735C349.095 313.897 347.789 312.649 347.789 311.145C347.789 309.613 349.125 308.394 350.735 308.394H394.068C395.708 308.394 397.013 309.642 397.013 311.145C397.013 312.677 395.708 313.897 394.068 313.897Z" fill="#F6F6F6"/>
<path d="M393.673 271.317H284.474C282.835 271.317 281.529 270.069 281.529 268.565C281.529 267.062 282.865 265.813 284.474 265.813H393.673C395.313 265.813 396.618 267.062 396.618 268.565C396.618 270.069 395.282 271.317 393.673 271.317Z" fill="#F6F6F6"/>
<path d="M393.825 282.04H328.567C326.927 282.04 325.621 280.791 325.621 279.288C325.621 277.784 326.957 276.536 328.567 276.536H393.825C395.464 276.536 396.77 277.784 396.77 279.288C396.77 280.791 395.464 282.04 393.825 282.04Z" fill="#F6F6F6"/>
<path d="M393.825 292.621H284.566C282.926 292.621 281.621 291.373 281.621 289.869C281.621 288.366 282.957 287.118 284.566 287.118H393.825C395.465 287.118 396.771 288.366 396.771 289.869C396.771 291.373 395.465 292.621 393.825 292.621Z" fill="#F6F6F6"/>
<path d="M304.153 303.429H284.718C283.078 303.429 281.772 302.181 281.772 300.677C281.772 299.174 283.109 297.926 284.718 297.926H304.153C305.792 297.926 307.098 299.174 307.098 300.677C307.098 302.181 305.762 303.429 304.153 303.429Z" fill="#F6F6F6"/>
<path d="M393.825 292.621H284.566C282.926 292.621 281.621 291.373 281.621 289.869C281.621 288.366 282.957 287.118 284.566 287.118H393.825C395.465 287.118 396.771 288.366 396.771 289.869C396.771 291.373 395.465 292.621 393.825 292.621Z" fill="#F6F6F6"/>
<path d="M333.791 313.897H284.718C283.078 313.897 281.772 312.649 281.772 311.145C281.772 309.613 283.109 308.394 284.718 308.394H333.791C335.43 308.394 336.736 309.642 336.736 311.145C336.736 312.677 335.43 313.897 333.791 313.897Z" fill="#F6F6F6"/>
<path fill-rule="evenodd" clip-rule="evenodd" d="M75.9775 545.011H226.414C226.414 545.011 219.43 533.38 214.206 525.238C208.983 517.097 200.268 507.792 200.268 507.792C200.268 507.792 205.916 506.033 215.209 498.005C224.501 490.005 236.89 476.36 236.89 476.36C236.89 476.36 248.339 472.814 254.078 467.056C259.817 461.297 264.554 453.326 264.554 453.326L323.101 500.104C323.101 500.104 342.354 521.636 366.191 514.998C390.029 508.359 434.182 467.283 434.182 467.283C434.182 467.283 443.383 467.793 447.149 455.879C450.914 443.964 453.83 428.22 461.846 429.128C469.863 430.035 478.032 437.922 478.548 434.234C479.064 430.546 476.331 426.348 472.809 424.702C469.286 423.057 463.729 419.738 466.098 420.05C468.436 420.362 481.919 421.497 478.062 414.235C474.206 406.972 455.895 407.256 455.895 407.256C455.895 407.256 456.259 404.277 452.159 402.121C448.06 399.965 447.422 398.859 447.422 398.859C447.422 398.859 456.593 397.1 452.888 393.044C449.214 388.987 443.049 383.597 434.213 389.101C411.529 403.199 405.061 434.943 405.061 434.943L358.235 459.623L293.463 394.235C293.463 394.235 268.866 355.967 251.375 354.435C243.875 353.782 233.55 351.485 224.47 350.492C212.324 349.13 202.272 348.619 202.789 343.74C203.7 335.201 217.972 310.011 217.972 310.011C217.972 310.011 232.426 313.443 238.409 309.301C248.005 302.663 253.865 269.728 253.865 269.728C253.865 269.728 245.606 265.218 242.66 263.913C239.714 262.608 237.68 261.586 237.68 261.586C237.68 261.586 250.616 238.722 239.411 230.41C228.205 222.098 194.104 206.382 177.129 212.482C160.154 218.609 154.718 226.212 154.718 226.212C154.718 226.212 130.88 216.822 120.586 228.084C110.292 239.318 98.6918 286.38 89.7032 297.444C80.7147 308.479 41.5114 336.733 46.8559 355.371C52.2004 374.009 64.8026 370.718 64.8026 370.718C64.8026 370.718 48.9816 399.086 59.8225 416.107C70.6634 433.128 72.0298 434.035 72.0298 434.035L45.3679 479.651C45.3679 479.651 33.3427 500.899 44.882 509.891C56.4214 518.884 72.2728 517.409 80.988 511.991C89.7033 506.572 98.6006 495.168 99.1776 496.161C99.7546 497.182 105.889 509.664 105.889 509.664C105.889 509.664 98.9954 516.274 92.4362 523.848C85.877 531.423 75.9775 545.011 75.9775 545.011Z" fill="#F6F6F6"/>
<path fill-rule="evenodd" clip-rule="evenodd" d="M79.469 438.886C79.469 438.886 39.2636 494.97 50.317 511.026C61.3705 527.082 98.9037 495.423 98.9037 495.423C98.9037 495.423 94.1665 486.8 93.6806 475.878C93.1644 464.956 95.9277 441.212 95.9277 441.212L104.643 440.276C104.643 440.276 99.8147 464.673 103.398 480.303C107.346 497.551 114.846 508.444 114.846 508.444H202.272C202.272 508.444 219.824 500.189 225.927 491.452C232.031 482.715 237.649 473.296 237.649 473.296C237.649 473.296 246.668 474.006 253.105 467.027C259.513 460.02 264.068 452.843 264.068 452.843C264.068 452.843 335.642 511.678 352.981 515.905C371.869 520.529 399.321 495.906 399.321 495.906C399.321 495.906 401.234 478.204 389.604 465.665C377.973 453.098 366.95 455.652 366.95 455.652L358.478 459.368C358.478 459.368 299.536 405.781 286.236 387.001C272.935 368.221 257.752 354.179 242.902 352.562C228.023 350.945 201.421 349.867 202.059 343.485C202.697 337.102 207.282 329.754 207.282 329.754L182.625 326.492C182.625 326.492 179.983 345.102 165.194 349.981C150.375 354.86 149.009 357.186 149.009 357.186L143.026 438.858C143.026 438.858 125.444 442.035 118.369 442.12C111.263 442.262 79.469 438.886 79.469 438.886Z" fill="#E39AD0"/>
<path fill-rule="evenodd" clip-rule="evenodd" d="M86.1802 545.238L227.658 545.947C227.658 545.947 222.344 536.586 215.451 526.402C208.558 516.218 198.506 507.565 198.506 507.565L115.545 509.182C115.545 509.182 109.654 516.501 101.849 525.239C94.0755 533.976 86.1802 545.238 86.1802 545.238Z" fill="#2D3142"/>
<path fill-rule="evenodd" clip-rule="evenodd" d="M37.0474 498.601C37.0474 497.722 37.0474 496.842 37.0474 495.963C37.4421 489.864 40.2966 484.474 43.2118 478.942C51.4108 463.311 59.8223 448.588 69.6308 435.34C62.2517 428.759 54.5689 420.986 53.7186 408.277C53.2935 401.866 54.8118 395.512 56.2694 389.583C57.6966 383.824 58.9113 378.037 61.6443 373.527C46.6128 373.583 41.0254 360.875 43.9406 347.173C45.7929 338.492 51.1375 330.634 55.9961 325.131C66.7459 312.904 82.8706 305.5 91.1303 291.6C99.7545 277.104 102.275 257.502 109.077 242.013C112.326 234.665 116.942 226.694 123.957 222.836C130.911 219.006 145.517 219.29 153.443 222.836C159.486 217.928 166.257 212.879 176.005 210.865C196.654 206.581 220.037 213.872 232.669 221.9C239.593 226.297 246.456 232.992 246.516 242.268C246.577 249.956 243.206 255.204 240.352 260.707C243.662 264.991 254.958 263.629 256.264 269.813C257.023 273.473 254.23 278.466 253.197 282.04C249.766 293.728 248.217 309.188 237.558 313.188C231.758 315.372 224.379 314.266 218.579 313.188C216.302 318.72 213.994 323.854 211.382 328.989C208.862 333.982 205.43 339.173 205.491 345.527C209.165 348.222 214.631 348.137 219.338 348.393C235.706 349.357 250.252 350.747 261.153 357.017C274.848 364.903 283.776 378.945 293.463 390.547C313.384 414.405 335.43 436.447 358.873 456.673C373.54 449.269 387.904 441.61 402.479 434.149C404.089 418.802 411.043 406.774 420.699 397.015C426.408 391.228 437.705 381.498 449.943 387.682C454.528 389.98 460.115 396.874 452.493 399.654C454.71 400.079 455.894 403.171 458.901 403.965C461.36 404.618 464.367 404.192 467.1 404.675C473.629 405.866 482.769 409.497 481.979 416.646C481.615 419.852 479.125 422.121 474.54 421.922C477.546 423.993 483.498 429.383 480.704 435.34C480.157 436.475 478.943 437.723 477.121 437.979C470.744 438.83 467.403 432.078 461.209 433.44C456.471 434.489 454.497 442.461 453.01 447.822C451.37 453.78 449.578 459.964 446.086 463.396C442.806 466.63 438.859 467.765 435.579 469.864C432.33 471.935 429.445 475.339 426.348 478.006C416.752 486.289 407.733 494.261 397.621 501.977C385.444 511.225 367.71 524.132 346.058 516.104C337.677 513.012 330.784 508.104 323.739 503.168C302.725 488.389 284.961 472.389 265.01 456.702C259.301 465.978 251.77 473.552 240.139 477.297C231.364 490.8 219.156 501.126 204.246 508.927C214.753 519.65 223.013 532.019 228.873 547.507C229.724 549.777 231.121 552.869 228.114 553.266C225.563 553.607 224.501 550.373 223.741 548.472C219.035 536.614 214.48 528.331 206.827 519.48C204.823 517.182 200.177 511.14 197.353 510.374C194.59 509.636 190.156 510.147 186.33 510.147C163.585 510.147 142.723 509.636 120.434 510.856C116.851 511.055 111.597 510.544 109.411 511.338C108.53 511.65 108.318 512.728 107.346 513.721C106.496 514.601 105.372 515.111 104.795 515.65C94.6832 524.331 85.9376 533.891 78.8926 544.387C77.8298 545.947 77.101 548.897 73.7606 548.472C71.1187 544.188 75.6737 539.962 77.8601 536.983C82.9921 529.919 88.5492 523.877 94.5314 518.061C97.6592 514.998 101.394 512.757 103.763 509.438C101.819 506.544 99.967 503.565 98.6309 500.105C96.8696 501.012 95.5942 502.714 94.0151 504.19C85.0266 512.586 63.77 525.522 47.0683 515.679C41.329 512.246 38.0798 506.743 37.0474 498.601ZM236.04 231.233C226.353 221.361 202.211 213.134 182.686 215.432C172.999 216.567 164.314 219.489 159.85 225.247C162.006 225.786 163.737 226.722 165.225 227.886C166.47 232.566 170.235 234.665 170.873 239.63C171.875 247.715 164.952 250.41 159.091 253.275C158.21 265.161 157.117 276.849 156.267 288.735C163.403 293.245 170.6 298.891 175.519 306.21C176.521 307.713 178.647 313.245 180.651 313.387C182.17 313.5 183.991 311.004 185.024 309.784C188.911 305.16 191.128 299.855 193.223 294.437C187.605 290.664 184.66 278.976 191.188 274.551C190.763 273.643 190.156 272.962 190.429 271.43C191.856 269.331 194.681 269.104 196.837 268.31C211.413 263.033 221.373 255.09 229.663 243.63C230.817 242.041 232.426 238.75 234.522 238.836C240.595 239.091 233.368 247.573 232.73 248.651C234.188 250.183 234.947 254.41 236.83 256.31C242.296 247.885 242.265 237.559 236.04 231.233ZM153.2 260.679C153.503 257.048 153.321 250.693 154.475 249.19C155.447 247.913 159.516 247.488 161.156 246.552C163.008 245.474 165.255 243.942 165.529 241.757C165.802 239.289 164.314 237.162 163.221 235.517C162.006 233.729 160.761 232.084 159.364 230.722C151.044 227.063 137.105 222.552 127.297 227.12C116.729 232.084 112.053 247.998 108.318 259.941C104.795 271.232 101.88 283.657 96.5356 292.99C85.0266 313.075 62.0087 319.315 52.1699 339.712C50.5909 343.031 49.0725 347.769 48.8296 350.974C48.0097 361.555 52.2914 367.201 61.4014 367.995C66.7459 368.449 71.0276 366.775 71.6653 369.442C72.1512 371.456 70.4203 372.193 68.8412 373.527C64.347 377.271 63.527 382.69 61.9176 389.101C60.8548 393.413 59.6401 397.952 59.3668 402.036C57.9699 421.298 72.1512 432.816 87.0612 437.014C102.396 441.326 121.71 439.766 139.383 437.014C142.905 379.824 148.432 318.238 153.2 260.679ZM202.697 271.941C204.519 272.877 207.07 274.409 209.105 276.735C210.532 278.352 214.814 285.16 209.348 284.877C206.918 284.763 204.853 279.799 203.183 278.409C199.296 275.175 194.073 277.473 192.919 280.792C191.462 284.99 194.893 289.16 197.535 290.607C200.147 292.054 209.074 291.033 209.074 294.692C209.074 298.919 201.422 297.302 198.051 296.366C194.316 305.075 190.763 317.018 179.588 318.635C179.133 320.535 178.495 322.237 178.04 324.138C187.423 325.046 197.748 325.046 206.766 326.294C208.194 323.145 209.773 320.337 211.382 316.706C212.172 314.918 213.751 307.912 216.271 307.373C219.004 306.777 223.104 308.848 226.535 309.046C239.593 309.869 241.779 303.146 244.482 293.699C242.538 291.742 233.884 287.94 233.975 284.593C234.005 283.345 235.402 281.955 236.799 281.955C240.291 281.927 243.146 287.941 246.031 288.423C247.397 282.409 249.219 276.849 250.92 271.175C240.504 267.969 231.849 263.09 228.873 252.963C222.223 261.275 213.235 267.317 202.697 271.941ZM151.408 346.208C165.954 342.208 171.116 329.471 175.003 315.543C170.053 307.316 164.223 299.912 155.781 294.947C154.232 311.968 153.018 329.273 151.408 346.208ZM150.892 351.967C149.1 375.881 146.914 403.114 145.244 428.163C145.001 432.05 145.578 436.702 144.485 439.199C142.905 442.745 135.739 442.716 131.154 443.284C121.224 444.475 108.743 445.666 98.3272 444.475C92.6183 466.914 97.4466 492.757 108.591 506.516C133.735 504.445 161.247 505.069 188.091 505.069C192.099 505.069 196.594 505.863 199.63 505.324C201.483 504.984 203.396 503.282 205.279 502.204C214.874 496.7 222.679 490.545 229.39 482.8C231.576 480.304 234.4 474.658 236.83 472.985C239.107 471.396 242.326 470.971 244.786 469.637C252.013 465.666 256.78 459.794 260.941 453.099C259.027 450.773 256.689 449.411 254.017 447.113C252.377 445.723 247.579 442.858 248.369 439.936C248.642 438.943 249.675 438.347 250.434 438.262C252.438 438.035 254.321 440.617 256.082 442.092C268.563 452.673 280.588 462.602 292.765 472.531C306.582 483.793 320.763 496.275 336.371 505.608C344.753 510.601 354.682 515.168 366.374 512.558C376.516 510.289 384.138 504.955 391.76 499.395C404.727 489.892 416.236 479.339 428.17 468.957C429.961 467.396 431.753 465.184 433.302 464.418C434.334 463.907 435.67 463.935 436.642 463.453C439.588 461.978 442.806 459.255 444.325 456.503C449.305 447.482 448.272 431.709 458.688 428.475C461.816 427.511 466.401 428.305 468.679 429.185C471.26 430.178 473.355 432.277 475.602 432.05C474.965 427.483 471.108 426.461 467.403 424.873C463.152 423.057 456.866 420.731 452.281 422.49C448.971 423.766 446.542 428.277 443.292 427.766C442.442 427.624 441.075 426.575 440.984 425.383C440.711 422.036 447.27 418.49 449.973 417.469C453.526 416.135 456.988 417.043 460.996 416.986C462.484 416.958 464.002 416.362 465.369 416.277C469.711 415.994 473.416 417.355 476.149 416.05C475.42 411.596 467.798 409.923 462.059 409.582C452.888 409.043 448.363 412.561 443.839 416.759C442.017 418.462 439.405 423.454 436.672 423.227C435.67 423.142 434.243 422.008 434.121 420.844C433.757 417.752 439.527 413.072 441.045 411.738C444.568 408.646 447.422 406.689 451.309 405.497C445.357 400.051 439.618 405.015 435.913 409.327C434.213 411.313 431.966 417.157 428.99 416.986C423.645 416.674 428.473 409.98 429.506 408.589C430.994 406.547 432.3 404.817 433.605 403.568C434.729 396.618 440.316 392.874 449.76 394.462C448.333 390.746 440.316 390.746 436.156 392.306C431.965 393.867 428.564 397.015 425.133 400.448C416.752 408.845 411.559 418.064 408.705 431.341C407.854 435.312 408.28 440.759 403.056 439.964C389.968 447 376.759 453.865 363.307 460.56C363.064 463.737 373.449 466.489 372.295 470.857C372.082 471.68 371.141 472.417 370.23 472.531C368.013 472.843 364.187 468.701 362.031 466.772C354.409 460.021 346.392 453.723 339.985 447.113C321.127 427.71 303.12 411.114 286.115 390.094C277.278 379.172 269.625 368.108 258.936 361.811C252.195 357.839 242.903 355.683 233.034 354.634C224.47 353.726 209.257 354.52 203.274 350.804C196.29 346.435 201.877 336.677 204.307 331.145C195.106 330.464 185.722 329.982 176.339 329.471C170.995 339.911 163.98 348.79 150.892 351.967ZM49.1029 479.197C46.5825 484.19 43.394 488.928 42.9385 494.771C41.9667 507.395 50.9249 514.771 63.9522 513.693C74.3376 512.842 83.5387 506.629 89.8549 500.984C91.5251 499.48 95.6246 495.764 95.746 494.034C95.8371 492.927 94.2885 490.545 93.6811 488.757C89.278 475.481 89.7942 458.006 92.922 443.709C85.7251 442.688 79.4088 440.815 74.1858 437.95C65.7135 449.695 56.2087 465.07 49.1029 479.197Z" fill="#2D3142"/>
<path fill-rule="evenodd" clip-rule="evenodd" d="M225.259 259.97C228.144 258.665 229.146 261.445 230.391 263.572C231.758 265.898 234.187 271.033 229.116 270.295C227.385 270.012 221.615 261.643 225.259 259.97Z" fill="#2D3142"/>
</svg>
