<svg width="766" height="554" viewBox="0 0 766 554" fill="none" xmlns="http://www.w3.org/2000/svg">
<path d="M152.199 258.976C151.774 258.976 151.318 258.92 150.863 258.778C148.525 258.04 147.34 255.828 148.069 253.757C148.798 251.686 151.197 250.551 153.414 251.26C155.631 251.941 156.876 254.211 156.147 256.282C155.57 257.927 153.96 258.976 152.199 258.976Z" fill="#FFD7CB"/>
<path d="M134.403 252.395C133.887 252.395 133.34 252.31 132.794 252.083C132.763 252.083 132.551 251.97 132.52 251.97C130.395 251.09 129.392 248.736 130.364 246.75C131.306 244.764 133.796 243.856 135.921 244.736C138.047 245.615 139.14 247.97 138.199 249.984C137.531 251.459 136.012 252.395 134.403 252.395ZM117.064 244.651C116.396 244.651 115.728 244.509 115.12 244.197L117.064 240.679L114.938 244.112C112.843 243.147 111.992 240.764 113.055 238.807C114.088 236.849 116.639 236.055 118.734 237.048C118.764 237.048 119.007 237.19 119.038 237.19C121.102 238.183 121.922 240.594 120.829 242.523C120.07 243.856 118.582 244.651 117.064 244.651ZM100.119 235.857C99.4206 235.857 98.6918 235.686 98.0238 235.318L97.8112 235.204C95.807 234.069 95.1693 231.658 96.3536 229.786C97.5683 227.914 100.149 227.318 102.154 228.424C104.158 229.559 104.917 232.027 103.702 233.899C102.943 235.147 101.546 235.857 100.119 235.857ZM84.0551 226.07C83.2049 226.07 82.3546 225.843 81.6258 225.332L84.0855 222.098L81.474 225.219C79.5609 223.97 79.0446 221.531 80.3808 219.715C81.7169 217.928 84.3284 217.474 86.2719 218.694C86.3023 218.694 86.5148 218.864 86.5452 218.864C88.4583 220.112 88.9138 222.58 87.5473 224.368C86.697 225.502 85.3913 226.07 84.0551 226.07ZM68.6592 215.091C67.7482 215.091 66.8676 214.808 66.0781 214.212L65.9566 214.127C64.165 212.737 63.8613 210.212 65.3493 208.538C66.8372 206.865 69.4488 206.581 71.2404 207.971C73.032 209.361 73.3964 211.914 71.9085 213.616C71.0886 214.581 69.8739 215.091 68.6592 215.091ZM54.478 202.921C53.4455 202.921 52.3827 202.553 51.5932 201.787L51.411 201.616C49.7712 200.056 49.8016 197.56 51.4717 196.028C53.1419 194.496 55.8142 194.524 57.454 196.085C59.0938 197.645 59.1545 200.226 57.4843 201.758C56.6341 202.524 55.5712 202.921 54.478 202.921ZM41.8151 189.39C40.6005 189.39 39.4465 188.908 38.6266 187.943L38.4444 187.716C37.0172 185.986 37.3816 183.489 39.2643 182.184C41.1167 180.851 43.789 181.192 45.1858 182.95C46.5827 184.681 46.3398 187.234 44.4874 188.567C43.6675 189.106 42.7261 189.39 41.8151 189.39ZM31.2475 170.582L27.4517 172.341C26.2674 170.44 26.9658 168.029 29.0004 166.951C31.035 165.844 33.6161 166.497 34.7701 168.398L31.2475 170.582ZM19.1009 155.745C18.2506 153.59 19.3134 151.263 21.4695 150.469C23.6559 149.703 26.0548 150.639 26.9051 152.653L23.0486 154.327L19.1009 155.745ZM17.7951 140.881C15.8213 140.881 14.1207 139.661 13.726 137.789C13.726 137.76 13.6652 137.505 13.6652 137.476C13.2705 135.321 14.7888 133.278 17.0967 132.909C19.4045 132.54 21.5909 133.959 21.9857 136.115C22.3805 138.242 20.8925 140.398 18.615 140.796C18.3417 140.881 18.0684 140.881 17.7951 140.881ZM16.0338 123.037C13.726 123.037 11.8432 121.42 11.8129 119.264V119.122C11.7825 116.938 13.6652 115.094 16.0035 115.066C18.3721 115.066 20.2548 116.74 20.2852 118.895C20.3155 121.08 18.4632 123.009 16.125 123.037C16.0642 123.037 16.0642 123.037 16.0338 123.037ZM294.739 119.009C292.917 119.009 291.216 117.903 290.7 116.172C290.7 116.115 290.609 115.832 290.579 115.803C290.032 113.676 291.399 111.548 293.676 111.009C295.923 110.499 298.231 111.775 298.808 113.903L294.709 114.839L298.838 113.988C299.446 116.087 298.14 118.271 295.893 118.867C295.498 118.952 295.134 119.009 294.739 119.009ZM17.4307 105.109C17.2181 105.109 17.0056 105.08 16.8234 105.052C14.5155 104.711 12.9061 102.811 13.2705 100.655L13.3008 100.4C13.6652 98.2436 15.8516 96.7684 18.1291 97.1089C20.437 97.4493 22.0161 99.4634 21.6517 101.619C21.3176 103.605 19.4956 105.109 17.4307 105.109ZM288.635 101.988C286.965 101.988 285.386 101.052 284.718 99.5202C283.837 97.506 284.839 95.0664 286.995 94.2437C289.151 93.421 291.581 94.2721 292.461 96.3146L292.552 96.5415C293.433 98.5556 292.401 100.882 290.214 101.704C289.698 101.903 289.182 101.988 288.635 101.988ZM21.682 87.5772C21.2873 87.5772 20.8925 87.5205 20.5281 87.407C18.281 86.7829 17.0056 84.6837 17.6736 82.5845L17.7344 82.3575C18.4025 80.2583 20.771 79.0952 23.0182 79.7193C25.2653 80.3434 26.5103 82.5561 25.8423 84.6553C25.2957 86.4141 23.5344 87.5772 21.682 87.5772ZM280.315 85.7901C278.857 85.7901 277.43 85.0809 276.64 83.8043C276.64 83.7759 276.489 83.549 276.458 83.5206C275.335 81.6199 276.094 79.2087 278.128 78.1591C280.193 77.1095 282.744 77.8187 283.868 79.7193L280.163 81.62L283.959 79.8612C285.113 81.7618 284.445 84.1731 282.41 85.2511C281.742 85.6198 281.013 85.7901 280.315 85.7901ZM28.6664 70.8401C28.059 70.8401 27.4214 70.6983 26.8444 70.443C24.7491 69.4501 23.8685 67.209 24.9009 65.2516C24.9009 65.2516 25.0224 65.0247 25.0224 64.9963C26.0852 63.0389 28.636 62.273 30.7009 63.2659C32.7962 64.2588 33.6161 66.6417 32.5533 68.5707C31.8245 69.9891 30.2454 70.8401 28.6664 70.8401ZM270.112 70.5564C268.745 70.5564 267.409 69.9324 266.589 68.7976C265.314 67.0105 265.739 64.4857 267.652 63.2375C269.565 62.0177 272.085 62.3581 273.422 64.1169C273.452 64.1453 273.604 64.3722 273.634 64.4006C274.94 66.2162 274.393 68.6842 272.45 69.8756C271.721 70.3295 270.931 70.5564 270.112 70.5564ZM258.36 56.3157C257.175 56.3157 255.991 55.8619 255.141 54.9541C255.141 54.9541 254.959 54.7555 254.928 54.7271C253.41 53.0534 253.653 50.557 255.444 49.167C257.236 47.7486 259.908 47.9756 261.396 49.6493L258.178 52.2024L261.548 49.7911C263.066 51.4364 262.884 53.9328 261.123 55.3796C260.334 56.0037 259.331 56.3157 258.36 56.3157ZM38.9606 55.8051C38.0496 55.8051 37.1386 55.5214 36.3491 54.9541C34.4967 53.6208 34.1931 51.1244 35.6203 49.394L38.9606 51.8336L35.7418 49.2521C37.169 47.5217 39.8109 47.1813 41.6633 48.4862C43.5156 49.8195 43.8801 52.2875 42.4832 54.0179C42.4832 54.0463 42.301 54.2449 42.301 54.2449C41.4507 55.2661 40.2057 55.8051 38.9606 55.8051ZM245.272 43.1246C244.148 43.1246 243.025 42.6991 242.205 41.9048C240.626 40.3446 240.565 37.7915 242.205 36.2879C243.844 34.7844 246.395 34.671 248.035 36.1745C248.065 36.2029 248.278 36.4014 248.339 36.4582C249.948 38.0468 249.887 40.5432 248.187 42.0467C247.397 42.7559 246.335 43.1246 245.272 43.1246ZM52.0183 42.614C50.8644 42.614 49.7105 42.1885 48.8906 41.3091C47.3115 39.6921 47.4633 37.1957 49.1942 35.7206L52.0487 38.6425L49.346 35.5788C51.0466 34.1036 53.7492 34.1887 55.3283 35.7773C56.9073 37.3659 56.8163 39.8907 55.1157 41.3658C55.1157 41.3658 54.9032 41.5644 54.8728 41.5644C54.0225 42.2736 53.0204 42.614 52.0183 42.614ZM67.1713 31.5789C65.8048 31.5789 64.4686 30.9548 63.6487 29.8201C62.343 28.0045 62.8896 25.5365 64.833 24.345C66.8372 23.0968 69.5399 23.5507 70.8153 25.3379C72.121 27.1251 71.6959 29.5364 69.7828 30.7562C69.7525 30.7562 69.5399 30.898 69.5095 30.9264C68.8111 31.3519 67.9912 31.5789 67.1713 31.5789ZM230.756 31.3236C229.876 31.3236 228.965 31.0682 228.206 30.5293C226.353 29.2243 225.898 26.6996 227.264 24.9691C228.631 23.2387 231.151 22.7564 233.004 24.0046C233.034 24.033 233.277 24.2032 233.338 24.2316C235.19 25.5649 235.554 28.0329 234.157 29.7633C233.307 30.7846 232.032 31.3236 230.756 31.3236ZM85.9682 22.2174L83.9033 18.7565L82.2939 15.0971C84.3892 14.1609 86.94 14.9836 87.9421 16.941C88.9442 18.8984 88.0635 21.2529 85.9682 22.2174ZM214.389 21.9054C213.721 21.9054 213.053 21.7635 212.445 21.4515C210.38 20.4586 209.469 18.019 210.502 16.09C211.565 14.1609 213.964 13.3099 216.059 14.3028C216.089 14.3028 216.332 14.4163 216.363 14.4446C218.428 15.4375 219.247 17.8488 218.154 19.7778C217.395 21.1395 215.937 21.9054 214.389 21.9054ZM101.728 15.9765C99.9369 15.9765 98.2667 14.8985 97.6898 13.2248C96.961 11.1539 98.206 8.91287 100.423 8.26041L101.728 12.0333L100.575 8.23203C102.791 7.49446 105.19 8.60082 105.98 10.6433C106.769 12.7142 105.585 14.9552 103.399 15.6928C103.368 15.6928 103.065 15.8063 103.034 15.8063C102.609 15.9198 102.154 15.9765 101.728 15.9765ZM196.655 15.012C196.199 15.012 195.713 14.9269 195.258 14.785C193.071 14.0758 191.796 11.8064 192.525 9.7639C193.254 7.72141 195.501 6.55832 197.717 7.21078C197.748 7.21078 198.021 7.29589 198.082 7.32426C200.299 8.06182 201.453 10.3029 200.663 12.3738C200.025 13.9907 198.386 15.012 196.655 15.012ZM120.556 11.2958C118.552 11.2958 116.699 10.0192 116.305 8.14693C115.849 6.01933 117.185 3.94847 119.463 3.52295C119.463 3.52295 119.736 3.46621 119.766 3.46621C122.044 3.04069 124.291 4.43073 124.746 6.58669C125.202 8.74266 123.714 10.8135 121.406 11.239C121.102 11.2674 120.829 11.2958 120.556 11.2958ZM178.009 10.5866C177.736 10.5866 177.463 10.5582 177.19 10.5015C174.912 10.0759 173.303 8.00509 173.728 5.8775C174.153 3.7499 176.188 2.30313 178.465 2.67191C178.495 2.67191 178.799 2.72865 178.829 2.72865C181.107 3.15417 182.625 5.22503 182.17 7.38099C181.745 9.28165 179.983 10.5866 178.009 10.5866ZM139.626 8.85613C137.44 8.85613 135.466 7.2959 135.284 5.22503C135.101 3.06907 136.68 1.16841 139.019 0.998201C139.049 0.998201 139.322 0.969838 139.353 0.969838C141.661 0.79963 143.695 2.47333 143.877 4.6293C144.029 6.81363 142.268 8.68592 139.96 8.85613C139.839 8.85613 139.717 8.85613 139.626 8.85613ZM158.879 8.57244C158.696 8.57244 158.423 8.54408 158.393 8.54408C156.054 8.43061 154.263 6.58669 154.384 4.40236C154.506 2.21803 156.54 0.544317 158.818 0.657789L158.605 4.60093L159 0.657789C161.338 0.742893 163.16 2.55844 163.099 4.74277C163.039 6.89874 161.156 8.57244 158.879 8.57244Z" fill="#FFD7CB"/>
<path d="M296.196 136.455C294.739 135.803 293.676 134.356 293.676 132.852C293.676 130.696 295.528 128.881 297.836 128.853C300.174 128.853 302.057 130.47 302.148 132.597C302.148 132.654 302.148 132.796 302.148 132.852L298.018 132.909L296.196 136.455Z" fill="#FFD7CB"/>
<path d="M400.96 378.292C400.474 378.292 400.018 378.207 399.532 378.065C397.346 377.328 396.192 375.058 396.982 373.016C397.771 370.973 400.2 369.782 402.387 370.491C404.573 371.2 405.788 373.3 405.059 375.37C405.059 375.399 404.968 375.654 404.938 375.683C404.33 377.299 402.691 378.292 400.96 378.292ZM407.883 361.64C407.337 361.64 406.79 361.527 406.274 361.328C404.148 360.477 403.116 358.236 403.996 356.222C404.027 356.165 404.148 355.882 404.178 355.825C405.15 353.839 407.671 352.988 409.796 353.896C411.922 354.804 412.833 357.158 411.861 359.144L408.005 357.499L411.801 359.229C411.102 360.733 409.523 361.64 407.883 361.64ZM416.598 345.811C415.839 345.811 415.05 345.612 414.351 345.215C412.378 344.052 411.77 341.613 413.015 339.769C414.23 337.925 416.902 337.272 418.876 338.379C420.85 339.513 421.548 341.811 420.364 343.683C420.364 343.712 420.212 343.939 420.182 343.939C419.392 345.159 418.026 345.811 416.598 345.811ZM427.895 331.485C426.893 331.485 425.86 331.145 425.071 330.464C423.34 328.989 423.188 326.492 424.767 324.875C424.797 324.847 424.98 324.649 425.01 324.62C426.619 323.032 429.292 322.975 430.992 324.478C432.693 325.982 432.754 328.478 431.144 330.067L428.077 327.343L431.053 330.18C430.203 331.06 429.049 331.485 427.895 331.485ZM444.839 320.564L441.438 313.33C441.469 313.33 441.712 313.216 441.742 313.216C443.898 312.394 446.388 313.358 447.238 315.372C448.119 317.386 447.087 319.713 444.931 320.535L443.321 316.876L444.839 320.564ZM461.997 318.606C461.845 318.606 461.997 314.663 461.997 314.663L461.723 318.606C459.385 318.578 457.502 316.819 457.502 314.635C457.502 312.45 459.385 310.691 461.723 310.691C461.784 310.691 462.088 310.691 462.118 310.691C464.456 310.777 466.278 312.592 466.187 314.776C466.157 316.932 464.274 318.606 461.997 318.606ZM480.824 318.152C478.668 318.152 476.816 316.62 476.603 314.606C476.36 312.45 478.03 310.521 480.338 310.294C480.399 310.294 480.702 310.266 480.763 310.266C483.071 310.153 485.106 311.769 485.288 313.925C485.44 316.11 483.678 317.982 481.371 318.152L481.067 314.209L481.249 318.152C481.097 318.152 480.945 318.152 480.824 318.152ZM499.621 315.628C497.647 315.628 495.886 314.351 495.491 312.479C495.005 310.351 496.493 308.252 498.771 307.798C501.078 307.344 503.417 308.706 503.903 310.833C504.388 312.961 503.052 315.032 500.775 315.486L500.501 315.542C500.167 315.599 499.894 315.628 499.621 315.628ZM518.175 311.628C516.262 311.628 514.531 310.408 514.075 308.592C513.529 306.465 514.926 304.337 517.203 303.826C517.234 303.826 517.537 303.77 517.568 303.741C519.875 303.287 522.092 304.649 522.578 306.777C523.064 308.904 521.606 311.004 519.329 311.457L518.448 307.599L519.177 311.486C518.813 311.599 518.479 311.628 518.175 311.628ZM613.04 309.16C610.763 309.16 608.88 307.458 608.789 305.33C608.728 303.146 610.52 301.33 612.858 301.245C612.919 301.245 613.222 301.245 613.253 301.245C615.591 301.245 617.474 303.004 617.474 305.188C617.474 307.372 615.591 309.131 613.253 309.131V305.188L613.131 309.131C613.101 309.16 613.071 309.16 613.04 309.16ZM594.213 308.592C594.122 308.592 594.031 308.592 593.909 308.592L593.636 308.564C591.298 308.422 589.536 306.521 589.719 304.337C589.871 302.153 591.935 300.536 594.243 300.678C596.582 300.819 598.464 302.72 598.312 304.904C598.161 306.975 596.399 308.592 594.213 308.592ZM536.881 308.45C534.755 308.45 532.903 306.947 532.69 304.904C532.447 302.72 534.117 300.791 536.456 300.564C538.733 300.309 540.95 301.841 541.223 303.997C541.496 306.153 540.009 308.082 537.731 308.365C537.701 308.365 537.397 308.394 537.336 308.422C537.184 308.45 537.033 308.45 536.881 308.45ZM632.05 308.252C629.833 308.252 627.981 306.663 627.829 304.564C627.677 302.38 629.438 300.507 631.777 300.337C634.054 300.224 636.21 301.784 636.423 303.94C636.635 306.096 635.056 307.968 632.779 308.195C632.718 308.195 632.414 308.223 632.384 308.223C632.232 308.252 632.141 308.252 632.05 308.252ZM575.203 307.316C574.991 307.316 574.687 307.287 574.657 307.287C572.319 307.146 570.557 305.245 570.74 303.061C570.891 300.876 572.987 299.259 575.264 299.401C577.572 299.543 579.455 301.415 579.333 303.543C579.181 305.67 577.42 307.316 575.203 307.316ZM555.89 307.089C553.552 307.089 551.669 305.33 551.669 303.146C551.669 300.961 553.552 299.202 555.89 299.202C558.198 299.202 560.202 300.933 560.263 303.089C560.293 305.245 558.623 307.032 556.315 307.117C556.224 307.089 555.921 307.089 555.89 307.089ZM650.938 305.755C648.964 305.755 647.203 304.479 646.808 302.607C646.322 300.479 647.81 298.38 650.088 297.926C650.118 297.926 650.422 297.869 650.452 297.869C652.76 297.5 654.946 298.919 655.371 301.075C655.766 303.231 654.248 305.273 651.94 305.67L651.181 301.784L651.788 305.699C651.515 305.755 651.211 305.755 650.938 305.755ZM669.522 301.614C667.731 301.614 666.03 300.536 665.453 298.89C664.755 296.82 665.909 294.635 668.095 293.954C668.156 293.926 668.459 293.841 668.52 293.841C670.767 293.245 673.105 294.465 673.743 296.564C674.381 298.663 673.075 300.848 670.828 301.444L669.674 297.642L670.737 301.472C670.372 301.557 669.947 301.614 669.522 301.614ZM687.499 295.685C685.859 295.685 684.311 294.834 683.612 293.359C682.671 291.373 683.552 289.075 685.677 288.167C685.738 288.139 686.042 288.025 686.102 287.997C688.258 287.174 690.749 288.139 691.629 290.181C692.51 292.196 691.477 294.522 689.291 295.344L687.681 291.685L689.2 295.373C688.653 295.571 688.076 295.685 687.499 295.685ZM704.565 287.855C703.138 287.855 701.741 287.174 700.921 285.926C699.707 284.054 700.375 281.614 702.379 280.508C702.409 280.48 702.683 280.338 702.713 280.338C704.748 279.26 707.329 279.941 708.483 281.87C709.637 283.77 708.908 286.182 706.843 287.26L704.778 283.799L706.721 287.316C706.053 287.685 705.294 287.855 704.565 287.855ZM720.356 277.926C719.141 277.926 717.927 277.444 717.076 276.48C715.588 274.778 715.862 272.31 717.684 270.92C717.714 270.891 717.927 270.749 717.957 270.721C719.809 269.388 722.451 269.671 723.909 271.402C725.336 273.132 725.032 275.6 723.18 276.962L720.569 273.841L723.059 277.047C722.239 277.614 721.297 277.926 720.356 277.926ZM734.294 265.813C733.231 265.813 732.199 265.445 731.379 264.735C729.679 263.232 729.618 260.736 731.227 259.147C732.806 257.587 735.539 257.416 737.24 258.863C738.94 260.31 739.153 262.693 737.635 264.31C737.604 264.338 737.392 264.565 737.361 264.594C736.541 265.416 735.418 265.813 734.294 265.813ZM745.803 251.658C745.014 251.658 744.224 251.459 743.526 251.034C741.552 249.842 740.975 247.403 742.25 245.559C743.495 243.743 746.168 243.091 748.141 244.225C750.115 245.388 750.783 247.686 749.569 249.53C749.569 249.559 749.417 249.785 749.386 249.814C748.567 251.034 747.2 251.658 745.803 251.658ZM754.306 235.743C753.79 235.743 753.243 235.658 752.727 235.46C750.571 234.637 749.508 232.339 750.389 230.297C751.269 228.311 753.729 227.205 755.885 227.999C758.041 228.793 759.165 230.921 758.375 232.935C758.375 232.963 758.254 233.247 758.223 233.275C757.555 234.836 755.976 235.743 754.306 235.743ZM568.462 220.538C566.124 220.453 564.18 218.637 564.241 216.453C564.332 214.269 566.184 212.482 568.492 212.623L568.341 216.567L568.584 212.623L568.614 216.567L568.462 220.538ZM587.563 219.29C585.559 219.29 583.676 217.985 583.311 216.113C582.856 213.985 584.222 211.914 586.53 211.517L586.804 211.46C589.081 211.063 591.328 212.453 591.753 214.609C592.178 216.765 590.69 218.836 588.383 219.233C588.109 219.262 587.836 219.29 587.563 219.29ZM549.604 219.035C549.422 219.035 549.24 219.035 549.088 219.006C549.058 219.006 548.784 218.978 548.784 218.978C546.477 218.694 544.867 216.68 545.171 214.524C545.505 212.368 547.631 210.836 549.938 211.148L549.361 215.063L550.151 211.177C552.459 211.46 554.129 213.418 553.825 215.602C553.522 217.588 551.7 219.035 549.604 219.035ZM759.529 218.666C759.256 218.666 758.952 218.637 758.648 218.581C756.371 218.127 754.883 216.028 755.369 213.9C755.855 211.801 758.102 210.326 760.318 210.723C762.596 211.12 764.114 213.049 763.72 215.177C763.72 215.233 763.659 215.489 763.628 215.545C763.234 217.389 761.472 218.666 759.529 218.666ZM530.777 216.056C530.504 216.056 530.2 216.028 529.927 215.971C527.649 215.517 526.04 213.418 526.526 211.29C526.981 209.163 529.077 207.744 531.354 208.17C531.354 208.17 531.627 208.226 531.658 208.226C533.935 208.68 535.423 210.751 534.937 212.907C534.512 214.779 532.751 216.056 530.777 216.056ZM512.162 212.113C511.828 212.113 511.464 212.084 511.13 211.999C508.852 211.46 507.364 209.304 507.941 207.177C508.518 205.049 510.705 203.744 512.952 204.283L513.195 204.34C515.472 204.879 516.839 207.007 516.262 209.134C515.776 210.921 514.075 212.113 512.162 212.113ZM604.355 211.857C603.171 211.857 601.987 211.404 601.136 210.496C599.618 208.85 599.8 206.354 601.562 204.907L604.325 207.886L601.653 204.822C603.384 203.375 606.056 203.461 607.635 205.049C609.214 206.666 609.123 209.134 607.422 210.609C607.392 210.638 607.149 210.836 607.119 210.865C606.329 211.545 605.327 211.857 604.355 211.857ZM493.73 207.517C493.335 207.517 492.94 207.46 492.576 207.375C490.329 206.78 488.901 204.567 489.539 202.468C490.177 200.368 492.394 199.12 494.641 199.716L494.884 199.773C497.131 200.368 498.437 202.553 497.799 204.652C497.252 206.382 495.582 207.517 493.73 207.517ZM475.419 202.411C474.963 202.411 474.508 202.354 474.082 202.212C471.896 201.532 470.56 199.29 471.258 197.22C471.957 195.149 474.174 193.986 476.39 194.61C476.421 194.61 476.694 194.695 476.755 194.723C478.972 195.404 480.156 197.645 479.427 199.716C478.85 201.39 477.21 202.411 475.419 202.411ZM761.503 200.964C759.165 200.964 757.282 199.205 757.282 197.021C757.282 196.964 757.282 196.681 757.282 196.652C757.373 194.468 759.347 192.737 761.655 192.851C763.993 192.936 765.815 194.752 765.724 196.936L761.503 196.794L765.724 197.049C765.693 199.205 763.811 200.964 761.503 200.964ZM619.205 200.425C617.929 200.425 616.654 199.915 615.834 198.922C614.407 197.191 614.68 194.78 616.532 193.447L616.745 193.305C618.597 191.972 621.27 192.312 622.667 194.071C624.094 195.801 623.729 198.298 621.847 199.603C621.087 200.17 620.146 200.425 619.205 200.425ZM457.259 196.936C456.804 196.936 456.348 196.879 455.893 196.737C453.676 196.028 452.37 193.759 453.13 191.688C453.889 189.617 456.136 188.454 458.353 189.163C458.353 189.163 458.596 189.248 458.626 189.248C460.843 189.957 462.027 192.198 461.268 194.269C460.691 195.886 459.021 196.936 457.259 196.936ZM439.222 191.12C438.736 191.12 438.28 191.035 437.794 190.894C435.608 190.156 434.333 187.858 435.122 185.816C435.912 183.773 438.189 182.638 440.406 183.376C440.406 183.376 440.649 183.461 440.679 183.461C442.866 184.199 444.019 186.468 443.23 188.511C442.592 190.099 440.953 191.12 439.222 191.12ZM634.752 190.099C633.386 190.099 632.019 189.504 631.23 188.397C629.924 186.582 630.349 184.199 632.293 182.979L632.505 182.837C634.449 181.617 637.091 182.128 638.366 183.943C639.672 185.759 639.125 188.227 637.182 189.418C636.453 189.872 635.603 190.099 634.752 190.099ZM421.275 185.021C420.759 185.021 420.242 184.936 419.757 184.738C417.601 183.943 416.386 181.646 417.206 179.603C418.026 177.561 420.334 176.511 422.52 177.249C422.55 177.249 422.793 177.334 422.824 177.362C425.01 178.156 426.073 180.454 425.223 182.468C424.554 184.057 422.975 185.021 421.275 185.021ZM760.592 183.177C758.527 183.177 756.705 181.759 756.401 179.802C756.401 179.745 756.371 179.461 756.34 179.433C756.098 177.249 757.798 175.32 760.106 175.093C762.444 174.866 764.509 176.454 764.752 178.61L760.531 179.007L764.752 178.695C765.056 180.851 763.416 182.837 761.108 183.149C760.956 183.177 760.774 183.177 760.592 183.177ZM650.968 180.681C649.511 180.681 648.053 180 647.294 178.752C646.11 176.851 646.686 174.497 648.721 173.419L648.934 173.305C650.938 172.199 653.549 172.852 654.703 174.752C655.888 176.653 655.189 179.064 653.155 180.142C652.486 180.483 651.697 180.681 650.968 180.681ZM403.419 178.695C402.903 178.695 402.387 178.61 401.901 178.412C399.715 177.617 398.53 175.291 399.381 173.249C400.231 171.206 402.569 170.157 404.725 170.951L404.968 171.036C407.154 171.83 408.217 174.128 407.367 176.142C406.729 177.731 405.12 178.695 403.419 178.695ZM667.761 172.227C666.182 172.227 664.633 171.433 663.904 170.043C662.872 168.086 663.631 165.788 665.696 164.823C665.726 164.823 665.969 164.71 666 164.682C668.095 163.745 670.646 164.568 671.648 166.525C672.65 168.483 671.769 170.866 669.674 171.802C669.067 172.086 668.399 172.227 667.761 172.227ZM385.655 172.171C385.139 172.171 384.622 172.086 384.136 171.887C384.106 171.887 383.863 171.774 383.833 171.774C381.677 170.951 380.614 168.653 381.495 166.611C382.375 164.596 384.835 163.604 387.021 164.455L385.412 168.114L387.173 164.511C389.36 165.306 390.422 167.603 389.572 169.618C388.965 171.206 387.355 172.171 385.655 172.171ZM756.037 166.043C754.61 166.043 753.213 165.362 752.393 164.114C751.209 162.242 751.755 159.717 753.759 158.611C755.763 157.476 758.284 157.958 759.499 159.831L759.65 160.058C760.865 161.93 760.197 164.37 758.193 165.476C757.525 165.873 756.766 166.043 756.037 166.043ZM367.981 165.447C367.435 165.447 366.858 165.334 366.342 165.135C364.186 164.284 363.062 161.93 363.973 159.944C364.854 157.93 367.222 156.937 369.348 157.76C369.378 157.76 369.621 157.873 369.652 157.873C371.808 158.724 372.81 161.05 371.899 163.065C371.2 164.54 369.621 165.447 367.981 165.447ZM685.161 164.88C683.461 164.88 681.821 163.972 681.153 162.441C680.302 160.426 681.213 158.185 683.369 157.363C683.4 157.363 683.643 157.249 683.673 157.249C685.859 156.455 688.289 157.476 689.139 159.49C689.989 161.533 688.896 163.802 686.74 164.596C686.224 164.795 685.708 164.88 685.161 164.88ZM703.199 159.008C701.346 159.008 699.555 157.902 699.039 156.171C698.401 154.072 699.585 151.916 701.832 151.32L702.075 151.264C704.322 150.668 706.661 151.888 707.298 153.987C707.936 156.086 706.63 158.27 704.383 158.866C703.988 158.951 703.594 159.008 703.199 159.008ZM350.369 158.554C349.822 158.554 349.276 158.441 348.729 158.242L350.126 154.497L352.009 150.951C354.165 151.803 355.167 154.129 354.256 156.143C353.588 157.646 352.009 158.554 350.369 158.554ZM740.853 156.114C740.519 156.114 740.185 156.086 739.851 156.001L740.58 152.086L741.825 148.313C744.103 148.824 745.5 150.951 744.953 153.079C744.467 154.895 742.736 156.114 740.853 156.114ZM721.874 155.405C719.749 155.405 717.805 153.93 717.562 151.916C717.289 149.76 718.838 147.831 721.146 147.547C721.176 147.547 721.449 147.519 721.449 147.519C723.787 147.292 725.852 148.852 726.095 151.037C726.338 153.221 724.668 155.15 722.33 155.377C722.178 155.405 722.026 155.405 721.874 155.405ZM332.817 151.49C332.24 151.49 331.633 151.377 331.056 151.122C328.96 150.214 327.897 147.859 328.839 145.874C329.78 143.888 332.118 142.952 334.244 143.803C334.274 143.831 334.548 143.945 334.609 143.945C336.734 144.852 337.645 147.207 336.673 149.193C335.945 150.639 334.426 151.49 332.817 151.49ZM315.356 144.257C314.809 144.257 314.232 144.143 313.716 143.945C313.686 143.916 313.413 143.803 313.352 143.803C311.226 142.895 310.315 140.54 311.287 138.555C312.259 136.569 314.779 135.718 316.905 136.626L315.143 140.228L317.026 136.682C319.182 137.533 320.184 139.86 319.273 141.874C318.575 143.349 316.996 144.257 315.356 144.257Z" fill="#FFD7CB"/>
<path d="M395.557 395.341C395.254 395.341 394.92 395.313 394.586 395.228C392.308 394.745 390.911 392.618 391.427 390.49L395.588 391.285L399.687 392.277C399.232 394.093 397.501 395.341 395.557 395.341Z" fill="#FFD7CB"/>
<path fill-rule="evenodd" clip-rule="evenodd" d="M475.239 472.02H606.332C617.658 472.02 626.859 480.587 626.859 491.196V498.005C626.859 508.586 617.658 517.181 606.332 517.181H475.239C463.912 517.181 454.711 508.586 454.711 498.005V491.196C454.741 480.587 463.912 472.02 475.239 472.02Z" fill="#FFD7CB"/>
<path d="M606.332 519.905H475.239C462.303 519.905 451.766 510.061 451.766 497.977V491.168C451.766 479.083 462.303 469.24 475.239 469.24H606.332C619.268 469.24 629.805 479.083 629.805 491.168V497.977C629.805 510.09 619.268 519.905 606.332 519.905ZM475.239 474.771C465.552 474.771 457.657 482.119 457.657 491.197V498.005C457.657 507.054 465.522 514.43 475.239 514.43H606.332C616.019 514.43 623.914 507.083 623.914 498.005V491.197C623.914 482.147 616.049 474.771 606.332 474.771H475.239Z" fill="#2D3142"/>
<path fill-rule="evenodd" clip-rule="evenodd" d="M484.987 479.68H600.866C609.399 479.68 616.353 486.148 616.353 494.147C616.353 502.119 609.429 508.615 600.866 508.615H484.987C476.454 508.615 469.5 502.147 469.5 494.147C469.5 486.148 476.424 479.68 484.987 479.68Z" fill="white"/>
<path d="M600.835 511.338H484.956C474.783 511.338 466.523 503.622 466.523 494.119C466.523 484.616 474.783 476.899 484.956 476.899H600.835C611.008 476.899 619.268 484.616 619.268 494.119C619.268 503.622 611.008 511.338 600.835 511.338ZM484.986 482.431C478.093 482.431 472.475 487.679 472.475 494.119C472.475 500.558 478.093 505.806 484.986 505.806H600.865C607.759 505.806 613.377 500.558 613.377 494.119C613.377 487.679 607.759 482.431 600.865 482.431H484.986Z" fill="#2D3142"/>
<path fill-rule="evenodd" clip-rule="evenodd" d="M510.614 428.957H606.329C617.656 428.957 626.857 437.553 626.857 448.134V449.808C626.857 460.389 617.656 468.984 606.329 468.984H510.614C499.287 468.984 490.086 460.389 490.086 449.808V448.134C490.086 437.553 499.287 428.957 510.614 428.957Z" fill="#FFD7CB"/>
<path d="M606.33 471.736H510.614C497.678 471.736 487.141 461.892 487.141 449.808V448.134C487.141 436.049 497.678 426.206 510.614 426.206H606.33C619.266 426.206 629.803 436.049 629.803 448.134V449.808C629.803 461.921 619.266 471.736 606.33 471.736ZM510.614 431.709C500.927 431.709 493.032 439.085 493.032 448.134V449.808C493.032 458.857 500.897 466.233 510.614 466.233H606.33C616.017 466.233 623.912 458.885 623.912 449.808V448.134C623.912 439.085 616.047 431.709 606.33 431.709H510.614Z" fill="#2D3142"/>
<path fill-rule="evenodd" clip-rule="evenodd" d="M303.212 502.431C301.086 502.431 299.355 501.722 298.232 500.36C296.926 498.8 296.562 496.473 297.23 494.005L328.507 377.583C329.935 372.278 335.583 367.825 340.867 367.825H530.324C532.45 367.825 534.181 368.534 535.304 369.896C536.61 371.456 536.974 373.782 536.306 376.25L505.029 492.672C503.601 497.977 497.923 502.431 492.669 502.431H303.212Z" fill="white"/>
<path d="M530.292 370.576C531.506 370.576 532.387 370.917 532.964 371.597C533.723 372.477 533.875 373.952 533.45 375.597L502.172 492.019C501.079 496.104 496.615 499.707 492.668 499.707H303.21C301.995 499.707 301.115 499.367 300.538 498.686C299.779 497.807 299.627 496.331 300.052 494.686L331.33 378.264C332.423 374.179 336.887 370.576 340.834 370.576H530.292ZM530.292 365.073H340.865C334.214 365.073 327.382 370.378 325.621 376.931L294.343 493.353C292.582 499.906 296.56 505.211 303.21 505.211H492.668C499.318 505.211 506.15 499.906 507.912 493.353L539.189 376.931C540.92 370.378 536.942 365.073 530.292 365.073Z" fill="#2D3142"/>
<path fill-rule="evenodd" clip-rule="evenodd" d="M202.88 517.068C197.718 517.068 193.527 513.153 193.527 508.331V502.289C193.527 501.154 194.499 500.246 195.714 500.246H497.558C498.773 500.246 499.745 501.154 499.745 502.289V508.331C499.745 513.153 495.554 517.068 490.392 517.068H202.88Z" fill="white"/>
<path d="M496.769 502.998V508.331C496.769 511.622 493.884 514.317 490.362 514.317H202.88C199.358 514.317 196.473 511.622 196.473 508.331V502.998H496.769ZM497.558 497.495H195.714C192.89 497.495 190.582 499.651 190.582 502.289V508.331C190.582 514.686 196.109 519.82 202.88 519.82H490.362C497.164 519.82 502.66 514.657 502.66 508.331V502.289C502.66 499.651 500.383 497.495 497.558 497.495Z" fill="#2D3142"/>
<path fill-rule="evenodd" clip-rule="evenodd" d="M351.283 378.548H511.558C517.176 378.548 520.638 382.69 519.272 387.796L494.796 478.602C493.43 483.708 487.751 487.85 482.103 487.85H321.828C316.21 487.85 312.748 483.708 314.115 478.602L338.59 387.796C339.987 382.69 345.665 378.548 351.283 378.548Z" fill="#FFD7CB"/>
<path d="M482.132 490.573H321.857C318.274 490.573 315.055 489.211 313.05 486.8C311.046 484.417 310.409 481.155 311.289 477.892L335.765 387.086C337.465 380.732 344.298 375.768 351.312 375.768H511.588C515.171 375.768 518.39 377.129 520.394 379.541C522.398 381.923 523.036 385.186 522.155 388.448L497.68 479.254C495.949 485.608 489.116 490.573 482.132 490.573ZM351.282 381.299C347 381.299 342.506 384.59 341.474 388.448L316.998 479.254C316.573 480.871 316.816 482.374 317.697 483.424C318.577 484.474 320.065 485.069 321.857 485.069H482.132C486.414 485.069 490.908 481.779 491.94 477.921L516.416 387.115C516.841 385.498 516.598 383.994 515.717 382.945C514.837 381.895 513.349 381.299 511.557 381.299H351.282Z" fill="#2D3142"/>
<path fill-rule="evenodd" clip-rule="evenodd" d="M613.285 371.371C617.415 366.009 621.606 361.442 633.449 359.74C646.567 357.839 654.614 365.555 654.614 365.555C654.614 365.555 650.575 374.548 635.422 376.505C620.3 378.463 613.285 371.371 613.285 371.371Z" fill="white"/>
<path d="M630.289 379.597C617.566 379.597 611.371 373.526 611.128 373.243L609.488 371.597L610.885 369.782C615.41 363.881 620.208 358.86 633.022 357.016C634.541 356.789 636.089 356.676 637.577 356.676C649.36 356.676 656.466 363.342 656.739 363.626L658.105 364.931L657.346 366.605C657.164 367.03 652.457 377.044 635.847 379.2C633.964 379.455 632.081 379.597 630.289 379.597ZM617.353 370.888C619.6 372.25 623.821 374.065 630.289 374.065C631.808 374.065 633.417 373.952 635.057 373.753C644.41 372.533 648.904 368.505 650.787 366.151C648.449 364.59 643.803 362.179 637.577 362.179C636.363 362.179 635.148 362.264 633.903 362.434C624.793 363.768 620.815 366.775 617.353 370.888Z" fill="#2D3142"/>
<path fill-rule="evenodd" clip-rule="evenodd" d="M143.575 339.939C116.488 339.939 94.4727 319.344 94.4727 294.039V140.625C94.4727 115.321 116.519 94.7544 143.575 94.7544H651.063C678.15 94.7544 700.166 115.35 700.166 140.625V294.039C700.166 319.344 678.119 339.939 651.063 339.939H143.575Z" fill="white"/>
<path d="M651.062 97.4775C676.57 97.4775 697.22 116.796 697.22 140.597V294.011C697.22 317.84 676.54 337.13 651.062 337.13H143.575C118.067 337.13 97.4176 317.811 97.4176 294.011V140.625C97.4176 116.796 118.097 97.5059 143.575 97.5059H651.062V97.4775ZM651.062 91.9741H143.575C114.878 91.9741 91.4961 113.789 91.4961 140.625V294.039C91.4961 320.875 114.848 342.69 143.575 342.69H651.062C679.759 342.69 703.141 320.875 703.141 294.039V140.625C703.111 113.789 679.759 91.9741 651.062 91.9741Z" fill="#247EB0"/>
<path fill-rule="evenodd" clip-rule="evenodd" d="M593.09 387.426C593.09 387.426 595.124 378.944 598.556 373.696C602.018 368.448 607.028 363.456 607.028 363.456L593.09 387.426Z" fill="white"/>
<path d="M593.09 390.178C592.877 390.178 592.664 390.15 592.452 390.121C590.873 389.781 589.871 388.306 590.205 386.831C590.296 386.462 592.391 377.838 596.066 372.25C599.649 366.831 604.69 361.782 604.902 361.555C606.026 360.449 607.878 360.392 609.062 361.441C610.247 362.491 610.308 364.222 609.184 365.328C609.123 365.385 604.325 370.179 601.076 375.115C597.918 379.909 595.974 387.909 595.974 387.994C595.671 389.299 594.456 390.178 593.09 390.178Z" fill="#2D3142"/>
<path fill-rule="evenodd" clip-rule="evenodd" d="M592.42 374.633C610.033 374.633 624.244 386.264 624.153 400.646C624.062 415 609.729 426.66 592.116 426.66C574.504 426.66 560.292 415.029 560.383 400.646C560.474 386.264 574.838 374.633 592.42 374.633Z" fill="white"/>
<path d="M592.118 429.383C582.127 429.383 572.623 425.837 566.063 419.653C560.476 414.405 557.409 407.625 557.47 400.589C557.561 384.732 573.26 371.853 592.452 371.853C602.443 371.853 611.947 375.399 618.507 381.583C624.094 386.831 627.161 393.611 627.131 400.646C627.009 416.504 611.31 429.383 592.118 429.383ZM592.422 377.384C576.449 377.384 563.391 387.824 563.33 400.646C563.3 406.206 565.729 411.568 570.224 415.766C575.69 420.901 583.676 423.851 592.118 423.851C608.091 423.851 621.118 413.412 621.209 400.589C621.24 395.029 618.81 389.668 614.316 385.441C608.85 380.335 600.864 377.384 592.422 377.384Z" fill="#2D3142"/>
<path d="M593.851 497.58H504.664C503.025 497.58 501.719 496.331 501.719 494.828C501.719 493.296 503.055 492.076 504.664 492.076H593.851C595.491 492.076 596.797 493.324 596.797 494.828C596.797 496.331 595.491 497.58 593.851 497.58Z" fill="#2D3142"/>
<path d="M593.606 490.005H517.629C515.989 490.005 514.684 488.757 514.684 487.254C514.684 485.722 516.02 484.502 517.629 484.502H593.606C595.246 484.502 596.552 485.75 596.552 487.254C596.552 488.786 595.216 490.005 593.606 490.005Z" fill="#2D3142"/>
<path d="M752.396 524.103H35.5003C33.8605 524.103 32.5547 522.855 32.5547 521.352C32.5547 519.82 33.8605 518.6 35.5003 518.6H752.396C754.036 518.6 755.342 519.848 755.342 521.352C755.342 522.855 754.036 524.103 752.396 524.103Z" fill="#2D3142"/>
<mask id="mask0_197_363" style="mask-type:luminance" maskUnits="userSpaceOnUse" x="97" y="97" width="601" height="241">
<path d="M143.571 97.4775H651.059C676.567 97.4775 697.216 116.796 697.216 140.597V294.011C697.216 317.84 676.536 337.13 651.059 337.13H143.571C118.063 337.13 97.4141 317.812 97.4141 294.011V140.625C97.3837 116.796 118.063 97.4775 143.571 97.4775Z" fill="white"/>
</mask>
<g mask="url(#mask0_197_363)">
<path fill-rule="evenodd" clip-rule="evenodd" d="M152.774 104.002H660.262C685.77 104.002 706.419 123.321 706.419 147.121V300.535C706.419 324.364 685.739 343.655 660.262 343.655H152.774C127.266 343.655 106.617 324.336 106.617 300.535V147.121C106.617 123.321 127.297 104.002 152.774 104.002Z" fill="#F1DBFF"/>
</g>
<mask id="mask1_197_363" style="mask-type:luminance" maskUnits="userSpaceOnUse" x="97" y="97" width="601" height="241">
<path d="M143.571 97.4775H651.059C676.567 97.4775 697.216 116.796 697.216 140.597V294.011C697.216 317.84 676.536 337.13 651.059 337.13H143.571C118.063 337.13 97.4141 317.812 97.4141 294.011V140.625C97.3837 116.796 118.063 97.4775 143.571 97.4775Z" fill="white"/>
</mask>
<g mask="url(#mask1_197_363)">
<path fill-rule="evenodd" clip-rule="evenodd" d="M413.5 337.159L431.933 286.891C431.933 286.891 425.799 280.394 420.97 276.423C416.142 272.423 412.255 268.962 412.255 268.962L395.827 257.104C395.827 257.104 388.023 251.856 389.602 247.573C391.181 243.289 394.582 245.246 394.582 245.246C394.582 245.246 398.651 237.899 403.54 240.594C408.429 243.289 410.524 246.863 410.524 246.863L417.296 254.267C417.721 254.211 450.304 261.303 450.638 259.657C450.972 258.012 436.791 249.899 442.409 241.048C446.418 234.722 470.012 257.898 471.561 261.53C473.079 265.161 476.875 273.472 474.81 284.11C472.715 294.748 462.117 337.159 462.117 337.159H488.263L571.71 254.324L581.913 251.544L605.569 221.758V218.495C605.569 218.495 586.954 221.219 578.178 209.645C569.402 198.07 570.951 147.036 570.951 147.036L600.589 138.441L638.456 148.228L646.169 177.078L648.902 184.766C648.902 184.766 650.876 188.369 646.655 191.517C642.434 194.666 635.207 196.624 635.207 196.624L640.187 214.779C640.187 214.779 634.205 234.069 624.761 234.098C615.286 234.126 607.33 228.282 607.33 228.282L592.633 262.012L548.055 290.408L487.473 337.159H413.5Z" fill="white"/>
</g>
<mask id="mask2_197_363" style="mask-type:luminance" maskUnits="userSpaceOnUse" x="97" y="97" width="601" height="241">
<path d="M143.571 97.4775H651.059C676.567 97.4775 697.216 116.796 697.216 140.597V294.011C697.216 317.84 676.536 337.13 651.059 337.13H143.571C118.063 337.13 97.4141 317.812 97.4141 294.011V140.625C97.3837 116.796 118.063 97.4775 143.571 97.4775Z" fill="white"/>
</mask>
<g mask="url(#mask2_197_363)">
<path fill-rule="evenodd" clip-rule="evenodd" d="M624.731 181.475C626.766 184.51 628.466 187.177 630.47 184.964C632.475 182.752 635.785 177.589 639.429 177.532C643.073 177.447 645.168 179.858 645.168 179.858C645.168 179.858 658.408 152.455 647.901 139.831C637.394 127.207 621.694 129.562 610.034 128.2C598.373 126.838 574.414 122.838 574.414 122.838L574.899 136.115L555.465 138.441L570.405 151.717L581.853 146.129C581.853 146.129 595.974 147.887 607.756 148.001C619.538 148.086 627.98 147.065 628.679 152.199C629.438 157.277 622.697 178.44 624.731 181.475Z" fill="#247EB0"/>
</g>
<mask id="mask3_197_363" style="mask-type:luminance" maskUnits="userSpaceOnUse" x="97" y="97" width="601" height="241">
<path d="M143.571 97.4775H651.059C676.567 97.4775 697.216 116.796 697.216 140.597V294.011C697.216 317.84 676.536 337.13 651.059 337.13H143.571C118.063 337.13 97.4141 317.812 97.4141 294.011V140.625C97.3837 116.796 118.063 97.4775 143.571 97.4775Z" fill="white"/>
</mask>
<g mask="url(#mask3_197_363)">
<path fill-rule="evenodd" clip-rule="evenodd" d="M484.254 338.094C484.254 338.094 503.324 302.691 511.402 278.068C519.51 253.444 536.606 241.133 549.269 239.686C561.932 238.239 596.853 234.807 596.853 234.807C596.853 234.807 592.663 238.892 591.114 248.31C589.565 257.7 586.013 266.891 589.11 264.593C592.207 262.295 615.256 244.111 615.256 244.111C615.256 244.111 623.121 267.146 625.459 268.082C627.797 269.018 637.605 254.352 640.642 248.083C643.679 241.785 647.384 226.92 647.384 226.92L700.191 244.367L700.434 299.741C700.434 299.741 694.998 323.797 679.754 330.917C664.541 338.038 650.602 339.768 650.602 339.768L484.254 338.094Z" fill="#247EB0"/>
</g>
<mask id="mask4_197_363" style="mask-type:luminance" maskUnits="userSpaceOnUse" x="97" y="97" width="601" height="241">
<path d="M143.571 97.4775H651.059C676.567 97.4775 697.216 116.796 697.216 140.597V294.011C697.216 317.84 676.536 337.13 651.059 337.13H143.571C118.063 337.13 97.4141 317.812 97.4141 294.011V140.625C97.3837 116.796 118.063 97.4775 143.571 97.4775Z" fill="white"/>
</mask>
<g mask="url(#mask4_197_363)">
<path fill-rule="evenodd" clip-rule="evenodd" d="M637.727 198.24C638.426 201.73 639.064 205.304 639.276 209.247C643.892 212.822 646.352 218.438 648.265 224.594C663.175 229.36 680.757 234.353 696.973 239.459C700.374 240.537 713.006 242.665 710.82 246.891C709.666 249.133 705.293 247.544 703.137 246.891C685.585 241.728 667.001 235.544 649.54 230.353C648.993 240.679 643.861 247.998 638.76 255.998C636.968 258.834 635.085 261.898 632.595 265.331C631.32 267.118 627.767 273.302 625.156 273.245C621.633 273.16 619.659 264.224 618.475 261.274C616.562 256.451 614.801 252.452 613.1 248.111C607.148 252.111 601.227 257.898 594.88 263.203C593.544 264.309 590.386 267.827 587.956 267.515C583.675 266.948 586.56 255.572 587.197 252.65C588.351 247.289 590.143 242.977 591.813 238.75C572.014 240.764 555.252 240.849 541.04 246.182C527.193 251.374 520.239 262.437 514.621 276.139C509.276 289.217 504.722 303.032 498.982 316.393C495.186 325.215 490.54 335.712 485.894 345.13C484.376 348.222 482.706 353.385 479.73 353.044C474.719 352.477 479.973 345.272 480.762 343.711C485.682 333.953 490.449 323.201 494.609 313.528C500.47 299.854 505.207 284.479 511.038 271.118C517.384 256.593 525.31 246.381 540.524 240.934C555.677 235.516 573.654 235.488 594.394 233.502C597.401 229.502 599.799 224.963 603.383 221.531C585.618 221.843 575.142 212.538 570.799 198.779C567.034 186.751 567.277 173.702 568.249 159.263C568.37 157.419 569.068 155.206 568.765 153.759C568.218 151.121 562.995 147.887 560.292 145.363C558.379 143.575 551.82 139.547 552.61 136.512C553.612 132.597 568.613 136.228 572.105 135.547C572.864 133.079 568.309 120.881 573.138 120.938C578.634 120.966 584.586 122.611 590.052 123.321C595.821 124.087 601.652 124.597 607.756 124.994C620.084 125.817 632.687 125.079 640.825 130.498C655.127 140.029 656.221 161.702 649.54 179.603C653.974 188.595 647.445 197.843 637.727 198.24ZM639.519 135.717C632.778 129.959 620.54 130.413 609.243 129.959C598.038 129.505 585.77 127.718 576.417 126.129C575.871 130.015 578.968 137.051 577.176 139.292C574.747 142.412 566.7 138.838 562.054 139.774C563.663 141.731 565.212 143.292 567.429 145.277C568.674 146.384 573.38 149.192 573.836 150.554C574.474 152.426 573.441 156.142 573.32 158.469C572.348 178.042 571.862 199.12 582.308 209.247C589.08 215.829 601.895 218.892 612.068 213.559C614.224 212.424 619.325 207.829 621.542 208.538C625.672 209.843 621.299 213.247 619.477 214.524C616.167 216.85 612.311 218.949 608.97 220.509C609.79 223.176 610.246 226.183 610.762 229.133C616.805 234.778 624.336 230.466 628.709 226.495C630.409 224.935 635.298 220.708 635.632 218.098C635.814 216.651 634.903 214.439 634.6 212.595C633.658 206.637 632.96 200.765 632.049 195.347C633.689 192.68 638.152 193.9 641.28 192.482C645.926 190.354 648.568 179.915 640.764 180.028C637.09 180.085 635.784 183.716 633.84 185.049C630.47 187.375 624.518 187.659 622.544 183.858C618.445 175.915 630.014 160.681 625.368 153.447C622.848 149.533 610.276 149.845 602.289 149.845C597.795 149.845 594.819 149.731 589.718 149.362C586.347 149.107 579.818 149.249 579.97 146.015C580.152 142.554 586.134 144.058 589.961 144.341C602.107 145.192 619.72 143.433 626.886 147.689C636.057 153.164 629.711 167.603 627.919 175.716C627.524 177.503 626.735 179.915 627.919 181.702C630.591 182.61 631.776 179.574 633.567 178.099C636.665 175.546 641.28 173.901 645.349 176.199C650.451 161.532 648.872 143.66 639.519 135.717ZM616.44 237.048C611.4 236.48 604.111 233.02 605.417 227.459C598.433 235.459 593.817 245.672 591.813 258.352C597.097 254.778 602.745 249.246 608.241 244.707C609.456 243.686 612.645 240.537 614.406 240.622C616.653 240.764 617.26 244.083 617.989 245.899C620.752 252.735 623.516 258.579 625.672 265.075C629.346 261.019 632.474 255.572 635.936 249.984C641.007 241.785 647.688 231.346 641.068 220.765C641.068 220.623 641.037 220.481 640.825 220.538C637.12 225.701 627.98 238.353 616.44 237.048Z" fill="#2D3142"/>
<path fill-rule="evenodd" clip-rule="evenodd" d="M578.757 160.142C578.909 160.085 578.939 159.915 579.274 159.915C594.791 160 599.589 173.191 595.429 187.716C594.487 191.035 593.181 194.637 590.813 194.666C587.169 194.694 588.414 190.808 589.264 188.425C591.845 181.248 592.969 169.503 585.681 166.156C583.768 165.277 577.026 165.702 576.692 162.809C576.51 161.22 577.573 160.539 578.757 160.142Z" fill="#2D3142"/>
<path fill-rule="evenodd" clip-rule="evenodd" d="M609.002 160.88C610.065 160.71 611.765 160.398 613.102 160.653C615.804 161.135 621.452 165.334 620.299 168.794C619.965 169.731 618.628 170.298 617.474 170.241C615.167 170.099 614.833 166.241 611.826 165.702C609.215 165.22 607.666 167.263 605.662 166.667C604.265 166.241 603.749 164.908 604.113 163.546C604.569 161.958 606.968 161.192 609.002 160.88Z" fill="#2D3142"/>
<path fill-rule="evenodd" clip-rule="evenodd" d="M585.922 170.922C586.073 174.44 587.652 181.872 582.854 180.993C579.15 180.312 580.182 165.192 585.922 170.922Z" fill="#2D3142"/>
<path fill-rule="evenodd" clip-rule="evenodd" d="M612.86 172.596C613.801 175.603 613.072 180.624 611.068 182.411C604.873 184.141 607.576 167.943 612.86 172.596Z" fill="#2D3142"/>
<path fill-rule="evenodd" clip-rule="evenodd" d="M638.001 183.404C639.003 183.234 641.037 182.808 641.341 185.078C641.614 187.29 634.994 191.517 632.626 191.319C631.35 191.205 630.379 190.07 630.318 189.163C630.196 187.404 632.17 186.666 633.658 185.815C634.387 185.361 635.996 183.716 638.001 183.404Z" fill="#2D3142"/>
<path fill-rule="evenodd" clip-rule="evenodd" d="M604.144 198.496C600.925 199.318 597.676 202.581 593.121 202.808C589.75 202.978 582.583 201.162 585.681 197.786C587.472 195.829 590.995 198.098 592.604 198.042C597.099 197.843 608.516 187.744 609.519 197.332C610.156 203.432 604.63 208.084 599.255 209.304C597.008 209.814 593.303 210.268 593.88 206.921C594.335 204.169 599.68 204.822 601.836 203.091C603.749 201.531 603.385 200.737 604.144 198.496Z" fill="#2D3142"/>
<path fill-rule="evenodd" clip-rule="evenodd" d="M386.93 250.239C386.93 248.962 386.93 247.686 386.93 246.409C388.084 243.345 390.695 241.615 395.129 241.615C399.714 236.225 407.458 239.743 410.768 243.515C412.681 245.728 414.199 249.955 417.448 250.948C418.511 251.26 420.06 251.203 421.305 251.43C430.354 253.132 437.429 255.033 446.448 256.707C444.9 254.692 440.284 252.65 439.008 248.792C437.672 244.764 439.069 240.537 443.108 239.459C448.756 237.927 456.014 242.296 459.263 244.48C463.666 247.43 467.675 251.288 470.286 254.778C476.025 262.409 480.398 274.777 477.453 288.308C476.177 294.181 473.596 299.939 471.804 306.038C467.31 321.3 464.122 336.931 460.781 353.725C460.265 356.335 459.87 361.782 456.682 361.64C453.584 361.498 454.313 357.782 454.89 354.69C458.656 334.718 464.031 312.932 469.254 296.223C471.106 290.266 472.594 285.387 472.594 278.975C472.594 265.869 466.551 256.962 458.747 250.721C455.042 247.771 450.123 244.111 444.14 244.735C443.442 249.813 449.303 251.175 451.823 254.551C452.977 256.111 455.619 260.082 453.372 262.21C451.793 263.713 447.238 262.238 444.9 261.728C436.974 259.969 428.471 258.125 421.821 256.707C426.103 267.486 446.388 265.501 455.68 272.99C456.409 273.586 466.581 285.614 459.536 285.926C456.257 286.067 454.829 279.429 452.856 277.529C446.175 271.089 430.84 272.11 422.337 265.784C416.142 261.16 415.839 254.04 408.247 251.175C410.191 265.359 421.639 273.727 432.085 281.358C434.15 282.862 442.379 287.089 440.557 290.464C438.796 293.698 435.304 289.443 434.393 290.238C425.86 312.591 416.659 335.399 407.974 357.81C407.063 360.193 405.727 366.32 402.326 365.952C398.105 365.469 401.566 358.519 402.326 356.619C411.679 333.215 421.123 309.499 430.293 286.663C423.248 280.791 414.897 276.11 409.765 268.451C406.425 266.295 403.358 263.685 399.501 261.274C394.43 258.068 388.296 256.224 386.93 250.239ZM399.987 244.707C400.534 247.061 401.475 249.047 403.054 250.466C402.903 247.941 404.573 247.09 405.878 245.898C404.785 244.991 401.688 242.806 399.987 244.707ZM394.369 246.636C394.066 247.061 393.033 246.835 392.578 247.118C391.515 252.054 396.404 253.416 399.501 255.26C397.619 252.536 396.009 249.558 394.369 246.636Z" fill="#2D3142"/>
<path fill-rule="evenodd" clip-rule="evenodd" d="M545.14 301.982C548.875 301.244 548.693 306.89 549.513 311.088C552.428 326.378 555.222 340.988 558.228 357.073C559.109 361.753 562.601 373.753 558.744 374.32C555.131 374.859 555.313 370.916 554.645 367.37C551.092 348.846 547.569 330.549 544.381 312.28C543.682 308.336 541.344 302.72 545.14 301.982Z" fill="#2D3142"/>
</g>
<mask id="mask5_197_363" style="mask-type:luminance" maskUnits="userSpaceOnUse" x="97" y="97" width="601" height="241">
<path d="M143.571 97.4775H651.059C676.567 97.4775 697.216 116.796 697.216 140.597V294.011C697.216 317.84 676.536 337.13 651.059 337.13H143.571C118.063 337.13 97.4141 317.812 97.4141 294.011V140.625C97.3837 116.796 118.063 97.4775 143.571 97.4775Z" fill="white"/>
</mask>
<g mask="url(#mask5_197_363)">
<path fill-rule="evenodd" clip-rule="evenodd" d="M496.188 187.035C482.068 187.035 470.559 176.312 470.559 163.092C470.559 149.901 482.037 139.15 496.188 139.15C510.309 139.15 521.817 149.873 521.817 163.092C521.817 176.312 510.309 187.035 496.188 187.035Z" fill="#F6F6F6"/>
<path d="M496.188 141.93C508.699 141.93 518.842 151.405 518.842 163.121C518.842 174.809 508.699 184.312 496.188 184.312C483.677 184.312 473.535 174.837 473.535 163.121C473.535 151.405 483.677 141.93 496.188 141.93ZM496.188 136.427C480.428 136.427 467.613 148.398 467.613 163.121C467.613 177.844 480.428 189.815 496.188 189.815C511.948 189.815 524.763 177.844 524.763 163.121C524.763 148.398 511.948 136.427 496.188 136.427Z" fill="#2D3142"/>
</g>
<mask id="mask6_197_363" style="mask-type:luminance" maskUnits="userSpaceOnUse" x="97" y="97" width="601" height="241">
<path d="M143.571 97.4775H651.059C676.567 97.4775 697.216 116.796 697.216 140.597V294.011C697.216 317.84 676.536 337.13 651.059 337.13H143.571C118.063 337.13 97.4141 317.812 97.4141 294.011V140.625C97.3837 116.796 118.063 97.4775 143.571 97.4775Z" fill="white"/>
</mask>
<g mask="url(#mask6_197_363)">
<path fill-rule="evenodd" clip-rule="evenodd" d="M375.51 232.424C313.653 232.424 263.336 185.418 263.336 127.633C263.336 69.847 313.653 22.8413 375.51 22.8413C437.367 22.8413 487.685 69.847 487.685 127.633C487.685 185.418 437.367 232.424 375.51 232.424Z" fill="#247EB0"/>
<path d="M375.511 25.5933C435.849 25.5933 484.739 71.2657 484.739 127.633C484.739 184 435.849 229.672 375.511 229.672C315.172 229.672 266.282 184 266.282 127.633C266.282 71.2657 315.202 25.5933 375.511 25.5933ZM375.511 20.0615C312.014 20.0615 260.391 68.3154 260.391 127.604C260.391 186.894 312.044 235.147 375.511 235.147C439.007 235.147 490.631 186.894 490.631 127.604C490.631 68.3154 439.007 20.0615 375.511 20.0615Z" fill="#2D3142"/>
</g>
<mask id="mask7_197_363" style="mask-type:luminance" maskUnits="userSpaceOnUse" x="97" y="97" width="601" height="241">
<path d="M143.571 97.4775H651.059C676.567 97.4775 697.216 116.796 697.216 140.597V294.011C697.216 317.84 676.536 337.13 651.059 337.13H143.571C118.063 337.13 97.4141 317.812 97.4141 294.011V140.625C97.3837 116.796 118.063 97.4775 143.571 97.4775Z" fill="white"/>
</mask>
<g mask="url(#mask7_197_363)">
<path d="M471.198 223.403C443.169 223.403 407.033 216.793 369.379 203.829C238.802 158.922 177.674 95.4633 175.153 92.7683C174.516 92.0875 174.273 91.1513 174.485 90.2719C174.728 89.3925 175.396 88.6833 176.307 88.3429C177.461 87.9458 178.767 88.2294 179.557 89.1088C182.047 91.7471 242.203 154.213 371.413 198.638C436.549 221.02 498.528 224.367 515.594 206.382C521.91 199.716 521.758 190.184 515.078 178.042C514.318 176.681 514.895 175.035 516.353 174.326C517.811 173.645 519.572 174.184 520.331 175.518C530.139 193.418 525.554 204.169 519.997 210.042C511.525 219.006 494.064 223.403 471.198 223.403Z" fill="#2D3142"/>
</g>
<path fill-rule="evenodd" clip-rule="evenodd" d="M181.713 40.5718C213.781 40.5718 239.774 64.8548 239.774 94.783C239.774 124.74 213.781 149.023 181.713 149.023C149.646 149.023 123.652 124.74 123.652 94.783C123.683 64.8548 149.646 40.5718 181.713 40.5718Z" fill="#F6F6F6"/>
<path d="M181.714 151.774C148.067 151.774 120.707 126.214 120.707 94.7827C120.707 63.351 148.067 37.7915 181.714 37.7915C215.36 37.7915 242.72 63.351 242.72 94.7827C242.72 126.214 215.36 151.774 181.714 151.774ZM181.714 43.3516C151.347 43.3516 126.629 66.4432 126.629 94.8111C126.629 123.179 151.347 146.271 181.714 146.271C212.08 146.271 236.799 123.179 236.799 94.8111C236.829 66.4148 212.111 43.3516 181.714 43.3516Z" fill="#2D3142"/>
<mask id="mask8_197_363" style="mask-type:luminance" maskUnits="userSpaceOnUse" x="123" y="40" width="117" height="110">
<path d="M181.713 40.5713C213.781 40.5713 239.774 64.8543 239.774 94.7825C239.774 124.739 213.781 149.022 181.713 149.022C149.646 149.022 123.652 124.739 123.652 94.7825C123.683 64.8543 149.646 40.5713 181.713 40.5713Z" fill="white"/>
</mask>
<g mask="url(#mask8_197_363)">
<path fill-rule="evenodd" clip-rule="evenodd" d="M190.55 45.8193C222.587 45.8193 240.807 71.1803 239.38 93.9882C238.864 102.272 244.238 115.831 239.774 124.172C231.059 140.398 207.282 149.391 186.086 149.391C154.019 149.391 132.52 130.015 132.52 100.059C132.52 70.1023 158.513 45.8193 190.55 45.8193Z" fill="#FFD7CB"/>
</g>
<path d="M181.714 151.774C148.067 151.774 120.707 126.214 120.707 94.7827C120.707 63.351 148.067 37.7915 181.714 37.7915C215.36 37.7915 242.72 63.351 242.72 94.7827C242.72 126.214 215.36 151.774 181.714 151.774ZM181.714 43.3516C151.347 43.3516 126.629 66.4432 126.629 94.8111C126.629 123.179 151.347 146.271 181.714 146.271C212.08 146.271 236.799 123.179 236.799 94.8111C236.829 66.4148 212.111 43.3516 181.714 43.3516Z" fill="#2D3142"/>
<path fill-rule="evenodd" clip-rule="evenodd" d="M21.0441 66.5283C32.6745 66.5283 42.0882 75.3791 42.0882 86.3008C42.0882 97.2225 32.6745 106.073 21.0441 106.073C9.41368 106.073 0 97.2225 0 86.3008C0 75.3791 9.44405 66.5283 21.0441 66.5283Z" fill="#FFD7CB"/>
<path fill-rule="evenodd" clip-rule="evenodd" d="M752.057 147.037C759.071 147.037 764.75 152.341 764.75 158.894C764.75 165.447 759.071 170.752 752.057 170.752C745.042 170.752 739.363 165.447 739.363 158.894C739.333 152.37 745.042 147.037 752.057 147.037Z" fill="#FFD7CB"/>
<path d="M393.671 271.969H284.473C282.833 271.969 281.527 270.721 281.527 269.218C281.527 267.714 282.863 266.466 284.473 266.466H393.671C395.311 266.466 396.617 267.714 396.617 269.218C396.617 270.721 395.281 271.969 393.671 271.969Z" fill="#F6F6F6"/>
<path d="M311.621 282.692H284.473C282.833 282.692 281.527 281.444 281.527 279.94C281.527 278.437 282.863 277.188 284.473 277.188H311.621C313.26 277.188 314.566 278.437 314.566 279.94C314.566 281.444 313.26 282.692 311.621 282.692Z" fill="#F6F6F6"/>
<path d="M393.826 293.273H284.567C282.927 293.273 281.621 292.025 281.621 290.522C281.621 289.018 282.957 287.77 284.567 287.77H393.826C395.466 287.77 396.771 289.018 396.771 290.522C396.771 292.025 395.466 293.273 393.826 293.273Z" fill="#F6F6F6"/>
<path d="M394.068 304.082H328.567C326.927 304.082 325.621 302.833 325.621 301.33C325.621 299.826 326.957 298.578 328.567 298.578H394.068C395.707 298.578 397.013 299.826 397.013 301.33C397.013 302.833 395.707 304.082 394.068 304.082Z" fill="#F6F6F6"/>
<path d="M393.826 293.273H284.567C282.927 293.273 281.621 292.025 281.621 290.522C281.621 289.018 282.957 287.77 284.567 287.77H393.826C395.466 287.77 396.771 289.018 396.771 290.522C396.771 292.025 395.466 293.273 393.826 293.273Z" fill="#F6F6F6"/>
<path d="M319.853 304.082H314.114C312.474 304.082 311.168 302.833 311.168 301.33C311.168 299.826 312.504 298.578 314.114 298.578H319.853C321.493 298.578 322.798 299.826 322.798 301.33C322.798 302.833 321.462 304.082 319.853 304.082Z" fill="#F6F6F6"/>
<path d="M394.068 314.549H350.735C349.095 314.549 347.789 313.301 347.789 311.798C347.789 310.266 349.125 309.046 350.735 309.046H394.068C395.708 309.046 397.013 310.294 397.013 311.798C397.013 313.329 395.708 314.549 394.068 314.549Z" fill="#F6F6F6"/>
<path d="M393.671 271.969H284.473C282.833 271.969 281.527 270.721 281.527 269.218C281.527 267.714 282.863 266.466 284.473 266.466H393.671C395.311 266.466 396.617 267.714 396.617 269.218C396.617 270.721 395.281 271.969 393.671 271.969Z" fill="#F6F6F6"/>
<path d="M393.825 282.692H328.567C326.927 282.692 325.621 281.444 325.621 279.94C325.621 278.437 326.957 277.188 328.567 277.188H393.825C395.464 277.188 396.77 278.437 396.77 279.94C396.77 281.444 395.464 282.692 393.825 282.692Z" fill="#F6F6F6"/>
<path d="M393.826 293.273H284.567C282.927 293.273 281.621 292.025 281.621 290.522C281.621 289.018 282.957 287.77 284.567 287.77H393.826C395.466 287.77 396.771 289.018 396.771 290.522C396.771 292.025 395.466 293.273 393.826 293.273Z" fill="#F6F6F6"/>
<path d="M304.154 304.082H284.719C283.079 304.082 281.773 302.833 281.773 301.33C281.773 299.826 283.11 298.578 284.719 298.578H304.154C305.793 298.578 307.099 299.826 307.099 301.33C307.099 302.833 305.763 304.082 304.154 304.082Z" fill="#F6F6F6"/>
<path d="M393.826 293.273H284.567C282.927 293.273 281.621 292.025 281.621 290.522C281.621 289.018 282.957 287.77 284.567 287.77H393.826C395.466 287.77 396.771 289.018 396.771 290.522C396.771 292.025 395.466 293.273 393.826 293.273Z" fill="#F6F6F6"/>
<path d="M333.792 314.549H284.719C283.079 314.549 281.773 313.301 281.773 311.798C281.773 310.266 283.11 309.046 284.719 309.046H333.792C335.431 309.046 336.737 310.294 336.737 311.798C336.737 313.329 335.431 314.549 333.792 314.549Z" fill="#F6F6F6"/>
<path fill-rule="evenodd" clip-rule="evenodd" d="M75.976 545.663H226.412C226.412 545.663 219.428 534.032 214.205 525.891C208.982 517.749 200.267 508.444 200.267 508.444C200.267 508.444 205.915 506.686 215.207 498.658C224.499 490.658 236.889 477.013 236.889 477.013C236.889 477.013 248.337 473.467 254.076 467.708C259.816 461.949 264.553 453.978 264.553 453.978L323.1 500.757C323.1 500.757 342.352 522.288 366.19 515.65C390.028 509.012 434.181 467.935 434.181 467.935C434.181 467.935 443.382 468.446 447.147 456.531C450.913 444.617 453.828 428.872 461.845 429.78C469.862 430.688 478.03 438.574 478.547 434.886C479.063 431.198 476.33 427 472.807 425.355C469.285 423.709 463.728 420.39 466.096 420.702C468.435 421.014 481.917 422.149 478.061 414.887C474.204 407.625 455.893 407.908 455.893 407.908C455.893 407.908 456.257 404.93 452.158 402.774C448.058 400.618 447.421 399.511 447.421 399.511C447.421 399.511 456.592 397.753 452.887 393.696C449.212 389.639 443.048 384.249 434.211 389.753C411.527 403.852 405.059 435.596 405.059 435.596L358.234 460.276L293.462 394.887C293.462 394.887 268.865 356.619 251.374 355.087C243.873 354.435 233.549 352.137 224.469 351.144C212.322 349.782 202.271 349.272 202.787 344.393C203.698 335.854 217.97 310.663 217.97 310.663C217.97 310.663 232.425 314.096 238.407 309.954C248.003 303.316 253.864 270.38 253.864 270.38C253.864 270.38 245.604 265.87 242.659 264.565C239.713 263.26 237.678 262.239 237.678 262.239C237.678 262.239 250.615 239.374 239.409 231.062C228.204 222.751 194.102 207.035 177.127 213.134C160.152 219.261 154.717 226.864 154.717 226.864C154.717 226.864 130.879 217.474 120.585 228.736C110.29 239.97 98.6903 287.032 89.7018 298.096C80.7132 309.131 41.5099 337.386 46.8544 356.023C52.199 374.661 64.8011 371.37 64.8011 371.37C64.8011 371.37 48.9801 399.738 59.821 416.759C70.6619 433.78 72.0284 434.688 72.0284 434.688L45.3665 480.303C45.3665 480.303 33.3413 501.551 44.8806 510.544C56.4199 519.536 72.2713 518.061 80.9866 512.643C89.7018 507.225 98.5992 495.821 99.1762 496.814C99.7531 497.835 105.887 510.317 105.887 510.317C105.887 510.317 98.9939 516.926 92.4348 524.501C85.8756 532.075 75.976 545.663 75.976 545.663Z" fill="#F6F6F6"/>
<path fill-rule="evenodd" clip-rule="evenodd" d="M79.4695 439.538C79.4695 439.538 39.2641 495.622 50.3175 511.678C61.371 527.734 98.9042 496.076 98.9042 496.076C98.9042 496.076 94.167 487.452 93.6811 476.53C93.1649 465.609 95.9282 441.865 95.9282 441.865L104.643 440.928C104.643 440.928 99.8152 465.325 103.398 480.956C107.346 498.203 114.847 509.097 114.847 509.097H202.272C202.272 509.097 219.824 500.842 225.928 492.104C232.031 483.367 237.649 473.949 237.649 473.949C237.649 473.949 246.668 474.658 253.106 467.679C259.513 460.673 264.068 453.495 264.068 453.495C264.068 453.495 335.643 512.331 352.982 516.557C371.87 521.181 399.321 496.558 399.321 496.558C399.321 496.558 401.234 478.856 389.604 466.318C377.974 453.751 366.95 456.304 366.95 456.304L358.478 460.02C358.478 460.02 299.537 406.433 286.236 387.653C272.935 368.874 257.752 354.832 242.903 353.215C228.023 351.598 201.422 350.52 202.06 344.137C202.697 337.754 207.283 330.407 207.283 330.407L182.625 327.145C182.625 327.145 179.983 345.754 165.194 350.633C150.376 355.513 149.009 357.839 149.009 357.839L143.027 439.51C143.027 439.51 125.445 442.687 118.369 442.772C111.263 442.914 79.4695 439.538 79.4695 439.538Z" fill="#247EB0"/>
<path fill-rule="evenodd" clip-rule="evenodd" d="M86.1797 545.89L227.658 546.6C227.658 546.6 222.344 537.238 215.451 527.054C208.557 516.87 198.506 508.218 198.506 508.218L115.544 509.835C115.544 509.835 109.653 517.154 101.849 525.891C94.075 534.628 86.1797 545.89 86.1797 545.89Z" fill="#2D3142"/>
<path fill-rule="evenodd" clip-rule="evenodd" d="M37.0469 499.253C37.0469 498.374 37.0469 497.495 37.0469 496.615C37.4416 490.516 40.2961 485.126 43.2113 479.594C51.4103 463.964 59.8218 449.241 69.6303 435.993C62.2512 429.411 54.5684 421.639 53.7181 408.93C53.293 402.519 54.8113 396.164 56.2689 390.235C57.6961 384.477 58.9108 378.69 61.6438 374.179C46.6123 374.236 41.0249 361.527 43.9401 347.825C45.7924 339.145 51.137 331.287 55.9956 325.783C66.7454 313.557 82.8701 306.153 91.1299 292.252C99.754 277.756 102.274 258.154 109.077 242.665C112.326 235.318 116.941 227.346 123.956 223.488C130.91 219.659 145.516 219.942 153.442 223.488C159.485 218.581 166.257 213.531 176.005 211.517C196.654 207.234 220.036 214.524 232.669 222.552C239.592 226.949 246.455 233.644 246.516 242.92C246.577 250.608 243.206 255.856 240.351 261.36C243.661 265.643 254.958 264.282 256.264 270.466C257.023 274.125 254.229 279.118 253.197 282.692C249.765 294.38 248.216 309.84 237.558 313.84C231.758 316.025 224.379 314.918 218.579 313.84C216.301 319.372 213.993 324.507 211.382 329.641C208.861 334.634 205.43 339.825 205.491 346.18C209.165 348.875 214.631 348.79 219.338 349.045C235.705 350.01 250.251 351.4 261.153 357.669C274.848 365.555 283.776 379.597 293.463 391.2C313.383 415.057 335.429 437.099 358.872 457.326C373.54 449.922 387.903 442.262 402.479 434.801C404.088 419.454 411.042 407.426 420.699 397.668C426.408 391.881 437.704 382.15 449.942 388.335C454.527 390.632 460.115 397.526 452.493 400.306C454.71 400.731 455.894 403.824 458.9 404.618C461.36 405.27 464.366 404.845 467.099 405.327C473.628 406.519 482.768 410.15 481.979 417.298C481.614 420.504 479.124 422.773 474.539 422.575C477.545 424.646 483.497 430.036 480.703 435.993C480.157 437.128 478.942 438.376 477.12 438.631C470.743 439.482 467.403 432.73 461.208 434.092C456.471 435.142 454.497 443.113 453.009 448.475C451.369 454.432 449.578 460.616 446.085 464.049C442.806 467.283 438.858 468.417 435.579 470.517C432.329 472.587 429.445 475.992 426.347 478.658C416.751 486.942 407.732 494.913 397.62 502.629C385.443 511.877 367.709 524.785 346.058 516.756C337.677 513.664 330.783 508.757 323.738 503.821C302.725 489.041 284.96 473.041 265.009 457.354C259.3 466.63 251.769 474.204 240.139 477.949C231.363 491.452 219.156 501.778 204.246 509.579C214.752 520.302 223.012 532.671 228.873 548.16C229.723 550.429 231.12 553.521 228.114 553.918C225.563 554.259 224.5 551.025 223.741 549.124C219.034 537.266 214.479 528.983 206.827 520.132C204.823 517.834 200.176 511.792 197.352 511.026C194.589 510.289 190.155 510.799 186.329 510.799C163.585 510.799 142.723 510.289 120.434 511.508C116.85 511.707 111.597 511.196 109.411 511.991C108.53 512.303 108.317 513.381 107.346 514.374C106.495 515.253 105.372 515.764 104.795 516.303C94.6828 524.983 85.9372 534.543 78.8921 545.039C77.8293 546.6 77.1005 549.55 73.7601 549.124C71.1182 544.841 75.6732 540.614 77.8596 537.635C82.9916 530.572 88.5487 524.529 94.5309 518.714C97.6587 515.65 101.394 513.409 103.762 510.09C101.819 507.196 99.9665 504.218 98.6304 500.757C96.8692 501.665 95.5937 503.367 94.0146 504.842C85.0261 513.239 63.7695 526.175 47.0678 516.331C41.3285 512.898 38.0793 507.395 37.0469 499.253ZM236.039 231.885C226.353 222.013 202.211 213.787 182.685 216.084C172.998 217.219 164.313 220.141 159.85 225.9C162.006 226.439 163.736 227.375 165.224 228.538C166.469 233.219 170.235 235.318 170.873 240.282C171.875 248.367 164.951 251.062 159.09 253.927C158.21 265.813 157.117 277.501 156.266 289.387C163.402 293.898 170.599 299.543 175.519 306.862C176.521 308.365 178.647 313.897 180.651 314.039C182.169 314.152 183.991 311.656 185.023 310.436C188.91 305.812 191.127 300.507 193.222 295.089C187.605 291.316 184.659 279.629 191.188 275.203C190.763 274.295 190.155 273.615 190.429 272.083C191.856 269.983 194.68 269.757 196.836 268.962C211.412 263.686 221.372 255.743 229.662 244.282C230.816 242.693 232.426 239.403 234.521 239.488C240.594 239.743 233.367 248.225 232.73 249.303C234.187 250.835 234.946 255.062 236.829 256.963C242.295 248.537 242.265 238.211 236.039 231.885ZM153.199 261.331C153.503 257.7 153.321 251.346 154.475 249.842C155.446 248.566 159.516 248.14 161.155 247.204C163.008 246.126 165.255 244.594 165.528 242.41C165.801 239.942 164.313 237.814 163.22 236.169C162.006 234.382 160.761 232.736 159.364 231.375C151.043 227.715 137.105 223.205 127.297 227.772C116.729 232.736 112.052 248.651 108.317 260.594C104.795 271.884 101.88 284.309 96.5351 293.642C85.0262 313.727 62.0082 319.968 52.1694 340.364C50.5904 343.683 49.072 348.421 48.8291 351.626C48.0092 362.208 52.2909 367.853 61.4009 368.647C66.7454 369.101 71.0271 367.427 71.6648 370.094C72.1507 372.108 70.4198 372.846 68.8408 374.179C64.3465 377.924 63.5265 383.342 61.9171 389.753C60.8543 394.065 59.6396 398.604 59.3663 402.689C57.9695 421.951 72.1507 433.468 87.0607 437.667C102.396 441.978 121.709 440.418 139.382 437.667C142.905 380.477 148.432 318.89 153.199 261.331ZM202.697 272.593C204.519 273.529 207.07 275.061 209.104 277.387C210.531 279.004 214.813 285.813 209.347 285.529C206.918 285.416 204.853 280.451 203.183 279.061C199.296 275.827 194.073 278.125 192.919 281.444C191.461 285.643 194.893 289.813 197.535 291.259C200.146 292.706 209.074 291.685 209.074 295.344C209.074 299.571 201.421 297.954 198.051 297.018C194.316 305.727 190.763 317.67 179.588 319.287C179.132 321.188 178.495 322.89 178.039 324.79C187.422 325.698 197.747 325.698 206.766 326.946C208.193 323.797 209.772 320.989 211.382 317.358C212.171 315.571 213.75 308.564 216.271 308.025C219.004 307.429 223.103 309.5 226.535 309.699C239.592 310.521 241.779 303.798 244.481 294.352C242.538 292.394 233.883 288.593 233.975 285.245C234.005 283.997 235.402 282.607 236.799 282.607C240.291 282.579 243.145 288.593 246.03 289.075C247.397 283.061 249.219 277.501 250.919 271.827C240.503 268.622 231.849 263.743 228.873 253.615C222.223 261.927 213.234 267.969 202.697 272.593ZM151.408 346.861C165.953 342.861 171.116 330.124 175.003 316.195C170.053 307.968 164.222 300.564 155.78 295.6C154.232 312.621 153.017 329.925 151.408 346.861ZM150.891 352.619C149.1 376.534 146.913 403.767 145.243 428.816C145 432.702 145.577 437.354 144.484 439.851C142.905 443.397 135.738 443.368 131.153 443.936C121.223 445.127 108.742 446.319 98.3267 445.127C92.6178 467.566 97.4461 493.41 108.591 507.168C133.734 505.097 161.246 505.721 188.091 505.721C192.099 505.721 196.593 506.516 199.63 505.977C201.482 505.636 203.395 503.934 205.278 502.856C214.874 497.353 222.678 491.197 229.389 483.452C231.576 480.956 234.4 475.311 236.829 473.637C239.107 472.049 242.325 471.623 244.785 470.29C252.012 466.318 256.78 460.446 260.94 453.751C259.027 451.425 256.689 450.063 254.016 447.766C252.377 446.376 247.579 443.51 248.368 440.588C248.642 439.596 249.674 439 250.433 438.915C252.437 438.688 254.32 441.269 256.081 442.744C268.562 453.326 280.587 463.254 292.764 473.183C306.581 484.445 320.762 496.927 336.371 506.26C344.752 511.253 354.682 515.82 366.373 513.21C376.516 510.941 384.138 505.608 391.76 500.048C404.726 490.544 416.235 479.992 428.169 469.609C429.961 468.049 431.752 465.836 433.301 465.07C434.334 464.559 435.67 464.588 436.641 464.105C439.587 462.63 442.806 459.907 444.324 457.155C449.304 448.134 448.272 432.362 458.688 429.128C461.815 428.163 466.401 428.958 468.678 429.837C471.259 430.83 473.355 432.929 475.602 432.702C474.964 428.135 471.108 427.114 467.403 425.525C463.152 423.709 456.866 421.383 452.28 423.142C448.97 424.419 446.541 428.929 443.292 428.419C442.442 428.277 441.075 427.227 440.984 426.036C440.711 422.688 447.27 419.142 449.972 418.121C453.525 416.788 456.987 417.695 460.995 417.639C462.483 417.61 464.002 417.015 465.368 416.93C469.711 416.646 473.415 418.008 476.148 416.703C475.42 412.249 467.798 410.575 462.058 410.235C452.888 409.696 448.363 413.213 443.838 417.412C442.016 419.114 439.405 424.107 436.672 423.88C435.67 423.795 434.242 422.66 434.121 421.497C433.757 418.405 439.526 413.724 441.045 412.391C444.567 409.299 447.422 407.341 451.309 406.15C445.357 400.703 439.617 405.667 435.913 409.979C434.212 411.965 431.965 417.809 428.989 417.639C423.645 417.327 428.473 410.632 429.505 409.242C430.993 407.199 432.299 405.469 433.605 404.221C434.728 397.271 440.316 393.526 449.76 395.115C448.333 391.398 440.316 391.398 436.156 392.959C431.965 394.519 428.564 397.668 425.133 401.1C416.751 409.497 411.559 418.717 408.704 431.993C407.854 435.964 408.279 441.411 403.056 440.617C389.968 447.652 376.758 454.517 363.306 461.212C363.063 464.389 373.448 467.141 372.295 471.51C372.082 472.332 371.141 473.07 370.23 473.183C368.013 473.495 364.187 469.354 362.031 467.425C354.409 460.673 346.392 454.375 339.984 447.766C321.127 428.362 303.119 411.767 286.114 390.746C277.277 379.824 269.625 368.761 258.936 362.463C252.195 358.492 242.902 356.336 233.033 355.286C224.47 354.378 209.256 355.172 203.274 351.456C196.29 347.088 201.877 337.329 204.306 331.797C195.105 331.116 185.722 330.634 176.339 330.124C170.994 340.563 163.979 349.442 150.891 352.619ZM49.1024 479.85C46.582 484.842 43.3935 489.58 42.938 495.424C41.9662 508.047 50.9244 515.423 63.9517 514.345C74.3371 513.494 83.5382 507.282 89.8545 501.636C91.5246 500.133 95.6241 496.417 95.7455 494.686C95.8367 493.58 94.288 491.197 93.6806 489.41C89.2775 476.134 89.7937 458.659 92.9215 444.361C85.7246 443.34 79.4083 441.468 74.1853 438.603C65.713 450.347 56.2082 465.722 49.1024 479.85Z" fill="#2D3142"/>
<path fill-rule="evenodd" clip-rule="evenodd" d="M225.258 260.622C228.143 259.317 229.145 262.097 230.39 264.225C231.757 266.551 234.186 271.685 229.115 270.948C227.384 270.664 221.614 262.296 225.258 260.622Z" fill="#2D3142"/>
</svg>
