<svg width="531" height="460" viewBox="0 0 531 460" fill="none" xmlns="http://www.w3.org/2000/svg">
<path fill-rule="evenodd" clip-rule="evenodd" d="M148.71 157.286C201.873 157.286 244.968 200.353 244.968 253.504C244.968 306.656 201.873 349.7 148.71 349.7C95.5467 349.7 52.4521 306.634 52.4521 253.504C52.4521 200.375 95.5467 157.286 148.71 157.286Z" fill="#BDD0FB"/>
<path fill-rule="evenodd" clip-rule="evenodd" d="M148.71 176.494C191.267 176.494 225.77 210.974 225.77 253.504C225.77 296.035 191.267 330.515 148.71 330.515C106.152 330.515 71.6499 296.035 71.6499 253.504C71.6499 210.974 106.152 176.494 148.71 176.494Z" fill="#BDD0FB"/>
<path d="M111.141 433.264L101.515 442.871L104.977 446.336L114.603 436.73L111.141 433.264Z" fill="#E3746D"/>
<path d="M105.009 433.232L101.547 436.697L111.175 446.302L114.637 442.837L105.009 433.232Z" fill="#E3746D"/>
<path fill-rule="evenodd" clip-rule="evenodd" d="M108.099 413.272C111.791 413.272 114.767 416.246 114.767 419.936C114.767 423.625 111.769 426.599 108.099 426.599C104.43 426.599 101.432 423.625 101.432 419.936C101.432 416.246 104.43 413.272 108.099 413.272Z" fill="#E3746D"/>
<path d="M87.4244 413.786L80.1973 426.286H94.6516L87.4244 413.786Z" fill="#E3746D"/>
<path d="M367.069 359.047C366.04 359.047 365.077 358.421 364.719 357.437C364.272 356.163 364.876 354.776 366.151 354.329C367.539 353.837 368.926 354.508 369.374 355.783C369.821 357.057 369.172 358.466 367.897 358.913C367.628 359.002 367.337 359.07 367.046 359.07L367.069 359.047Z" fill="#BCBCBC"/>
<path d="M379.666 354.351C378.659 354.351 377.675 353.77 377.317 352.786C376.847 351.534 377.362 350.17 378.615 349.678C378.637 349.678 378.883 349.589 378.906 349.566C380.181 349.119 381.591 349.79 382.038 351.064C382.486 352.339 381.814 353.748 380.539 354.195C380.27 354.284 379.979 354.351 379.689 354.351H379.666ZM392.219 349.499C391.212 349.499 390.25 348.94 389.869 347.979C389.377 346.726 389.869 345.34 391.145 344.848L391.368 344.759C392.644 344.267 394.053 344.893 394.546 346.167C395.038 347.442 394.411 348.851 393.136 349.343C392.845 349.454 392.51 349.522 392.196 349.522L392.219 349.499ZM404.682 344.423C403.697 344.423 402.757 343.887 402.355 342.947C401.84 341.718 402.31 340.331 403.541 339.795C403.541 339.795 403.787 339.705 403.809 339.683C405.062 339.169 406.494 339.795 407.009 341.047C407.501 342.299 406.897 343.73 405.644 344.244C405.331 344.379 405.017 344.423 404.682 344.423ZM416.742 338.542C415.914 338.542 415.086 338.14 414.616 337.402C413.923 336.239 414.191 334.786 415.355 334.093L415.534 333.981C416.697 333.265 418.196 333.645 418.912 334.808C419.606 335.971 419.248 337.469 418.084 338.185C417.682 338.431 417.212 338.565 416.742 338.565V338.542ZM427.974 331.186C427.191 331.186 426.43 330.85 425.96 330.179C425.177 329.061 425.356 327.608 426.475 326.825L426.654 326.691C427.773 325.931 429.294 326.199 430.077 327.317C430.838 328.435 430.57 329.956 429.451 330.738C429.003 331.052 428.489 331.186 427.974 331.186ZM438.625 323.002C437.931 323.002 437.238 322.733 436.768 322.174C435.895 321.146 435.94 319.67 436.991 318.798L437.148 318.664C438.177 317.792 439.744 317.926 440.616 318.954C441.489 319.983 441.355 321.548 440.325 322.42C439.855 322.823 439.251 323.024 438.647 323.024L438.625 323.002ZM448.515 313.923C447.888 313.923 447.284 313.7 446.814 313.252C445.852 312.291 445.785 310.815 446.747 309.853L446.904 309.697C447.866 308.735 449.41 308.735 450.372 309.697C451.334 310.658 451.334 312.201 450.372 313.163C449.879 313.655 449.186 313.923 448.515 313.923ZM457.42 303.883C456.883 303.883 456.368 303.727 455.943 303.369C454.891 302.519 454.645 301.066 455.496 300.015L455.63 299.836C456.48 298.785 458.024 298.628 459.076 299.478C460.127 300.328 460.284 301.871 459.434 302.922C458.941 303.548 458.158 303.883 457.398 303.883H457.42ZM465.162 292.904C464.737 292.904 464.289 292.792 463.909 292.546C462.79 291.831 462.387 290.444 463.081 289.304C463.081 289.282 463.237 289.058 463.26 289.036C464.021 287.918 465.542 287.604 466.661 288.365C467.78 289.125 468.093 290.646 467.332 291.764C466.84 292.502 466.012 292.926 465.162 292.926V292.904ZM471.561 281.209C471.203 281.209 470.845 281.12 470.487 280.963C469.256 280.382 468.764 278.906 469.346 277.699L471.561 278.772L469.391 277.609C469.928 276.357 471.36 275.798 472.613 276.335C473.866 276.871 474.425 278.325 473.888 279.555C473.888 279.577 473.776 279.801 473.754 279.845C473.329 280.717 472.456 281.232 471.539 281.232L471.561 281.209ZM476.461 268.598C476.237 268.598 475.991 268.553 475.767 268.486C474.47 268.061 473.731 266.787 474.156 265.49L474.224 265.288C474.649 263.992 476.014 263.298 477.311 263.701C478.609 264.126 479.303 265.49 478.9 266.787C478.564 267.838 477.535 268.575 476.484 268.575L476.461 268.598ZM106.69 261.666C105.258 261.621 104.184 260.481 104.228 259.139C104.273 257.775 105.459 256.657 106.757 256.657C108.122 256.702 109.173 257.73 109.128 259.072V259.296C109.084 260.615 107.987 261.666 106.667 261.666H106.69ZM479.952 255.718C479.773 255.718 479.594 255.718 479.415 255.651C478.095 255.36 477.244 254.063 477.535 252.722L479.929 253.236L477.558 252.565C477.804 251.246 479.079 250.351 480.422 250.597C481.764 250.843 482.637 252.118 482.391 253.46C482.391 253.482 482.346 253.728 482.323 253.75C482.077 254.891 481.048 255.673 479.929 255.673L479.952 255.718ZM106.824 248.227C105.504 248.227 104.407 247.176 104.363 245.857C104.363 245.835 104.363 245.589 104.363 245.566C104.363 244.202 105.459 243.107 106.824 243.107C108.189 243.107 109.285 244.202 109.285 245.566H106.824L109.285 245.7C109.33 247.064 108.256 248.182 106.913 248.227H106.824ZM482.01 242.346C482.01 242.346 481.854 242.346 481.764 242.346C480.422 242.212 479.437 241.116 479.571 239.775C479.571 239.775 479.594 239.529 479.594 239.506C479.75 238.165 480.959 237.181 482.323 237.36C483.666 237.516 484.628 238.746 484.471 240.088C484.315 241.34 483.241 242.346 482.01 242.346ZM106.488 234.788C105.19 234.788 104.116 233.782 104.049 232.485C104.049 232.463 104.049 232.217 104.049 232.194C104.005 230.83 105.079 229.712 106.421 229.668C107.786 229.69 108.905 230.696 108.949 232.038L106.488 232.105L108.949 232.172C109.039 233.514 108.01 234.677 106.645 234.766C106.6 234.766 106.533 234.766 106.488 234.766V234.788ZM482.86 229.042C481.428 228.997 480.354 227.879 480.399 226.515L482.86 226.582L480.422 226.358C480.422 224.994 481.518 223.899 482.883 223.899C484.248 223.899 485.344 224.994 485.344 226.358C485.344 226.381 485.344 226.627 485.344 226.649C485.299 227.968 484.203 229.019 482.883 229.019L482.86 229.042ZM105.884 221.372C104.564 221.372 103.468 220.321 103.423 219.002C103.378 217.66 104.43 216.43 105.75 216.363C107.07 216.296 108.233 217.213 108.301 218.554C108.301 218.577 108.301 218.823 108.301 218.845C108.345 220.209 107.271 221.327 105.929 221.372H105.839H105.884ZM482.614 215.513C481.339 215.513 480.265 214.619 480.175 213.322C480.175 213.3 480.175 213.054 480.175 213.031C480.131 211.667 481.205 210.549 482.547 210.505C483.934 210.505 485.031 211.533 485.076 212.875C485.12 214.216 484.069 215.446 482.749 215.513C482.704 215.513 482.659 215.513 482.614 215.513ZM105.079 207.955C103.781 207.955 102.707 206.949 102.64 205.652C102.55 204.311 103.579 203.036 104.922 202.947C106.309 202.857 107.428 203.796 107.517 205.138V205.362C107.607 206.703 106.578 207.866 105.235 207.955C105.19 207.955 105.123 207.955 105.079 207.955ZM481.451 202.119C480.243 202.119 479.213 201.292 479.057 200.062C479.057 200.04 479.034 199.794 479.034 199.771C478.9 198.43 479.907 197.222 481.249 197.11C482.637 196.976 483.8 197.982 483.912 199.324C484.046 200.666 483.084 201.963 481.742 202.097C481.652 202.097 481.54 202.097 481.451 202.097V202.119ZM104.116 194.561C102.863 194.561 101.789 193.6 101.677 192.325C101.677 192.303 101.677 192.057 101.677 192.034C101.588 190.693 102.617 189.53 103.982 189.441C105.302 189.374 106.511 190.38 106.578 191.744L104.139 191.9H106.6C106.734 193.242 105.727 194.427 104.385 194.561C104.318 194.561 104.228 194.561 104.161 194.561H104.116ZM324.019 189.016C322.699 189.016 321.603 187.965 321.558 186.646C321.513 185.282 322.587 184.163 323.93 184.119L323.997 186.578L324.086 184.119C325.429 184.029 326.592 185.103 326.66 186.444C326.727 187.786 325.675 188.949 324.333 189.016H324.086C324.064 189.016 324.042 189.016 324.019 189.016ZM479.594 188.926C478.408 188.926 477.356 188.054 477.177 186.847L479.594 186.467L477.155 186.69C476.909 185.349 477.781 184.074 479.124 183.828C480.466 183.56 481.742 184.454 481.988 185.796C481.988 185.796 482.033 186.042 482.033 186.064C482.234 187.406 481.317 188.658 479.974 188.859C479.84 188.859 479.728 188.882 479.594 188.882V188.926ZM310.863 187.942C310.706 187.942 310.527 187.942 310.37 187.898C309.05 187.629 308.088 186.31 308.357 184.991C308.625 183.672 309.789 182.777 311.154 183.045L311.355 183.09C312.675 183.358 313.548 184.655 313.279 185.975C313.033 187.137 312.026 187.942 310.885 187.942H310.863ZM337.467 186.981C336.348 186.981 335.296 186.265 335.005 185.17C334.67 183.873 335.341 182.553 336.639 182.218C336.639 182.218 336.885 182.151 336.907 182.151C338.227 181.838 339.548 182.621 339.883 183.94C340.219 185.259 339.413 186.578 338.093 186.914C337.892 186.959 337.69 186.981 337.467 186.981ZM298.064 183.895C297.728 183.895 297.393 183.828 297.057 183.672C295.827 183.113 295.178 181.637 295.715 180.407C296.252 179.177 297.594 178.573 298.847 179.11L299.071 179.199C300.302 179.758 300.861 181.212 300.302 182.442C299.899 183.358 299.004 183.895 298.064 183.895ZM349.974 182.196C349.035 182.196 348.14 181.704 347.715 180.854C347.133 179.647 347.536 178.238 348.721 177.634C348.721 177.634 348.945 177.522 348.968 177.522C350.198 176.941 351.653 177.478 352.234 178.707C352.816 179.937 352.279 181.391 351.048 181.972C350.69 182.129 350.332 182.218 349.952 182.218L349.974 182.196ZM103.154 181.145C101.834 181.145 100.738 180.094 100.693 178.775C100.648 177.433 101.7 176.203 103.02 176.136C104.318 176.047 105.504 176.986 105.571 178.327C105.571 178.35 105.571 178.596 105.571 178.618C105.616 179.982 104.542 181.1 103.199 181.145C103.177 181.145 103.154 181.145 103.11 181.145H103.154ZM286.295 177.433C285.825 177.433 285.355 177.299 284.93 177.03C283.811 176.27 283.408 174.705 284.169 173.564C284.93 172.446 286.362 172.066 287.481 172.827L287.66 172.938C288.778 173.699 289.092 175.219 288.331 176.337C287.861 177.053 287.078 177.433 286.295 177.433ZM477.021 175.622C475.924 175.622 474.94 174.928 474.694 173.788C474.694 173.788 474.649 173.542 474.626 173.52C474.38 172.178 475.253 170.904 476.573 170.658C477.915 170.412 479.191 171.284 479.437 172.603C479.683 173.922 478.855 175.309 477.535 175.577C477.356 175.622 477.177 175.622 476.998 175.622H477.021ZM361.408 175.242C360.647 175.242 359.887 174.906 359.417 174.28C358.611 173.184 358.768 171.709 359.864 170.926L360.043 170.792C361.14 169.987 362.684 170.233 363.467 171.351C364.25 172.446 364.004 173.989 362.907 174.772C362.46 175.107 361.923 175.264 361.386 175.264L361.408 175.242ZM275.622 169.271C275.04 169.271 274.458 169.07 274.011 168.667L273.832 168.511C272.825 167.617 272.735 166.051 273.653 165.045C274.548 164.039 276.114 163.949 277.121 164.844L275.488 166.677L277.278 164.978C278.285 165.872 278.396 167.415 277.501 168.444C277.009 169.003 276.338 169.271 275.667 169.271H275.622ZM102.931 167.706C101.566 167.706 100.469 166.61 100.469 165.246C100.469 165.224 100.469 164.978 100.469 164.956C100.514 163.592 101.633 162.608 102.998 162.585C104.363 162.63 105.414 163.748 105.369 165.112L102.908 165.045L105.347 165.246C105.347 166.61 104.251 167.706 102.886 167.706H102.931ZM371.656 166.566C371.029 166.566 370.381 166.342 369.933 165.85C368.993 164.888 368.949 163.413 369.911 162.474C369.911 162.474 370.067 162.317 370.09 162.317C371.074 161.378 372.618 161.423 373.558 162.384C374.498 163.368 374.453 164.911 373.491 165.85C372.998 166.32 372.327 166.566 371.678 166.566H371.656ZM473.955 162.518C472.926 162.518 471.986 161.892 471.673 160.841C471.673 160.819 471.606 160.595 471.606 160.573C471.27 159.254 472.076 157.934 473.373 157.599C474.694 157.263 476.014 158.068 476.349 159.365C476.685 160.662 475.924 162.093 474.649 162.451C474.425 162.518 474.179 162.541 473.955 162.541V162.518ZM264.457 158.538C263.629 157.465 263.763 155.832 264.837 155.005C265.911 154.178 267.388 154.289 268.216 155.363L266.269 156.861L268.283 155.43L266.403 157.017L264.457 158.516V158.538ZM380.651 156.615C380.114 156.615 379.599 156.458 379.152 156.101C378.122 155.251 377.876 153.82 378.704 152.769C378.704 152.769 378.883 152.568 378.883 152.545C379.756 151.517 381.3 151.36 382.351 152.255C383.381 153.127 383.515 154.67 382.642 155.721C382.15 156.324 381.389 156.637 380.651 156.637V156.615ZM103.647 154.245C103.647 154.245 103.512 154.245 103.423 154.245C102.08 154.111 101.073 152.97 101.208 151.629C101.342 150.287 102.55 149.191 103.893 149.303C105.235 149.437 106.242 150.51 106.13 151.874C105.996 153.261 104.922 154.267 103.669 154.267L103.647 154.245ZM469.547 149.862C468.63 149.862 467.802 149.37 467.399 148.476C467.399 148.476 467.31 148.23 467.287 148.207C466.795 146.955 467.399 145.524 468.652 145.01C469.905 144.495 471.337 145.122 471.852 146.374C472.344 147.626 471.807 149.124 470.554 149.638C470.218 149.773 469.883 149.84 469.547 149.84V149.862ZM259.445 148.051C258.527 148.051 257.632 147.537 257.207 146.642C257.207 146.642 257.095 146.396 257.095 146.374C256.558 145.122 257.118 143.69 258.371 143.154C259.624 142.617 261.056 143.199 261.593 144.428L259.333 145.412L261.637 144.563C262.219 145.792 261.682 147.246 260.452 147.827C260.116 147.984 259.758 148.051 259.422 148.051H259.445ZM388.46 145.681C388.035 145.681 387.587 145.569 387.207 145.323C386.066 144.607 385.663 143.199 386.379 142.058C386.379 142.058 386.513 141.835 386.535 141.835C387.274 140.694 388.795 140.381 389.936 141.119C391.078 141.857 391.391 143.377 390.652 144.518C390.16 145.256 389.31 145.703 388.482 145.703L388.46 145.681ZM107.831 138.838L105.392 138.525L102.975 138.078L105.437 138.324L107.831 138.838ZM463.64 137.921C462.79 137.921 461.962 137.474 461.515 136.692L463.64 135.484L461.425 136.557C460.731 135.395 461.112 133.896 462.275 133.203C463.439 132.51 464.938 132.89 465.632 134.053C465.632 134.053 465.743 134.254 465.766 134.277C466.437 135.462 466.034 136.96 464.848 137.631C464.468 137.854 464.043 137.944 463.64 137.944V137.921ZM255.775 135.149C254.544 135.149 253.493 134.232 253.336 133.002C253.18 131.66 254.119 130.319 255.462 130.162C256.804 129.983 258.013 130.833 258.192 132.197L258.214 132.421C258.371 133.762 257.431 134.992 256.066 135.149C255.976 135.149 255.865 135.149 255.775 135.149ZM395.016 133.919C394.658 133.919 394.322 133.852 393.986 133.673C392.778 133.069 392.241 131.727 392.8 130.52C392.8 130.498 392.912 130.274 392.935 130.252C393.561 129.044 395.038 128.575 396.246 129.201C397.454 129.827 397.924 131.303 397.298 132.51C396.85 133.382 395.933 133.919 394.993 133.919H395.016ZM108.189 127.814C107.987 127.814 107.786 127.792 107.585 127.747C106.264 127.412 105.481 126.07 105.817 124.773C106.153 123.454 107.517 122.56 108.838 122.895C110.158 123.23 110.963 124.46 110.628 125.779L110.583 125.981C110.292 127.099 109.307 127.837 108.211 127.837L108.189 127.814ZM456.055 126.674C455.361 126.674 454.69 126.383 454.22 125.779C454.22 125.779 454.064 125.578 454.064 125.556C453.258 124.46 453.504 122.917 454.601 122.135C455.697 121.33 457.241 121.576 458.024 122.671C458.807 123.767 458.651 125.355 457.577 126.16C457.107 126.517 456.57 126.674 456.055 126.674ZM256.267 121.755C256.088 121.755 255.909 121.755 255.73 121.687C254.41 121.397 253.56 120.1 253.851 118.758C254.142 117.439 255.462 116.5 256.76 116.768C258.08 117.036 258.952 118.199 258.706 119.518C258.706 119.541 258.661 119.787 258.639 119.809C258.393 120.95 257.364 121.732 256.245 121.732L256.267 121.755ZM400.274 121.62C400.005 121.62 399.714 121.576 399.446 121.486C398.171 121.017 397.499 119.63 397.969 118.356L400.274 119.183L398.036 118.154C398.484 116.88 399.893 116.209 401.169 116.656C402.444 117.103 403.115 118.512 402.668 119.787C402.668 119.787 402.601 119.988 402.601 120.01C402.243 121.017 401.303 121.643 400.296 121.643L400.274 121.62ZM447.508 116.455C446.859 116.455 446.21 116.187 445.718 115.672L447.508 113.995L445.583 115.538C444.644 114.554 444.688 113.011 445.651 112.072C446.635 111.133 448.179 111.178 449.119 112.139L449.275 112.318C450.193 113.302 450.148 114.867 449.163 115.784C448.694 116.231 448.089 116.455 447.485 116.455H447.508ZM112.082 114.934C111.836 114.934 111.59 114.89 111.321 114.823C110.023 114.398 109.33 113.034 109.733 111.737C109.733 111.715 109.822 111.491 109.822 111.469C110.292 110.194 111.702 109.546 112.955 109.993C114.23 110.462 114.901 111.849 114.431 113.123L112.127 112.296L114.387 113.257C114.051 114.286 113.089 114.957 112.06 114.957L112.082 114.934ZM260.787 109.143C260.384 109.143 259.959 109.031 259.579 108.83C258.393 108.159 257.968 106.661 258.639 105.498C259.288 104.335 260.832 103.821 261.995 104.447C263.181 105.073 263.674 106.46 263.069 107.645C263.069 107.667 262.935 107.891 262.935 107.913C262.488 108.718 261.66 109.165 260.787 109.165V109.143ZM404.078 108.629C403.899 108.629 403.72 108.629 403.563 108.562C402.265 108.249 401.415 107.063 401.706 105.744C401.706 105.744 401.773 105.498 401.773 105.476C402.109 104.157 403.451 103.374 404.749 103.687C406.069 104.022 406.874 105.342 406.539 106.661C406.248 107.779 405.219 108.629 404.1 108.629H404.078ZM437.707 107.108C437.17 107.108 436.611 106.907 436.164 106.504L437.797 104.671L436.096 106.437L437.64 104.514L439.274 102.681C440.281 103.575 440.437 105.208 439.542 106.214C439.05 106.773 438.356 107.063 437.685 107.063L437.707 107.108ZM117.027 102.457C116.669 102.457 116.333 102.39 115.998 102.234C114.767 101.652 114.23 100.199 114.812 98.9689C115.371 97.7614 116.87 97.1129 118.101 97.6719C119.331 98.231 119.913 99.5726 119.376 100.802C119.376 100.802 119.264 101.026 119.264 101.048C118.839 101.943 117.967 102.457 117.027 102.457ZM427.303 98.7453C426.811 98.7453 426.296 98.5887 425.849 98.2757L427.303 96.2856L425.692 98.1415C424.596 97.3589 424.349 95.816 425.133 94.7203C425.938 93.6246 427.46 93.3787 428.556 94.1613L428.735 94.2955C429.831 95.1004 430.077 96.621 429.272 97.7167C428.802 98.3651 428.041 98.7229 427.281 98.7229L427.303 98.7453ZM268.372 98.0744C267.791 98.0744 267.209 97.8732 266.761 97.4707C265.754 96.5763 265.643 95.0334 266.538 94.0048C267.433 92.9985 269.044 92.8196 270.05 93.6917C271.08 94.5861 271.259 96.0396 270.364 97.0682L270.207 97.2471C269.715 97.8061 269.044 98.0744 268.372 98.0744ZM406.293 95.3688C406.293 95.3688 406.158 95.3688 406.091 95.3688C404.749 95.2346 403.742 94.1613 403.854 92.7973V92.596C404.01 91.2544 405.174 90.2482 406.539 90.3823C407.881 90.5165 408.888 91.7016 408.754 93.0433C408.642 94.3178 407.546 95.3688 406.293 95.3688ZM416.048 91.2768C415.645 91.2768 415.22 91.1649 414.84 90.9413L414.661 90.8295C413.497 90.1364 413.139 88.6158 413.833 87.4531C414.527 86.2903 416.048 85.9325 417.212 86.6257C418.375 87.3189 418.823 88.8841 418.129 90.0469C417.659 90.8295 416.876 91.2768 416.048 91.2768ZM123.091 90.4718C122.688 90.4718 122.263 90.36 121.882 90.1587C120.696 89.4879 120.294 87.9897 120.965 86.8046C121.636 85.6418 123.18 85.1275 124.366 85.7984C125.552 86.4692 125.999 87.8556 125.35 89.0407L125.239 89.2419C124.791 90.0246 123.963 90.4718 123.113 90.4718H123.091ZM278.016 88.75C277.3 88.75 276.584 88.4369 276.114 87.8332C275.264 86.7822 275.42 85.2393 276.472 84.3896C277.524 83.5399 279.157 83.6294 280.007 84.6803C280.858 85.7313 280.791 87.2071 279.739 88.0568C279.739 88.0568 279.56 88.191 279.56 88.2133C279.112 88.5711 278.553 88.75 278.016 88.75ZM404.368 84.7474C403.988 84.7474 403.608 84.658 403.25 84.4791L404.368 82.3101L403.071 84.412C401.862 83.8083 401.37 82.3324 401.974 81.125C402.399 80.2752 403.25 79.7833 404.122 79.7609C404.122 79.7162 404.122 79.5597 404.122 79.5597C404.033 78.1957 405.062 77.0553 406.427 76.9658C407.769 76.8988 408.933 77.905 409.022 79.269C409.112 80.5883 408.127 81.8405 406.807 81.9747C406.874 82.4666 406.807 82.9809 406.561 83.4505C406.114 84.3002 405.263 84.7698 404.368 84.7698V84.7474ZM288.98 80.9684C288.174 80.9684 287.391 80.5659 286.921 79.8504C286.183 78.71 286.519 77.1895 287.637 76.4515C287.637 76.4515 287.861 76.3174 287.883 76.295C289.047 75.6018 290.546 75.9596 291.262 77.1224C291.956 78.2851 291.598 79.7833 290.434 80.4989L289.159 78.3969L290.322 80.5659C289.92 80.8343 289.45 80.9684 288.98 80.9684ZM392.129 79.0901C391.838 79.0901 391.525 79.023 391.234 78.9112L391.033 78.8218C389.78 78.3075 389.198 76.854 389.713 75.6242C390.227 74.372 391.659 73.7906 392.912 74.3049C394.165 74.8192 394.859 76.295 394.322 77.5472C393.919 78.5087 393.047 79.0901 392.107 79.0901H392.129ZM130.183 79.0901C129.691 79.0901 129.199 78.9336 128.751 78.6205C127.655 77.8379 127.409 76.295 128.192 75.1993C128.975 74.1037 130.541 73.7682 131.638 74.5285C132.734 75.2888 133.092 76.6975 132.354 77.8156C132.354 77.8379 132.197 78.0392 132.175 78.0615C131.705 78.7323 130.944 79.0901 130.183 79.0901ZM300.772 74.5509C299.854 74.5509 298.982 74.0366 298.556 73.1645C297.975 71.9347 298.467 70.4812 299.697 69.8775L300.951 72.0017L301.823 74.3049C301.488 74.4614 301.107 74.5509 300.749 74.5509H300.772ZM379.532 74.3944C379.286 74.3944 379.062 74.3496 378.816 74.2825C378.816 74.2825 378.592 74.2155 378.57 74.2155C377.294 73.7906 376.601 72.3819 377.026 71.1073C377.451 69.8328 378.861 69.1396 380.136 69.5644C381.412 69.9893 382.195 71.4204 381.792 72.6949C381.456 73.7235 380.539 74.4167 379.532 74.4167V74.3944ZM366.622 70.6825C366.443 70.6825 366.264 70.6825 366.085 70.6154C366.085 70.6154 365.838 70.5483 365.816 70.5483C364.496 70.2129 363.713 68.8712 364.048 67.552C364.384 66.2327 365.727 65.45 367.047 65.7855C368.344 66.1209 369.239 67.4625 368.926 68.7818C368.658 69.8998 367.718 70.6825 366.622 70.6825ZM314.04 69.2961L313.212 66.9706L312.541 64.6003C313.839 64.2426 315.293 64.9581 315.673 66.255C316.054 67.552 315.405 68.8712 314.107 69.2514L313.413 66.9035L314.04 69.2737V69.2961ZM404.547 68.6924C403.473 68.6924 402.534 68.0215 402.243 66.9482L402.198 66.7246C401.862 65.4053 402.668 64.086 403.988 63.7506C405.308 63.4152 406.628 64.2202 406.964 65.5395C407.3 66.8588 406.516 68.2899 405.196 68.6253C404.973 68.67 404.749 68.7147 404.547 68.7147V68.6924ZM138.283 68.3346C137.746 68.3346 137.209 68.1557 136.762 67.8203C135.688 66.9929 135.509 65.45 136.337 64.3767C136.337 64.3767 136.516 64.1755 136.516 64.1531C137.388 63.1245 138.932 62.968 139.984 63.8624C141.013 64.7345 141.147 66.2774 140.275 67.3283L138.395 65.7407L140.185 67.4178C139.693 68.0439 138.977 68.3569 138.261 68.3569L138.283 68.3346ZM353.465 68.0663C353.331 68.0663 353.219 68.0663 353.085 68.0439L353.465 65.6289L352.928 68.0215C351.585 67.8426 350.646 66.6128 350.825 65.2488C351.004 63.9071 352.234 62.968 353.599 63.1469C353.599 63.1469 353.845 63.1916 353.868 63.1916C355.21 63.3928 356.128 64.6451 355.904 65.9867C355.725 67.1942 354.673 68.0663 353.487 68.0663H353.465ZM326.436 66.9929C325.183 66.9929 324.109 66.0314 323.997 64.7569C323.885 63.4152 324.87 62.2077 326.212 62.0959C327.555 61.9841 328.852 62.9456 328.987 64.3096C329.121 65.6513 328.226 66.8364 326.883 66.9706H326.66C326.592 66.9706 326.503 66.9706 326.436 66.9706V66.9929ZM340.085 66.7246C340.085 66.7246 340.018 66.7246 339.973 66.7246H339.749C338.407 66.6575 337.355 65.5171 337.422 64.1531C337.489 62.7891 338.608 61.7382 339.995 61.8276C341.338 61.8947 342.501 63.0351 342.434 64.3991C342.367 65.7184 341.382 66.747 340.085 66.747V66.7246ZM147.233 58.3617C146.629 58.3617 146.025 58.1381 145.555 57.6908C144.571 56.7741 144.526 55.2088 145.443 54.2249C145.443 54.2249 145.622 54.046 145.645 54.0237C146.607 53.0622 148.151 53.0622 149.113 54.0237C150.075 54.9852 150.075 56.5281 149.113 57.4896L147.368 55.7455L149.001 57.579C148.509 58.0933 147.86 58.3617 147.211 58.3617H147.233ZM399.849 56.1479C398.998 56.1479 398.215 55.7231 397.79 54.8957C397.79 54.8957 397.678 54.6721 397.656 54.6498C397.074 53.4199 397.589 51.9665 398.797 51.3851C400.005 50.8037 401.482 51.2957 402.064 52.5255C402.646 53.733 402.198 55.2759 400.99 55.8796C400.609 56.0585 400.207 56.1479 399.826 56.1479H399.849ZM157.011 49.149C156.34 49.149 155.646 48.8583 155.154 48.3217C154.259 47.2931 154.371 45.7502 155.378 44.8558L155.557 44.6992C156.586 43.8272 158.13 43.9166 159.025 44.9676C159.898 45.9962 159.786 47.539 158.756 48.4335L157.168 46.5775L158.622 48.5676C158.152 48.9701 157.571 49.1714 157.011 49.1714V49.149ZM392.353 45.0794C391.704 45.0794 391.078 44.811 390.608 44.2744L392.465 42.6868L390.541 44.2296L392.308 42.5302L394.165 40.9426C395.038 41.9712 394.993 43.6035 393.964 44.4756C393.472 44.9005 392.89 45.1017 392.331 45.1017L392.353 45.0794ZM169.094 40.2047L167.505 38.3264L166.096 36.3139C167.192 35.5313 168.803 35.7325 169.586 36.8282C170.369 37.9239 170.213 39.3774 169.116 40.1823L167.662 38.1922L169.071 40.2047H169.094ZM382.329 36.2021C381.881 36.2021 381.412 36.068 381.009 35.7773C381.009 35.7773 380.807 35.6431 380.807 35.6207C379.711 34.8158 379.465 33.2952 380.27 32.1995C381.076 31.1039 382.597 30.8579 383.694 31.6629C384.79 32.4455 385.103 34.0331 384.32 35.1288C383.828 35.822 383.09 36.2021 382.329 36.2021ZM178.648 33.2505C177.842 33.2505 177.059 32.848 176.589 32.1325C175.851 30.9921 176.187 29.4715 177.305 28.7336C177.305 28.7336 177.529 28.5995 177.552 28.5771C178.715 27.8615 180.214 28.2417 180.93 29.4044C181.624 30.5672 181.266 32.0654 180.102 32.7809L178.827 30.679L179.99 32.848C179.588 33.1163 179.118 33.2505 178.648 33.2505ZM371.097 28.8678C370.694 28.8678 370.291 28.756 369.933 28.5324C369.933 28.5324 369.732 28.4206 369.732 28.3982C368.568 27.705 368.21 26.1845 368.904 25.0217C369.597 23.859 371.119 23.5012 372.282 24.1944C373.446 24.8876 373.893 26.4528 373.2 27.6156C372.73 28.3982 371.947 28.8454 371.119 28.8454L371.097 28.8678ZM190.328 26.587C189.433 26.587 188.583 26.095 188.135 25.2677C187.509 24.0602 187.978 22.5844 189.187 21.9583C190.395 21.3322 191.961 21.757 192.588 22.9645C193.214 24.172 192.834 25.6031 191.626 26.2292L191.447 26.3187C191.089 26.4975 190.708 26.587 190.328 26.587ZM359.26 22.495C358.925 22.495 358.589 22.4279 358.253 22.249L358.052 22.1595C356.844 21.5782 356.329 20.1024 356.911 18.8725C357.492 17.6427 358.969 17.1507 360.178 17.7321C361.386 18.3135 362.012 19.834 361.408 21.0639C360.983 21.9583 360.133 22.495 359.238 22.495H359.26ZM202.478 20.8179C201.515 20.8179 200.598 20.2589 200.218 19.2974C199.703 18.0452 200.285 16.6141 201.538 16.0998C202.791 15.5855 204.312 16.0998 204.849 17.352C205.386 18.5818 204.894 19.9905 203.663 20.5272L203.44 20.6166C203.126 20.7508 202.813 20.7955 202.5 20.7955L202.478 20.8179ZM346.999 17.1284C346.685 17.1284 346.394 17.0836 346.081 16.9495L346.999 14.6687L345.947 16.8824C344.672 16.4128 344.023 15.0041 344.493 13.7295C344.962 12.455 346.372 11.8065 347.647 12.2761L347.894 12.3655C349.147 12.8798 349.773 14.2885 349.258 15.5631C348.878 16.5246 347.961 17.106 346.976 17.106L346.999 17.1284ZM215.88 15.7644L214.202 11.158L214.426 11.091C215.701 10.6437 217.111 11.3369 217.536 12.6338C217.961 13.9084 217.29 15.3171 215.992 15.742L215.209 13.4165L215.858 15.7867L215.88 15.7644ZM334.289 12.7457C334.043 12.7457 333.82 12.7009 333.573 12.6338L334.289 10.286L333.394 12.5891C332.097 12.209 331.336 10.845 331.716 9.54806C332.097 8.25113 333.462 7.51323 334.759 7.871C334.759 7.871 334.983 7.93808 335.005 7.93808C336.303 8.34058 337.042 9.70458 336.639 11.0015C336.326 12.0525 335.341 12.7457 334.289 12.7457ZM227.851 11.9183C226.755 11.9183 225.77 11.2028 225.479 10.0847C225.121 8.76543 225.904 7.42378 227.224 7.08837C228.522 6.7306 229.977 7.49087 230.335 8.78779C230.693 10.0847 230.021 11.404 228.724 11.7618L228.5 11.8289C228.298 11.8959 228.075 11.9183 227.873 11.9183H227.851ZM321.267 9.34681C321.111 9.34681 320.932 9.34681 320.753 9.30209L320.529 9.25737C319.209 8.96668 318.381 7.64739 318.672 6.3281C318.963 5.00882 320.283 4.18147 321.603 4.47216C322.923 4.76285 323.863 6.1045 323.572 7.42378C323.326 8.56418 322.386 9.36917 321.267 9.36917V9.34681ZM240.94 8.81015C239.777 8.81015 238.748 7.9828 238.524 6.82004C238.278 5.47839 239.15 4.20383 240.493 3.95786C241.813 3.71189 243.2 4.5616 243.469 5.88089C243.737 7.20017 242.977 8.47474 241.656 8.74307C241.656 8.74307 241.433 8.78779 241.41 8.78779C241.254 8.81015 241.097 8.83251 240.963 8.83251L240.94 8.81015ZM308.043 6.90948C308.043 6.90948 307.82 6.90948 307.708 6.88712C307.708 6.88712 307.484 6.86476 307.462 6.8424C306.119 6.64116 305.202 5.38895 305.403 4.0473C305.605 2.70566 306.858 1.7665 308.2 1.99011C309.543 2.19136 310.572 3.44356 310.37 4.78521C310.191 6.01505 309.229 6.90948 308.043 6.90948ZM254.209 6.59643C253.001 6.59643 251.949 5.702 251.77 4.47216C251.591 3.13051 252.531 1.90067 253.873 1.69942C253.873 1.69942 254.097 1.67706 254.119 1.67706C255.462 1.49817 256.692 2.45969 256.849 3.80133C257.028 5.14298 256.066 6.37283 254.723 6.52935L254.41 4.09202L254.522 6.55171C254.41 6.55171 254.298 6.57407 254.186 6.57407L254.209 6.59643ZM294.305 5.41131C292.963 5.29951 291.933 4.13675 292.045 2.77274C292.157 1.43109 293.298 0.380133 294.685 0.514298V3.06343L294.305 5.50075V5.41131ZM267.612 5.29951C266.314 5.29951 265.24 4.29327 265.173 2.99635C265.083 1.63234 266.112 0.491937 267.477 0.402494C268.842 0.357773 270.095 1.34165 270.185 2.6833C270.274 4.02494 269.334 5.1877 267.992 5.27715H267.768C267.723 5.27715 267.679 5.27715 267.612 5.27715V5.29951ZM281.26 4.89701H281.014C279.649 4.89701 278.575 3.75661 278.598 2.41497C278.598 1.05096 279.672 0.0447216 281.081 0C282.424 0 283.61 1.11804 283.61 2.48205C283.61 3.8237 282.603 4.91937 281.26 4.91937V4.89701Z" fill="#BCBCBC"/>
<path d="M105.235 275.463C104.944 275.463 104.653 275.418 104.363 275.306C103.087 274.814 102.461 273.405 102.953 272.131C103.445 270.879 104.855 270.208 106.108 270.655C107.361 271.125 108.032 272.466 107.585 273.741L107.54 273.875C107.16 274.859 106.242 275.44 105.258 275.44L105.235 275.463Z" fill="#BCBCBC"/>
<path d="M305.381 456.987H71.6502C70.2853 456.987 69.189 455.892 69.189 454.528C69.189 453.164 70.2853 452.068 71.6502 452.068H305.381C306.746 452.068 307.842 453.164 307.842 454.528C307.842 455.892 306.746 456.987 305.381 456.987Z" fill="black"/>
<path d="M527.588 456.987H323.751C322.386 456.987 321.29 455.892 321.29 454.528C321.29 453.164 322.386 452.068 323.751 452.068H527.588C528.953 452.068 530.05 453.164 530.05 454.528C530.05 455.892 528.953 456.987 527.588 456.987Z" fill="black"/>
<path fill-rule="evenodd" clip-rule="evenodd" d="M115.416 82.1982C124.03 82.1982 130.989 89.1748 130.989 97.7614C130.989 106.348 124.008 113.324 115.416 113.324C106.824 113.324 99.8428 106.348 99.8428 97.7614C99.8428 89.1748 106.824 82.1982 115.416 82.1982Z" fill="#E3746D"/>
<path fill-rule="evenodd" clip-rule="evenodd" d="M358.522 6.68585C364.765 6.68585 369.844 11.7394 369.844 18.0004C369.844 24.2614 364.787 29.315 358.522 29.315C352.257 29.315 347.2 24.2614 347.2 18.0004C347.2 11.7394 352.257 6.68585 358.522 6.68585Z" fill="#E3746D"/>
<path fill-rule="evenodd" clip-rule="evenodd" d="M482.749 234.52C488.991 234.52 494.07 239.574 494.07 245.835C494.07 252.096 489.014 257.149 482.749 257.149C476.484 257.149 471.427 252.096 471.427 245.835C471.427 239.574 476.484 234.52 482.749 234.52Z" fill="#E3746D"/>
<path fill-rule="evenodd" clip-rule="evenodd" d="M86.5965 298.069C86.5965 298.069 84.1576 265.534 88.9459 247.936C93.7342 230.361 98.7686 220.41 98.7686 220.41C98.7686 220.41 102.64 230.025 108.591 230.853C114.543 231.68 116.691 228.304 116.691 228.304C116.691 228.304 122.486 234.14 126.939 232.575C131.392 231.009 133.137 229.377 133.137 229.377C133.137 229.377 136.672 233.424 142.96 230.45C149.247 227.476 147.658 223.407 147.658 223.407C147.658 223.407 160.949 230.942 156.832 207.62C152.737 184.298 140.521 165.582 138.484 162.831C136.426 160.081 125.619 149.214 104.765 154.088C83.9115 158.963 60.6861 160.595 41.5778 198.251C22.447 235.906 5.75515 297.734 4.21127 322.599C2.66738 347.464 8.8653 376.109 30.8824 383.175C70.6431 395.92 176.679 352.25 176.679 352.25L195.675 449.944H304.329C304.329 449.944 302.226 455.601 307.104 456.563C311.959 457.524 320.126 455.847 326.95 453.365C333.775 450.883 338.138 446.702 344.448 448.669C350.757 450.637 355.009 451.487 361.945 451.867C368.881 452.247 397.701 449.385 414.236 449.743C430.771 450.078 480.332 453.857 489.573 450.391C498.836 446.925 513.917 437.578 507.294 415.419C500.671 393.259 463.618 291.987 417.01 261.196C364.004 226.157 306.007 228.773 306.007 228.773L302.382 220.03C302.382 220.03 337.153 202.768 333.976 164.575C330.799 126.383 309.632 124.259 309.632 124.259L315.181 118.713L306.209 117.64C306.209 117.64 306.03 107.22 307.283 107.623C308.536 108.025 292.56 113.168 292.56 113.168C292.56 113.168 260.429 96.2632 241.343 101.227C222.235 106.191 215.522 113.57 210.398 111.245C205.274 108.942 197.6 107.399 197.6 107.399C197.6 107.399 194.803 109.68 195.675 114.018C196.548 118.333 197.376 123.186 197.376 123.186C197.376 123.186 190.686 122.805 189.477 125.958C188.269 129.111 187.016 128.329 189.903 133.852C195.519 144.563 209.548 154.759 209.548 154.759C209.548 154.759 209.884 171.865 214.448 194.651C219.035 217.436 221.944 225.956 225.971 229.645C229.999 233.335 234.519 239.238 234.519 239.238C234.519 239.238 200.016 241.586 173.904 249.904C147.77 258.222 86.5965 298.114 86.5965 298.114V298.069Z" fill="#FEFEFF"/>
<path fill-rule="evenodd" clip-rule="evenodd" d="M297.482 207.844L302.181 217.861C302.181 217.861 320.148 209.118 328.226 192.258C336.303 175.398 335.543 150.689 328.875 139.777C322.185 128.865 307.327 123.566 307.327 123.566L315.226 118.445L306.477 115.896L309.901 106.303L290.255 119.094C290.255 119.094 267.41 103.285 246.489 108.651C225.591 114.018 219.595 122.314 215.746 121.24C211.92 120.167 203.373 113.995 203.373 113.995C203.373 113.995 201.292 116.858 201.448 121.889C201.605 126.92 205.073 134.053 205.073 134.053C205.073 134.053 196.235 129.648 196.324 132.778C196.436 136.826 197.108 136.848 201.225 141.097C208.72 148.811 213.598 149.84 213.598 149.84L215.724 144.294C215.724 144.294 229.261 152.031 240.269 150.689C251.278 149.348 276.674 141.365 283.61 149.415C292.224 159.432 288.309 186.109 288.309 186.109L296.408 179.065C296.408 179.065 313.123 171.127 314.13 182.263C315.114 193.421 297.482 207.866 297.482 207.866V207.844Z" fill="#E3746D"/>
<path fill-rule="evenodd" clip-rule="evenodd" d="M326.301 387.669C326.301 387.669 306.947 339.146 310.93 311.083C314.912 283.021 323.303 231.099 323.303 231.099C323.303 231.099 401.527 231.948 432.382 273.338C444.576 289.706 460.351 309.607 472.299 331.566C490.557 365.107 499.91 388.027 503.669 402.181C507.697 417.275 509.039 428.075 505.37 436.102C501.7 444.108 489.282 452.493 471.427 452.314C453.594 452.135 401.213 450.167 401.213 450.167C401.213 450.167 412.759 426.174 408.038 412.847C403.339 399.498 395.664 386.618 395.664 386.618C395.664 386.618 357.022 386.171 345.298 386.819C333.573 387.49 326.301 387.669 326.301 387.669Z" fill="#9c5b89"/>
<path fill-rule="evenodd" clip-rule="evenodd" d="M237.294 348.202C237.294 348.202 225.703 314.37 227.471 296.795C229.238 279.219 248.817 242.615 248.817 242.615C248.817 242.615 239.307 241.049 237.07 239.842C234.832 238.634 233.221 240.49 233.221 240.49C233.221 240.49 176.993 243.621 140.364 265.669C103.736 287.716 85.5006 298.092 85.5006 298.092C85.5006 298.092 85.7019 275.463 88.2751 258.424C90.0203 246.953 94.473 238.791 94.473 238.791C94.473 238.791 64.8931 253.817 54.1306 249.233C37.6401 242.234 30.234 224.055 30.234 224.055C30.234 224.055 15.5559 264.931 7.81407 294.022C0.0946498 323.113 -0.308102 360.903 20.2099 375.93C40.7279 390.956 78.8775 387.423 117.542 371.033C156.228 354.642 182.228 378.277 182.228 378.277L237.294 348.202Z" fill="#9c5b89"/>
<path fill-rule="evenodd" clip-rule="evenodd" d="M500.671 388.295C496.039 375.527 490.96 364.101 485.725 352.473C464.714 305.784 438.625 263.746 391.816 243.487C368.322 233.313 340.398 226.984 307.932 225.777C306.791 223.787 305.649 221.797 304.956 219.382C321.245 211.444 332.388 196.44 335.699 175.018C339.458 150.578 329.546 132.041 313.503 123.61C315.852 121.844 319.455 120.704 319.052 117.215C318.605 113.436 313.458 113.884 308.804 113.794C309.05 110.91 313.951 106.683 311.355 103.776C309.319 101.496 304.217 104.85 301.756 105.901C298.109 107.466 294.596 108.875 292.157 109.948C276.248 101.63 247.832 93.893 227.269 102.48C222.078 104.649 217.021 109.054 212.323 109.3C206.505 109.613 202.858 103.061 197.801 104.403C192.454 105.834 193.371 116.321 193.528 122.314C187.016 121.039 184.577 125.668 185.629 131.481C187.844 143.78 200.262 151.494 208.474 157.286C208.631 161.199 208.116 164.464 208.25 168.377C208.027 168.533 207.758 168.69 207.49 168.824C207.49 169.718 207.423 170.613 207.355 171.485C207.355 172.156 206.684 172.2 206.639 172.804C206.617 173.296 206.706 171.776 206.639 172.245C207.132 171.999 208.027 172.357 208.34 172.245C209.794 195.568 213.867 219.426 224.696 232.999C226.262 234.945 228.231 236.51 229.596 238.545C199.367 241.586 173.189 247.266 150.209 257.306C127.208 267.346 107.338 280.203 87.8945 292.926C87.805 266.093 93.2198 244.784 100.492 225.307C102.841 228.125 105.325 233.424 109.889 234.274C114.051 235.034 116.423 232.865 118.862 230.853C120.764 232.686 124.388 234.341 128.035 233.849C130.452 233.514 131.817 231.904 133.361 231.501C138.977 236.644 147.703 233.402 148.934 227.029C157.436 227.767 160.435 222.333 160.457 214.239C160.502 201.963 154.416 190.894 150.634 182.24C146.316 172.379 141.93 162.451 134.189 156.637C125.776 150.309 112.015 150.376 99.3953 152.59C87.1561 154.737 76.3489 158.158 68.2267 163.48C51.9153 174.168 41.0409 192.169 32.3818 211.466C23.4541 231.322 16.8534 252.923 11.2596 274.389C8.50749 284.899 5.41972 296.236 2.93608 307.863C0.497186 319.334 -1.3152 333.086 1.23557 345.608C3.45071 356.543 8.30611 366.784 14.8844 373.984C21.8207 381.542 29.6968 386.462 42.6296 388.273C55.6967 390.084 68.5176 387.803 79.9737 385.075C114.342 376.914 142.714 364.235 175.806 354.799C182.049 388.094 188.135 421.523 193.729 455.467H199.278C192.991 419.019 186.368 379.955 179.207 343.283C178.603 340.13 177.775 329.24 173.882 329.643C169.788 330.045 172.361 336.262 172.808 338.609C173.591 342.702 174.061 346.615 174.732 349.499C150.59 356.945 127.431 365.196 103.02 372.956C82.4126 379.507 46.1649 391.336 25.5573 376.377C15.9808 369.423 10.2304 359.338 7.20973 347.151C4.03246 334.45 6.09097 318.373 9.13399 305.135C15.0634 279.42 21.8654 253.773 30.4799 231.121C35.917 240.625 41.4661 250.128 54.1752 252.029C68.0701 254.086 79.2577 247.377 88.9685 243.487C85.12 256.858 82.3455 274.568 82.3455 292.971C82.3455 297.555 80.8687 309.205 86.194 307.908C89.1475 307.193 87.4694 302.251 87.8945 299.814C117.9 279.42 149.896 258.491 192.677 249.703C202.858 247.601 215.008 245.812 225.972 244.359C229.44 243.889 234.519 242.704 237.495 242.861C239.508 242.972 241.724 244.538 244.319 244.359C235.168 257.775 227.18 270.23 225.972 290.847C224.808 310.502 229.619 330.56 232.796 348.426C239.374 385.254 247.094 421.412 255.641 455.489C257.409 455.355 259.758 455.78 261.19 455.266C250.741 412.982 241.142 368.64 233.87 323.024C231.476 307.953 229.238 290.265 234.094 275.463C244.453 282.126 258.751 286.106 274.861 283.557C289.226 281.299 301.778 275.373 312.004 270.342C306.455 312.425 316.971 352.518 324.176 385.947C308.983 387.826 289.226 388.072 279.359 395.54C277.569 396.904 276.405 398.514 275.734 400.437C273.631 406.452 278.844 412.266 283.409 412.803C288.555 413.406 292.448 410.097 297.08 408.532C301.89 406.899 307.305 406.475 312.877 407.682C307.126 409.806 300.615 412.713 294.73 416.85C289.517 420.517 283.632 425.504 282.782 432.212C281.932 438.831 284.952 445.025 291.106 445.226C290.479 451.353 296.274 453.142 301.555 451.42C302.204 455.132 304.889 457.323 307.753 458.24C319.746 462.131 330.933 450.704 344.045 452.046C347.357 452.381 350.556 453.701 353.868 454.394C364.742 456.697 376.265 455.243 388.437 454.617C403.988 453.79 420.635 453.499 436.88 454.192C452.005 454.819 470.062 455.422 484.046 453.119C498.725 450.727 509.039 444.823 509.867 429.663C510.718 414.211 505.034 400.236 500.693 388.295H500.671ZM56.0994 246.886C42.8533 245.723 38.2217 233.693 33.053 223.854C40.0341 206.032 48.1786 190.469 59.2991 178.417C71.2698 165.448 86.2387 159.03 109.464 156.883C118.392 156.056 127.655 157.599 132.734 162.205C139.603 168.466 143.519 179.199 147.681 188.859C149.65 193.443 151.843 198.43 153.454 203.998C155.109 209.722 157.593 223.34 149.18 221.707C145.667 210.46 142.512 200.867 138.283 189.284C137.433 186.959 135.889 180.295 132.958 180.317C127.856 180.385 132.376 188.882 133.383 191.61C136.672 200.509 138.843 207.508 141.93 216.788C143.004 220.008 145.51 227.789 141.08 228.729C138.708 229.243 137.097 227.186 135.106 225.956C133.003 214.753 127.946 203.886 123.359 193.533C121.927 190.29 119.22 180.921 115.036 186.288C115.394 190.111 117.43 193.287 118.884 196.529C121.77 202.991 124.433 209.409 126.984 216.363C128.192 219.672 129.781 223.451 129.333 227.454C125.887 230.137 121.972 226.671 119.734 224.905C116.826 215.223 112.641 205.764 108.211 196.328C107.115 194.002 105.369 188.68 102.438 188.859C97.3144 189.195 102.237 196.507 103.087 198.251C106.466 205.272 109.017 211.354 112.06 218.733C112.865 220.679 116.535 228.371 112.283 228.975C109.934 229.31 107.383 225.844 106.085 223.854C101.812 217.257 99.2163 208.134 94.3385 202.32C93.1303 200.867 90.9151 198.922 89.0132 198.474C83.688 197.245 80.0408 201.918 75.5658 201.672C73.8876 201.583 72.478 200.733 71.2921 199.973C69.8825 199.056 66.213 196.641 65.318 200.174C64.4453 203.662 71.8739 207.15 75.7672 207.217C80.2869 207.285 83.8446 203.55 87.0666 203.796C89.774 204.02 91.922 208.336 93.0408 210.415C94.7189 213.546 95.2112 215.379 97.0907 218.733C95.0993 224.279 92.9065 229.623 91.3179 235.593C81.1596 240.423 71.0908 248.205 56.0994 246.908V246.886ZM264.613 279.085C253.001 279.13 243.804 274.948 236.018 270.118C239.71 260.637 245.169 251.827 250.965 245.164C249.756 253.124 258.841 252.342 256.514 243.666C267.03 241.34 275.421 236.421 282.983 230.45C284.706 229.086 289.517 226.403 289.606 223.832C289.651 222.065 288.376 221.126 287.056 221.059C284.684 220.925 281.126 225.106 279.157 226.604C271.729 232.306 263.226 238.075 251.412 238.97C229.731 240.647 223.152 222.468 218.767 206.547C215.858 195.992 214.314 182.956 213.889 170.076C227.694 165.671 234.675 178.014 233.49 191.61C233.087 196.216 229.887 199.771 230.066 203.975C230.2 206.994 232.684 211.869 235.391 211.869C236.398 211.869 238.032 210.706 238.166 209.521C238.412 207.553 235.794 206.032 235.615 203.975C235.459 202.164 236.868 199.548 237.539 197.58C243.088 181.19 232.93 161.02 213.844 166.431C212.524 161.4 217.111 148.252 211.92 148.096C209.884 148.028 209.459 149.258 208.922 151.092C204.961 148.319 200.665 145.39 197.398 141.7C194.244 138.145 190.887 133.673 190.999 127.635C193.796 127.255 194.602 128.977 196.973 128.485C201.784 127.501 197.018 114.197 199.524 109.926C204.491 111.849 207.848 115.739 214.046 114.621C218.901 113.749 222.391 110.619 227.493 108.226C232.08 106.057 237.987 104.358 243.715 103.955C260.228 102.815 274.884 108.07 286.608 113.347C288.376 114.152 290.457 115.426 291.933 115.471C296.073 115.628 300.257 111.469 304.105 110.775C303.591 113.19 301.488 114.89 301.98 117.394C302.539 120.279 306.052 119.429 309.453 119.317C307.797 120.838 304.71 120.793 304.754 123.588C304.799 125.444 307.551 126.719 309.655 127.859C323.214 135.149 332.522 148.006 330.777 169.875C329.009 192.012 318.784 205.719 302.808 214.462C301.667 213.054 301.107 211.041 300.682 208.917C306.925 203.506 316.166 198.273 317.329 187.808C318.269 179.49 312.228 173.52 304.307 173.52C298.489 173.52 294.618 177.411 291.71 179.289C292.896 160.081 291.217 142.841 273.563 141.745C267.41 141.365 260.877 142.751 254.992 144.317C249.175 145.859 243.737 148.163 237.92 148.163C231.386 148.163 225.949 145.792 221.273 143.467C219.46 142.572 214.247 139.531 214.023 143.892C213.844 147.089 220.646 149.258 223.197 150.287C227.113 151.852 230.894 153.149 235.57 153.485C249.98 154.535 259.691 145.77 274.615 147.291C287.481 148.61 287.66 167.594 285.937 181.838C285.736 183.493 285.064 185.237 285.288 186.534C285.534 187.853 286.989 189.62 289.137 189.53C291.531 189.441 292.717 186.265 294.462 184.409C296.699 182.062 300.525 178.529 305.359 179.088C310.102 179.624 313.19 183.94 311.333 189.53C309.587 194.807 305.56 198.407 301.085 201.694C299.429 202.902 295.625 204.803 295.111 207.463C294.618 209.99 296.118 212.696 296.811 214.507C297.661 216.721 298.579 218.778 299.362 220.477C301.264 224.614 302.114 228.147 305.336 231.568C309.901 230.898 314.756 231.568 319.634 231.77C316.815 241.608 314.801 252.252 312.809 262.918C300.436 270.253 284.169 279.063 264.569 279.13L264.613 279.085ZM354.673 449.072C350.355 448.133 346.081 446.523 341.651 446.523C331.851 446.5 323.46 452.515 314.532 453.343C311.087 453.656 308.334 453.142 306.858 450.995C310.124 444.957 317.329 442.028 324.78 438.629C327.957 437.176 331.448 435.678 335.453 434.157C338.25 433.084 345.276 431.966 345.276 428.835C345.276 423.536 336.08 428.343 334.178 429.037C324.556 432.57 314.13 436.483 306.656 442.475C305.381 443.504 303.994 445.695 302.383 446.321C301.846 446.523 297.303 447.931 296.185 445.897C294.193 442.229 302.539 437.422 304.284 436.08C313.145 429.439 322.789 425.056 334.155 420.517C336.169 419.712 339.257 418.549 339.279 416.671C339.324 413.16 335.453 414.122 333.305 414.972C321.245 419.712 307.932 425.727 298.512 433.531C297.706 434.202 296.744 434.671 295.737 435.454C294.641 436.304 292.493 439.949 290.188 439.501C288.532 439.188 287.705 435.588 288.264 432.681C288.734 430.289 290.121 428.276 291.687 426.487C299.608 417.454 316.121 411.17 330.307 407.727C333.82 406.877 335.207 406.519 335.207 404.529C335.252 398.872 326.19 404.283 322.833 404.306C320.976 404.306 318.068 402.897 315.159 402.382C308.379 401.197 300.145 401.578 294.462 403.657C291.508 404.753 287.168 407.771 284.013 407.28C282.133 406.989 280.567 404.73 280.813 402.584C281.35 397.91 292.94 395.63 298.959 394.489C314.018 391.582 330.486 390.554 346.775 389.793C350.959 389.592 355.3 389.369 359.573 389.369C367.763 389.369 374.363 388.944 383.269 388.944C386.357 388.944 391.145 388.273 393.293 388.944C395.016 389.48 397.097 393.595 398.193 395.339C402.444 402.002 406.673 410.455 406.74 420.517C406.785 432.189 402.758 440.06 399.066 448.669C383.224 448.401 369.329 452.314 354.673 449.094V449.072ZM500.872 440.105C493.645 448.915 472.904 449.653 457.129 449.273C439.229 448.848 422.179 448.356 405.264 448.423C409.067 439.367 413.14 428.902 411.887 416.425C410.723 405.066 405.174 396.121 400.788 389.123C412.558 389.123 424.014 389.637 436.007 390.196C439.542 390.352 444.868 391.649 444.957 388.072C445.047 384.963 440.75 385.254 438.133 385.075C429.004 384.494 419.628 384.002 410.387 383.801C405.487 372.777 399.424 362.111 393.091 351.802C391.592 349.343 388.952 342.657 385.842 342.836C385.372 342.858 383.783 343.529 383.493 344.535C382.665 347.397 387.699 352.853 388.616 354.352C394.344 363.609 399.804 374.007 404.19 383.577C378.883 383.398 353.331 383.443 329.703 385.5C322.162 351.512 311.825 311.329 317.531 269.47C318.828 259.877 320.439 250.821 322.655 241.743C323.415 238.59 324.556 234.833 324.78 232.351C352.503 235.101 380.069 242.436 399.916 253.46C441.019 276.29 463.685 316.606 483.8 361.373C488.633 372.128 493.131 383.398 497.449 395.719C501.365 406.899 509.196 429.931 500.872 440.083V440.105Z" fill="black"/>
<path fill-rule="evenodd" clip-rule="evenodd" d="M260.787 156.011C264.166 155.899 268.26 156.436 272.31 158.136C274.302 158.985 282.76 162.697 278.508 165.805C276.427 167.326 272.736 164.352 271.259 163.681C265.62 161.11 258.684 160.774 252.061 162.831C249.846 163.502 243.066 167.527 243.088 162.406C243.088 159.813 247.899 158.493 250.338 157.711C254.052 156.526 257.185 156.123 260.787 156.011Z" fill="black"/>
<path fill-rule="evenodd" clip-rule="evenodd" d="M302.606 186.511C303.703 186.221 305.538 186.087 306.03 188.01C306.701 190.715 301.376 195.948 299.205 195.903C297.729 195.858 296.811 194.986 296.655 193.779C296.319 191.386 301.063 186.936 302.629 186.534L302.606 186.511Z" fill="black"/>
<path fill-rule="evenodd" clip-rule="evenodd" d="M234.318 216.162C237.338 215.312 239.889 219.471 244.14 219.583C247.653 219.672 253.963 215.536 253.963 220.656C253.963 224.167 246.624 225.285 242.865 224.927C238.636 224.525 232.505 221.663 232.416 218.733C232.371 217.28 233.221 216.497 234.34 216.184L234.318 216.162Z" fill="black"/>
<path fill-rule="evenodd" clip-rule="evenodd" d="M260.138 179.49C262.062 179.334 263.763 180.765 263.942 182.71L264.367 187.808C264.524 189.754 263.092 191.453 261.167 191.61C259.243 191.766 257.52 190.335 257.364 188.39L256.938 183.291C256.782 181.346 258.214 179.647 260.138 179.468V179.49Z" fill="black"/>
<path fill-rule="evenodd" clip-rule="evenodd" d="M224.07 179.49C226.016 179.334 227.717 180.765 227.874 182.688L228.299 187.786C228.455 189.731 227.023 191.431 225.099 191.587C223.152 191.744 221.452 190.313 221.295 188.39L220.87 183.291C220.713 181.346 222.145 179.647 224.07 179.49Z" fill="black"/>
<path fill-rule="evenodd" clip-rule="evenodd" d="M126.29 310.234L104.519 316.204L79.75 225.978C79.75 225.978 85.3885 224.458 93.8911 222.177C94.8756 221.909 110.091 246.505 111.142 246.237C125.977 242.257 148.576 242.056 161.084 231.3C165.066 227.856 161.039 208.403 161.196 203.55C161.24 201.918 171.108 201.426 171.108 201.426L179.655 226.179L132.264 281.008L126.29 310.234Z" fill="#BDD0FB"/>
<path fill-rule="evenodd" clip-rule="evenodd" d="M195.922 267.189C206.953 264.26 213.486 252.968 210.533 242.011C207.579 231.032 196.235 224.525 185.204 227.476C185.137 227.476 178.738 203.819 178.738 203.819L86.3506 228.438L111.097 320.296L137.388 313.297C134.48 302.363 141.013 291.115 152.022 288.186C163.03 285.257 174.352 291.719 177.328 302.653L203.484 295.677L195.81 267.211H195.877L195.922 267.189Z" fill="#E3746D"/>
<path d="M170.213 203.819L175.627 223.966L176.88 228.617L181.557 227.454H181.669C183.168 227.029 184.622 226.85 186.054 226.85C193.617 226.85 200.285 231.948 202.254 239.216C203.417 243.509 202.813 247.981 200.598 251.827C198.361 255.696 194.736 258.468 190.395 259.631L190.238 259.676L185.562 260.95L186.837 265.669L193.595 290.802L175.202 295.699C170.817 286.71 161.576 280.74 151.283 280.74C148.956 280.74 146.652 281.053 144.392 281.657L144.235 281.701C131.817 285.1 123.829 296.795 124.724 309.16L106.175 314.102L82.7705 227.141L170.19 203.819H170.213ZM173.681 197.826L76.7964 223.675L102.752 320.117L130.318 312.76C127.275 301.267 134.121 289.483 145.667 286.397C147.547 285.905 149.448 285.659 151.306 285.659C160.86 285.659 169.586 291.987 172.226 301.58L199.658 294.268L191.626 264.394C203.283 261.286 210.13 249.457 207.042 237.941C204.447 228.304 195.676 221.931 186.099 221.931C184.242 221.931 182.362 222.177 180.483 222.669C180.393 222.669 173.703 197.826 173.703 197.826H173.681Z" fill="black"/>
<path d="M243.916 190.022C242.731 190.022 241.679 189.15 241.5 187.942C241.478 187.786 241.231 186.78 240.359 186.646C239.576 186.489 238.546 187.786 238.233 188.3C237.562 189.463 236.063 189.888 234.877 189.195C233.691 188.524 233.288 187.026 233.982 185.841C234.989 184.074 237.629 181.234 241.097 181.771C244.655 182.308 246.064 185.416 246.333 187.16C246.534 188.501 245.617 189.754 244.297 189.955C244.163 189.955 244.051 189.977 243.916 189.977V190.022Z" fill="black"/>
<g style="mix-blend-mode:screen">
<path fill-rule="evenodd" clip-rule="evenodd" d="M217.357 200.174C209.347 200.174 202.835 193.667 202.835 185.662C202.835 177.657 209.347 171.15 217.357 171.15C225.367 171.15 231.856 177.657 231.856 185.662C231.856 193.667 225.345 200.174 217.357 200.174Z" fill="#A29A9A"/>
<path d="M217.357 173.408C224.114 173.408 229.619 178.909 229.619 185.662C229.619 192.415 224.114 197.915 217.357 197.915C210.6 197.915 205.073 192.415 205.073 185.662C205.073 178.909 210.577 173.408 217.357 173.408ZM217.357 168.936C208.116 168.936 200.598 176.427 200.598 185.684C200.598 194.941 208.094 202.432 217.357 202.432C226.62 202.432 234.116 194.941 234.116 185.684C234.116 176.427 226.62 168.936 217.357 168.936Z" fill="white"/>
</g>
<g style="mix-blend-mode:screen">
<path fill-rule="evenodd" clip-rule="evenodd" d="M262.04 200.174C254.03 200.174 247.519 193.667 247.519 185.662C247.519 177.657 254.03 171.15 262.04 171.15C270.05 171.15 276.539 177.657 276.539 185.662C276.539 193.667 270.028 200.174 262.04 200.174Z" fill="#A29A9A"/>
<path d="M262.04 173.408C268.798 173.408 274.302 178.909 274.302 185.662C274.302 192.415 268.798 197.915 262.04 197.915C255.283 197.915 249.779 192.415 249.779 185.662C249.779 178.909 255.283 173.408 262.04 173.408ZM262.04 168.936C252.777 168.936 245.281 176.427 245.281 185.684C245.281 194.941 252.777 202.432 262.04 202.432C271.304 202.432 278.799 194.941 278.799 185.684C278.799 176.427 271.304 168.936 262.04 168.936Z" fill="white"/>
</g>
<path d="M262.04 206.234C250.674 206.234 241.433 196.999 241.433 185.662C241.433 174.325 250.674 165.09 262.04 165.09C273.407 165.09 282.648 174.325 282.648 185.662C282.648 196.999 273.407 206.234 262.04 206.234ZM262.04 169.987C253.381 169.987 246.355 177.008 246.355 185.662C246.355 194.315 253.403 201.337 262.04 201.337C270.677 201.337 277.725 194.315 277.725 185.662C277.725 177.008 270.677 169.987 262.04 169.987Z" fill="black"/>
<path d="M217.626 206.234C206.281 206.234 197.041 196.999 197.041 185.662C197.041 174.325 206.281 165.067 217.626 165.067C228.97 165.067 238.211 174.302 238.211 185.662C238.211 197.021 228.992 206.234 217.626 206.234ZM217.626 169.964C208.989 169.964 201.963 177.008 201.963 185.639C201.963 194.271 208.989 201.314 217.626 201.314C226.262 201.314 233.288 194.293 233.288 185.639C233.288 176.986 226.262 169.964 217.626 169.964Z" fill="black"/>
<path d="M332.052 352.853H312.452V393.706H332.052V352.853Z" fill="#E3746D"/>
<path fill-rule="evenodd" clip-rule="evenodd" d="M223.801 452.538V352.652H252.464C252.464 340.734 262.108 331.096 273.966 331.096C285.825 331.096 295.469 340.734 295.469 352.585C295.469 352.652 323.773 352.652 323.773 352.652V383.823C323.773 383.823 323.975 383.823 324.064 383.823C335.923 383.823 345.567 393.461 345.567 405.312C345.567 417.163 335.923 426.8 324.064 426.8C323.975 426.8 323.863 426.8 323.773 426.8V452.56H223.824L223.801 452.538Z" fill="#E3746D"/>
<path d="M273.966 333.556C284.483 333.556 293.008 342.075 293.008 352.585C293.008 353.435 292.94 354.284 292.829 355.112H321.29V386.462C322.185 386.327 323.102 386.26 324.042 386.26C334.558 386.26 343.083 394.78 343.083 405.289C343.083 415.799 334.558 424.318 324.042 424.318C323.102 424.318 322.185 424.251 321.29 424.117V450.078H226.24V355.089H255.059C254.947 354.262 254.903 353.412 254.903 352.563C254.903 342.053 263.428 333.534 273.944 333.534L273.966 333.556ZM273.966 328.659C261.57 328.659 251.323 338.14 250.137 350.215H221.362V455.02H326.235V429.171C338.429 428.075 348.028 417.811 348.028 405.334C348.028 392.857 338.429 382.593 326.235 381.497V350.237H297.818C296.61 338.162 286.384 328.681 273.989 328.681L273.966 328.659Z" fill="black"/>
<path fill-rule="evenodd" clip-rule="evenodd" d="M123.449 452.538V352.652H152.111C152.111 340.734 161.755 331.096 173.614 331.096C185.473 331.096 195.116 340.734 195.116 352.585C195.116 352.652 223.421 352.652 223.421 352.652V383.823C223.421 383.823 223.622 383.823 223.712 383.823C235.571 383.823 245.214 393.461 245.214 405.312C245.214 417.163 235.571 426.8 223.712 426.8C223.622 426.8 223.51 426.8 223.421 426.8V452.56H123.449V452.538Z" fill="#F0F0F0"/>
<path d="M173.614 333.556C184.13 333.556 192.655 342.075 192.655 352.585C192.655 353.435 192.588 354.284 192.498 355.112H220.96V386.462C221.855 386.327 222.772 386.26 223.712 386.26C234.228 386.26 242.753 394.78 242.753 405.289C242.753 415.799 234.228 424.318 223.712 424.318C222.772 424.318 221.855 424.251 220.96 424.117V450.078H125.91V355.089H154.729C154.617 354.262 154.572 353.412 154.572 352.563C154.572 342.053 163.097 333.534 173.614 333.534V333.556ZM173.614 328.659C161.218 328.659 150.97 338.14 149.784 350.215H121.01V455.02H225.882V429.171C238.077 428.075 247.675 417.811 247.675 405.334C247.675 392.857 238.077 382.593 225.882 381.497V350.237H197.466C196.257 338.162 186.032 328.681 173.636 328.681L173.614 328.659Z" fill="black"/>
<mask id="mask0_3_4976" style="mask-type:luminance" maskUnits="userSpaceOnUse" x="125" y="333" width="118" height="118">
<path d="M223.711 386.283C222.772 386.283 221.854 386.35 220.959 386.484V355.134H192.498C192.61 354.307 192.655 353.457 192.655 352.607C192.655 342.098 184.13 333.578 173.613 333.578C163.097 333.578 154.572 342.098 154.572 352.607C154.572 353.457 154.639 354.307 154.729 355.134H125.91V450.123H220.959V424.162C221.854 424.296 222.772 424.363 223.711 424.363C234.228 424.363 242.753 415.844 242.753 405.334C242.753 394.824 234.228 386.305 223.711 386.305V386.283Z" fill="white"/>
</mask>
<g mask="url(#mask0_3_4976)">
<path fill-rule="evenodd" clip-rule="evenodd" d="M229.417 391.113C228.477 391.113 227.56 391.18 226.665 391.314V359.964H198.204C198.316 359.137 198.36 358.287 198.36 357.437C198.36 346.928 189.835 338.408 179.319 338.408C168.803 338.408 160.278 346.928 160.278 357.437C160.278 358.287 160.345 359.137 160.434 359.964H131.615V454.953H226.665V428.992C227.56 429.126 228.477 429.193 229.417 429.193C239.933 429.193 248.458 420.674 248.458 410.164C248.458 399.654 239.933 391.135 229.417 391.135V391.113Z" fill="#E3746D"/>
</g>
<path d="M332.052 261.085H312.452V354.105H332.052V261.085Z" fill="#BDD0FB"/>
<path fill-rule="evenodd" clip-rule="evenodd" d="M223.287 352.853V317.255L225.502 317.031C233.982 316.159 240.381 309.071 240.381 300.529C240.381 291.987 233.982 284.899 225.502 284.027L223.287 283.803V253.169H323.818V352.853H223.287Z" fill="#F0F0F0"/>
<path d="M321.357 255.629V350.394H225.725V319.446C235.324 318.462 242.82 310.368 242.82 300.507C242.82 290.646 235.324 282.551 225.725 281.567V255.584H321.357V255.629ZM326.257 250.732H220.825V286.039L225.233 286.486C232.46 287.224 237.92 293.262 237.92 300.551C237.92 307.841 232.46 313.878 225.233 314.594L220.825 315.041V355.313H326.257V250.732Z" fill="black"/>
<mask id="mask1_3_4976" style="mask-type:luminance" maskUnits="userSpaceOnUse" x="225" y="255" width="97" height="96">
<path d="M225.726 255.629V281.612C235.325 282.596 242.82 290.69 242.82 300.551C242.82 310.413 235.325 318.507 225.726 319.491V350.438H321.357V255.673H225.726V255.629Z" fill="white"/>
</mask>
<g mask="url(#mask1_3_4976)">
<path fill-rule="evenodd" clip-rule="evenodd" d="M234.049 261.085V287.068C243.648 288.052 251.144 296.146 251.144 306.007C251.144 315.869 243.648 323.963 234.049 324.947V355.894H329.681V261.129H234.049V261.085Z" fill="#BDD0FB"/>
</g>
<path fill-rule="evenodd" clip-rule="evenodd" d="M370 386.73L365.078 386.976C365.078 386.976 302.987 389.592 295.737 391.828C288.488 394.064 279.135 397.776 278.956 400.683C278.799 403.59 277.837 407.771 282.178 409.538C286.541 411.304 294.283 405.826 296.05 405.669C297.818 405.513 318.627 406.161 318.627 406.161L316.21 409.896C316.21 409.896 291.329 418.527 287.011 427.27C282.692 436.013 288.622 443.549 291.844 442.9C295.066 442.252 291.643 449.072 297.975 449.519C304.307 449.966 304.262 448.714 306.835 453.231C309.408 457.748 317.463 456.853 322.229 454.55C326.995 452.247 338.765 447.305 348.117 450.1C351.675 451.174 360.468 451.531 369.978 451.554V386.73H370Z" fill="#FEFEFF"/>
<path fill-rule="evenodd" clip-rule="evenodd" d="M96.621 212.964C96.621 212.964 109.218 234.341 113.156 232.686C117.094 231.032 116.334 226.962 120.16 228.997C123.986 231.032 130.251 230.696 133.383 228.863C136.538 227.029 138.261 233.939 142.244 231.412C146.227 228.863 146.876 225.173 149.426 224.659C151.977 224.145 159.473 224.883 158.332 211.175C157.191 197.468 151.194 191.453 151.194 191.073C151.194 190.693 96.5986 212.942 96.5986 212.942L96.621 212.964Z" fill="#FEFEFF"/>
<path d="M298.982 394.489C314.04 391.582 330.508 390.554 346.797 389.793C350.981 389.592 355.322 389.368 359.596 389.368C367.785 389.368 374.386 388.944 383.291 388.944C384.186 388.944 385.238 388.876 386.334 388.832V383.555C366.98 383.555 347.782 383.979 329.725 385.545C329.68 385.366 329.636 385.165 329.591 384.986H323.952C324.019 385.321 324.087 385.657 324.176 385.992C308.983 387.87 289.226 388.116 279.359 395.585C277.569 396.949 276.405 398.559 275.734 400.482C273.631 406.497 278.844 412.311 283.409 412.847C288.555 413.451 292.448 410.142 297.08 408.576C301.89 406.944 307.305 406.519 312.877 407.727C307.126 409.851 300.615 412.758 294.73 416.895C289.517 420.562 283.632 425.548 282.782 432.256C281.932 438.875 284.952 445.069 291.106 445.27C290.479 451.397 296.274 453.186 301.555 451.464C302.204 455.176 304.889 457.368 307.753 458.284C319.746 462.175 330.933 450.749 344.045 452.09C347.357 452.426 350.556 453.745 353.868 454.438C364.116 456.607 374.945 455.445 386.357 454.774V449.184C375.527 450.033 365.324 451.442 354.718 449.116C350.4 448.177 346.126 446.567 341.696 446.567C331.895 446.545 323.505 452.56 314.577 453.387C311.131 453.7 308.379 453.186 306.902 451.039C310.169 445.002 317.374 442.073 324.825 438.674C328.002 437.221 331.493 435.722 335.498 434.202C338.295 433.128 345.321 432.01 345.321 428.88C345.321 423.58 336.124 428.388 334.222 429.081C324.601 432.614 314.174 436.527 306.701 442.52C305.426 443.549 304.038 445.74 302.427 446.366C301.89 446.567 297.348 447.976 296.229 445.941C294.238 442.274 302.584 437.466 304.329 436.125C313.19 429.484 322.834 425.101 334.2 420.562C336.214 419.757 339.302 418.594 339.324 416.716C339.369 413.205 335.498 414.167 333.35 415.016C321.29 419.757 307.976 425.772 298.556 433.576C297.751 434.247 296.789 434.716 295.782 435.499C294.686 436.348 292.538 439.993 290.233 439.546C288.577 439.233 287.749 435.633 288.309 432.726C288.779 430.333 290.166 428.321 291.732 426.532C299.653 417.498 316.166 411.215 330.352 407.771C333.864 406.922 335.252 406.564 335.252 404.574C335.296 398.916 326.235 404.328 322.878 404.35C321.021 404.35 318.112 402.941 315.204 402.427C308.424 401.242 300.19 401.622 294.507 403.702C291.553 404.797 287.212 407.816 284.057 407.324C282.178 407.033 280.612 404.775 280.858 402.628C281.395 397.955 292.985 395.674 299.004 394.534L298.982 394.489Z" fill="black"/>
<path d="M150.657 182.263C146.339 172.402 141.953 162.473 134.211 156.66C125.798 150.332 112.037 150.399 99.4179 152.612C87.1787 154.759 76.3715 158.18 68.2493 163.502C51.9379 174.191 41.0635 192.191 32.4044 211.488C27.8175 221.685 23.857 232.329 20.3218 243.174H26.1617C27.5489 239.082 29.0033 235.057 30.4801 231.121C32.8966 235.37 35.3579 239.618 38.468 243.174H46.1203C39.9672 238.612 36.6333 230.696 33.0532 223.854C40.0343 206.032 48.1788 190.469 59.2993 178.417C71.27 165.447 86.2389 159.03 109.464 156.883C118.392 156.056 127.655 157.599 132.734 162.205C139.604 168.466 143.519 179.199 147.681 188.859C149.65 193.443 151.843 198.43 153.454 203.997C155.11 209.722 157.593 223.34 149.18 221.707C145.667 210.46 142.512 200.867 138.284 189.284C137.433 186.959 135.889 180.295 132.958 180.317C127.857 180.384 132.376 188.882 133.383 191.61C136.673 200.509 138.843 207.508 141.931 216.788C143.005 220.008 145.511 227.789 141.08 228.729C138.709 229.243 137.098 227.186 135.106 225.956C133.003 214.753 127.946 203.886 123.359 193.533C121.927 190.29 119.22 180.921 115.036 186.288C115.394 190.111 117.43 193.287 118.884 196.529C121.771 202.991 124.433 209.409 126.984 216.363C128.192 219.672 129.781 223.451 129.333 227.454C125.888 230.137 121.972 226.671 119.735 224.905C116.826 215.223 112.642 205.764 108.211 196.328C107.115 194.002 105.37 188.68 102.439 188.859C97.3146 189.195 102.237 196.507 103.087 198.251C106.466 205.272 109.017 211.354 112.06 218.733C112.865 220.679 116.535 228.371 112.284 228.974C109.934 229.31 107.383 225.844 106.086 223.854C101.812 217.257 99.2165 208.134 94.3388 202.32C93.1305 200.867 90.9154 198.922 89.0135 198.474C83.6882 197.245 80.041 201.918 75.566 201.672C73.8879 201.583 72.4782 200.733 71.2924 199.973C69.8827 199.056 66.2132 196.641 65.3182 200.174C64.4456 203.662 71.8741 207.15 75.7674 207.217C80.2872 207.285 83.8448 203.55 87.0668 203.796C89.7742 204.02 91.9222 208.335 93.041 210.415C94.7191 213.546 95.2114 215.379 97.0909 218.733C97.0238 218.912 96.9566 219.069 96.9119 219.248C97.0909 219.493 97.2028 219.829 97.2028 220.231C97.2028 221.081 97.2028 221.953 97.1356 222.848C98.4334 223.675 99.7088 224.704 100.246 226.09C100.335 225.844 100.425 225.598 100.514 225.352C102.864 228.169 105.347 233.469 109.912 234.319C114.074 235.079 116.445 232.91 118.884 230.898C120.786 232.731 124.411 234.386 128.058 233.894C130.475 233.558 131.839 231.948 133.383 231.546C139 236.689 147.726 233.447 148.956 227.074C157.459 227.812 160.457 222.378 160.48 214.283C160.524 202.007 154.438 190.939 150.657 182.285V182.263Z" fill="black"/>
<path fill-rule="evenodd" clip-rule="evenodd" d="M292.784 352.831C292.784 363.452 284.169 372.039 273.564 372.039C262.958 372.039 254.343 363.43 254.343 352.831C254.343 342.232 262.958 333.623 273.564 333.623C284.169 333.623 292.784 342.232 292.784 352.831Z" fill="#E3746D"/>
<path d="M273.541 374.856C261.391 374.856 251.479 364.973 251.479 352.831C251.479 340.689 261.369 330.806 273.541 330.806C285.713 330.806 295.58 340.689 295.58 352.831C295.58 364.973 285.691 374.856 273.541 374.856ZM273.541 336.418C264.501 336.418 257.14 343.775 257.14 352.809C257.14 361.842 264.501 369.199 273.541 369.199C282.58 369.199 289.942 361.842 289.942 352.809C289.942 343.775 282.58 336.418 273.541 336.418Z" fill="black"/>
<path d="M309.699 355.313H237.763V376.086H309.699V355.313Z" fill="#E3746D"/>
</svg>
