<svg width="607" height="467" viewBox="0 0 607 467" fill="none" xmlns="http://www.w3.org/2000/svg">
<g clip-path="url(#clip0_3_4830)">
<path fill-rule="evenodd" clip-rule="evenodd" d="M425.387 157.528L543.017 108.51C543.017 108.51 566.555 176.248 532.66 223.69C493.648 278.273 395.053 301.125 359.214 269.128C324.091 237.786 281.558 131.956 347.649 69.6602C398.963 21.2765 452.916 41.9598 452.916 41.9598L425.407 157.549L425.387 157.528Z" fill="#9c5b89"/>
<path d="M422.645 286.517C350.638 286.517 292.059 227.966 292.059 155.994C292.059 84.0219 350.638 25.4705 422.645 25.4705C434.045 25.4705 445.364 26.9435 456.294 29.8485C457.604 30.1963 458.402 31.5261 458.075 32.8559L428.417 152.311L540.725 106.28C541.339 106.035 542.035 106.035 542.649 106.28C543.263 106.546 543.754 107.037 544 107.651C550.14 123.036 553.251 139.3 553.251 156.014C553.251 227.986 494.672 286.538 422.665 286.538L422.645 286.517ZM422.645 30.4418C353.381 30.4418 297.032 86.7633 297.032 155.994C297.032 225.225 353.381 281.546 422.645 281.546C491.908 281.546 548.257 225.225 548.257 155.994C548.257 140.773 545.576 125.92 540.274 111.825L425.776 158.756C424.917 159.104 423.914 158.94 423.197 158.326C422.481 157.712 422.174 156.751 422.399 155.851L452.63 34.022C442.867 31.6284 432.776 30.4214 422.645 30.4214V30.4418Z" fill="black"/>
<path fill-rule="evenodd" clip-rule="evenodd" d="M587.064 465.159H207.28C207.28 465.159 174.572 393.269 164.256 365.793C153.961 338.318 141.782 293.003 143.133 285.658C144.484 278.293 146.715 272.647 146.715 272.647C146.715 272.647 144.361 266.018 145.2 262.847C146.039 259.656 146.715 258.694 146.715 258.694C146.715 258.694 144.525 249.14 146.715 245.867C148.905 242.594 149.355 242.839 149.355 242.839C149.355 242.839 147.247 227.045 158.975 224.55C170.703 222.054 197.987 224.365 195.572 233.797C193.157 243.228 185.174 237.356 181.429 236.804C177.663 236.272 174.858 233.879 171.993 235.863C169.127 237.847 167.469 240.957 167.469 240.957C167.469 240.957 175.432 246.194 181.429 251.514C191.049 260.065 188.04 264.525 188.04 264.525L198.417 263.768C198.417 263.768 199.809 253.191 203.125 249.631C206.441 246.072 213.809 242.103 213.113 246.604C212.438 251.104 211.025 258.04 211.414 263.584C211.803 269.128 211.946 274.099 208.406 280.932C204.865 287.766 199.359 293.187 199.359 293.187C199.359 293.187 210.145 321.624 217.473 334.86C224.78 348.097 239.169 371.44 239.169 371.44C239.169 371.44 250.242 310.331 258.225 297.135C266.207 283.96 285.058 266.714 301.248 260.167C317.439 253.621 321.062 252.25 321.062 252.25C321.062 252.25 319.997 251.35 316.354 248.854C312.69 246.358 305.404 240.18 305.404 240.18C305.404 240.18 296.889 253.15 289.93 251.493C282.971 249.836 280.719 248.67 277.485 243.392C274.251 238.093 269.564 233.96 269.564 233.96C269.564 233.96 256.956 240.855 254.479 231.137C252.002 221.399 262.421 212.622 263.158 203.048C263.894 193.474 262.298 168.371 267.313 156.465C276.155 135.454 314.184 96.5834 361.261 114.423C408.337 132.242 406.904 154.869 411.06 166.837C415.235 178.825 428.109 224.59 456.335 239.811C484.56 255.032 518.865 246.542 525.394 253.396C531.923 260.249 542.198 272.176 536.897 279.787C531.596 287.418 523.695 291.1 523.695 291.1C523.695 291.1 536.651 296.419 535.382 315.609C534.113 334.799 526.131 350.49 526.131 350.49L587.064 465.138V465.159Z" fill="white"/>
<path fill-rule="evenodd" clip-rule="evenodd" d="M342.307 203.928C344.764 203.6 347.015 205.319 347.343 207.753L348.202 214.136C348.53 216.571 346.81 218.801 344.354 219.128C341.898 219.455 339.647 217.737 339.319 215.302L338.459 208.919C338.132 206.485 339.851 204.255 342.307 203.928Z" fill="black"/>
<path fill-rule="evenodd" clip-rule="evenodd" d="M307.266 203.743C309.722 203.416 311.974 205.135 312.301 207.569L313.161 213.952C313.488 216.387 311.769 218.617 309.313 218.944C306.857 219.271 304.605 217.553 304.278 215.118L303.418 208.735C303.09 206.301 304.81 204.071 307.266 203.743Z" fill="black"/>
<path d="M304.257 310.372C303.807 310.372 303.336 310.249 302.927 309.983L278.017 294.148C276.851 293.412 276.523 291.878 277.26 290.711C277.997 289.545 279.532 289.218 280.699 289.954L305.608 305.789C306.775 306.526 307.103 308.06 306.366 309.226C305.895 309.983 305.076 310.372 304.257 310.372Z" fill="black"/>
<path d="M380.665 309.615C379.682 309.615 378.741 309.022 378.352 308.06C377.84 306.792 378.454 305.339 379.723 304.807L409.913 292.553C411.183 292.041 412.636 292.655 413.168 293.923C413.68 295.192 413.066 296.644 411.797 297.176L381.606 309.431C381.299 309.553 380.972 309.615 380.665 309.615Z" fill="black"/>
<path d="M344.825 320.744C343.925 320.744 343.065 320.274 342.615 319.435C341.96 318.228 342.43 316.714 343.638 316.059L401.562 285.126C402.77 284.472 404.285 284.942 404.94 286.149C405.595 287.356 405.124 288.87 403.916 289.525L345.992 320.458C345.623 320.662 345.214 320.744 344.825 320.744Z" fill="black"/>
<path d="M344.047 369.66C343.249 369.66 342.45 369.271 341.959 368.555L319.035 334.083C318.278 332.937 318.585 331.382 319.731 330.625C320.877 329.868 322.433 330.175 323.19 331.321L346.114 365.793C346.872 366.939 346.565 368.494 345.418 369.251C344.988 369.537 344.518 369.66 344.047 369.66Z" fill="#959595"/>
<path d="M604.605 466.98H52.0095C50.6791 466.98 49.6147 465.916 49.6147 464.586C49.6147 463.256 50.6791 462.192 52.0095 462.192H604.605C605.936 462.192 607 463.256 607 464.586C607 465.916 605.936 466.98 604.605 466.98Z" fill="black"/>
<path fill-rule="evenodd" clip-rule="evenodd" d="M303.173 236.252C303.173 236.252 292.488 248.793 285.038 242.021C277.567 235.249 275.275 227.68 275.275 227.68C275.275 227.68 267.333 231.117 263.505 225.879C256.198 215.896 275.807 206.444 271.488 185.024C267.169 163.604 284.608 134.922 309.17 124.243C331.418 114.566 363.021 99.3043 391.513 130.421C402.422 142.328 408.583 162.684 417.63 191.203C424.691 213.461 439.694 230.216 458.709 241.816C490.23 261.088 509.675 244.026 523.511 251.391C530.061 254.869 538.33 265.977 537.061 274.304C535.812 282.63 525.107 290.241 525.107 290.241C525.107 290.241 538.862 301.657 536.876 316.939C534.891 332.221 525.906 349.427 525.906 349.427C525.906 349.427 486.648 281.567 476.455 272.299C466.282 263.052 429.358 256.423 415.255 253.764C401.153 251.125 395.381 248.833 390.735 242.614C386.089 236.374 382.568 216.714 382.568 216.714C382.568 216.714 409.279 201.78 397.53 188.011C382.589 170.54 378.393 206.546 378.393 206.546C378.393 206.546 352.378 207.508 331.746 196.379C311.114 185.249 293.266 176.248 293.266 176.248C293.266 176.248 289.029 184.022 293.471 200.757C297.892 217.491 303.234 236.231 303.234 236.231L303.173 236.252Z" fill="#E3746D"/>
<path fill-rule="evenodd" clip-rule="evenodd" d="M527.604 290.834C528.935 292.696 530.593 294.23 531.984 296.215C535.914 301.8 539.128 309.983 538.555 319.926C537.879 331.935 532.558 341.959 527.993 349.815C548.645 387.765 569.543 426.513 588.005 465.977C586.47 465.527 584.424 465.568 582.418 465.588C559.391 419.291 536.713 374.999 511.046 330.503C504.598 319.312 498.642 308.571 491.908 298.015C485.317 287.684 477.662 277.454 467.797 270.519C457.993 263.645 443.522 260.474 428.519 258.162C414.17 255.953 396.404 255.012 388.852 246.399C384.43 241.366 381.749 234.022 380.48 224.877C380.091 222.095 379.395 217.778 380.48 215.712C381.503 213.727 384.185 213.461 385.659 212.52C391.697 208.674 398.492 200.102 394.03 190.793C393.375 189.443 391.901 187.111 390.039 187.009C386.907 186.825 384.717 190.302 383.653 192.185C382.466 194.271 381.565 197.524 381.053 200.552C380.685 202.782 380.767 208.756 379.661 209.922C377.86 211.784 370.676 209.697 367.503 209.124C338.562 203.928 315.535 192.962 294.944 180.032C293.634 207.835 298.301 227.414 311.687 240.814C318.012 247.135 326.444 253.109 339.401 251.166C347.527 249.959 353.319 246.235 358.743 241.203C360.708 239.382 363.983 235.761 365.518 239.218C366.951 242.389 361.711 245.417 360.34 246.583C357.842 248.752 355.366 250.92 352.971 251.964C353.994 254.234 356.942 256.608 357.351 260.536C357.679 263.666 355.837 270.11 352.173 267.512C350.433 266.284 352.234 262.786 351.968 260.945C351.456 257.324 349.205 256.485 347.588 254.562C342.41 256.505 336.146 257.467 329.453 256.362C327.509 256.035 325.442 255.135 323.865 255.175C321.348 255.237 316.64 257.405 314.102 258.367C292.856 266.489 272.695 277.516 261.868 295.437C255.523 305.953 252.616 320.13 249.505 334.287C246.885 346.194 244.818 358.183 241.727 371.153C241.175 373.465 240.131 374.692 238.944 374.733C234.87 374.917 236.835 368.228 237.347 365.773C239.66 354.684 241.83 344.537 244.122 333.899C247.11 320.028 250.426 305.38 256.28 294.639C268.581 272.054 291.628 261.497 316.681 252.004C314.123 249.509 309.62 247.258 307.307 243.842C301.494 248.158 295.64 256.853 285.386 254.193C276.912 252.004 273.309 244.087 268.847 237.459C259.432 242.696 248.257 236.906 250.119 226.104C251.286 219.251 255.564 214.279 257.897 208.572C260.435 202.332 260.476 193.453 260.292 186.047C260.067 176.923 260.251 169.64 262.093 162.929C263.894 156.342 266.453 150.675 269.871 145.397C282.848 125.348 306.017 110.597 335.266 108.735C350.679 107.754 364.699 111.15 375.343 116.305C386.293 121.604 394.685 128.846 400.662 138.42C412.656 157.631 415.685 185.004 427.966 205.973C438.896 224.611 456.253 242.798 481.183 247.626C487.671 248.874 495.47 248.772 502.92 248.015C510.677 247.238 518.066 247.054 523.654 249.815C529.078 252.475 532.517 256.178 535.423 261.763C537.9 266.509 540.254 274.447 538.207 281.096C536.672 286.067 532.639 288.829 527.645 290.855L527.604 290.834ZM533.192 321.726C534.359 312.049 531.268 303.211 526.622 297.626C524.923 295.601 520.338 293.596 520.441 290.445C520.522 287.97 523.06 287.254 525.824 286.067C530.572 284.022 533.642 281.526 533.806 275.716C534.031 266.898 527.584 256.587 520.441 253.805C514.914 251.636 507.73 252.925 502.101 253.416C481.306 255.196 466.63 250.143 453.858 241.653C438.179 231.239 425.981 216.203 417.384 196.624C408.603 176.657 405.41 153.478 394.255 138.236C383.305 123.281 363.021 112.704 337.047 113.932C316.927 114.873 300.307 122.34 287.801 133.06C275.725 143.433 265.347 156.956 265.266 178.293C265.225 187.847 266.494 198.69 263.874 206.976C262.768 210.495 261.029 214.484 259.289 217.942C257.958 220.56 254.581 225.491 255.093 229.296C255.441 231.792 257.999 233.96 260.271 234.267C264.651 234.881 267.906 230.953 270.444 231.485C272.368 231.874 273.064 234.451 274.231 236.456C275.377 238.461 276.809 240.486 277.812 241.837C279.941 244.68 283.605 249.181 288.169 249.406C294.944 249.754 299.672 243.473 303.52 239.443C292.12 225.634 287.924 202.23 289.97 176.882C289.315 175.204 283.216 173.977 283.584 170.499C283.646 169.865 283.994 168.903 284.976 168.514C287.76 167.369 292.672 172.422 294.944 173.895C317.377 188.604 343.822 200.716 375.077 205.176C375.588 197.361 378.065 188.789 382.854 184.656C384.308 183.408 386.58 182.119 388.626 181.874C396.097 180.953 399.556 188.338 400.395 194.026C402.319 207.262 392.781 214.505 385.044 219.128C385.904 229.439 388.442 240.221 395.012 245.028C401.01 249.406 409.463 249.979 417.548 251.207C426.021 252.495 434.516 253.58 442.273 255.196C458.709 258.612 470.335 264.525 480.344 274.529C490.066 284.247 497.025 296.358 504.066 308.203C511.169 320.151 517.943 332.446 525.189 344.66C528.464 338.215 532.087 330.625 533.172 321.747L533.192 321.726Z" fill="black"/>
<path fill-rule="evenodd" clip-rule="evenodd" d="M387.459 195.192C388.401 195.008 390.079 195.397 390.448 196.583C391.226 199.14 388.954 201.35 388.462 202.352C387.746 203.784 386.907 206.321 385.065 206.546C380.316 207.078 382.813 201.861 384.062 199.365C384.901 197.688 385.679 195.54 387.459 195.171V195.192Z" fill="black"/>
<path fill-rule="evenodd" clip-rule="evenodd" d="M335.819 234.431C337.784 233.96 339.155 234.963 339.217 236.62C339.319 240.016 331.459 244.046 327.263 243.187C324.5 242.635 316.743 238.175 320.079 235.024C322.719 232.528 325.564 237.663 328.062 238.011C331.93 238.563 332.831 235.126 335.839 234.431H335.819Z" fill="black"/>
<path fill-rule="evenodd" clip-rule="evenodd" d="M216.531 333.53C216.531 333.53 208.569 361.558 192.563 367.287C176.578 373.015 176.905 369.169 176.905 369.169L216.143 464.197H586.491C586.491 464.197 533.336 366.877 515.365 336.354C497.394 305.81 488.326 276.657 467.265 265.63C446.183 254.623 418.592 252.986 418.592 252.986C418.592 252.986 409.299 265.486 408.215 271.644C407.13 277.823 405.758 288.625 405.758 288.625C405.758 288.625 411.94 289.627 414.805 295.601C417.671 301.575 424.057 314.463 424.057 314.463C424.057 314.463 433.022 306.403 444.627 319.558C456.233 332.712 485.195 381.034 485.195 381.034C485.195 381.034 488.06 392.512 479.525 397.442C471.01 402.372 463.683 401.411 463.683 401.411L330.497 398.956L311.073 374.447C311.073 374.447 265.45 317.798 265.041 313.911C264.631 310.044 270.506 309.39 270.506 309.39C270.506 309.39 269.605 301.493 275.029 296.01C280.453 290.527 290.114 283.94 290.114 283.94L320.304 308.837C320.304 308.837 320.652 287.847 326.158 276.779C331.664 265.732 340.875 255.462 340.875 255.462C340.875 255.462 335.676 256.812 330.497 255.462C325.319 254.112 329.74 255.278 329.74 255.278C329.74 255.278 281.661 270.846 270.117 288.461C258.573 306.096 244.654 379.541 244.654 379.541L216.552 333.53H216.531Z" fill="#191919"/>
<path fill-rule="evenodd" clip-rule="evenodd" d="M217.145 330.912C217.309 337.684 215.201 342.859 212.949 347.851C210.821 352.598 208.037 357.119 204.373 360.597C198.028 366.632 188.899 372.381 177.458 371.562C173.794 371.296 170.642 369.885 167.49 368.166C164.972 366.816 160.367 364.77 160.715 361.783C160.756 361.456 161.554 360.208 162.107 359.983C163.99 359.267 167.244 362.683 168.882 363.563C171.317 364.893 174.613 366.12 176.864 366.346C188.551 367.553 197.987 360.719 203.186 354.787C207.771 349.57 210.8 342.491 212.56 334.86C213.195 332.098 213.625 327.904 217.145 330.871V330.912Z" fill="black"/>
<path fill-rule="evenodd" clip-rule="evenodd" d="M487.262 381.321V383.305C486.464 389.893 483.291 396.337 478.89 400.449C474.49 404.561 468.247 407.917 461.349 407.63C460.612 406.219 460.06 405.809 460.162 404.848C460.449 402.127 465.463 402.475 467.735 401.656C474.797 399.12 480.999 392.225 482.493 385.126C482.8 383.633 482.063 378.58 484.478 378.15C486.545 377.782 487.098 379.439 487.262 381.341V381.321Z" fill="black"/>
<path fill-rule="evenodd" clip-rule="evenodd" d="M167.408 220.13H176.373C183.271 221.031 190.701 222.749 194.712 226.698C198.437 230.38 199.277 238.686 193.32 240.855C184.642 243.985 173.958 233.817 168.595 241.857C173.876 243.657 178.154 246.174 182.35 249.631C185.85 252.495 190.475 256.628 191.315 262.193C191.847 265.732 190.475 268.351 189.329 269.967C188.654 270.908 187.2 271.808 186.934 272.954C186.648 274.243 187.057 275.756 186.934 276.943C186.443 281.28 184.785 283.51 183.537 287.111C182.534 290.016 182.35 291.796 180.937 293.882C179.812 295.56 178.461 297.34 176.352 298.67C170.601 302.291 159.691 300.245 162.393 291.489C159.712 290.057 154.984 290.466 155.414 286.906C155.762 284.022 159.139 284.799 161.8 285.72C164.461 286.64 166.855 287.827 167.572 289.709C168.493 292.082 166.548 293.555 167.961 294.68C170.089 296.399 173.057 294.537 174.531 293.289C187.241 282.569 164.379 268.842 151.995 272.77C142.089 275.92 145.548 294.353 147.8 304.643C149.498 312.315 152.139 321.89 154.574 329.541C168.8 374.161 186.955 413.849 205.008 453.682C206.666 457.323 209.388 460.719 209.797 464.831C208.139 464.034 205.929 463.788 203.616 463.645C190.619 434.615 176.966 404.93 164.952 373.976C155.803 350.429 146.592 327.516 141.823 300.859C140.615 294.169 139.408 286.251 140.82 279.132C141.229 277.066 142.785 274.611 142.805 272.954C142.846 271.235 141.721 268.821 141.618 266.387C141.495 263.686 141.905 261.456 142.805 259.206C141.925 255.482 141.618 252.168 142.601 248.445C143.297 245.806 145.671 243.698 145.998 242.062C146.694 238.522 146.715 235.883 147.8 233.101C150.89 225.102 157.215 221.358 167.326 220.151L167.408 220.13ZM174.592 225.306C161.227 224.631 152.2 228.866 151.463 240.241C155.066 239.238 160.572 239.525 164.031 240.446C164.379 237.07 168.288 233.94 171.809 233.469C178.276 232.61 185.891 237.336 192.133 235.454C193.587 227.782 181.633 225.634 174.592 225.286V225.306ZM181.367 255.585C175.923 250.143 166.773 245.376 158.443 244.824C150.993 244.333 146.612 247.054 147.288 254.193C161.759 247.524 179.668 256.423 185.358 266.755C187.548 262.847 184.089 258.306 181.367 255.605V255.585ZM157.849 256.976C150.542 257.058 144.954 260.822 147.288 269.128C158.279 263.379 173.241 269.333 179.177 276.104C179.893 276.923 180.671 278.887 181.367 278.498C184.253 265.957 169.844 256.853 157.849 256.976Z" fill="black"/>
<path fill-rule="evenodd" clip-rule="evenodd" d="M200.894 293.248C215.958 330.175 235.157 363.522 255.318 396.071C256.383 397.79 260.128 403.354 255.523 403.641C253.333 403.784 251.839 400.368 250.529 398.26C231.186 366.714 211.291 332.999 196.902 297.033C195.47 297.504 193.116 297.585 192.522 295.846C191.847 293.862 194.262 292.041 195.511 290.855C199.768 286.845 204.128 282.364 206.481 276.902C208.467 272.299 208.713 267.553 208.876 262.745C209.06 257.59 210.248 253.334 210.862 248.199C203.882 247.279 202.142 254.93 201.487 261.743C201.221 264.607 201.242 266.857 198.888 266.918C194.467 267.041 196.8 257.753 197.496 254.971C198.867 249.488 201.712 243.248 208.262 242.614C210.616 242.389 214.137 243.044 215.446 245.396C217.33 248.792 214.832 255.278 214.444 259.144C213.891 264.729 214.055 269.66 213.052 273.69C210.964 282.017 206.093 287.602 200.894 293.207V293.248Z" fill="black"/>
<path fill-rule="evenodd" clip-rule="evenodd" d="M536.201 465.997C534.134 466.182 532.537 466.857 530.429 467C516.92 442.164 502.633 417.573 487.18 391.877C479.934 379.848 472.689 367.266 464.849 355.012C461.226 349.345 457.276 343.084 453.49 336.886C449.805 330.871 446.019 323.629 440.922 319.946C432.592 313.911 419.615 319.946 411.223 323.731C404.591 326.738 397.346 329.664 392.679 333.694C390.612 335.474 388.647 337.438 388.892 341.468C390.898 343.678 392.597 342.082 394.275 341.08C404.039 335.249 414.866 329.991 427.372 326.145C430.381 325.224 434.577 324.324 434.352 328.334C434.168 331.546 425.51 333.121 422.787 334.103C414.027 337.274 406.904 340.875 399.27 345.253C396.609 346.787 389.916 350.183 389.895 353.232C389.895 355.85 395.688 358.264 398.062 358.019C399.249 357.896 400.58 356.321 402.258 355.237C409.115 350.777 417.261 347.237 425.182 343.473C427.986 342.143 436.706 336.661 436.951 342.471C437.095 346.01 430.524 347.565 427.782 348.854C419.881 352.577 414.662 354.909 407.457 359.226C405.39 360.474 399.413 363.665 399.474 366.591C399.536 369.251 403.036 369.987 405.451 369.373C406.638 369.066 407.969 367.696 409.627 366.591C416.708 361.886 424.711 359.39 433.943 356.423C437.647 355.237 442.989 352.986 443.112 357.426C443.194 360.76 437.893 361.354 434.741 362.397C427.372 364.872 422.317 366.223 415.808 369.762C413.454 371.051 408.828 373.485 409.033 376.145C409.299 379.664 415.542 377.72 418.203 376.943C425.162 374.917 430.443 373.608 437.729 371.358C440.451 370.519 447.656 367.307 446.694 373.158C446.305 375.572 441.925 376.227 438.916 377.147C435.355 378.232 432.981 378.845 429.747 379.746C420.27 382.344 404.08 389.995 402.831 375.552C396.629 375.081 391.881 370.294 394.071 363.399C387.132 362.581 380.091 353.661 386.293 347.462C381.237 344.271 382.404 336.108 386.088 331.73C390.694 326.288 397.816 323.383 406.024 319.578C414.211 315.773 422.03 312.008 430.75 311.415C437.627 310.945 443.01 313.625 446.694 317C451.504 321.399 455.25 328.395 459.057 334.533C462.966 340.834 466.978 347.074 470.621 352.863C478.399 365.261 485.604 377.986 492.952 390.118C508.753 416.243 522.999 440.854 536.201 466.038V465.997Z" fill="black"/>
<path fill-rule="evenodd" clip-rule="evenodd" d="M206.686 466.202C206.481 466.652 205.437 466.284 204.885 466.407C205.089 465.609 206.092 466.223 206.686 466.202Z" fill="black"/>
<path fill-rule="evenodd" clip-rule="evenodd" d="M447.349 130.155L566.207 79.1733C551.368 41.7143 519.356 12.9295 479.893 2.49585L447.349 130.155Z" fill="#9c5b89"/>
<path d="M447.349 132.651C446.776 132.651 446.183 132.447 445.732 132.058C445.016 131.444 444.709 130.462 444.934 129.542L477.499 1.88215C477.662 1.24794 478.072 0.69557 478.645 0.34778C479.218 -9.92176e-06 479.914 -0.0818429 480.548 0.081823C520.42 10.6383 553.312 39.8526 568.54 78.2527C569.032 79.5007 568.438 80.9328 567.21 81.4647L448.352 132.447C448.045 132.59 447.697 132.651 447.37 132.651H447.349ZM481.695 5.56463L451.013 125.859L562.973 77.8436C548.277 42.7986 518.169 16.0188 481.674 5.56463H481.695Z" fill="black"/>
<path d="M319.506 48.6087C318.872 48.6087 318.237 48.3632 317.746 47.8722L305.813 35.9656C304.831 34.9836 304.831 33.4083 305.813 32.4467C306.795 31.4852 308.372 31.4647 309.334 32.4467L321.266 44.3534C322.249 45.3354 322.249 46.9107 321.266 47.8722C320.775 48.3632 320.141 48.6087 319.506 48.6087Z" fill="#959595"/>
<path d="M307.573 48.6087C306.939 48.6087 306.304 48.3632 305.813 47.8722C304.831 46.8902 304.831 45.3149 305.813 44.3534L317.746 32.4467C318.728 31.4647 320.304 31.4647 321.266 32.4467C322.249 33.4287 322.249 35.004 321.266 35.9655L309.334 47.8722C308.842 48.3632 308.208 48.6087 307.573 48.6087Z" fill="#959595"/>
<path d="M141.168 166.08L147.636 177.455H134.7L141.168 166.08Z" fill="#959595"/>
<path fill-rule="evenodd" clip-rule="evenodd" d="M157.194 165.507C160.408 165.507 163.007 168.146 163.007 171.42C163.007 174.693 160.408 177.332 157.194 177.332C153.981 177.332 151.381 174.693 151.381 171.42C151.381 168.146 153.981 165.507 157.194 165.507Z" fill="#959595"/>
<path d="M553.087 374.427C552.534 374.427 551.982 374.242 551.511 373.874C550.447 372.994 550.283 371.44 551.163 370.376L551.245 370.273C552.125 369.21 553.722 369.026 554.786 369.885C555.85 370.764 556.035 372.299 555.154 373.363L555.032 373.506C554.54 374.099 553.824 374.427 553.108 374.427H553.087ZM559.268 366.346C558.757 366.346 558.266 366.202 557.815 365.875C556.689 365.077 556.444 363.522 557.242 362.397L557.344 362.254C558.143 361.129 559.698 360.863 560.824 361.64C561.95 362.438 562.216 363.993 561.438 365.118L561.315 365.302C560.824 365.977 560.067 366.346 559.289 366.346H559.268ZM564.856 357.855C564.426 357.855 563.976 357.733 563.567 357.487C562.4 356.771 562.011 355.237 562.728 354.071L562.83 353.886C563.546 352.72 565.081 352.352 566.248 353.068C567.415 353.784 567.783 355.319 567.067 356.485L566.964 356.648C566.494 357.426 565.675 357.855 564.836 357.855H564.856ZM569.912 349.038C569.523 349.038 569.134 348.956 568.766 348.751C567.538 348.117 567.067 346.603 567.701 345.396L567.804 345.192C568.459 343.985 569.973 343.535 571.181 344.169C572.388 344.823 572.859 346.337 572.204 347.544L572.122 347.688C571.672 348.547 570.812 349.017 569.912 349.017V349.038ZM574.435 339.934C574.087 339.934 573.739 339.873 573.412 339.709C572.163 339.136 571.59 337.663 572.163 336.415L572.266 336.211C572.839 334.963 574.333 334.41 575.581 335.003C576.83 335.576 577.362 337.07 576.789 338.318L576.728 338.481C576.318 339.402 575.397 339.954 574.456 339.954L574.435 339.934ZM578.447 330.605C578.14 330.605 577.833 330.544 577.546 330.441C576.257 329.95 575.622 328.498 576.134 327.209L576.216 327.004C576.728 325.715 578.181 325.102 579.45 325.613C580.719 326.125 581.353 327.577 580.842 328.846L580.78 329.009C580.391 329.991 579.45 330.605 578.447 330.605ZM581.947 321.071C581.681 321.071 581.415 321.031 581.149 320.949C579.839 320.499 579.143 319.087 579.593 317.798L579.655 317.614C580.105 316.305 581.517 315.609 582.807 316.059C584.117 316.509 584.813 317.921 584.362 319.21L584.301 319.394C583.953 320.437 582.97 321.092 581.947 321.092V321.071ZM584.956 311.374C584.731 311.374 584.485 311.333 584.26 311.272C582.93 310.883 582.172 309.513 582.561 308.183L582.602 308.019C582.97 306.689 584.342 305.912 585.672 306.301C587.003 306.669 587.78 308.04 587.392 309.369L587.33 309.574C587.023 310.658 586.02 311.374 584.935 311.374H584.956ZM587.473 301.534C587.289 301.534 587.084 301.513 586.9 301.472C585.57 301.145 584.731 299.815 585.058 298.465L585.099 298.301C585.406 296.951 586.737 296.112 588.067 296.419C589.418 296.726 590.257 298.056 589.95 299.386L589.909 299.611C589.643 300.756 588.62 301.534 587.494 301.534H587.473ZM589.52 291.591C589.377 291.591 589.213 291.591 589.07 291.55C587.719 291.305 586.818 290.016 587.064 288.645L587.105 288.441C587.351 287.09 588.64 286.19 590.011 286.436C591.362 286.681 592.263 287.97 592.017 289.341L591.976 289.545C591.751 290.752 590.707 291.591 589.52 291.591ZM591.096 281.546C590.973 281.546 590.871 281.546 590.748 281.526C589.377 281.342 588.435 280.073 588.62 278.702V278.539C588.824 277.168 590.073 276.207 591.444 276.391C592.816 276.575 593.778 277.823 593.593 279.173V279.398C593.389 280.646 592.324 281.546 591.096 281.546ZM592.222 271.44C592.222 271.44 592.079 271.44 591.997 271.44C590.625 271.317 589.623 270.11 589.745 268.739V268.535C589.889 267.164 591.096 266.162 592.468 266.284C593.839 266.407 594.842 267.614 594.719 268.985V269.189C594.576 270.478 593.491 271.46 592.222 271.46V271.44ZM592.897 261.313C591.424 261.252 590.359 260.106 590.4 258.735V258.51C590.482 257.139 591.649 256.096 593.02 256.157C594.392 256.219 595.456 257.405 595.374 258.776V258.94C595.313 260.29 594.207 261.333 592.877 261.333L592.897 261.313ZM593.163 251.145C591.751 251.145 590.646 250 590.666 248.629V248.465C590.666 247.094 591.792 245.969 593.163 245.969C594.535 245.969 595.661 247.094 595.661 248.465V248.69C595.661 250.061 594.535 251.145 593.163 251.145ZM593.02 240.977C591.669 240.977 590.564 239.893 590.523 238.543V238.379C590.462 237.009 591.547 235.842 592.918 235.802C594.33 235.761 595.456 236.824 595.497 238.195V238.42C595.538 239.791 594.453 240.937 593.082 240.977C593.061 240.977 593.041 240.977 593.02 240.977ZM592.468 230.83C591.158 230.83 590.073 229.807 589.991 228.498V228.334C589.868 226.964 590.892 225.757 592.263 225.654C593.655 225.552 594.842 226.575 594.944 227.946V228.171C595.047 229.541 594.003 230.728 592.631 230.81C592.57 230.81 592.529 230.81 592.468 230.81V230.83ZM591.526 220.703C590.257 220.703 589.193 219.742 589.049 218.473V218.31C588.865 216.939 589.848 215.712 591.219 215.548C592.59 215.384 593.819 216.366 593.982 217.737V217.962C594.146 219.333 593.164 220.56 591.792 220.703C591.71 220.703 591.608 220.703 591.526 220.703ZM590.196 210.638C588.968 210.638 587.903 209.738 587.739 208.49V208.326C587.494 206.976 588.435 205.687 589.786 205.482C591.137 205.257 592.427 206.198 592.631 207.569L592.672 207.794C592.856 209.165 591.915 210.413 590.544 210.617C590.421 210.617 590.298 210.638 590.196 210.638ZM588.476 200.613C587.289 200.613 586.245 199.775 586.02 198.568L585.979 198.404C585.713 197.054 586.593 195.744 587.944 195.478C589.295 195.212 590.605 196.092 590.871 197.442L590.912 197.667C591.158 199.018 590.257 200.327 588.906 200.572C588.763 200.593 588.599 200.613 588.456 200.613H588.476ZM586.389 190.671C585.263 190.671 584.239 189.893 583.973 188.748L583.932 188.523C583.625 187.172 584.485 185.843 585.815 185.556C587.146 185.249 588.497 186.109 588.783 187.438L588.824 187.602C589.152 188.932 588.313 190.282 586.982 190.609C586.798 190.65 586.593 190.671 586.409 190.671H586.389ZM583.953 180.81C582.868 180.81 581.865 180.094 581.558 178.989L581.497 178.784C581.149 177.455 581.927 176.084 583.257 175.736C584.587 175.388 585.959 176.166 586.307 177.496L586.348 177.659C586.716 178.989 585.938 180.36 584.608 180.728C584.383 180.789 584.158 180.81 583.932 180.81H583.953ZM581.149 171.031C580.084 171.031 579.102 170.356 578.774 169.271L578.713 169.067C578.304 167.757 579.041 166.366 580.371 165.957C581.681 165.548 583.073 166.284 583.482 167.614L583.544 167.798C583.953 169.108 583.216 170.499 581.906 170.908C581.66 170.99 581.415 171.01 581.169 171.01L581.149 171.031ZM578.017 161.354C576.994 161.354 576.032 160.72 575.663 159.697L575.581 159.472C575.152 158.163 575.848 156.751 577.137 156.321C578.447 155.871 579.859 156.587 580.289 157.876L580.33 158.019C580.801 159.308 580.105 160.74 578.815 161.211C578.529 161.313 578.263 161.354 577.976 161.354H578.017ZM574.538 151.8C573.535 151.8 572.593 151.186 572.204 150.204L572.143 150.02C571.652 148.731 572.286 147.299 573.576 146.808C574.865 146.317 576.298 146.951 576.789 148.24L576.85 148.424C577.342 149.713 576.707 151.145 575.418 151.636C575.131 151.759 574.824 151.8 574.517 151.8H574.538ZM570.731 142.369C569.769 142.369 568.847 141.796 568.438 140.855L568.356 140.65C567.824 139.382 568.418 137.929 569.707 137.397C570.976 136.866 572.429 137.459 572.962 138.748L573.023 138.911C573.576 140.18 572.982 141.632 571.713 142.185C571.386 142.328 571.058 142.389 570.731 142.389V142.369ZM566.596 133.081C565.654 133.081 564.774 132.549 564.345 131.649L564.263 131.465C563.69 130.217 564.222 128.744 565.47 128.15C566.719 127.578 568.193 128.109 568.786 129.357L568.868 129.521C569.462 130.769 568.929 132.242 567.681 132.835C567.333 132.999 566.985 133.081 566.616 133.081H566.596ZM562.134 123.936C561.233 123.936 560.353 123.445 559.903 122.565L559.821 122.381C559.207 121.154 559.698 119.66 560.906 119.026C562.134 118.412 563.628 118.883 564.263 120.11L564.345 120.294C564.959 121.522 564.467 123.015 563.239 123.65C562.871 123.834 562.502 123.915 562.114 123.915L562.134 123.936ZM557.344 114.955C556.464 114.955 555.625 114.505 555.175 113.686L555.073 113.523C554.397 112.316 554.827 110.802 556.035 110.127C557.242 109.452 558.757 109.881 559.432 111.088L559.535 111.252C560.21 112.459 559.78 113.973 558.573 114.648C558.184 114.852 557.774 114.955 557.365 114.955H557.344ZM552.187 106.178C551.347 106.178 550.529 105.749 550.058 104.992L549.955 104.828C549.239 103.662 549.587 102.127 550.754 101.391C551.92 100.675 553.456 101.023 554.192 102.189L554.315 102.373C555.032 103.539 554.663 105.073 553.496 105.79C553.087 106.035 552.637 106.158 552.207 106.158L552.187 106.178ZM546.517 97.7085C545.8 97.7085 545.084 97.4016 544.593 96.8083C544.163 96.3583 543.897 95.7445 543.897 95.0694C543.897 93.6987 545.023 92.5735 546.394 92.5735C547.602 92.5735 548.257 93.3918 548.461 93.6373C549.321 94.7011 549.157 96.2764 548.093 97.1357C547.643 97.5039 547.069 97.688 546.537 97.688L546.517 97.7085ZM544.613 96.8288C544.757 96.9925 544.982 97.1561 545.268 97.2993C545.023 97.1766 544.818 97.0129 544.613 96.8288Z" fill="#959595"/>
<path d="M82.9571 202.393C81.9542 202.393 81.0127 201.779 80.6443 200.777L80.6033 200.654C80.153 199.345 80.8489 197.933 82.1589 197.483C83.4688 197.033 84.8811 197.729 85.3314 199.038C85.8022 200.327 85.1472 201.779 83.8373 202.25C83.5507 202.352 83.2642 202.393 82.9776 202.393H82.9571Z" fill="#959595"/>
<path d="M80.419 192.635C79.2523 192.635 78.2085 191.816 77.9833 190.63L77.9424 190.466C77.6558 189.116 78.536 187.807 79.8664 187.52C81.2173 187.234 82.5272 188.113 82.8138 189.443L82.8547 189.668C83.1208 191.018 82.2407 192.328 80.8898 192.594C80.726 192.614 80.5623 192.635 80.419 192.635ZM78.9249 182.528C77.6558 182.528 76.571 181.567 76.4482 180.298V180.073C76.3049 178.703 77.3079 177.496 78.6792 177.373C80.0711 177.25 81.2582 178.253 81.381 179.623V179.787C81.5448 181.158 80.5418 182.385 79.1705 182.528C79.0886 182.528 79.0067 182.528 78.9044 182.528H78.9249ZM78.4336 172.32C77.0623 172.32 75.9365 171.194 75.9365 169.824V169.599C75.9365 168.228 77.0623 167.144 78.4336 167.144C79.8459 167.144 80.9512 168.289 80.9307 169.66V169.824C80.9307 171.194 79.805 172.32 78.4336 172.32ZM79.0067 162.111C79.0067 162.111 78.8225 162.111 78.7202 162.111C77.3488 161.947 76.3664 160.72 76.5301 159.349V159.185C76.6938 157.815 77.9015 156.812 79.2728 156.956C80.6442 157.099 81.6471 158.326 81.5038 159.697V159.922C81.3401 161.19 80.2553 162.131 79.0067 162.131V162.111ZM80.7056 152.025C80.5214 152.025 80.3372 152.005 80.1325 151.964C78.8021 151.657 77.9629 150.307 78.2699 148.977L78.3108 148.813C78.6178 147.463 79.9483 146.624 81.2787 146.931C82.6296 147.238 83.4688 148.568 83.1617 149.897L83.1208 150.122C82.8547 151.268 81.8313 152.046 80.7056 152.046V152.025ZM83.5916 142.226C83.305 142.226 83.0185 142.185 82.7319 142.082C81.4424 141.612 80.767 140.18 81.2377 138.891L81.2992 138.727C81.7495 137.438 83.1822 136.743 84.4717 137.193C85.7612 137.643 86.4571 139.075 85.9863 140.364L85.9045 140.589C85.536 141.591 84.574 142.226 83.5711 142.226H83.5916ZM87.6647 132.856C87.2758 132.856 86.8869 132.774 86.5185 132.569C85.2904 131.935 84.8197 130.442 85.4337 129.214L85.5156 129.03C86.1501 127.803 87.6442 127.332 88.8723 127.946C90.1004 128.58 90.5712 130.073 89.9571 131.301L89.8753 131.485C89.425 132.344 88.5653 132.835 87.6647 132.835V132.856ZM92.9045 124.079C92.4338 124.079 91.9425 123.936 91.5127 123.65C90.3665 122.872 90.0799 121.338 90.8373 120.192L90.9805 119.988C91.7788 118.862 93.3344 118.596 94.4601 119.374C95.5858 120.172 95.8519 121.726 95.0741 122.852L94.9923 122.974C94.501 123.69 93.7232 124.059 92.925 124.059L92.9045 124.079ZM99.1882 116.019C98.5946 116.019 98.0215 115.814 97.5508 115.405C96.5274 114.505 96.425 112.929 97.3256 111.886L97.4484 111.743C98.3695 110.72 99.9251 110.618 100.969 111.518C101.992 112.418 102.095 113.993 101.194 115.037L101.071 115.18C100.58 115.732 99.8841 116.019 99.2087 116.019H99.1882ZM106.393 108.715C105.718 108.715 105.022 108.449 104.551 107.897C103.63 106.874 103.691 105.319 104.715 104.398C105.861 103.355 107.437 103.416 108.378 104.439C109.299 105.462 109.238 107.037 108.215 107.958L108.092 108.06C107.621 108.49 107.007 108.695 106.393 108.695V108.715ZM213.257 108.347H213.031C211.66 108.347 210.555 107.201 210.575 105.83C210.575 104.46 211.701 103.375 213.072 103.375C213.113 103.375 213.297 103.375 213.297 103.375C214.669 103.375 215.774 104.521 215.754 105.892C215.754 107.263 214.628 108.347 213.257 108.347ZM203.104 107.16C202.941 107.16 202.777 107.16 202.634 107.119L202.408 107.078C201.058 106.792 200.198 105.483 200.484 104.132C200.771 102.782 202.081 101.923 203.432 102.209L203.596 102.25C204.947 102.516 205.827 103.826 205.561 105.176C205.335 106.362 204.292 107.181 203.125 107.181L203.104 107.16ZM223.102 106.976C222.058 106.976 221.096 106.321 220.748 105.278C220.318 103.969 221.014 102.557 222.324 102.127L222.447 102.087L223.306 104.419L224.125 106.772L223.9 106.853C223.634 106.935 223.368 106.976 223.102 106.976ZM193.177 104.644C192.932 104.644 192.686 104.603 192.461 104.542L192.297 104.501C190.967 104.112 190.21 102.721 190.598 101.411C190.987 100.082 192.379 99.3247 193.689 99.7134L193.894 99.7748C195.204 100.164 195.961 101.555 195.552 102.884C195.224 103.969 194.242 104.664 193.177 104.664V104.644ZM114.437 102.475C113.618 102.475 112.82 102.087 112.349 101.35C111.592 100.204 111.919 98.6496 113.086 97.9131L113.209 97.8313C114.355 97.0539 115.89 97.3607 116.668 98.5064C117.446 99.6521 117.139 101.186 115.992 101.964L115.788 102.107C115.358 102.373 114.887 102.516 114.437 102.516V102.475ZM231.842 101.882C231.146 101.882 230.429 101.575 229.938 101.002C229.037 99.9589 229.181 98.3836 230.225 97.4835L230.368 97.3607C231.412 96.4606 232.988 96.5629 233.888 97.6062C234.789 98.6496 234.687 100.225 233.643 101.125L233.479 101.268C233.008 101.657 232.435 101.862 231.862 101.862L231.842 101.882ZM183.414 101.596C183.148 101.596 182.882 101.555 182.616 101.473L182.473 101.432C181.163 101.023 180.446 99.6111 180.856 98.3018C181.285 96.9925 182.677 96.2764 183.987 96.6856L184.212 96.7674C185.522 97.2175 186.218 98.6291 185.768 99.918C185.42 100.961 184.438 101.616 183.414 101.616V101.596ZM173.651 98.5064C173.426 98.5064 173.18 98.4655 172.955 98.4041L172.75 98.3427C171.44 97.954 170.683 96.5629 171.092 95.2331C171.481 93.9237 172.894 93.1668 174.204 93.576L174.367 93.6373C175.698 94.026 176.455 95.4172 176.066 96.7265C175.739 97.8108 174.756 98.5268 173.671 98.5268L173.651 98.5064ZM123.422 97.6267C122.46 97.6267 121.539 97.0539 121.13 96.1128C120.577 94.8444 121.171 93.3918 122.44 92.8395L122.645 92.7576C123.914 92.2257 125.367 92.819 125.919 94.067C126.452 95.3354 125.858 96.7879 124.61 97.3403L124.446 97.4221C124.118 97.5653 123.791 97.6267 123.463 97.6267H123.422ZM163.785 95.8264C163.601 95.8264 163.396 95.8059 163.212 95.765L163.028 95.7241C161.698 95.4172 160.858 94.067 161.165 92.7372C161.472 91.4074 162.823 90.5686 164.154 90.8755L164.358 90.9164C165.689 91.2437 166.528 92.5735 166.201 93.9237C165.934 95.0694 164.911 95.8468 163.785 95.8468V95.8264ZM133.165 94.558C132.019 94.558 130.975 93.7396 130.729 92.5735C130.443 91.2233 131.323 89.9139 132.653 89.6275L132.817 89.5866C134.168 89.3002 135.498 90.139 135.785 91.4892C136.092 92.8395 135.232 94.1692 133.882 94.4557L133.656 94.4966C133.493 94.5375 133.308 94.558 133.145 94.558H133.165ZM238.657 94.292C238.146 94.292 237.654 94.1488 237.204 93.8215C236.078 93.0236 235.833 91.4688 236.631 90.3436L236.754 90.1594C237.573 89.0547 239.128 88.8092 240.233 89.6071C241.339 90.4254 241.584 91.9802 240.786 93.085L240.684 93.2282C240.192 93.9033 239.435 94.2715 238.657 94.2715V94.292ZM153.736 93.9647C153.736 93.9647 153.551 93.9647 153.449 93.9647H153.224C151.852 93.7601 150.89 92.5121 151.075 91.1414C151.259 89.7707 152.507 88.8092 153.858 88.9933H154.022C155.393 89.1774 156.376 90.4049 156.212 91.7756C156.069 93.044 154.984 93.9851 153.736 93.9851V93.9647ZM143.317 93.3918C141.966 93.3918 140.861 92.328 140.82 90.9573C140.779 89.5866 141.864 88.4409 143.256 88.4H143.461C144.873 88.4 145.978 89.4638 146.019 90.8141C146.06 92.1848 144.975 93.3305 143.583 93.3714H143.379C143.379 93.3714 143.338 93.3714 143.317 93.3714V93.3918ZM244.081 85.6177C243.672 85.6177 243.263 85.5154 242.874 85.3108C241.666 84.6562 241.236 83.1423 241.891 81.9352L241.994 81.7511C242.669 80.5441 244.184 80.1144 245.391 80.7896C246.599 81.4647 247.029 82.9786 246.353 84.1856L246.271 84.3493C245.821 85.1676 244.962 85.6382 244.081 85.6382V85.6177ZM248.748 76.5138C248.38 76.5138 248.011 76.432 247.663 76.2683C246.415 75.675 245.903 74.1816 246.497 72.9541L246.599 72.729C247.213 71.5015 248.707 71.0105 249.935 71.6243C251.163 72.238 251.675 73.7315 251.041 74.959L250.979 75.1022C250.549 76.0023 249.669 76.5138 248.728 76.5138H248.748ZM253.128 67.2667C252.78 67.2667 252.412 67.1848 252.084 67.0416C250.836 66.4688 250.304 64.9753 250.877 63.7274L250.959 63.5228C251.552 62.2749 253.026 61.7429 254.274 62.3362C255.523 62.9295 256.055 64.4025 255.462 65.6505L255.38 65.8141C254.95 66.7143 254.049 67.2462 253.128 67.2462V67.2667ZM257.529 58.0196C257.16 58.0196 256.772 57.9377 256.424 57.7536C255.196 57.1398 254.684 55.6464 255.318 54.4189L255.38 54.2757C255.973 53.0277 257.468 52.5163 258.696 53.1096C259.944 53.7029 260.456 55.1963 259.862 56.4238L259.76 56.6488C259.33 57.5286 258.45 58.0196 257.529 58.0196ZM262.237 48.9361C261.827 48.9361 261.418 48.8338 261.029 48.6292C259.821 47.9746 259.392 46.4607 260.046 45.2536L260.149 45.0695C260.804 43.8625 262.318 43.4328 263.526 44.0875C264.734 44.7422 265.163 46.2561 264.508 47.4631L264.406 47.6472C263.956 48.4656 263.096 48.9361 262.216 48.9361H262.237ZM267.517 40.1595C267.047 40.1595 266.576 40.0368 266.166 39.7504C265.02 38.9934 264.693 37.459 265.43 36.3134L265.573 36.1088C266.351 34.9631 267.886 34.6767 269.032 35.4337C270.178 36.2111 270.465 37.7454 269.707 38.8911L269.626 39.0139C269.155 39.7504 268.357 40.1391 267.538 40.1391L267.517 40.1595ZM273.617 31.9353C273.044 31.9353 272.471 31.7307 272 31.342C270.956 30.4419 270.833 28.887 271.713 27.8232L271.816 27.7005C272.696 26.6366 274.251 26.473 275.316 27.3527C276.38 28.2324 276.544 29.7872 275.664 30.851L275.5 31.0351C275.009 31.608 274.313 31.9149 273.596 31.9149L273.617 31.9353ZM365.334 28.4574C364.781 28.4574 364.229 28.2733 363.758 27.8846L363.615 27.7823C362.55 26.923 362.366 25.3478 363.226 24.2839C364.086 23.2201 365.662 23.036 366.726 23.8952L366.91 24.0384C367.974 24.9181 368.138 26.473 367.258 27.5368C366.767 28.1301 366.05 28.4574 365.334 28.4574ZM280.74 24.6113C280.044 24.6113 279.368 24.3248 278.877 23.7725C277.976 22.7496 278.058 21.1743 279.102 20.2537L279.266 20.1105C280.31 19.2103 281.886 19.333 282.786 20.3764C283.687 21.4198 283.564 22.9951 282.52 23.8952L282.398 24.018C281.927 24.4271 281.333 24.6317 280.76 24.6317L280.74 24.6113ZM357.044 22.4836C356.594 22.4836 356.123 22.3609 355.694 22.0949L355.53 21.9926C354.363 21.2561 354.036 19.7217 354.773 18.5556C355.509 17.3895 357.044 17.0622 358.211 17.7987L358.395 17.9214C359.562 18.6579 359.89 20.2127 359.153 21.3584C358.682 22.0949 357.863 22.5041 357.044 22.5041V22.4836ZM289.009 18.6375C288.149 18.6375 287.33 18.2078 286.86 17.41C286.164 16.2234 286.553 14.689 287.74 13.9934L287.903 13.8911C289.091 13.1956 290.605 13.5638 291.322 14.7504C292.018 15.937 291.649 17.4509 290.462 18.1669L290.278 18.2692C289.889 18.4943 289.439 18.617 289.009 18.617V18.6375ZM348.1 17.5123C347.752 17.5123 347.384 17.4304 347.056 17.2872L346.851 17.1849C345.603 16.5916 345.091 15.0982 345.685 13.8707C346.278 12.6227 347.772 12.1113 349.001 12.7046L349.164 12.7864C350.413 13.3592 350.945 14.8527 350.372 16.1006C349.942 17.0008 349.041 17.5327 348.1 17.5327V17.5123ZM298.26 14.3412C297.237 14.3412 296.295 13.707 295.927 12.7046C295.456 11.4157 296.111 9.98363 297.421 9.51309L297.605 9.45171C298.895 8.98118 300.328 9.63584 300.798 10.9452C301.269 12.234 300.614 13.6661 299.304 14.1366L299.12 14.198C298.833 14.3003 298.547 14.3412 298.26 14.3412ZM338.623 13.7275C338.378 13.7275 338.132 13.6866 337.886 13.6252L337.661 13.5638C336.351 13.1547 335.635 11.743 336.044 10.4337C336.454 9.12438 337.866 8.40835 339.176 8.81751L339.34 8.87888C340.65 9.28805 341.386 10.6792 340.998 11.9885C340.67 13.0524 339.688 13.7479 338.623 13.7479V13.7275ZM308.126 11.6407C306.959 11.6407 305.915 10.8224 305.69 9.63584C305.424 8.2856 306.304 6.97627 307.655 6.71031H307.778C309.129 6.4239 310.48 7.3036 310.725 8.65384C310.991 10.0041 310.132 11.293 308.781 11.5589L308.597 11.5998C308.433 11.6203 308.269 11.6407 308.126 11.6407ZM328.696 11.3543C328.573 11.3543 328.43 11.3543 328.307 11.3339H328.123C326.772 11.0884 325.831 9.81996 326.035 8.46972C326.24 7.09902 327.53 6.1784 328.88 6.38298L329.085 6.4239C330.436 6.62848 331.378 7.91735 331.173 9.26759C330.989 10.4951 329.924 11.3748 328.717 11.3748L328.696 11.3543ZM318.298 10.6178C316.927 10.6178 315.822 9.51309 315.801 8.16285C315.801 6.79215 316.886 5.66694 318.258 5.64648H318.462C319.854 5.64648 320.959 6.73077 320.98 8.10147C320.98 9.47217 319.895 10.5974 318.524 10.6178H318.319C318.319 10.6178 318.298 10.6178 318.278 10.6178H318.298Z" fill="#959595"/>
<path d="M372.928 35.4133C372.252 35.4133 371.556 35.1268 371.065 34.5745C370.144 33.5516 370.185 31.9558 371.208 31.0352C372.232 30.1146 373.787 30.1555 374.708 31.1784L374.79 31.2602C375.711 32.2832 375.609 33.8584 374.585 34.7791C374.115 35.2087 373.521 35.4133 372.928 35.4133Z" fill="#959595"/>
<path fill-rule="evenodd" clip-rule="evenodd" d="M330.661 373.936H445.425C456.437 373.936 465.361 382.855 465.361 393.862V405.584C465.361 416.591 456.437 425.511 445.425 425.511H330.661C319.649 425.511 310.725 416.591 310.725 405.584V393.862C310.725 382.855 319.649 373.936 330.661 373.936Z" fill="#F6F6F6"/>
<path d="M445.425 427.986H330.661C318.298 427.986 308.228 417.921 308.228 405.564V393.841C308.228 381.485 318.298 371.419 330.661 371.419H445.425C457.788 371.419 467.858 381.485 467.858 393.841V405.564C467.858 417.921 457.788 427.986 445.425 427.986ZM330.661 376.411C321.041 376.411 313.222 384.226 313.222 393.841V405.564C313.222 415.179 321.041 422.994 330.661 422.994H445.425C455.045 422.994 462.864 415.179 462.864 405.564V393.841C462.864 384.226 455.045 376.411 445.425 376.411H330.661Z" fill="black"/>
<path fill-rule="evenodd" clip-rule="evenodd" d="M419.042 411.006C420.168 407.835 420.802 404.296 420.802 400.552V398.506C420.802 384.819 412.369 373.936 401.951 373.936H291.035C285.14 374.12 283.278 380.523 289.09 384.369C287.74 387.213 293.102 393.125 293.102 400.368C293.102 407.098 289.009 411.824 288.702 414.586C286.102 415.568 282.418 420.989 288.886 425.736L417.179 425.531L419.022 411.026L419.042 411.006Z" fill="#F6F6F6"/>
<path d="M288.906 428.211C288.374 428.211 287.862 428.048 287.433 427.72C282.868 424.365 282.623 420.683 282.868 418.78C283.216 416.202 284.813 414.075 286.532 412.908C286.839 411.906 287.351 410.863 287.903 409.717C289.111 407.201 290.605 404.071 290.605 400.347C290.605 397.053 289.295 393.985 288.129 391.284C287.208 389.136 286.368 387.213 286.368 385.413C283.626 383.039 282.459 379.868 283.319 376.841C284.219 373.67 287.207 371.542 290.953 371.419H401.951C413.925 371.419 423.279 383.305 423.279 398.485V400.531C423.279 404.459 422.644 408.264 421.375 411.824C420.925 413.113 419.492 413.809 418.203 413.338C416.913 412.888 416.238 411.456 416.688 410.167C417.753 407.16 418.305 403.907 418.305 400.552V398.506C418.305 386.333 410.978 376.431 401.951 376.431H291.035C289.541 376.472 288.436 377.147 288.129 378.232C287.842 379.255 288.292 380.871 290.462 382.303C291.506 382.999 291.874 384.328 291.342 385.454C291.26 385.965 292.099 387.929 292.713 389.361C294.003 392.348 295.599 396.071 295.599 400.388C295.599 405.257 293.757 409.103 292.406 411.906C291.854 413.072 291.26 414.279 291.199 414.852C291.096 415.793 290.482 416.591 289.602 416.918C289.05 417.123 287.985 418.166 287.801 419.476C287.596 420.969 288.64 422.278 289.766 423.24L417.2 423.035C418.571 423.035 419.697 424.14 419.697 425.531C419.697 426.902 418.592 428.027 417.2 428.027L288.906 428.232V428.211Z" fill="black"/>
<path fill-rule="evenodd" clip-rule="evenodd" d="M396.773 383.49H291.751C284.587 383.49 293.123 391.489 293.123 400.511C293.123 409.533 284.608 416.182 291.751 416.182H396.773C403.937 416.182 409.729 408.858 409.729 399.836C409.729 390.814 403.937 383.49 396.773 383.49Z" fill="#F6F6F6"/>
<path d="M396.773 418.678H291.751C290.892 418.678 288.272 418.678 287.003 416.693C285.672 414.627 286.757 412.254 288.026 409.492C289.193 406.976 290.626 403.866 290.626 400.49C290.626 397.115 289.213 393.821 288.088 391.12C286.757 387.929 285.611 385.167 287.085 382.958C288.415 380.973 290.912 380.973 291.751 380.973H396.773C405.288 380.973 412.226 389.422 412.226 399.815C412.226 410.208 405.288 418.657 396.773 418.657V418.678ZM291.629 413.686C291.629 413.686 291.71 413.686 291.751 413.686H396.773C402.545 413.686 407.232 407.467 407.232 399.836C407.232 392.205 402.545 385.985 396.773 385.985H291.751C291.751 385.985 291.567 385.985 291.485 385.985C291.71 386.824 292.263 388.174 292.713 389.238C294.003 392.348 295.62 396.215 295.62 400.511C295.62 404.807 293.86 408.796 292.57 411.599C292.263 412.254 291.895 413.072 291.649 413.706L291.629 413.686Z" fill="black"/>
<path fill-rule="evenodd" clip-rule="evenodd" d="M305.178 427.331H424.589C434.311 427.331 442.212 435.208 442.212 444.925C442.212 454.643 434.413 462.622 424.691 462.622L305.199 462.519C295.476 462.519 287.576 454.643 287.576 444.905C287.576 435.167 295.456 427.311 305.199 427.311L305.178 427.331Z" fill="#9c5b89"/>
<path d="M424.671 465.118L305.178 465.015C294.085 465.015 285.079 455.993 285.079 444.925C285.079 433.858 294.105 424.835 305.178 424.835H424.589C435.682 424.835 444.688 433.858 444.688 444.925C444.688 455.993 435.703 465.118 424.671 465.118ZM305.178 429.807C296.848 429.807 290.052 436.578 290.052 444.925C290.052 453.272 296.827 460.044 305.178 460.044L424.671 460.146C432.96 460.146 439.694 453.334 439.694 444.946C439.694 436.558 432.919 429.827 424.568 429.827H305.158L305.178 429.807Z" fill="black"/>
<path fill-rule="evenodd" clip-rule="evenodd" d="M351.375 453.927C349.962 451.452 349.164 448.587 349.164 445.539V444.148C349.164 434.819 356.614 427.27 365.805 427.27H464.072C469.27 427.372 470.376 431.894 465.238 434.512L439.592 444.966L465.566 455.093C467.858 455.768 471.113 459.451 465.402 462.683L349.43 462.52L351.375 453.907V453.927Z" fill="#9c5b89"/>
<path d="M465.402 465.179L349.43 465.015C348.059 465.015 346.933 463.89 346.933 462.52C346.933 461.149 348.059 460.024 349.43 460.024L464.706 460.187C465.771 459.492 466.119 458.898 466.098 458.632C466.057 458.244 465.402 457.63 464.87 457.466C464.809 457.446 464.727 457.425 464.665 457.405L438.691 447.278C437.75 446.91 437.115 445.989 437.095 444.987C437.095 443.964 437.709 443.043 438.65 442.655L464.195 432.241C465.771 431.423 466.119 430.584 466.098 430.4C466.057 430.257 465.484 429.766 464.031 429.725H365.825C358.027 429.725 351.682 436.19 351.682 444.128V445.519C351.682 448.015 352.337 450.49 353.585 452.679C354.261 453.866 353.851 455.4 352.644 456.075C351.457 456.75 349.922 456.341 349.246 455.134C347.588 452.209 346.708 448.874 346.708 445.519V444.128C346.708 433.448 355.284 424.754 365.825 424.754H464.092C468.431 424.835 470.478 427.147 470.969 429.275C471.481 431.484 470.54 434.594 466.405 436.701C466.344 436.742 466.282 436.763 466.221 436.783L446.346 444.885L466.426 452.72C468.534 453.395 470.765 455.4 471.092 458.06C471.276 459.553 470.929 462.438 466.671 464.831C466.303 465.036 465.873 465.159 465.443 465.159L465.402 465.179Z" fill="black"/>
<path fill-rule="evenodd" clip-rule="evenodd" d="M371.065 435.637H462.864C469.107 435.637 461.677 440.097 461.677 445.151C461.677 450.204 469.127 453.927 462.864 453.927H371.065C364.822 453.927 359.746 449.835 359.746 444.782C359.746 439.729 364.822 435.637 371.065 435.637Z" fill="#F6F6F6"/>
<path d="M462.864 456.423H371.065C363.451 456.423 357.249 451.206 357.249 444.782C357.249 438.358 363.451 433.142 371.065 433.142H462.864C463.826 433.142 466.385 433.142 467.469 435.126C468.534 437.07 467.306 438.931 466.139 440.732C465.259 442.082 464.174 443.759 464.174 445.151C464.174 446.542 465.279 448.076 466.18 449.304C467.265 450.817 468.513 452.536 467.531 454.418C466.507 456.403 463.969 456.403 462.885 456.403L462.864 456.423ZM371.065 438.133C366.194 438.133 362.243 441.12 362.243 444.782C362.243 448.444 366.194 451.431 371.065 451.431H461.554C460.449 449.836 459.18 447.687 459.18 445.151C459.18 442.348 460.735 439.913 461.902 438.113H371.065V438.133Z" fill="black"/>
<path d="M367.442 278.662C366.358 278.662 365.273 278.6 364.167 278.477C354.957 277.454 348.898 274.283 346.176 269.046C342.369 261.743 346.77 253.477 346.974 253.13C347.629 251.923 349.144 251.473 350.351 252.127C351.559 252.782 352.009 254.296 351.354 255.503C351.334 255.564 348.018 261.824 350.618 266.755C352.542 270.417 357.29 272.688 364.72 273.506C385.311 275.818 402.381 250.531 402.545 250.286C403.302 249.14 404.858 248.833 406.004 249.59C407.15 250.347 407.457 251.902 406.7 253.048C405.984 254.132 389.445 278.662 367.442 278.662Z" fill="black"/>
<path d="M317.459 214.77C317.336 214.77 317.193 214.77 317.07 214.75C315.719 214.545 314.778 213.257 315.003 211.906C315.31 209.942 316.886 206.485 320.857 205.871C324.746 205.278 327.714 208.49 328.86 210.495C329.556 211.681 329.146 213.216 327.939 213.891C326.752 214.586 325.237 214.177 324.541 212.991C324.234 212.479 322.863 210.617 321.594 210.802C320.202 211.006 319.915 212.663 319.895 212.684C319.711 213.911 318.646 214.791 317.439 214.791L317.459 214.77Z" fill="black"/>
<path d="M348.243 194.21C356.963 194.21 364.024 201.289 364.024 210.004C364.024 218.719 356.963 225.797 348.243 225.797C339.524 225.797 332.462 218.719 332.462 210.004C332.462 201.289 339.524 194.21 348.243 194.21ZM348.243 189.73C337.068 189.73 327.98 198.834 327.98 210.004C327.98 221.174 337.068 230.278 348.243 230.278C359.419 230.278 368.507 221.174 368.507 210.004C368.507 198.834 359.419 189.73 348.243 189.73Z" fill="white"/>
<g style="mix-blend-mode:screen">
<path d="M356.731 230.054C367.667 225.56 372.888 213.055 368.391 202.125C363.895 191.194 351.385 185.976 340.449 190.47C329.513 194.965 324.292 207.469 328.789 218.4C333.285 229.33 345.795 234.548 356.731 230.054Z" fill="#A29A9A"/>
</g>
<path d="M348.591 233.981C335.389 233.981 324.644 223.22 324.644 210.004C324.644 196.788 335.389 186.027 348.591 186.027C361.793 186.027 372.539 196.788 372.539 210.004C372.539 223.22 361.793 233.981 348.591 233.981ZM348.591 191.018C338.132 191.018 329.617 199.529 329.617 210.004C329.617 220.478 338.132 228.989 348.591 228.989C359.05 228.989 367.565 220.478 367.565 210.004C367.565 199.529 359.05 191.018 348.591 191.018Z" fill="black"/>
<path d="M317.664 230.421C316.845 230.421 316.047 230.032 315.576 229.296C314.819 228.15 315.146 226.595 316.313 225.859C317.05 225.368 319.608 222.34 318.442 216.346C315.187 199.713 302.231 201.636 301.678 201.739C300.307 201.964 299.038 201.043 298.813 199.693C298.588 198.343 299.509 197.054 300.859 196.829C301.044 196.808 319.158 194.067 323.333 215.405C324.95 223.711 321.225 228.6 319.035 230.032C318.626 230.298 318.135 230.441 317.684 230.441L317.664 230.421Z" fill="black"/>
<g style="mix-blend-mode:screen">
<path fill-rule="evenodd" clip-rule="evenodd" d="M317.459 210.004C317.459 221.829 307.88 231.403 296.05 231.403C284.219 231.403 274.64 221.829 274.64 210.004C274.64 198.179 284.219 188.604 296.05 188.604C307.88 188.604 317.459 198.179 317.459 210.004Z" fill="#A29A9A"/>
</g>
<path d="M295.62 194.251C304.298 194.251 311.36 201.309 311.36 210.004C311.36 218.698 304.298 225.757 295.62 225.757C286.941 225.757 279.88 218.698 279.88 210.004C279.88 201.309 286.941 194.251 295.62 194.251ZM295.62 189.505C284.301 189.505 275.131 198.69 275.131 210.004C275.131 221.317 284.301 230.523 295.62 230.523C306.939 230.523 316.108 221.338 316.108 210.004C316.108 198.67 306.939 189.505 295.62 189.505Z" fill="white"/>
<path d="M296.05 234.001C282.827 234.001 272.082 223.24 272.082 210.004C272.082 196.767 282.827 186.006 296.05 186.006C309.272 186.006 320.018 196.767 320.018 210.004C320.018 223.24 309.272 234.001 296.05 234.001ZM296.05 190.998C285.59 190.998 277.076 199.529 277.076 210.004C277.076 220.478 285.59 229.009 296.05 229.009C306.509 229.009 315.023 220.478 315.023 210.004C315.023 199.529 306.509 190.998 296.05 190.998Z" fill="black"/>
<g style="mix-blend-mode:multiply">
<path fill-rule="evenodd" clip-rule="evenodd" d="M18.4417 203.764H225.394C234.195 203.764 241.339 210.904 241.339 219.701V398.301C241.339 407.098 234.195 414.238 225.394 414.238H18.4417C9.64041 414.238 2.49707 407.098 2.49707 398.301V219.721C2.49707 210.924 9.64041 203.785 18.4417 203.785V203.764Z" fill="#9c5b89"/>
<path d="M225.394 416.734H18.4417C8.26909 416.734 0 408.469 0 398.301V219.721C0 209.554 8.26909 201.289 18.4417 201.289H225.394C235.567 201.289 243.836 209.554 243.836 219.721V398.322C243.836 408.49 235.567 416.755 225.394 416.755V416.734ZM18.4417 206.26C11.0118 206.26 4.9942 212.295 4.9942 219.701V398.301C4.9942 405.728 11.0323 411.763 18.4417 411.763H225.394C232.824 411.763 238.842 405.728 238.842 398.301V219.721C238.842 212.295 232.803 206.28 225.394 206.28H18.4417V206.26Z" fill="#020202"/>
</g>
<g style="mix-blend-mode:screen">
<path fill-rule="evenodd" clip-rule="evenodd" d="M18.4417 203.764H225.394C234.195 203.764 241.339 210.904 241.339 219.701V398.301C241.339 407.098 234.195 414.238 225.394 414.238H18.4417C9.64041 414.238 2.49707 407.098 2.49707 398.301V219.721C2.49707 210.924 9.64041 203.785 18.4417 203.785V203.764Z" fill="#9c5b89"/>
<path d="M225.394 416.734H18.4417C8.26909 416.734 0 408.469 0 398.301V219.721C0 209.554 8.26909 201.289 18.4417 201.289H225.394C235.567 201.289 243.836 209.554 243.836 219.721V398.322C243.836 408.49 235.567 416.755 225.394 416.755V416.734ZM18.4417 206.26C11.0118 206.26 4.9942 212.295 4.9942 219.701V398.301C4.9942 405.728 11.0323 411.763 18.4417 411.763H225.394C232.824 411.763 238.842 405.728 238.842 398.301V219.721C238.842 212.295 232.803 206.28 225.394 206.28H18.4417V206.26Z" fill="#020202"/>
</g>
<path fill-rule="evenodd" clip-rule="evenodd" d="M58.907 342.757C63.9626 342.757 68.0562 346.849 68.0562 351.902C68.0562 356.955 63.9626 361.047 58.907 361.047C53.8514 361.047 49.7578 356.955 49.7578 351.902C49.7578 346.849 53.8514 342.757 58.907 342.757Z" fill="white"/>
<path fill-rule="evenodd" clip-rule="evenodd" d="M86.2522 373.506C91.3078 373.506 95.4015 377.597 95.4015 382.651C95.4015 387.704 91.3078 391.795 86.2522 391.795C81.1966 391.795 77.103 387.704 77.103 382.651C77.103 377.597 81.1966 373.506 86.2522 373.506Z" fill="white"/>
<path fill-rule="evenodd" clip-rule="evenodd" d="M128.908 350.306C132.817 350.306 135.99 353.477 135.99 357.385C135.99 361.292 132.817 364.463 128.908 364.463C124.998 364.463 121.826 361.292 121.826 357.385C121.826 353.477 124.998 350.306 128.908 350.306Z" fill="white"/>
<path fill-rule="evenodd" clip-rule="evenodd" d="M199.461 234.349C204.517 234.349 208.61 238.441 208.61 243.494C208.61 248.547 204.517 252.639 199.461 252.639C194.406 252.639 190.312 248.547 190.312 243.494C190.312 238.441 194.406 234.349 199.461 234.349Z" fill="white"/>
<path d="M27.857 396.931C27.3453 396.931 26.8541 396.787 26.4038 396.46C25.2781 395.662 25.0324 394.107 25.8307 392.982L57.5152 348.67C57.9655 348.035 58.7024 347.647 59.4801 347.626C60.2784 347.626 61.0152 347.954 61.486 348.567L86.2114 379.889L125.674 357.855L198.356 241.489C199.093 240.323 200.628 239.955 201.794 240.691C202.961 241.428 203.309 242.962 202.593 244.128L129.583 361.047C129.358 361.395 129.051 361.701 128.683 361.906L86.805 385.29C85.7406 385.883 84.3897 385.617 83.6324 384.656L59.6439 354.255L29.8834 395.867C29.3921 396.542 28.6348 396.91 27.857 396.91V396.931Z" fill="white"/>
<path d="M71.1059 243.923H25.8511C24.4797 243.923 23.354 242.798 23.354 241.428C23.354 240.057 24.4797 238.932 25.8511 238.932H71.1059C72.4773 238.932 73.603 240.057 73.603 241.428C73.603 242.798 72.4773 243.923 71.1059 243.923Z" fill="white"/>
<path d="M102.013 231.771H25.6465C24.2752 231.771 23.1494 230.646 23.1494 229.275C23.1494 227.905 24.2752 226.779 25.6465 226.779H102.013C103.384 226.779 104.51 227.905 104.51 229.275C104.51 230.646 103.384 231.771 102.013 231.771Z" fill="white"/>
<path d="M102.217 243.923H81.688C80.3167 243.923 79.1909 242.798 79.1909 241.428C79.1909 240.057 80.3167 238.932 81.688 238.932H102.217C103.589 238.932 104.715 240.057 104.715 241.428C104.715 242.798 103.589 243.923 102.217 243.923Z" fill="white"/>
<path d="M102.115 255.769H25.7491C24.3777 255.769 23.252 254.644 23.252 253.273C23.252 251.902 24.3777 250.777 25.7491 250.777H102.115C103.487 250.777 104.612 251.902 104.612 253.273C104.612 254.644 103.487 255.769 102.115 255.769Z" fill="white"/>
<path d="M320.304 312.07C320.202 312.07 320.079 312.07 319.977 312.049C318.606 311.865 317.644 310.617 317.828 309.247C317.91 308.592 319.977 293.105 324.521 278.477C329.167 263.482 338.685 253.743 339.094 253.334C340.056 252.352 341.632 252.352 342.615 253.314C343.597 254.275 343.597 255.851 342.635 256.833C342.533 256.935 333.547 266.182 329.29 279.95C324.869 294.169 322.802 309.738 322.781 309.901C322.617 311.149 321.553 312.07 320.304 312.07Z" fill="black"/>
<path d="M405.574 290.2C405.574 290.2 405.513 290.2 405.472 290.2C404.1 290.139 403.036 288.973 403.077 287.602C403.077 287.234 403.486 278.355 406.597 269.353C409.708 260.331 415.378 252.598 415.624 252.27C416.442 251.166 417.998 250.941 419.103 251.739C420.209 252.557 420.454 254.112 419.635 255.216C419.574 255.298 414.171 262.663 411.305 270.949C408.419 279.275 408.051 287.684 408.051 287.786C407.989 289.116 406.884 290.18 405.553 290.18L405.574 290.2Z" fill="black"/>
<path fill-rule="evenodd" clip-rule="evenodd" d="M391.308 279.275H393.109C397.469 280.646 402.688 282.978 406.066 285.249C415.788 291.755 419.943 302.025 425.592 312.54C426.534 314.279 428.048 318.126 424.589 318.31C421.519 318.473 419.288 311.497 417.814 308.756C412.881 299.529 408.399 291.919 398.677 287.029C397.101 286.231 394.276 284.533 392.7 284.635C391.083 284.738 387.378 287.888 384.922 289.423C368.343 299.754 354.281 308.101 337.477 318.514C336.556 319.087 334.53 319.987 333.486 320.908C332.196 322.053 332.053 323.506 329.106 322.892C327.775 322.606 327.98 322.013 326.916 320.499C326.24 319.537 324.992 318.903 324.316 318.31C312.67 307.937 300.225 296.644 288.825 287.418C283.257 290.773 278.468 294.68 275.275 300.777C274.251 302.72 273.596 305.953 271.079 305.748C266.76 305.4 270.117 299.57 270.874 298.179C274.19 292.103 276.441 289.464 281.845 285.617C283.769 284.247 287.515 281.301 289.623 281.423C291.219 281.526 293.532 284.329 295.006 285.617C303.951 293.351 312.056 300.613 320.53 307.937C323.968 310.904 327.243 313.952 330.886 316.509C351.047 304.112 371.147 291.653 391.288 279.255L391.308 279.275Z" fill="black"/>
<path fill-rule="evenodd" clip-rule="evenodd" d="M410.241 310.351C390.08 315.446 370.717 320.069 350.433 325.102C347.609 325.797 344.375 326.166 341.857 327.086C339.728 327.864 338.398 329.807 336.474 330.666C331.582 332.855 326.26 331.035 322.515 328.273C321.471 327.495 320.366 326.247 319.117 325.675C315.412 323.977 310.5 323.342 305.956 322.094C297.298 319.701 288.313 317.88 279.45 315.527C275.07 314.361 270.997 312.602 266.698 312.131C266.105 313.932 267.722 315.425 268.684 316.714C281.169 333.449 294.126 349.672 307.164 366.53C308.269 367.962 314.409 375.102 309.149 375.695C306.652 375.981 304.135 371.46 302.17 368.923C290.155 353.293 278.242 337.95 266.289 322.504C263.997 319.537 260.272 315.527 261.5 310.945C263.546 303.293 275.07 308.817 280.637 310.351C289.705 312.847 299.55 314.914 308.556 317.328C312.997 318.514 317.991 319.414 321.921 321.317C325.135 322.872 326.711 326.841 331.684 326.493C333.895 326.35 335.266 325.286 336.658 324.304C338.07 323.322 339.36 321.583 340.649 321.317C341.652 321.112 342.758 321.603 343.638 321.522C346.258 321.256 349.185 320.049 352.009 319.333C368.957 315.057 385.454 311.129 402.852 306.976C405.656 306.301 408.583 304.91 411.019 304.787C414.478 304.623 415.665 309.431 417.2 312.766C418.162 314.852 421.232 320.315 417.405 320.928C414.56 321.399 413.864 318.207 413.024 316.346C411.96 314.013 411.203 312.254 410.241 310.372V310.351Z" fill="black"/>
</g>
<defs>
<clipPath id="clip0_3_4830">
<rect width="607" height="467" fill="white"/>
</clipPath>
</defs>
</svg>
