<svg width="561" height="476" viewBox="0 0 561 476" fill="none" xmlns="http://www.w3.org/2000/svg">
<g clip-path="url(#clip0_3_4921)">
<path d="M54.711 390.282C53.7988 390.282 53.0603 389.566 53.0386 388.653L52.6694 367.954L38.2909 344.084C34.1858 344.736 20.5024 346.213 11.7059 339.002C6.71032 334.919 4.21255 328.772 4.27771 320.757C4.34287 311.288 9.85969 302.947 18.3304 299.515C27.04 295.975 36.5967 298.256 43.8511 305.64C57.4912 319.476 48.9336 334.397 46.3055 338.264L52.9517 349.732L53.9726 283.03L37.0311 245.194C30.9279 246.02 5.86325 248.018 1.15006 224.93C-0.782997 215.416 0.998024 206.338 6.16733 199.387C11.2498 192.567 19.1558 188.332 28.4301 187.485C34.5768 186.92 40.3543 188.788 45.1326 192.893C51.3662 198.236 55.4495 206.946 56.0142 216.155C56.7744 228.427 48.434 236.919 45.4367 239.569L61.3573 275.711L73.8896 266.849C72.6733 262.831 69.6977 250.016 77.886 242.523C84.3802 236.572 93.4157 234.943 100.887 238.396C107.924 241.632 111.943 248.669 111.66 257.184C111.421 263.786 109.162 268.586 104.927 271.453C97.0863 276.775 85.097 273.539 81.8607 272.518L64.1808 284.203L63.8333 334.137L76.3874 323.885C75.7792 321.257 74.7584 314.502 78.277 308.92C80.8834 304.793 85.3576 302.23 91.5695 301.318C98.3895 300.319 103.906 302.274 107.099 306.792C110.466 311.548 110.726 318.564 107.729 324.254C104.992 329.445 100.105 332.443 94.393 332.291C87.1169 332.182 82.9684 331.009 81.1657 330.336L64.3763 344.388L64.7456 388.328C64.7456 389.24 64.0071 390 63.0949 390.022C62.1609 390.022 61.4224 389.283 61.4007 388.371L61.0315 343.65C61.0315 343.15 61.2487 342.673 61.6396 342.347L79.8191 327.121C80.3404 326.687 81.1005 326.6 81.687 326.948C81.7087 326.948 85.3576 328.837 94.4582 328.967C94.5234 328.967 94.6102 328.967 94.6754 328.967C100.605 328.967 103.559 325.058 104.797 322.712C107.186 318.194 107.012 312.46 104.406 308.746C101.93 305.249 97.651 303.816 92.069 304.641C86.8563 305.401 83.1639 307.443 81.1223 310.723C77.5602 316.392 79.8625 323.95 79.8842 324.015C80.0797 324.667 79.8842 325.384 79.3412 325.818L63.2035 339.002C62.7039 339.415 62.0089 339.502 61.4224 339.219C60.836 338.937 60.4668 338.35 60.4668 337.699L60.836 283.334C60.836 282.769 61.1184 282.248 61.5745 281.944L80.6879 269.325C81.1223 269.043 81.687 268.977 82.1648 269.151C82.2951 269.195 95.5225 273.843 103.059 268.739C106.361 266.501 108.12 262.592 108.315 257.118C108.576 249.886 105.362 244.195 99.4972 241.48C93.2419 238.591 85.64 240.003 80.1449 245.042C72.2172 252.318 77.3865 266.849 77.4299 267.001C77.6905 267.718 77.4299 268.5 76.8217 268.934L61.6179 279.685C61.2052 279.968 60.684 280.076 60.2061 279.924C59.7283 279.794 59.3156 279.446 59.1201 278.99L41.8746 239.83C41.5706 239.113 41.7878 238.287 42.3959 237.831C42.5045 237.744 53.473 229.23 52.6911 216.437C52.1698 208.227 48.4557 200.213 42.9606 195.521C38.8773 192.024 33.9686 190.417 28.7342 190.917C20.4155 191.677 13.3566 195.434 8.86058 201.494C4.25599 207.684 2.69217 215.807 4.45147 224.365C9.12122 247.279 36.5533 242.045 37.7262 241.806C38.4864 241.654 39.2683 242.045 39.5723 242.762L57.1871 282.096C57.2957 282.313 57.3391 282.552 57.3391 282.813L56.2314 355.922C56.2314 356.682 55.7101 357.333 54.9717 357.507C54.2332 357.703 53.473 357.377 53.1038 356.725L42.8955 339.089C42.548 338.481 42.6131 337.742 43.0475 337.199C43.5471 336.569 55.102 321.887 41.4837 308.051C35.2067 301.687 27.0183 299.667 19.5901 302.687C12.2489 305.662 7.66599 312.634 7.60083 320.866C7.5574 327.816 9.64249 333.072 13.8127 336.504C22.8047 343.889 38.6167 340.718 38.7904 340.696C39.4855 340.544 40.2022 340.87 40.5497 341.478L55.7536 366.716C55.9056 366.977 55.9925 367.259 55.9925 367.542L56.3617 388.697C56.3617 389.609 55.645 390.369 54.7327 390.391H54.711V390.282Z" fill="#D6D6D6"/>
<path fill-rule="evenodd" clip-rule="evenodd" d="M47.4891 435.221C36.2383 435.221 27.0942 426.077 27.0942 414.804V393.106C27.0942 389.023 30.4174 385.678 34.5224 385.678H87.2146C91.2979 385.678 94.6427 389.001 94.6427 393.106V414.804C94.6427 426.055 85.4987 435.221 74.2261 435.221H47.5108H47.4891Z" fill="white"/>
<path d="M87.1884 387.546C90.2727 387.546 92.7487 390.044 92.7487 393.106V414.804C92.7487 425.056 84.4518 433.353 74.2 433.353H47.4847C37.233 433.353 28.936 425.056 28.936 414.804V393.106C28.936 390.044 31.4338 387.546 34.4963 387.546H87.1884ZM87.1884 383.832H34.518C29.4138 383.832 25.2437 388.002 25.2437 393.106V414.804C25.2437 427.076 35.2347 437.067 47.5064 437.067H74.2217C86.4934 437.067 96.4845 427.076 96.4845 414.804V393.106C96.4845 388.002 92.3143 383.832 87.2102 383.832H87.1884Z" fill="#D6D6D6"/>
<path d="M558.958 439.955H2.04166C0.91223 439.955 0 439.043 0 437.914C0 436.784 0.91223 435.872 2.04166 435.872H558.958C560.088 435.872 561 436.784 561 437.914C561 439.043 560.088 439.955 558.958 439.955Z" fill="#3F1651"/>
<path d="M75.4983 167.525C75.3029 167.525 75.1074 167.503 74.8902 167.459C73.5001 167.134 72.6313 165.744 72.9571 164.332C73.0223 164.049 74.6947 157.077 79.712 148.259C80.4287 146.999 82.0143 146.565 83.2523 147.282C84.4903 147.999 84.9464 149.584 84.2297 150.822C79.6034 158.967 78.0395 165.461 78.0178 165.526C77.7355 166.721 76.6712 167.525 75.4983 167.525ZM319.02 158.837C313.764 158.837 308.378 158.706 302.991 158.424C301.558 158.359 300.45 157.143 300.537 155.709C300.602 154.276 301.84 153.19 303.252 153.255C308.551 153.515 313.873 153.646 319.02 153.646H319.802C321.236 153.646 322.409 154.797 322.409 156.23C322.409 157.664 321.258 158.837 319.824 158.837H319.02ZM339.828 158.098C338.481 158.098 337.33 157.056 337.243 155.687C337.135 154.254 338.221 153.016 339.654 152.907C345.258 152.495 350.775 151.93 356.096 151.191C357.486 150.996 358.833 151.973 359.028 153.407C359.224 154.819 358.225 156.143 356.813 156.339C351.383 157.099 345.757 157.686 340.045 158.098C339.98 158.098 339.915 158.098 339.85 158.098H339.828ZM283.183 156.578C283.052 156.578 282.922 156.578 282.792 156.556C277.384 155.753 271.802 154.688 266.198 153.363C264.808 153.038 263.939 151.647 264.265 150.236C264.591 148.846 266.002 147.977 267.393 148.303C272.866 149.584 278.296 150.648 283.574 151.409C284.986 151.626 285.963 152.929 285.767 154.362C285.572 155.644 284.464 156.578 283.205 156.578H283.183ZM376.122 152.712C374.949 152.712 373.885 151.908 373.602 150.714C373.276 149.323 374.145 147.912 375.535 147.586C381.03 146.283 386.352 144.784 391.347 143.09C392.716 142.634 394.193 143.351 394.649 144.719C395.105 146.087 394.388 147.542 393.02 148.02C387.872 149.758 382.377 151.322 376.73 152.647C376.534 152.69 376.339 152.712 376.122 152.712ZM247.519 148.02C247.258 148.02 246.998 147.977 246.715 147.89C241.763 146.304 236.572 144.502 230.838 142.373C229.492 141.874 228.796 140.375 229.296 139.028C229.796 137.682 231.294 137.008 232.641 137.486C238.31 139.593 243.436 141.374 248.301 142.938C249.669 143.372 250.429 144.849 249.973 146.196C249.626 147.304 248.605 147.999 247.497 147.999L247.519 148.02ZM410.678 140.462C409.722 140.462 408.81 139.941 408.354 139.05C407.702 137.769 408.202 136.205 409.483 135.553C414.544 132.968 419.214 130.123 423.34 127.082C424.492 126.235 426.121 126.474 426.968 127.625C427.815 128.777 427.576 130.406 426.425 131.253C422.059 134.467 417.15 137.464 411.851 140.179C411.481 140.375 411.069 140.462 410.678 140.462ZM94.1773 136.292C93.504 136.292 92.8307 136.031 92.3094 135.51C91.3103 134.489 91.3321 132.838 92.3529 131.839C96.5014 127.777 101.149 124.281 106.145 121.392C107.383 120.675 108.969 121.109 109.685 122.348C110.402 123.586 109.968 125.171 108.73 125.888C104.103 128.538 99.8245 131.796 95.9801 135.531C95.4805 136.031 94.8289 136.27 94.1773 136.27V136.292ZM213.071 135.336C212.746 135.336 212.442 135.271 212.116 135.162L211.03 134.728C206.143 132.795 201.343 130.905 196.608 129.102C195.261 128.603 194.588 127.104 195.109 125.758C195.63 124.411 197.129 123.738 198.454 124.259C203.211 126.062 208.032 127.973 212.941 129.906L214.027 130.34C215.352 130.862 216.004 132.382 215.482 133.707C215.07 134.728 214.092 135.358 213.071 135.358V135.336ZM178.602 122.673C178.341 122.673 178.103 122.63 177.842 122.565C172.086 120.805 166.895 119.48 161.943 118.547C160.531 118.286 159.619 116.918 159.88 115.506C160.14 114.094 161.509 113.182 162.92 113.442C168.068 114.42 173.433 115.788 179.362 117.591C180.731 118.004 181.513 119.459 181.078 120.827C180.731 121.935 179.71 122.673 178.602 122.673ZM125.997 118.937C124.824 118.937 123.76 118.134 123.477 116.939C123.13 115.549 123.999 114.137 125.389 113.812C128.038 113.16 130.819 112.66 133.599 112.27C136.487 111.879 139.463 111.64 142.439 111.574C143.894 111.574 145.067 112.704 145.088 114.116C145.11 115.549 143.981 116.744 142.547 116.766C139.745 116.831 136.965 117.048 134.294 117.417C131.666 117.786 129.081 118.264 126.583 118.851C126.388 118.894 126.171 118.916 125.975 118.916L125.997 118.937ZM439.348 118.004C438.783 118.004 438.218 117.83 437.741 117.439C436.611 116.548 436.416 114.919 437.306 113.79C440.695 109.489 443.388 104.885 445.277 100.085C445.799 98.7598 447.319 98.1082 448.644 98.6295C449.969 99.1508 450.62 100.671 450.099 101.996C448.014 107.274 445.082 112.313 441.368 117.004C440.847 117.656 440.086 118.004 439.326 118.004H439.348ZM451.489 84.1207C450.034 84.1207 448.883 82.9261 448.883 81.4926V80.9279C448.883 75.9975 448.231 70.8499 446.928 65.6154C446.581 64.2254 447.428 62.8136 448.818 62.4661C450.23 62.1186 451.62 62.9656 451.967 64.3557C453.357 70.0028 454.074 75.5631 454.074 80.9062V81.536C454.074 82.9695 452.901 84.099 451.468 84.099L451.489 84.1207ZM326.948 51.9972C322.278 51.9972 318.173 51.7582 314.394 51.2587C312.961 51.0632 311.961 49.76 312.157 48.3482C312.331 46.9364 313.656 45.9156 315.067 46.1111C318.629 46.5672 322.517 46.8061 326.948 46.8061C328.382 46.8061 329.837 46.7844 331.314 46.741C332.747 46.6975 333.942 47.827 333.985 49.2605C334.029 50.694 332.899 51.8885 331.466 51.932C329.924 51.9754 328.425 51.9972 326.948 51.9972ZM440.021 50.4768C439.5 50.4768 438.957 50.3247 438.501 49.9772C434.982 47.436 430.269 45.7419 424.101 44.8513C422.689 44.6341 421.69 43.331 421.907 41.8975C422.124 40.4857 423.427 39.4866 424.861 39.7038C431.898 40.7246 437.35 42.7228 441.563 45.7636C442.715 46.6106 442.975 48.2396 442.15 49.3908C441.65 50.0858 440.847 50.455 440.043 50.455L440.021 50.4768ZM351.383 50.3682C350.08 50.3682 348.95 49.3908 348.798 48.0659C348.646 46.6324 349.667 45.3509 351.1 45.1989C356.682 44.569 362.33 43.8305 367.629 43.1355C369.063 42.9617 370.366 43.9391 370.54 45.3726C370.735 46.7844 369.736 48.1093 368.303 48.2831C362.981 48.9781 357.312 49.7383 351.665 50.3682C351.578 50.3682 351.47 50.3682 351.383 50.3682ZM387.85 45.7636C386.547 45.7636 385.418 44.7862 385.266 43.4613C385.114 42.0278 386.134 40.7463 387.546 40.5943C394.019 39.8558 399.514 39.378 404.336 39.1173C405.791 39.0304 406.985 40.1382 407.072 41.5717C407.138 43.0052 406.052 44.2215 404.618 44.3084C399.905 44.5473 394.497 45.0251 388.133 45.7636C388.024 45.7636 387.937 45.7636 387.829 45.7636H387.85ZM296.106 44.6124C295.563 44.6124 295.02 44.4387 294.542 44.0912C291.002 41.3979 288.287 37.9662 286.528 33.8829C285.963 32.558 286.549 31.0376 287.874 30.4729C289.199 29.9081 290.72 30.5163 291.284 31.8195C292.718 35.1209 294.803 37.7924 297.67 39.9644C298.821 40.8332 299.038 42.4622 298.169 43.6133C297.648 44.2866 296.888 44.6341 296.106 44.6341V44.6124Z" fill="#D6D6D6"/>
<path fill-rule="evenodd" clip-rule="evenodd" d="M228.104 152.625L231.014 131.1C231.014 131.1 223.564 114.811 222.196 114.876C220.849 114.941 219.112 110.336 216.332 109.706C213.573 109.077 192.983 101.562 191.05 101.562C189.117 101.562 182.101 103.082 179.669 105.471C177.258 107.86 171.915 109.793 171.198 115.614C170.481 121.435 171.024 124.867 169.83 127.147C168.635 129.428 164.269 126.909 163.444 135.727C162.619 144.523 164.812 146.152 166.42 148.737C168.005 151.322 221.566 163.789 228.104 152.668V152.625Z" fill="#F5F5F5"/>
<path fill-rule="evenodd" clip-rule="evenodd" d="M366.937 182.728C366.937 182.728 368.414 136.813 370.651 134.337C372.888 131.839 395.889 117.004 395.889 117.004L413.7 129.624C413.7 129.624 421.193 142.807 421.171 146.239C421.128 149.671 430.532 193.067 430.532 193.067C430.532 193.067 429.837 197.15 425.841 198.997C421.866 200.843 366.937 182.728 366.937 182.728Z" fill="#F5F5F5"/>
<path fill-rule="evenodd" clip-rule="evenodd" d="M292.459 1.84619C309.422 1.84619 323.171 15.5948 323.171 32.5579C323.171 49.5211 309.422 63.2697 292.459 63.2697C275.496 63.2697 261.747 49.5211 261.747 32.5579C261.747 15.5948 275.496 1.84619 292.459 1.84619Z" fill="white"/>
<path d="M292.454 65.1376C274.492 65.1376 259.896 50.5202 259.896 32.5797C259.896 14.6391 274.492 0 292.454 0C310.417 0 325.012 14.6174 325.012 32.5579C325.012 50.4985 310.395 65.1159 292.454 65.1159V65.1376ZM292.454 3.71408C276.534 3.71408 263.611 16.6591 263.611 32.5579C263.611 48.4568 276.556 61.4018 292.454 61.4018C308.353 61.4018 321.298 48.4568 321.298 32.5579C321.298 16.6591 308.353 3.71408 292.454 3.71408Z" fill="#D6D6D6"/>
<path fill-rule="evenodd" clip-rule="evenodd" d="M284.012 272.149C284.012 272.149 277.779 259.638 293.287 259.356C308.795 259.074 369.523 258.248 369.523 258.248C369.523 258.248 381.165 256.424 383.25 264.916C385.335 273.409 397.542 321.323 397.542 321.323C397.542 321.323 401.169 327.925 394.023 329.858C386.877 331.791 308.121 330.966 308.121 330.966C308.121 330.966 300.824 331.835 298.109 322.43C295.394 313.026 293.287 302.405 293.287 302.405C293.287 302.405 302.105 305.163 302.192 302.405C302.279 299.646 299.043 298.321 299.043 298.321C299.043 298.321 303.452 297.822 302.018 294.433C300.563 291.045 296.262 286.636 296.262 286.636C296.262 286.636 301.562 285.593 298.673 281.814C295.785 278.013 291.81 274.06 289.399 273.843C286.988 273.626 284.012 272.171 284.012 272.171V272.149Z" fill="#D6D6D6"/>
<path fill-rule="evenodd" clip-rule="evenodd" d="M392.909 186.073C392.909 186.073 391.128 203.732 386.61 204.448C382.071 205.165 361.654 201.299 356.007 203.341C350.36 205.382 349.144 205.382 349.144 205.382C349.144 205.382 345.951 194.045 355.073 183.489C364.217 172.933 365.933 167.894 366.563 165.483C367.193 163.094 368.409 150.279 368.409 150.279C368.409 150.279 358.505 134.858 369.191 127.039C380.442 118.786 402.857 103.039 425.923 107.231C449.142 111.466 457.656 134.055 455.788 149.345C455.05 155.448 453.182 160.813 450.032 165.852C445.232 173.541 443.386 179.405 443.907 182.186C444.711 186.443 452.248 200.843 453.92 207.424C455.593 213.983 456.526 223.388 456.526 223.388C456.526 223.388 447.925 218.262 432.222 216.329C416.519 214.418 412.262 211.681 411.436 207.055C410.633 202.428 417.561 177.559 417.561 177.559C417.561 177.559 432.982 178.949 434.264 171.26C436.37 158.468 423.512 163.659 423.512 163.659C423.512 163.659 406.593 157.555 401.988 146.587C397.405 135.618 399.012 126.17 399.012 126.17C399.012 126.17 388.869 126.952 381.571 134.337C374.274 141.7 375.447 143.611 375.447 143.611C375.447 143.611 365.303 169.914 378.596 179.601C391.888 189.288 392.888 186.095 392.888 186.095L392.909 186.073Z" fill="#D6D6D6"/>
<path fill-rule="evenodd" clip-rule="evenodd" d="M432.422 162.877C432.422 162.877 445.388 151.952 443.933 132.817C442.543 114.833 427.795 108.881 427.795 108.881C427.795 108.881 423.017 107.426 418.521 107.035C414.025 106.644 402.383 108.512 402.383 108.512C402.383 108.512 412.005 107.795 421.301 114.268C443.39 129.624 429.468 161.378 429.468 161.378L432.443 162.855L432.422 162.877Z" fill="#3F1651"/>
<path fill-rule="evenodd" clip-rule="evenodd" d="M197.763 182.924C197.763 182.924 197.068 194.913 196.656 197.954C196.221 200.995 194.44 206.859 200.001 208.336C205.561 209.835 208.167 209.074 208.167 209.074C208.167 209.074 205.474 201.929 205.018 194.044C204.692 188.506 204.453 182.728 204.453 182.728C204.453 182.728 202.998 183.337 201.108 182.902C199.219 182.489 197.763 182.902 197.763 182.902V182.924Z" fill="#954580"/>
<path fill-rule="evenodd" clip-rule="evenodd" d="M382.532 263.808C386.116 271.866 396.997 318.911 396.997 318.911C396.997 318.911 402.601 329.25 393.109 330.032C383.618 330.814 360.095 332.073 360.095 332.073C360.095 332.073 338.093 360.657 331.903 380.118C323.606 406.203 318.676 461.024 317.916 470.103H488.633C488.133 466.997 481.053 423.296 476.426 413.327C471.626 403.01 462.135 381.79 462.135 381.79C462.135 381.79 449.472 381.442 430.793 351.556C421.171 336.157 413.656 325.514 410.768 319.28C408.053 313.416 409.66 311.483 409.66 311.483C409.66 311.483 405.403 303.946 405.403 298.321C405.403 292.695 404.882 290.523 403.557 287.374C402.232 284.225 397.54 275.102 400.407 274.212C405.359 272.648 413.765 285.897 413.765 285.897L420.455 281.814C420.455 281.814 417.653 278.903 418.044 276.992C418.435 275.081 421.932 273.647 421.932 273.647C421.932 273.647 414.243 267.414 415.807 264.547C417.37 261.701 424.342 264.547 424.342 264.547C424.342 264.547 424.104 260.789 422.67 258.422C421.237 256.054 419.195 250.125 423.039 250.451C426.884 250.776 430.381 254.838 432.509 262.136C434.638 269.434 435.289 275.124 435.289 275.124C435.289 275.124 435.354 279.555 436.397 283.465C437.439 287.396 436.962 293.304 436.962 293.304L441.979 289.22L448.104 310.549C448.104 310.549 457.661 302.969 464.98 302.578C472.321 302.187 480.749 304.25 480.749 304.25L472.408 250.451C472.408 250.451 467.782 228.687 457.204 223.366C446.627 218.023 437.179 216.676 437.179 216.676C437.179 216.676 409.247 235.877 388.201 225.581C369.717 216.524 371.324 210.008 371.324 210.008C371.324 210.008 352.797 205.382 344.435 218.349C336.073 231.315 330.339 257.314 330.339 257.314L368.371 257.879C368.371 257.879 379.057 255.75 382.662 263.808H382.532Z" fill="#954580"/>
<path fill-rule="evenodd" clip-rule="evenodd" d="M94.4135 394.952C110.595 398.167 121.867 389.566 121.867 389.566L145.802 371.017C145.802 371.017 139.417 371.017 136.333 357.855C133.27 344.78 142.631 334.745 140.59 334.658C140.59 334.658 126.602 340.001 122.215 343.194C117.849 346.387 113.505 347.82 113.505 347.82L104.035 296.431C104.035 296.431 98.7357 280.381 108.488 276.775C118.24 273.17 181.206 263.982 181.206 263.982C181.206 263.982 191.11 261.202 194.737 269.738C198.386 278.274 200.297 298.669 200.297 298.669C200.297 298.669 207.682 295.606 208.464 299.972C209.224 304.316 208.095 307.031 208.095 307.031C208.095 307.031 210.223 310.18 210.136 315.74C210.05 321.322 210.397 324.754 209.202 326.861C208.008 328.989 206.227 332.421 206.227 332.421L214.024 377.12C214.024 377.12 217.391 388.415 208.464 390.847C199.537 393.28 133.14 405.508 133.14 405.508C133.14 405.508 129.013 406.703 126.646 403.836C124.3 400.969 122.562 397.906 122.562 397.906C122.562 397.906 110.834 419.409 107.532 437.241C104.231 455.073 102.71 470.081 102.71 470.081H104.383H277.707C276.208 463.739 261.699 403.119 251.317 375.839C240.349 347.038 232.573 336.331 232.573 336.331L235.918 319.997C235.918 319.997 253.228 353.772 268.563 361.004C283.897 368.237 298.97 361.222 304.183 351.165C309.374 341.131 306.594 330.749 306.594 330.749C306.594 330.749 303.727 331.965 300.664 328.707C297.124 324.95 296.016 319.063 296.016 319.063C296.016 319.063 283.441 318.651 278.206 315.719C272.972 312.786 266.152 308.29 266.152 308.29C266.152 308.29 265.001 294.585 265.413 289.003C265.826 283.421 266.716 269.716 266.716 269.716C266.716 269.716 255.943 232.727 250.579 226.125C245.214 219.522 233.138 211.659 233.138 211.659C233.138 211.659 220.41 241.394 185.094 246.172C149.777 250.95 119.044 229.839 119.044 229.839C119.044 229.839 103.492 236.789 99.9303 255.989C96.39 275.19 81.5554 364.327 81.5554 364.327C81.5554 364.327 78.1888 391.738 94.3483 394.931L94.4135 394.952Z" fill="#3F1651"/>
<path fill-rule="evenodd" clip-rule="evenodd" d="M118.178 230.403C118.178 230.403 139.29 199.93 142.287 171.043C145.285 142.156 135.532 102.691 185.14 99.2591C223.932 96.5659 229.47 135.618 229.47 135.618L220.196 132.838C220.196 132.838 217.438 128.342 215.374 124.498C213.311 120.653 209.249 115.028 209.249 115.028C209.249 115.028 210.704 120.762 210.183 124.107C209.64 127.473 209.075 129.667 209.075 129.667C209.075 129.667 192.416 130.232 184.967 133.924C177.495 137.616 172.912 140.418 172.912 140.418L171.066 129.841L170.697 149.692C170.697 149.692 159.185 132.947 154.928 146.717C150.15 162.181 169.589 163.789 169.589 163.789C169.589 163.789 174.867 167.329 174.215 173.997C173.585 180.643 173.629 205.838 164.941 211.659C156.253 217.48 118.2 230.403 118.2 230.403H118.178Z" fill="#954580"/>
<path fill-rule="evenodd" clip-rule="evenodd" d="M136.653 400.338C131.744 400.338 127.596 397.059 126.814 392.519L107.722 283.095C106.81 277.904 110.611 272.887 116.171 271.909L188.302 259.312C188.932 259.203 189.562 259.138 190.192 259.138C195.101 259.138 199.249 262.418 200.031 266.957L219.123 376.381C220.035 381.573 216.234 386.59 210.674 387.567L138.543 400.165C137.913 400.273 137.283 400.338 136.653 400.338Z" fill="#EFEFEF"/>
<path d="M190.193 261.028C194.146 261.028 197.556 263.613 198.207 267.305L217.299 376.729C218.037 380.921 214.91 384.961 210.349 385.765L138.217 398.362C137.696 398.449 137.153 398.492 136.632 398.492C132.679 398.492 129.269 395.908 128.617 392.215L109.525 282.791C108.787 278.599 111.915 274.559 116.476 273.756L188.607 261.158C189.128 261.071 189.671 261.028 190.193 261.028ZM190.193 257.314C189.454 257.314 188.716 257.379 187.977 257.509L115.846 270.107C109.265 271.258 104.812 277.231 105.876 283.421L124.968 392.845C125.924 398.275 130.832 402.207 136.653 402.207C137.392 402.207 138.13 402.141 138.869 402.011L211 389.414C217.581 388.262 222.034 382.29 220.969 376.099L201.878 266.675C200.922 261.245 196.013 257.314 190.214 257.314H190.193Z" fill="white"/>
<path d="M185.97 265.59C189.923 265.59 193.333 268.174 193.985 271.867L213.077 381.269C213.815 385.461 210.688 389.501 206.126 390.305L133.995 402.902C133.474 402.989 132.931 403.032 132.41 403.032C128.457 403.032 125.047 400.448 124.395 396.755L105.303 287.353C104.565 283.161 107.692 279.121 112.254 278.317L184.385 265.742C184.906 265.655 185.449 265.611 185.97 265.611V265.59ZM185.97 261.875C185.232 261.875 184.494 261.941 183.755 262.071L111.624 274.647C108.496 275.19 105.738 276.84 103.87 279.273C101.915 281.814 101.133 284.898 101.676 287.961L120.768 397.363C121.702 402.793 126.61 406.725 132.431 406.725C133.17 406.725 133.908 406.659 134.647 406.529L206.778 393.953C209.906 393.41 212.664 391.76 214.532 389.327C216.487 386.786 217.269 383.702 216.726 380.639L197.634 271.237C196.678 265.807 191.77 261.875 185.97 261.875Z" fill="#1A1A1A"/>
<path fill-rule="evenodd" clip-rule="evenodd" d="M292.463 14.0962C302.649 14.0962 310.925 22.3497 310.925 32.558C310.925 42.7663 302.671 51.0198 292.463 51.0198C282.254 51.0198 274.001 42.7663 274.001 32.558C274.001 22.3497 282.254 14.0962 292.463 14.0962Z" fill="white"/>
<path d="M292.458 52.866C281.251 52.866 272.15 43.7437 272.15 32.558C272.15 21.3723 281.273 12.25 292.458 12.25C303.644 12.25 312.766 21.3723 312.766 32.558C312.766 43.7437 303.644 52.866 292.458 52.866ZM292.458 15.9424C283.293 15.9424 275.864 23.3922 275.864 32.5363C275.864 41.6803 283.314 49.1302 292.458 49.1302C301.602 49.1302 309.052 41.6803 309.052 32.5363C309.052 23.3922 301.602 15.9424 292.458 15.9424Z" fill="#D6D6D6"/>
<path fill-rule="evenodd" clip-rule="evenodd" d="M292.459 21.5244C298.562 21.5244 303.493 26.4765 303.493 32.5798C303.493 38.683 298.54 43.6134 292.459 43.6134C286.377 43.6134 281.425 38.6613 281.425 32.5798C281.425 26.4982 286.377 21.5244 292.459 21.5244Z" fill="#954580"/>
<path fill-rule="evenodd" clip-rule="evenodd" d="M451.447 43.5913C460.613 43.5913 468.041 51.0195 468.041 60.1852C468.041 69.351 460.613 76.7791 451.447 76.7791C442.281 76.7791 434.853 69.351 434.853 60.1852C434.853 51.0195 442.281 43.5913 451.447 43.5913Z" fill="#954580"/>
<path fill-rule="evenodd" clip-rule="evenodd" d="M308.226 137.095C317.391 137.095 324.82 144.523 324.82 153.689C324.82 162.855 317.391 170.283 308.226 170.283C299.06 170.283 291.632 162.855 291.632 153.689C291.632 144.523 299.06 137.095 308.226 137.095Z" fill="#954580"/>
<path fill-rule="evenodd" clip-rule="evenodd" d="M74.1121 164.745C81.4316 164.745 87.3829 170.674 87.3829 178.015C87.3829 185.357 81.4534 191.286 74.1121 191.286C66.7708 191.286 60.8413 185.357 60.8413 178.015C60.8413 170.674 66.7708 164.745 74.1121 164.745Z" fill="#954580"/>
<path fill-rule="evenodd" clip-rule="evenodd" d="M108.356 350.926L136.375 335.983L134.855 348.146L136.375 359.462L145.171 371.278L115.285 392.889L102.948 374.318L108.356 350.926Z" fill="#3F1651"/>
<path fill-rule="evenodd" clip-rule="evenodd" d="M188.376 93.1777H190.222C216.959 93.8293 231.794 108.23 237.332 131.014C238.071 134.098 239.7 139.289 237.137 140.483C234.856 141.548 232.75 138.659 230.838 139.18C230.795 160.162 224.257 174.649 210.986 182.403C211.182 187.268 210.639 193.045 211.92 197.606C212.42 199.409 213.289 201.538 214.331 203.536C215.135 205.056 216.72 208.119 217.85 208.553C219.5 209.161 223.149 208.749 224.713 208.922C240.916 210.703 248.279 218.827 254.209 230.62C259.117 240.373 262.745 251.167 265.894 262.701C266.415 264.612 269.89 273.213 266.263 273.278C264.091 273.322 263.505 268.326 262.745 265.481C260.203 255.924 257.488 247.822 254.209 240.069C249.561 229.078 245.043 218.87 233.988 214.852C223.388 232.293 209.813 246.302 184.271 248.8C156.991 251.471 136.335 240.612 118.047 232.097C103.408 240.242 100.672 261.571 97.4571 281.249C94.1774 301.362 91.6796 323.081 88.1827 341.913C86.4017 351.556 83.5998 361.417 82.9917 371.582C82.3184 382.898 87.0099 390.63 96.1539 393.475C106.123 396.56 115.984 390.282 122.304 386.243C129.711 381.508 135.771 376.599 142.526 371.408C141.244 369.41 139.246 367.694 137.508 365.479C135.836 363.328 134.337 360.983 133.425 358.05C131.47 351.752 133.186 344.128 134.902 338.763C127.039 342.608 118.721 346.756 111.531 351.382C109.468 352.707 106.688 356.182 103.93 353.989C103.93 350.839 107.492 349.601 109.685 348.233C121.805 340.653 133.99 334.593 148.086 329.12C150.562 328.164 153.776 327.36 156.622 326.144C157.773 325.666 159.554 325.036 160.879 324.667C162.595 324.189 163.116 324.472 164.028 326.144C163.355 328.598 160.488 328.794 158.468 329.489C151.735 331.748 144.871 334.506 138.812 337.091C139.398 339.784 137.834 342.542 137.139 345.431C134.576 356.269 139.463 363.958 145.675 368.628C152.951 363.22 160.032 356.856 166.635 351.013C167.525 350.231 168.437 348.928 169.784 348.971C170.24 349.884 170.913 350.557 171.826 351.013C168.524 354.923 164.376 357.92 160.51 361.221C148.759 371.299 136.9 380.704 123.977 389.609C116.18 394.952 103.061 401.316 91.7013 395.734C81.6885 390.804 77.8007 381.16 80.0161 365.696C81.6885 354.054 84.6207 341.891 86.7058 329.163C90.6805 304.641 93.3303 277.014 98.9557 254.968C101.193 246.172 104.407 238.874 109.902 233.639C111.662 231.967 114.008 230.751 115.832 228.622C117.678 226.472 119.199 223.453 120.849 220.651C125.606 212.55 130.384 203.275 133.642 194.5C138.529 181.317 140.831 167.329 141.809 150.735C142.83 133.468 143.264 118.373 151.452 108.447C159.337 98.89 172.021 94.09 188.376 93.2429V93.1777ZM185.596 97.0656C170.978 97.9126 158.837 103.907 152.756 112.639C146.131 122.174 146.457 137.877 145.523 153.081C144.611 168.133 142.395 181.208 138.095 193.328C133.751 205.599 127.995 215.417 122.522 225.408C134.75 219.609 149.454 218.523 160.184 212.246C169.002 207.076 170.696 198.475 171.304 185.356C171.5 181.382 172.325 177.168 172.043 173.302C171.869 170.869 170.566 167.047 168.329 165.874C167.221 165.287 165.44 165.309 164.245 164.94C158.381 163.181 152.647 159.749 151.995 152.885C151.474 147.347 154.602 140.375 159.793 139.897C163.203 139.593 165.722 142.026 167.221 143.611C167.742 144.176 168.111 145.283 168.893 145.088C168.654 141.07 169.197 135.401 168.893 131.557C168.763 129.993 167.916 127.452 169.827 127.104C173.693 126.387 172.89 135.596 174.454 137.117C183.619 131.991 193.285 127.386 207.837 127.647C207.924 125.779 208.315 124.324 208.206 122.261C208.054 119.089 205.057 113.312 208.032 112.791C209.857 112.465 211.464 114.941 212.289 115.94C215.873 120.306 218.501 125.41 220.087 130.97C225.104 132.512 230.013 134.141 234.552 136.161C230.534 111.857 215.2 95.2845 185.574 97.0221L185.596 97.0656ZM210.074 131.014C208.641 131.817 205.904 131.318 204.145 131.383C191.373 131.926 180.579 137.551 172.607 142.699C172.39 146.652 173.889 153.146 169.632 152.538C167.916 152.299 166.656 148.65 165.375 147.151C164.245 145.848 162.139 143.546 160.358 143.633C158.881 143.698 157.577 145.566 157.013 146.608C153.603 153.016 157.295 157.664 162.03 159.966C164.528 161.161 167.416 161.313 169.827 162.377C171.435 163.094 172.825 165.157 173.715 166.634C176.669 171.478 175.54 179.079 175.192 186.117C174.519 200.169 171.804 209.704 162.768 215.243C150.888 222.519 135.097 222.932 122.152 229.904C139.05 237.701 158.902 247.627 183.923 245.108C207.381 242.762 220.934 229.86 229.926 213.57C226.842 213.027 223.345 212.55 219.913 212.463C215.938 212.354 210.986 212.267 206.555 211.898C203.124 211.616 199.779 211.203 197.65 209.856C190.939 205.599 195.913 191.981 195.044 182.207C193.567 181.794 191.764 180.926 189.853 179.796C188.615 179.079 185.813 177.602 185.965 175.908C186.313 171.782 191.677 176.582 192.459 177.016C195.131 178.536 199.388 180.404 203.406 180.361C211.768 180.231 217.22 173.367 220.847 167.199C224.844 160.357 226.277 153.124 227.146 142.894C224.257 141.526 220.76 140.244 217.871 141.222C211.877 143.264 211.051 152.646 213.419 158.098C214.201 159.901 215.721 162.268 213.05 162.724C210.356 163.181 208.423 156.295 208.228 152.885C207.794 145.197 212.485 137.551 219.348 137.117C222.802 136.9 224.844 138.355 227.146 138.225C227.472 137.008 225.973 136.813 225.3 136.552C224.518 136.248 223.519 135.879 222.693 135.618C221.043 135.119 218.458 135.01 217.307 133.946C216.177 132.903 215.808 129.624 215.091 127.821C214.223 125.649 212.963 123.194 211.942 122.065C211.464 124.715 212.615 129.558 210.096 130.97L210.074 131.014ZM197.824 203.167C198.519 208.814 206.273 208.01 212.659 208.358C209.032 202.711 206.121 193.632 207.468 183.51C205.057 184.314 201.191 184.227 198.758 183.51C199.453 188.745 197.259 198.519 197.824 203.167Z" fill="#3F1651"/>
<path fill-rule="evenodd" clip-rule="evenodd" d="M465.301 383.093C476.53 406.529 486.608 433.374 488.867 467.127C488.998 469.082 489.019 471.558 486.087 471.015C484.111 453.596 481.83 437.523 477.377 422.797C472.968 408.223 467.278 394.93 460.87 382.55C446.644 379.01 438.825 367.412 431.201 354.923C426.032 346.474 419.777 337.482 413.956 329.141C411.958 326.296 409.72 323.19 408.569 320.236C407.809 318.281 408.07 315.979 407.635 313.546C407.353 311.917 406.158 310.245 405.594 308.529C405.029 306.813 404.442 305.032 404.29 302.969C404.073 299.841 405.072 296.258 404.464 292.956C403.769 289.047 401.445 286.18 400.012 282.574C398.861 279.707 397.232 272.626 401.315 271.997C404.464 271.519 406.984 274.646 408.743 276.645C410.763 278.969 412.805 281.379 413.76 283.704C415.107 283.486 416.171 281.423 417.648 280.728C414.542 278.795 415.976 273.191 419.125 272.388C416.54 270.845 412.262 265.481 415.237 262.179C416.54 260.746 419.972 260.789 422.296 261.615C422.101 258.443 418.148 257.097 418.408 253.274C418.604 250.472 421.84 248.517 424.903 249.56C431.31 251.754 435.328 263.2 436.392 271.454C436.566 272.865 436.24 274.277 436.392 275.711C436.544 277.101 437.37 278.73 437.695 280.359C438.26 283.226 438.977 286.158 438.629 289.438C441.019 287.657 443.451 282.227 444.559 277.383C444.95 275.689 444.733 273.039 446.97 273.3C449.989 273.647 447.339 279.968 446.774 281.64C445.688 284.92 444.776 287.157 443.256 289.438C445.145 295.476 446.731 301.796 448.642 307.791C452.161 305.749 456.44 302.73 461.804 301.297C467.061 299.906 474.054 300.059 479.615 301.492C475.314 284.572 474.38 266.132 469.971 248.626C467.973 240.72 464.91 233.118 459.22 228.036C455.332 224.582 450.206 221.846 443.82 220.065C442.105 219.587 439.042 218.284 437.522 218.588C436.762 218.74 435.067 220.499 434.177 220.999C426.249 225.581 416.084 230.208 404.138 230.273C385.112 230.36 372.319 220.825 367.78 204.861C333.115 201.168 333.853 234.487 324.557 256.793C330.031 256.749 335.243 256.467 340.695 256.423C342.693 250.364 346.603 245.346 351.446 241.589C352.793 240.546 354.791 238.309 356.833 239.743C357.745 241.98 355.247 242.914 354.053 243.826C349.969 246.889 346.494 250.603 344.583 256.076C355.942 257.944 374.013 252.47 381.506 259.052C384.786 261.94 386.154 268.956 387.631 274.82C390.65 286.896 393.17 297.778 396.537 309.702C398.578 316.891 404.095 328.338 395.06 331.226C389.673 332.942 382.006 332.421 374.469 332.703C366.954 332.986 359.374 333.246 353.14 333.268C324.014 365.109 316.608 418.648 312.329 475.359C311.265 475.576 309.983 475.663 309.18 475.185C312.307 427.988 318.367 382.094 337.003 349.797C323.08 350.101 317.737 341.869 313.067 332.921C303.011 333.094 296.691 329.511 295.626 320.671C284.919 321.518 276.144 317.543 269.65 312.873C267.717 311.483 265.306 310.289 264.632 308.051C266.174 303.968 270.084 308.399 272.234 309.898C278.142 314.024 285.874 317.326 294.671 317.13C293.628 311.787 292.238 306.835 290.783 301.926C291.652 301.774 293.889 301.97 294.497 301.731C295.605 306.14 296.734 309.355 297.646 313.242C298.798 318.086 299.21 325.297 303.207 327.534C308.072 330.227 318.541 329.749 326.012 329.749C345.973 329.749 366.433 329.749 386.849 328.815C390.759 328.642 395.776 327.708 396.493 326.035C397.297 324.124 395.841 319.78 395.19 317.499C390.542 301.383 386.719 286.266 382.571 269.26C381.528 264.959 380.29 261.636 376.641 260.355C371.016 258.378 360.742 259.79 353.64 259.79C334.44 259.79 315.196 260.789 295.778 261.462C292.195 261.593 287.025 261.462 285.766 263.309C283.724 266.263 286.895 271.106 287.069 274.255C286.091 274.19 284.397 274.321 283.181 274.06C282.008 268.717 280.053 261.962 284.853 259.399C288.589 257.401 295.692 257.748 302.099 257.553C308.789 257.336 315.522 257.097 320.648 256.988C327.337 242.61 328.684 222.997 338.632 211.355C339.783 210.008 342.758 207.88 343.084 206.729C343.41 205.512 342.91 203.471 342.91 202.102C342.91 190.895 346.472 183.988 351.62 177.798C355.703 172.889 360.569 168.263 362.002 159.814C362.458 157.164 363.066 153.754 362.567 150.909C362.219 148.998 360.264 146.478 359.417 144.415C357.897 140.722 356.377 135.01 358.31 130.318C360.525 124.889 366.324 121.088 371.298 118.069C381.506 111.878 395.255 106.514 410.068 105.645C433.026 104.298 448.534 112.356 454.767 127.908C458.047 136.074 458.764 147.369 456.44 156.665C455.375 160.9 453.812 165.048 451.813 168.719C449.316 173.258 445.124 176.929 445.884 183.923C446.231 187.203 448.164 190.482 449.598 193.393C453.269 200.821 456.266 208.14 458.308 217.502C458.72 219.37 458.655 221.672 459.241 223.062C459.828 224.474 462.608 226.059 463.868 227.514C471.209 235.877 473.967 248.952 476.118 262.57C478.159 275.624 480.635 289.481 483.35 302.448C485.979 315.023 489.171 328.229 490.779 342.325C492.581 358.224 490.996 371.973 481.135 378.684C476.965 381.508 472.186 382.681 465.366 383.137L465.301 383.093ZM433.221 127.864C436.675 137.443 435.871 150.54 432.113 160.704C437.044 154.623 442.604 147.151 442.865 136.965C443.147 126.496 437.782 119.198 431.549 114.333C429.572 112.791 426.901 110.358 424.685 109.685C420.819 108.512 416.888 109.25 412.435 109.12C422.926 111.835 429.616 117.873 433.199 127.842L433.221 127.864ZM428.204 124.715C425.88 120.458 422.014 116.526 416.888 114.333C412.283 112.356 403.856 110.011 398.144 110.988C392.301 111.987 386.306 114.202 380.898 116.744C373.687 120.132 365.716 124.215 362.176 130.275C359.765 134.402 361.329 140.527 362.914 144.002C363.718 145.74 365.412 147.542 365.89 149.758C366.455 152.407 366.042 156.078 365.694 158.837C364.413 169.327 358.874 174.431 353.64 180.904C348.666 187.051 345.582 193.632 346.407 204.839C353.879 200.169 365.977 200.864 375.707 202.624C378.705 203.167 383.461 204.405 386.089 203.188C390.238 201.255 389.934 191.807 391.107 187.051C373.861 185.487 366.346 165.961 372.558 148.476C366.389 148.932 372.884 141.309 374.6 139.006C378.705 133.555 382.94 129.819 389.26 126.952C391.671 125.844 396.949 123.173 399.273 123.976C400.924 124.541 400.75 127.321 400.75 129.732C400.75 148.281 409.829 156.491 422.448 162.203C424.207 161.443 426.141 160.031 428.573 160.531C432.939 149.606 433.308 134.076 428.204 124.737V124.715ZM446.188 139.006C445.428 149.41 439.194 157.273 434.503 163.485C435.806 165.439 437.066 167.611 436.349 170.544C434.828 176.842 426.097 180.274 418.169 179.079C417.214 182.793 415.911 187.072 415.02 191.503C414.108 196.021 412.957 201.147 413.348 205.599C413.869 211.355 418.408 212.202 423.925 213.027C435.741 214.765 447.035 216.133 455.267 220.825C453.942 213.483 452.313 207.597 449.511 201.342C446.883 195.478 441.583 188.853 442.278 180.947C442.93 173.541 448.208 168.936 450.814 162.768C459.111 143.22 452.465 119.155 435.784 113.051C435.676 113.051 435.567 113.073 435.61 113.247C442.17 118.894 447.057 126.93 446.188 139.028V139.006ZM380.16 138.072C386.285 139.853 391.389 144.371 391.107 152.169C390.976 155.427 389.217 158.619 387.219 160.878C386.806 161.334 380.833 168.154 380.16 163.854C379.877 162.051 383.114 160.596 384.612 158.837C385.59 157.707 386.611 156.165 387.023 155.122C389.825 148.172 384.178 142.112 378.683 141.2C376.163 148.172 373.362 155.557 373.861 163.637C374.643 176.147 383.092 183.402 395.755 184.032C397.796 184.14 401.054 183.38 401.141 185.704C401.228 188.375 396.536 187.441 394.647 187.376C393.105 193.979 393.517 201.472 389.26 205.187C385.025 208.879 377.01 205.968 371.45 205.556C375.077 216.741 383.744 223.757 396.667 225.951C410.872 228.362 423.426 223.279 432.656 217.61C424.403 215.894 416.215 217.089 412.066 212.05C408.287 207.445 410.177 198.801 411.697 191.09C412.24 188.375 412.674 185.726 413.543 182.555C414.216 180.122 415.368 175.669 416.692 175.322C417.409 175.148 418.691 175.626 419.842 175.691C421.254 175.778 422.991 175.843 424.294 175.691C427.791 175.3 433.395 172.477 433.004 168.263C432.809 166.113 430.246 163.658 427.444 163.81C425.815 163.897 424.36 166.33 422.426 166.221C421.818 166.178 420.95 165.266 420.016 164.744C419.103 164.223 417.93 163.832 417.235 163.441C404.942 156.73 396.254 146.891 397.21 127.647H396.841C390.107 129.949 383.809 132.686 380.138 138.029L380.16 138.072ZM429.138 259.204C427.596 256.228 424.989 251.841 421.905 253.274C423.295 256.945 426.075 259.247 426.727 263.656C427.726 264.091 428.747 264.894 429.703 265.698C430.55 266.415 431.462 267.739 432.113 267.544C431.527 265.133 430.571 261.962 429.138 259.204ZM417.822 264.764C419.386 271.54 427.878 271.388 432.483 275.146C430.68 269.977 423.751 263.83 417.822 264.764ZM427.096 312.982C426.271 312.526 426.466 311.266 426.922 310.202C427.77 308.203 426.988 309.832 428.399 307.421C432.439 300.558 439.303 286.875 432.113 279.403C430.289 277.513 422.079 272.149 419.321 277.188C421.319 278.795 422.752 278.469 424.512 279.403C427.27 280.88 428.703 284.008 428.964 286.636C430.419 301.557 410.177 301.427 410.98 315.566C411.263 320.475 414.825 323.885 417.279 327.447C423.339 336.2 428.334 343.78 433.981 353.055C437.609 359.028 440.953 364.718 445.667 369.562C449.989 373.993 456.679 378.988 464.042 379.575C469.906 380.052 474.923 378.38 478.507 376.23C488.129 370.496 488.889 356.921 487.217 342.477C485.674 329.163 482.851 317.174 480.549 305.011C468.494 301.709 456.005 305.315 449.75 311.679C450.706 315.697 452.291 320.519 453.638 325.21C455.071 330.184 455.788 335.31 457.526 338.937C458.003 339.914 463.499 345.431 459.372 345.8C457.743 345.952 456.527 343.216 455.484 341.912C447.144 331.465 438.586 321.322 430.441 311.309C429.833 311.483 428.899 313.981 427.096 312.982ZM402.053 276.254C402.184 283.204 407.375 286.723 407.983 293.325C408.417 297.908 406.788 304.902 409.091 308.16C410.741 302.013 422.079 298.169 424.859 291.653C426.423 287.982 424.946 281.575 421.34 282.009C420.559 282.096 419.125 283.747 418.365 284.42C417.214 285.419 416.388 286.245 415.585 287.2C415.954 288.634 416.866 289.524 416.692 291.457C414.151 294.411 413.109 290.002 412.24 288.113C409.851 282.922 406.289 278.122 402.596 275.689H402.032V276.254H402.053ZM437.305 296.106C436.349 297.908 435.98 300.341 435.067 302.404C434.177 304.489 433.004 306.292 432.092 308.16C438.325 315.197 444.581 323.364 450.64 330.423C450.879 330.683 451.162 331.661 451.748 331.357C447.86 318.607 444.537 305.315 440.432 292.782C439.781 294.172 438.043 294.672 437.283 296.127L437.305 296.106ZM339.175 346.191C341.477 343.151 343.801 339.415 346.038 336.352C346.755 335.353 348.036 334.506 347.884 333.377C337.459 333.42 327.098 333.377 317.086 333.007C320.973 340.74 326.859 347.473 339.153 346.17L339.175 346.191Z" fill="#3F1651"/>
<path fill-rule="evenodd" clip-rule="evenodd" d="M184.468 140.657C181.492 137.182 190.549 134.033 195.219 134.359C198.542 134.576 204.776 136.248 204.493 138.811C204.254 141.114 201.452 139.984 199.867 139.376C198.064 138.681 195.914 138.073 194.307 138.073C189.811 138.073 188.225 141.005 184.468 140.679V140.657Z" fill="#3F1651"/>
<path fill-rule="evenodd" clip-rule="evenodd" d="M194.872 142.525C197.5 141.743 198.347 143.611 198.76 145.674C198.956 146.63 199.281 148.737 199.129 149.389C198.738 151.061 195.937 152.321 194.308 150.692C192.7 149.084 192.309 143.285 194.872 142.525Z" fill="#3F1651"/>
<path fill-rule="evenodd" clip-rule="evenodd" d="M219.15 146.217C222.756 146.043 223.538 154.297 219.324 154.188C215.979 154.101 214.741 146.434 219.15 146.217Z" fill="#3F1651"/>
<path fill-rule="evenodd" clip-rule="evenodd" d="M381.64 147.52C386.679 146.695 385.289 155.253 382.009 155.687C376.992 156.339 378.056 148.107 381.64 147.52Z" fill="#3F1651"/>
<path fill-rule="evenodd" clip-rule="evenodd" d="M160.184 148.085C162.226 147.151 163.551 149.888 164.81 151.43C165.983 152.864 169.719 156.882 166.114 157.36C164.724 157.555 159.446 151.712 159.25 150.127C159.076 148.65 159.598 148.346 160.184 148.085Z" fill="#3F1651"/>
<path fill-rule="evenodd" clip-rule="evenodd" d="M401.687 157.534C407.16 156.035 405.683 164.527 402.425 164.962C397.669 165.57 398.538 158.402 401.687 157.534Z" fill="#3F1651"/>
<path fill-rule="evenodd" clip-rule="evenodd" d="M195.612 162.355C197.458 161.617 198.305 163.485 199.5 164.592C200.238 165.287 201.216 166.178 202.475 166.808C204.256 167.72 209.556 167.894 209.904 169.588C210.729 173.78 202.714 171.065 201.194 170.326C198.87 169.197 194.635 166.286 194.526 164.201C194.461 163.094 194.939 162.616 195.634 162.355H195.612Z" fill="#3F1651"/>
<path fill-rule="evenodd" clip-rule="evenodd" d="M430.246 167.373C431.267 169.371 429.29 170.022 427.097 170.891C425.077 171.695 421.384 173.671 421.167 170.891C421.058 169.545 422.601 168.893 424.143 168.285C426.249 167.459 428.356 166.156 430.268 167.351L430.246 167.373Z" fill="#3F1651"/>
<path fill-rule="evenodd" clip-rule="evenodd" d="M384.988 175.713C387.225 174.431 392.634 176.321 393.893 173.302C390.896 173.693 388.181 173.541 385.553 172.564C384.576 172.194 382.751 171.391 382.577 170.326C381.904 166.156 386.9 169.675 389.267 169.957C393.937 170.544 397.651 168.458 398.346 171.434C399.367 175.756 392.46 178.797 389.441 178.862C386.987 178.906 383.924 178.428 384.988 175.713Z" fill="#3F1651"/>
<path fill-rule="evenodd" clip-rule="evenodd" d="M227.88 237.31C230.378 236.354 235.504 240.351 237.524 241.763C245.755 247.54 254.378 256.793 253.292 271.997C252.749 279.62 249.296 285.159 245.864 290.176C244.735 291.827 242.932 293.543 242.345 294.998C241.238 297.713 241.086 301.774 240.499 305.206C239.305 312.048 238.11 318.108 236.785 325.232C236.177 328.555 234.852 332.812 235.113 335.44C235.352 337.721 237.828 341.456 238.827 343.411C253.118 371.821 264.174 401.273 272.406 436.35C274.426 444.994 276.576 455.072 278.531 464.738C278.9 466.627 281.028 473.143 278.531 473.643C275.75 474.186 275.251 467.735 274.816 465.672C267.388 429.573 258.787 396.907 245.69 367.173C242.302 359.505 238.718 351.122 234.744 343.237C233.853 341.435 230.943 337.178 230.856 335.635C230.791 334.463 231.79 332.421 232.159 330.444C234.157 319.628 236.068 309.007 238.088 298.169C238.436 296.301 238.392 294.238 239.022 292.782C239.717 291.153 241.107 290.675 241.998 289.437C245.929 284.029 249.1 278.708 249.6 271.063C250.23 261.832 246.45 255.424 242.367 250.841C239.717 247.844 235.069 244.456 230.682 241.936C228.923 240.916 225.556 239.265 227.902 237.31H227.88Z" fill="#3F1651"/>
<path fill-rule="evenodd" clip-rule="evenodd" d="M123.085 392.563C122.911 393.606 123.758 397.233 123.65 398.319C123.454 400.035 120.696 404.292 119.762 406.29C111.769 423.427 106.643 444.299 104.363 467.496C104.254 468.713 104.363 471.275 102.321 471.21C99.3455 471.102 101.235 462.197 101.387 460.828C104.167 438.109 109.641 418.149 118.09 401.099C119.545 398.167 120.957 395.191 122.542 392.758C122.846 392.802 122.868 392.585 123.107 392.563H123.085Z" fill="#3F1651"/>
<path fill-rule="evenodd" clip-rule="evenodd" d="M290.308 260.225C289.178 260.334 287.81 261.181 287.332 261.333C284.465 253.405 283.944 241.741 288.635 236.116C295.13 228.319 309.465 227.493 310.529 213.853C310.985 207.859 309.877 203.189 308.118 198.649C305.447 200.517 307.076 203.232 306.815 206.447C306.12 215.048 299.17 219.261 291.785 221.108C288.809 221.846 285.399 222.28 283.075 224.083C280.469 226.081 278.84 229.752 277.689 233.922C277.298 235.377 277.211 236.941 275.473 236.702C272.606 236.311 275.799 228.71 276.407 227.428C277.624 224.865 279.991 221.846 282.163 220.565C285.79 218.436 290.112 218.393 293.848 217.046C299.256 215.07 303.448 211.898 303.492 204.427C295.651 207.902 287.875 213.05 279.926 217.046C280.056 218.762 281.077 220.565 279.557 221.499C276.798 221.694 276.624 218.11 276.212 216.112C274.757 209.01 274.778 200.365 269.718 196.999C269.479 200.973 271.042 203.493 271.021 207.207C270.999 212.094 268.936 215.526 267.676 219.457C266.438 223.323 265.308 227.493 265.634 232.988C265.895 237.159 267.459 241.177 268.045 245.608C269.848 259.117 266.959 274.039 266.937 288.265C266.937 299.494 268.61 311.983 270.652 322.213C270.89 323.386 271.585 325.428 270.087 325.732C269.435 325.862 268.871 326.535 268.045 323.516C263.614 307.444 264.157 285.572 265.07 266.936C265.308 261.984 265.46 255.99 265.265 250.994C265.07 245.89 263.679 241.394 262.854 237.072C261.855 231.924 262.376 226.755 263.419 222.237C264.765 216.373 268.045 211.833 267.502 205.73C267.22 202.559 264.418 193.806 268.979 193.306C271.803 193.002 274.865 197.064 276.038 199.431C278.015 203.471 278.167 208.445 279.014 213.527C281.251 213.093 283.162 211.66 285.139 210.552C291.025 207.25 297.171 203.71 303.318 200.539C303.557 197.064 307.293 193.849 310.551 196.282C313.896 193.676 325.624 188.81 326.689 196.847C332.162 200.778 323.17 207.272 320.564 210.009C317.045 213.701 314.873 217.155 312.397 220.217C309.856 230.404 295.521 231.381 290.33 239.504C287.093 244.565 288.31 253.448 290.33 260.268L290.308 260.225ZM312.006 199.019C312.071 199.931 312.527 200.474 312.571 201.43C315.59 199.127 318.544 196.76 323.322 196.238C319.087 194.588 315.047 197.65 312.006 199.019ZM313.483 205.317C313.657 207.62 314.004 209.748 313.852 212.376C317.284 207.967 321.715 204.535 324.973 199.953C319.434 199.301 316.35 202.689 313.483 205.339V205.317Z" fill="#3F1651"/>
<path fill-rule="evenodd" clip-rule="evenodd" d="M305.319 329.598C306.275 329.902 307.252 329.989 308.295 329.793C309.772 346.778 303.429 358.854 291.961 363.546C281.297 367.912 271.132 362.959 264.334 357.79C253.235 349.363 244.721 337.221 238.183 324.211C236.902 321.648 234.925 318.825 235.403 315.871C238.096 314.459 239.747 320.476 240.79 322.561C244.504 330.076 249.347 337.265 254.321 343.52C260.316 351.057 269.633 361.461 281.579 362.264C288.877 362.764 294.329 359.81 298.456 355.596C303.755 350.166 306.166 341.001 305.319 329.62V329.598Z" fill="#3F1651"/>
<path fill-rule="evenodd" clip-rule="evenodd" d="M194.368 299.602L206.205 297.995C206.205 297.995 207.878 299.19 207.878 299.602V306.357C207.878 306.357 208.877 310.766 208.877 311.114C208.877 311.461 209.138 321.757 209.268 321.952C209.398 322.147 208.725 329.358 208.399 329.771C208.073 330.184 202.839 333.268 202.187 333.724C201.514 334.202 195.975 334.593 195.172 332.117C194.368 329.641 194.368 299.602 194.368 299.602Z" fill="#EFEFEF"/>
<path fill-rule="evenodd" clip-rule="evenodd" d="M184.269 300.906C188.505 299.538 194.847 298.017 200.407 297.018C202.362 296.671 204.794 296.019 206.336 296.28C209.964 296.888 212.614 302.557 209.681 306.488C211.918 308.855 210.854 312.483 211.158 315.393C211.267 316.414 211.788 317.326 211.897 318.369C212.157 320.78 211.94 324.58 211.723 326.34C211.223 330.162 206.51 333.572 202.818 336.353C194.999 342.239 186.202 345.974 175.364 349.71C173.865 350.232 169.435 352.382 169.239 349.341C169.065 346.517 176.819 345.258 179.447 344.345C190.546 340.458 199.951 334.485 207.075 326.904C208.53 320.997 206.836 314.611 206.901 309.29C205.468 308.443 203.079 308.682 203.383 306.683C203.556 305.554 204.555 305.532 205.794 305.011C206.489 303.751 207.64 301.427 206.163 300.385C205.055 299.581 200.82 301.015 198.365 301.492C193.153 302.535 187.288 303.425 183.335 305.749C181.25 306.987 177.21 311.092 175.733 308.16C174.408 305.554 178.6 304.859 179.817 303.339C180.251 299.776 180.859 295.519 178.34 293.695C177.927 299.711 175.19 304.772 172.041 308.725C170.955 310.072 169.283 311.288 168.522 312.808C167.48 314.872 166.698 317.304 165.742 320.41C164.917 323.125 163.983 329.402 160.356 326.904C159.574 323.755 160.964 320.649 161.833 317.999C162.68 315.371 163.614 312.331 164.982 310.202C165.894 308.79 167.415 307.835 168.501 306.488C171.693 302.557 174.017 297.626 174.43 290.719C179.86 286.701 185.529 294.151 184.269 300.928V300.906Z" fill="#3F1651"/>
<path fill-rule="evenodd" clip-rule="evenodd" d="M299.623 287.592C301.469 289.851 306.117 295.02 302.403 298.169C305.161 300.971 303.141 304.902 298.884 305.033C296.039 305.12 289.393 302.882 290.913 299.472C294.084 298.495 296.039 302.491 299.992 301.319C297.603 296.909 291.847 295.867 287.742 293.152C284.397 294.52 284.028 298.929 285.896 301.492C286.96 302.948 288.698 303.686 290.153 304.272C291.348 304.75 294.388 305.315 294.41 306.879C294.497 309.854 289.241 307.748 288.481 307.444C286.417 306.575 284.245 305.098 283.29 303.925C281.617 301.862 281.9 299.711 281.248 297.235C280.683 295.15 278.989 293.651 278.468 291.306C278.316 290.611 278.468 289.959 278.294 289.264C277.099 284.855 273.32 279.143 276.817 274.603C278.381 272.562 281.986 271.172 285.896 271.454C290.175 271.758 293.194 273.626 295.909 276.08C298.689 278.6 304.206 284.529 299.623 287.592ZM285.722 274.972C279.793 274.603 277.556 278.361 279.597 283.682C280.357 283.139 280.922 282.357 281.813 281.836C282.681 281.315 284.18 280.272 284.788 280.164C285.874 279.99 286.461 280.641 287.395 280.902C291.565 282.075 294.041 283.226 297.777 284.421C296.191 280.554 291.608 275.32 285.722 274.951V274.972ZM293.15 286.853C291.261 286.223 288.068 284.638 286.482 284.442C281.9 283.899 280.879 289.155 282.964 292.783C284.224 290.632 286.352 289.416 289.089 289.633C293.563 289.981 296.235 294.086 300.036 294.824C298.971 292.674 296.148 287.831 293.172 286.853H293.15Z" fill="#3F1651"/>
<path fill-rule="evenodd" clip-rule="evenodd" d="M287.497 256.967C288.105 257.705 288.431 258.748 289.712 258.813C289.538 259.747 288.257 259.595 287.866 260.29C287.583 259.334 287.497 258.183 287.497 256.945V256.967Z" fill="#3F1651"/>
<path fill-rule="evenodd" clip-rule="evenodd" d="M265.242 257.705C265.394 257.662 265.415 257.77 265.415 257.901C265.871 261.81 267.652 266.067 267.826 270.15C268.022 274.581 267.088 279.816 267.088 285.181C267.088 298.451 268.239 309.746 270.433 321.344C270.606 322.278 272.083 326.535 269.694 326.904C266.87 327.339 266.545 321.235 266.175 319.107C262.983 300.862 262.787 279.707 264.329 259.008C264.872 258.813 264.981 258.161 265.263 257.705H265.242Z" fill="#3F1651"/>
<path fill-rule="evenodd" clip-rule="evenodd" d="M304.377 330.792C305.246 330.683 306.767 331.509 308.461 331.161C308.743 342.651 307.309 350.079 302.705 356.204C298.47 361.873 291.845 366.564 282.484 366.586C269.083 366.608 258.722 355.726 252.25 347.864C247.015 341.5 242.15 333.724 237.785 325.601C237.046 324.211 231.79 316.088 235.938 316.131C238.327 316.174 239.891 321.322 240.76 322.994C247.472 335.874 254.704 347.169 265.977 355.835C270.755 359.505 275.707 362.633 282.288 362.698C289.912 362.785 296.515 358.463 300.099 353.228C303.921 347.646 304.985 340.262 304.356 330.792H304.377Z" fill="#3F1651"/>
</g>
<defs>
<clipPath id="clip0_3_4921">
<rect width="561" height="475.446" fill="white"/>
</clipPath>
</defs>
</svg>
